<?xml version="1.0" encoding="utf-8"?>
<!-- Generator: Adobe Illustrator 22.0.1, SVG Export Plug-In . SVG Version: 6.00 Build 0)  -->
<svg version="1.1" id="Layer_1" xmlns="http://www.w3.org/2000/svg" xmlns:xlink="http://www.w3.org/1999/xlink" x="0px" y="0px"
	 viewBox="0 0 393.5 393.5" style="enable-background:new 0 0 393.5 393.5;" xml:space="preserve">
<style type="text/css">
	.st0{fill:#00C3FF;}
</style>
<path class="st0" d="M384,363.1l-121.2-58.3l-0.9-264.1c0-6.2,6.4-10.2,12-7.6l114.9,55.3c2.9,1.4,4.7,4.3,4.7,7.5v261.2
	C393.5,362,388.4,365.2,384,363.1z"/>
<path class="st0" d="M262.8,304.8l-131.2-63.1L257.9,33.8c2.2-3.7,6.9-5.1,10.8-3.2l116.5,56c4.5,2.1,6.1,7.7,3.5,11.9L262.8,304.8z
	"/>
<path class="st0" d="M262.8,304.8l-131.2-63.1L11.4,45.9c-3.4-5.5,2.5-11.9,8.2-9.1l112,53.9L262.8,304.8z"/>
<path class="st0" d="M122.2,363.1L3.8,306.1c-2.3-1.1-3.8-3.4-3.8-6V37.5c0-4.7,4.9-7.8,9.2-5.8l122.5,58.9v266.5
	C131.7,362,126.6,365.2,122.2,363.1z"/>
</svg>
