<?xml version="1.0" encoding="utf-8"?>
<!-- Generator: Adobe Illustrator 22.0.1, SVG Export Plug-In . SVG Version: 6.00 Build 0)  -->
<svg version="1.1" id="Layer_1" xmlns="http://www.w3.org/2000/svg" xmlns:xlink="http://www.w3.org/1999/xlink" x="0px" y="0px"
	 viewBox="0 0 177.5 57.3" style="enable-background:new 0 0 177.5 57.3;" xml:space="preserve">
<style type="text/css">
	.st0{opacity:0.19;fill:#010101;}
	.st1{fill:#010101;}
	.st2{fill:#4D4D4D;}
	.st3{fill:#1D1C1A;}
	.st4{fill-rule:evenodd;clip-rule:evenodd;fill:#010101;}
</style>
<g>
	<path d="M21,8.3c0.1,0.7,0.1,1.3,0.2,1.9c0.3,1.9,1.1,3.6,2.3,5.1c1,1.2,2.1,2.1,3.4,3c1.7,1.1,3.5,2.1,5.4,2.9
		c1.9,0.8,3.8,1.5,5.7,2.3c1.1,0.4,2.1,0.9,3.1,1.4c0.5,0.3,1,0.6,1.4,1c0.4,0.3,0.6,0.7,0.8,1.2c0.1,0.5,0,0.9-0.2,1.3
		c-0.1,0.3-0.3,0.5-0.4,0.8c-0.6,1.3-0.6,2.5,0.2,3.7c0.3,0.5,0.8,1,1.2,1.5c0.5,0.6,1.1,1.2,1.6,1.9c0.7,0.9,1.3,1.9,1.6,3
		c0.4,1.3,0.3,2.6,0,4c-0.3,1.2-0.7,2.4-1.2,3.5c-0.1,0.2-0.2,0.2-0.4,0.3c-1.8,0.3-3.5,0.4-5.3,0.3c-2.3-0.1-4.5-0.6-6.6-1.3
		c-7.9-2.7-14-9.3-16.1-17.3c-0.6-2.2-0.8-4.4-0.8-6.6c0.1-4.9,1.5-9.4,4.2-13.5C20.9,8.4,21,8.3,21,8.3z"/>
	<path d="M74.8,39.1c0-10.2,0-20.4,0-30.6c0.1,0,0.2,0,0.3,0c4.8,0,9.6,0,14.4,0c1.9,0,3.7,0.3,5.4,1.2c1.8,0.9,3.1,2.1,3.9,4
		c0.3,0.8,0.5,1.6,0.5,2.5c0,1,0,2-0.3,2.9c-0.5,1.6-1.4,2.8-2.7,3.7c-0.1,0.1-0.2,0.2-0.3,0.2c0,0,0,0,0,0.1c0.1,0,0.2,0.1,0.3,0.1
		c0.8,0.4,1.5,0.8,2.1,1.3c1.2,1,2,2.3,2.3,3.8c0.3,1.5,0.3,3-0.1,4.5c-0.5,2-1.7,3.5-3.4,4.5c-1.2,0.7-2.4,1.1-3.7,1.4
		c-1.3,0.3-2.7,0.4-4,0.4c-4.8,0-9.6,0-14.4,0C75.1,39.1,75,39.1,74.8,39.1z M82.1,32.5c0.2,0,0.3,0,0.4,0c1.8,0,3.7,0,5.5,0
		c0.5,0,1.1,0,1.6,0c0.8,0,1.5-0.1,2.2-0.4c1-0.4,1.5-1.1,1.6-2.1c0.1-1.2-0.4-2-1.5-2.5c-0.2-0.1-0.3-0.1-0.5-0.2
		c-0.7-0.2-1.5-0.3-2.2-0.3c-2.3,0-4.7,0-7,0c-0.1,0-0.2,0-0.3,0C82.1,28.8,82.1,30.6,82.1,32.5z M82.1,15.2c0,1.8,0,3.5,0,5.3
		c0.1,0,0.3,0,0.4,0c1.7,0,3.3,0,5,0c0.5,0,1,0,1.4-0.1c0.6-0.1,1.2-0.2,1.7-0.5c0.5-0.3,0.9-0.7,1.1-1.2c0.5-1.4-0.1-2.7-1.5-3.2
		c-0.1,0-0.2-0.1-0.3-0.1c-0.6-0.2-1.3-0.2-1.9-0.2c-1.8,0-3.7,0-5.5,0C82.3,15.2,82.2,15.2,82.1,15.2z"/>
	<path d="M48.6,46.2c0.1-0.2,0.2-0.3,0.2-0.4c0.8-1.4,1.8-2.8,2.9-4.1c2.2-2.9,4.6-5.6,6.9-8.4c0.5-0.6,1-1.2,1.5-1.9
		c0.4-0.6,0.7-1.2,0.9-2c0.2-0.9,0-1.7-0.6-2.4c-0.4-0.5-0.9-0.8-1.4-1.1c-1-0.6-2.1-1-3.2-1.3c-1.7-0.5-3.5-0.9-5.2-1.3
		c-2.4-0.5-4.8-1-7.2-1.7c-1.4-0.4-2.7-0.9-4-1.5c-0.9-0.5-1.7-1-2.4-1.7c-0.8-0.7-1.3-1.6-1.6-2.6c-0.3-1.1-0.1-2.1,0.4-3.1
		c0.4-0.8,1-1.5,1.7-2.1c0.9-0.9,1.9-1.6,3-2.2c1.9-1.2,3.9-2.2,5.9-3.1c2.6-1.1,5.2-2.2,7.8-3.4c0.3-0.1,0.6-0.2,0.9-0.4
		c0.2-0.1,0.3-0.1,0.5,0.1c2.4,1.6,4.5,3.6,6.2,6c2.3,3.1,3.7,6.6,4.4,10.3c0.4,2,0.5,4.1,0.3,6.2c-0.5,6-2.8,11.3-7,15.6
		c-2.9,3-6.4,5.2-10.5,6.4C49,46.1,48.8,46.1,48.6,46.2z M45.2,16.5c0.4,0,0.7,0,1.1-0.1c0.6-0.1,0.7-0.5,0.3-0.9
		c-0.1-0.1-0.2-0.2-0.3-0.3c-0.2-0.2-0.4-0.3-0.7-0.4c-1-0.5-2-0.8-3.1-0.8c-0.7,0-1.3,0.1-1.9,0.3c-0.4,0.1-0.4,0.4-0.2,0.7
		c0.1,0.2,0.3,0.3,0.5,0.5c0.4,0.3,0.9,0.5,1.4,0.6C43.3,16.3,44.2,16.5,45.2,16.5z M50.1,17.5c0.3-0.1,0.5-0.1,0.8-0.2
		c0.3-0.1,0.3-0.3,0.1-0.5c-0.1-0.1-0.3-0.3-0.5-0.3c-0.6-0.3-1.3-0.5-1.9-0.5c-0.1,0-0.3,0-0.4,0c-0.2,0.1-0.3,0.2-0.2,0.4
		c0.1,0.1,0.2,0.2,0.3,0.3C48.8,17.1,49.4,17.4,50.1,17.5z M52.5,19.5C52.5,19.5,52.5,19.5,52.5,19.5c0,0,0.1,0,0.1,0
		c0.1,0,0.3,0,0.3-0.1c0-0.1-0.1-0.2-0.2-0.2c-0.3-0.2-0.5-0.3-0.9-0.3c-0.2,0-0.3,0-0.5,0.1c-0.1,0.1-0.2,0.2,0,0.3
		c0.1,0.1,0.2,0.1,0.3,0.1C52,19.4,52.2,19.4,52.5,19.5z"/>
	<path d="M111.9,8.5c0.1,0,0.2,0,0.3,0c4.1,0,8.1,0,12.2,0c3.4,0,6.6,0.9,9.4,2.9c3.3,2.3,5.4,5.4,6.1,9.4c0.6,3.3,0.3,6.6-1.2,9.6
		c-1.7,3.5-4.3,5.9-7.9,7.4c-1.5,0.6-3.1,1-4.7,1.2c-0.7,0.1-1.5,0.1-2.2,0.1c-3.9,0-7.8,0-11.7,0c-0.1,0-0.2,0-0.3,0c0,0,0,0,0,0
		c0,0,0,0,0,0c0-0.1,0-0.1,0-0.2c0-10.1,0-20.2,0-30.2C111.9,8.6,111.9,8.6,111.9,8.5z M119.4,15.3c0,5.7,0,11.3,0,17
		c0.1,0,0.2,0,0.3,0c1.5,0,2.9,0,4.4,0c0.8,0,1.5-0.1,2.3-0.3c2.8-0.7,4.8-2.4,5.7-5.2c0.7-2,0.6-4,0-6.1c-0.7-2.3-2.2-3.9-4.4-4.8
		c-1.1-0.5-2.3-0.7-3.5-0.7c-1.5,0-2.9,0-4.4,0C119.6,15.3,119.5,15.3,119.4,15.3z"/>
	<path d="M109.7,39.1c-2.5,0-5,0-7.4,0c0-10.2,0-20.4,0-30.6c0.1,0,0.2,0,0.3,0c1.3,0,2.6,0,3.9,0c0.2,0,0.3,0.1,0.5,0.1
		c1.7,0.5,2.8,1.9,2.8,3.6c0,2.8,0,5.5,0,8.3c0,6.1,0,12.1,0,18.2C109.7,38.8,109.7,39,109.7,39.1z"/>
	<path d="M81.9,46.9c-1,1.5-2.1,3-3.2,4.6c-1.1-1.6-2.1-3.1-3.2-4.6c0,0,0,0-0.1,0c0,0.1,0,0.2,0,0.3c0,2.1,0,4.1,0,6.2
		c0,0.1,0,0.3,0,0.4c-0.2,0-0.4,0-0.6,0c0-2.7,0-5.4,0-8.1c0.1,0,0.3,0,0.4,0c0.1,0,0.2,0.1,0.2,0.1c0,0,0.1,0.1,0.1,0.2
		c1,1.4,1.9,2.8,2.9,4.2c0.1,0.1,0.1,0.2,0.2,0.3c0.1-0.1,0.2-0.2,0.2-0.3c0.9-1.4,1.9-2.8,2.8-4.2c0.2-0.3,0.5-0.4,0.8-0.3
		c0,2.7,0,5.4,0,8.1c-0.2,0-0.4,0-0.6,0C82,51.5,82,49.2,81.9,46.9C82,46.9,81.9,46.9,81.9,46.9z"/>
	<path d="M122.8,53.8c-0.1,0-0.2,0-0.3,0c-0.1,0-0.1,0-0.2,0c0-0.4,0-0.8,0-1.2c-0.2,0-0.2,0.2-0.3,0.3c-0.4,0.5-0.9,0.9-1.5,1
		c-1.3,0.3-2.6-0.3-3.2-1.6c-0.5-1.1-0.5-2.2,0.2-3.2c0.7-1.2,2.3-1.7,3.5-1.1c0.4,0.2,0.8,0.5,1,0.8c0.1,0.1,0.1,0.2,0.3,0.3
		c0-1.3,0-2.5,0-3.8c0.2,0,0.4,0,0.6,0C122.8,48.2,122.8,51,122.8,53.8z M117.5,50.8c0,0.3,0.1,0.6,0.1,0.8c0.3,1.4,1.6,2.1,2.9,1.7
		c1-0.3,1.7-1.3,1.7-2.4c0-1.2-0.6-2.1-1.7-2.5c-1.1-0.4-2.5,0.1-2.9,1.5C117.6,50.2,117.6,50.5,117.5,50.8z"/>
	<path d="M148.3,49.1c0-1.3,0-2.5,0-3.8c0.2,0,0.4,0,0.5,0c0.1,0.3,0.1,8.2,0,8.5c-0.2,0-0.3,0-0.5,0c0-0.4,0-0.8,0-1.3
		c-0.2,0.2-0.3,0.4-0.4,0.5c-0.4,0.4-0.8,0.7-1.4,0.8c-1.2,0.2-2.1-0.1-2.9-1c-0.9-1.1-0.8-2.9,0-4c1.1-1.3,3.1-1.5,4.3-0.2
		C148,48.8,148.1,48.9,148.3,49.1z M148.3,50.9c0-1.1-0.6-2-1.6-2.4c-1.2-0.5-2.6,0.1-3,1.3c-0.2,0.6-0.2,1.3,0,2
		c0.4,1.3,1.7,2,3,1.5C147.7,53,148.3,52,148.3,50.9z"/>
	<path d="M154.6,50.4c0.1-1.4-0.7-1.9-1.6-2c-0.6,0-1.2,0.1-1.8,0.3c-0.1,0-0.2,0.1-0.3,0.1c0,0,0,0-0.1,0c-0.1-0.1-0.1-0.3-0.2-0.4
		c0.3-0.2,0.7-0.3,1.1-0.4c0.6-0.1,1.2-0.2,1.8-0.1c1,0.2,1.7,0.9,1.8,2c0,1.3,0,2.6,0,3.8c0,0,0,0,0,0.1c-0.2,0-0.3,0-0.5,0
		c0-0.3,0-0.6,0-0.9c-0.1,0.1-0.2,0.2-0.3,0.3c-0.9,0.9-2.3,1.1-3.4,0.5c-0.8-0.4-1.1-1.2-0.9-2c0.1-0.5,0.4-0.9,0.9-1.1
		c0.4-0.2,0.8-0.3,1.2-0.3c0.7-0.1,1.4,0,2.1,0.2C154.4,50.4,154.5,50.4,154.6,50.4C154.6,50.4,154.6,50.4,154.6,50.4z M154.7,51
		C154.6,50.9,154.6,50.9,154.7,51c-0.9-0.3-1.7-0.4-2.5-0.3c-0.3,0-0.6,0.1-0.9,0.3c-0.4,0.2-0.6,0.5-0.6,1c0,0.6,0.3,1.1,0.9,1.3
		c0.9,0.3,1.8,0.2,2.5-0.4c0.3-0.2,0.5-0.6,0.6-1C154.7,51.6,154.7,51.3,154.7,51z"/>
	<path d="M89.6,51.1c-1.6,0-3.3,0-4.9,0c0.1,0.9,0.5,1.6,1.3,2.1c0.5,0.3,1.1,0.3,1.7,0.2c0.6-0.1,1-0.5,1.5-0.9
		c0.1,0.1,0.2,0.2,0.4,0.3c-0.5,0.5-1.1,1-1.9,1.1c-1.1,0.2-2-0.1-2.7-0.9c-0.4-0.4-0.7-1-0.7-1.6c-0.1-0.8,0-1.5,0.4-2.2
		c0.8-1.5,2.5-1.8,3.6-1.2c0.8,0.4,1.2,1.2,1.4,2C89.6,50.4,89.6,50.7,89.6,51.1z M88.9,50.6c0-1.3-0.9-2.3-2.1-2.3
		c-1.2,0-2.2,1.1-2.1,2.3C86.1,50.6,87.5,50.6,88.9,50.6z"/>
	<path d="M108.5,50.4c0.2-1.3-0.6-1.9-1.6-2c-0.6,0-1.2,0.1-1.8,0.3c-0.1,0-0.2,0.1-0.3,0.1c-0.1-0.2-0.1-0.3-0.2-0.5
		c0.4-0.2,0.8-0.4,1.2-0.4c0.6-0.1,1.2-0.1,1.8,0c1,0.3,1.6,0.9,1.6,1.9c0,1.3,0,2.6,0,3.9c0,0,0,0,0,0.1c-0.2,0-0.3,0-0.5,0
		c0-0.3,0-0.6,0-0.9c-0.1,0.1-0.2,0.1-0.2,0.2c-0.8,0.9-2.2,1.1-3.3,0.6c-0.7-0.3-1.1-0.8-1.1-1.6c0-0.8,0.4-1.3,1.1-1.6
		c0.3-0.2,0.7-0.3,1.1-0.3c0.7-0.1,1.4,0,2.1,0.2C108.3,50.4,108.4,50.4,108.5,50.4z M108.5,50.9c-0.9-0.2-1.7-0.3-2.6-0.2
		c-0.2,0-0.5,0.1-0.7,0.2c-0.3,0.1-0.5,0.4-0.6,0.7c-0.2,0.7,0.1,1.4,0.8,1.6c0.9,0.3,1.7,0.2,2.5-0.4c0.3-0.2,0.6-0.6,0.6-1
		C108.5,51.6,108.5,51.3,108.5,50.9z"/>
	<path d="M95.9,54c-1.7,0-3-1.4-3-3.1c0-1.8,1.4-3.2,3.1-3.1c1.7,0,3,1.4,3,3.1C98.9,52.6,97.6,54,95.9,54z M98.3,50.9
		c0-0.2,0-0.5-0.1-0.7c-0.3-1.1-1.2-1.9-2.3-1.9c-1.1,0-2,0.6-2.4,1.7c-0.1,0.4-0.1,0.8-0.1,1.2c0.2,1.5,1.7,2.5,3.1,2.1
		C97.6,53,98.3,52.1,98.3,50.9z"/>
	<path d="M124.2,50.9c0-1.4,0.9-2.7,2.3-3c1.8-0.4,3.5,0.7,3.8,2.5c0.2,1.6-0.6,3-2.1,3.5C126.1,54.5,124.2,53,124.2,50.9z
		 M129.7,50.9c0-0.1,0-0.3,0-0.4c0-0.1,0-0.2-0.1-0.3c-0.3-1.1-1.2-1.9-2.3-1.9c-1.1,0-2.1,0.7-2.4,1.7c-0.1,0.4-0.1,0.8-0.1,1.2
		c0.2,1.5,1.7,2.5,3.1,2.1C129,53,129.7,52.1,129.7,50.9z"/>
	<path d="M115.7,53.8c-0.2,0-0.3,0-0.5,0c0-0.1,0-0.2,0-0.3c0-1,0-2.1,0-3.1c0-0.3,0-0.6-0.1-0.8c-0.2-0.8-0.8-1.2-1.6-1.3
		c-1-0.1-1.9,0.6-2.2,1.6c0,0.2-0.1,0.4-0.1,0.7c0,1,0,1.9,0,2.9c0,0.1,0,0.2,0,0.4c-0.2,0-0.3,0-0.5,0c-0.1-0.2-0.1-5.4,0-5.9
		c0.2,0,0.3,0,0.5,0c0,0.3,0,0.6,0,1c0.1-0.1,0.2-0.2,0.2-0.3c0.9-1.1,2.5-1,3.3-0.5c0.5,0.3,0.8,0.9,0.9,1.5c0,0.2,0.1,0.4,0.1,0.6
		c0,1.1,0,2.2,0,3.3C115.8,53.6,115.7,53.7,115.7,53.8z"/>
	<path d="M160.7,48.4c-0.1,0.2-0.2,0.3-0.3,0.5c-0.1-0.1-0.2-0.1-0.3-0.2c-0.6-0.3-1.2-0.5-1.9-0.4c-0.3,0-0.6,0.2-0.8,0.4
		c-0.3,0.4-0.3,0.9,0.1,1.2c0.2,0.1,0.4,0.2,0.6,0.3c0.4,0.2,0.9,0.3,1.3,0.4c0.2,0.1,0.4,0.1,0.6,0.3c0.9,0.5,1,1.6,0.3,2.3
		c-0.4,0.4-0.8,0.5-1.3,0.6c-0.8,0.1-2.1-0.3-2.7-0.9c0-0.1,0.1-0.1,0.1-0.2c0-0.1,0.1-0.1,0.2-0.2c0.1,0.1,0.2,0.1,0.3,0.2
		c0.6,0.4,1.3,0.6,2,0.6c0.3,0,0.6-0.1,0.9-0.3c0.6-0.4,0.6-1.2-0.1-1.6c-0.3-0.2-0.7-0.3-1.1-0.4c-0.3-0.1-0.6-0.2-0.9-0.3
		c-0.2-0.1-0.3-0.1-0.5-0.2c-0.7-0.4-0.8-1.1-0.5-1.7c0.3-0.6,0.8-0.9,1.4-1c0.9-0.1,1.7,0.1,2.4,0.6
		C160.6,48.4,160.6,48.4,160.7,48.4z"/>
	<path d="M136.9,53.1c0.7-1.7,1.5-3.5,2.2-5.2c0.2,0,0.4,0,0.6,0c-0.9,2-1.8,4-2.7,6c-0.1,0-0.2,0-0.3,0c-0.2,0-0.2-0.1-0.3-0.2
		c-0.8-1.9-1.6-3.7-2.5-5.6c0-0.1,0-0.1-0.1-0.2c0.2,0,0.4,0,0.6,0C135.4,49.7,136.1,51.4,136.9,53.1
		C136.9,53.1,136.9,53.1,136.9,53.1z"/>
	<path d="M100.8,47.9c0,0.5,0,1,0,1.5c0,0,0,0,0.1,0c0.6-1,1.3-1.6,2.6-1.6c0,0.1,0,0.2,0,0.3c0,0.1,0,0.2,0,0.3c-0.1,0-0.2,0-0.4,0
		c-1.2,0.2-2,1-2.2,2.2c-0.1,0.3-0.1,0.6-0.1,0.9c0,0.7,0,1.3,0,2c0,0.1,0,0.2,0,0.3c-0.2,0-0.4,0-0.5,0c-0.1-0.2-0.1-5.4,0-5.9
		c0.1,0,0.2,0,0.2,0C100.6,47.9,100.7,47.9,100.8,47.9z"/>
	<path d="M89.7,55.7c0-0.1,0-0.3,0-0.4c0.1,0,0.3,0,0.4,0c0.4,0,0.7-0.2,0.7-0.6c0-0.1,0-0.2,0-0.4c0-2,0-3.9,0-5.9
		c0-0.1,0-0.3,0-0.4c0.2,0,0.4,0,0.6,0c0,0.1,0,0.2,0,0.3c0,2,0,4.1,0,6.1C91.4,55.4,90.8,55.9,89.7,55.7
		C89.8,55.7,89.7,55.7,89.7,55.7z"/>
	<path d="M141,47.9c0.2,0,0.3,0,0.5,0c0,2,0,3.9,0,5.9c-0.1,0-0.2,0-0.3,0c-0.1,0-0.2,0-0.3,0C141,51.9,141,49.9,141,47.9z"/>
	<path d="M141.6,45.6c0,0.2,0,0.5,0,0.7c-0.2,0-0.4,0-0.7,0c0-0.2,0-0.5,0-0.7C141.2,45.6,141.4,45.6,141.6,45.6z"/>
	<path d="M90.8,45.6c0.2,0,0.4,0,0.7,0c0,0.3,0,0.5,0,0.7c-0.2,0-0.4,0-0.6,0C90.8,46.1,90.8,45.8,90.8,45.6z"/>
</g>
</svg>
