<?xml version="1.0" encoding="utf-8"?>
<!-- Generator: Adobe Illustrator 22.0.1, SVG Export Plug-In . SVG Version: 6.00 Build 0)  -->
<svg version="1.1" id="Layer_1" xmlns="http://www.w3.org/2000/svg" xmlns:xlink="http://www.w3.org/1999/xlink" x="0px" y="0px"
	 viewBox="0 0 177.5 57.3" style="enable-background:new 0 0 177.5 57.3;" xml:space="preserve">
<style type="text/css">
	.st0{opacity:0.19;fill:#010101;}
	.st1{fill:#010101;}
	.st2{fill:#4D4D4D;}
	.st3{fill:#1D1C1A;}
	.st4{fill-rule:evenodd;clip-rule:evenodd;fill:#010101;}
</style>
<g>
	<g>
		<path d="M52.9,0v0.5v56.1v0.6c-0.2,0-0.2,0.1-0.3,0.1h-0.4H21.9h-0.7c0-0.2-0.1-0.2-0.1-0.3v-0.5c0.1-20.7,0.1-35.3,0.1-55.8V0
			H52.9z M49.7,36.6h0.5c0.2,0,0.3-0.2,0.5-0.3c0.2-0.2,0.1-0.5,0-0.7C50.2,36,50.4,36,49.7,36h-0.8c-0.5,0-0.9,0.3-1.1,0.8
			c-0.1,0.3-0.1,0.5,0.1,0.9c0.2,0.3,0.3,0.5,0.5,0.8c0.2,0.2,0.4,0.5,0.5,0.8c0.3,0.5-0.1,1-0.7,1c-0.2,0-0.5-0.1-0.6-0.2
			c-0.2-0.9-0.4-1.7-1.1-2.3c-0.2,0-0.2,0.1-0.3,0.1c-0.6,0.2-1.2,0.1-1.8-0.2c-0.2-0.2-0.5-0.2-0.7-0.3c-0.2-0.1-0.5-0.1-0.8,0.1
			c-0.2,0.1-0.3,0.2-0.5,0.3c-0.3,0.2-0.5,0.5-0.9,0.6c-0.1,0.1-0.2,0.1-0.2,0.1c0-0.1-0.1-0.2-0.1-0.3c-0.1-1.2,0-3.3,0.1-3.6
			c0.2,0.1,0.2,0.2,0.2,0.3c0,0.2-0.1,0.3,0.2,0.4c0.2-0.2,0.3-0.2,0.5-0.1c0.1,0.1,0.2,0.2,0.3,0.2c0.2,0.1,0.2,0.2,0.4,0.2
			c0.2-0.3,0.5-0.5,0.7-0.9c-0.1,0-0.2-0.1-0.2-0.1c-0.2-0.1-0.5-0.2-0.8-0.3c-0.2-0.1-0.4-0.2-0.5-0.5c0-0.2-0.1-0.2-0.2-0.3
			c-0.1-0.1-0.2-0.2-0.3-0.2c-0.2-0.1-0.2-0.2-0.5,0c0.1,0.2,0.1,0.2,0.2,0.4l-0.1,0.1H41c-0.9-0.2-1.9-0.4-3-0.5
			c-0.9-0.1-1.9,0-2.8,0.2c-0.2,0-0.3,0.1-0.5,0.2c-0.4,0.2-0.4,0.4-0.4,0.6v0.5c0,0.1-0.1,0.2-0.2,0.2c-0.2,0-0.2-0.1-0.2-0.2V34
			v-0.4c-0.2,0.1-0.4,0.1-0.6,0.2c-0.1,0-0.2,0.1-0.2-0.1c0-0.1,0-0.2,0.1-0.2c0-0.1,0.1-0.1,0.1-0.2c-0.2-0.1-0.3-0.1-0.4,0
			c-0.2,0.2-0.6,0.3-0.7,0.7c0,0.1-0.2,0.2-0.2,0.3c-0.3,0.2-0.6,0.3-0.9,0.4c-0.1,0-0.2,0.1-0.2,0.1c0.3,0.2,0.5,0.5,0.7,0.9
			c0.3-0.2,0.5-0.5,0.9-0.7c0.1,0.1,0.2,0.1,0.2,0.2c0.2-0.1,0.2-0.2,0.2-0.4v-0.2c0.1-0.1,0.1-0.2,0.2-0.1v0.3v3.1v0.2
			c0,0.1-0.1,0.2-0.2,0.2c-0.1-0.1-0.2-0.1-0.3-0.2c-0.3-0.2-0.7-0.5-1-0.7c-0.5-0.3-0.9-0.3-1.3-0.1c-0.2,0.1-0.4,0.2-0.6,0.3
			c-0.4,0.2-0.9,0.3-1.3,0.2c-0.2-0.1-0.4-0.1-0.5-0.2c-0.8,0.6-0.9,1.5-1.2,2.3c-0.2,0.1-0.5,0.2-0.6,0.2c-0.6,0-0.9-0.4-0.7-0.9
			c0-0.1,0.1-0.2,0.1-0.2c0.1-0.2,0.2-0.3,0.3-0.4c0.2-0.2,0.3-0.4,0.5-0.5c0.2-0.3,0.4-0.6,0.3-1.1c-0.1-0.6-0.5-1-1.2-1h-0.9
			c-0.3,0-0.6-0.1-0.8-0.3h-0.1c-0.1,0.2-0.2,0.3-0.1,0.5c0.1,0.4,0.3,0.5,0.5,0.5c0.2,0,0.3-0.1,0.5,0.1c0,0.4,0,0.4,0.1,0.5
			c0.1-0.1,0.2-0.2,0.2-0.3c0.2-0.2,0.4-0.3,0.6-0.4c0.1-0.2,0.3-0.2,0.5,0.1c0.2,0.2,0.2,0.5,0.2,0.7c-0.1,0.2-0.2,0.3-0.2,0.5
			c-0.1,0.2-0.2,0.2-0.3,0.4c-0.2,0.2-0.5,0.5-0.6,0.8c-0.4,0.7-0.2,1.4,0.5,1.7c0.2,0.1,0.5,0.2,0.8,0.2h0.5c0,0.5-0.2,0.7-0.5,0.9
			c-0.2,0.1-0.4,0.2-0.5,0.1c-0.2-0.1-0.2-0.2-0.2-0.3h-0.1c-0.2,0.4,0,0.6,0.3,0.8c-0.2,0.3-0.2,0.6-0.2,0.9v0.9
			c0,0.4,0,0.4-0.4,0.5c0,0,0,0.1-0.1,0.1c0.2,0.3,0.5,0.2,0.9,0.1c0.1,0.2,0.1,0.2-0.1,0.5c0.2,0,0.3,0,0.4-0.1
			c0.2-0.2,0.5-0.2,0.7-0.2H27c0.3-0.1,0.5,0,0.6,0.2h0.1c0.2-0.3,0.1-0.5-0.1-0.7v-0.1c0.2,0,0.2,0.1,0.4,0.1
			c0.1-0.2,0-0.2-0.1-0.4c-0.2-0.2-0.4-0.1-0.7-0.1c0.2-0.2,0.2-0.2,0.3-0.4c-0.1,0-0.1-0.1-0.2-0.1c-0.2-0.1-0.4,0-0.5,0.2
			c-0.2,0.2-0.4,0.2-0.6,0.1c0-0.2,0.1-0.2,0.1-0.4c0.1-0.5,0.4-0.9,0.9-1c0.2-0.1,0.3-0.2,0.5-0.2c0.3-0.1,0.6-0.2,0.8-0.5
			c0.6,0.1,0.7,0.1,0.8-0.3c-0.4,0-0.5-0.1-0.7-0.4c-0.1-0.1-0.1-0.2-0.1-0.3c-0.1-0.5,0-0.9,0.2-1.2c0.4-0.6,1-1,1.7-1.2
			c0.6-0.2,1.3,0.1,1.9,0.5v0.2c0.2,0,0.3,0.1,0.5,0.1v0.4c0.2-0.1,0.3-0.2,0.4-0.2v0.3v0.7c0,0.5,0.2,0.9,0.5,1.2
			c0.2,0.2,0.5,0.4,0.7,0.5c0.5,0.3,1.2,0.6,1.7,0.9c0.4,0.2,0.7,0.4,1.1,0.6c0.1,0,0.2-0.1,0.2-0.1c0.6-0.4,1.3-0.8,2-1.1
			c0.4-0.2,0.7-0.4,1-0.6c0.6-0.4,0.9-0.9,0.9-1.7v-0.8c0.2,0,0.3,0.2,0.5,0.1c-0.1-0.1-0.1-0.2-0.2-0.3c-0.1-0.2,0-0.2,0.2-0.2h0.3
			c0-0.3,0-0.4,0.2-0.5c0.2-0.1,0.3-0.2,0.5-0.2c0.4-0.2,0.7-0.2,1.1-0.1c0.6,0.2,1.2,0.5,1.6,0.9c0.3,0.3,0.5,0.8,0.5,1.2
			c0,0.2-0.1,0.5-0.2,0.7c-0.1,0.2-0.3,0.2-0.5,0.3c0,0-0.1,0-0.1,0.1c0.2,0.4,0.5,0.2,0.8,0.2c0.2,0.3,0.6,0.5,0.9,0.5
			c0.8,0.2,1.2,0.7,1.2,1.6c-0.2,0.1-0.4,0.1-0.5,0c-0.1-0.1-0.2-0.2-0.2-0.2c-0.2-0.1-0.3-0.1-0.5,0.1c0,0.2,0.3,0.2,0.2,0.4
			c-0.5,0-0.7,0.1-0.6,0.5c0.2,0,0.2-0.2,0.4,0c-0.3,0.5-0.3,0.5,0,0.8c0-0.1,0.1-0.1,0.1-0.2c0.1-0.2,0.3-0.2,0.5-0.2
			c0.2,0.1,0.5,0.1,0.7,0c0.2,0.2,0.4,0.3,0.6,0.2c-0.1-0.1-0.1-0.2-0.2-0.3c-0.1-0.1,0.1-0.2,0.2-0.2c0.2,0,0.3,0.1,0.5,0.1
			c0.2,0,0.2-0.1,0.2-0.2l-0.1-0.1c-0.4-0.2-0.4-0.2-0.3-0.6c0.1-0.5,0.2-1.2-0.2-1.7c0.1-0.1,0.2-0.2,0.2-0.2
			c0.1-0.2,0.2-0.3,0.1-0.5c0-0.1-0.1-0.1-0.1-0.2c-0.1,0.1-0.2,0.2-0.2,0.3c-0.2-0.1-0.3-0.1-0.4-0.1c-0.2,0-0.5-0.2-0.6-0.4
			c-0.2-0.2-0.2-0.4-0.2-0.6H48c0.2,0,0.5-0.1,0.8-0.2c0.3-0.2,0.5-0.3,0.5-0.6c0.1-0.5,0.1-0.9-0.2-1.2c-0.1-0.1-0.2-0.2-0.2-0.3
			c-0.2-0.2-0.4-0.5-0.6-0.8c-0.2-0.2-0.2-0.4-0.2-0.6c0-0.5,0.4-0.8,0.9-0.6c0.3,0.1,0.5,0.2,0.7,0.5c0,0.1,0,0.2,0.2,0.2
			C49.9,37.1,49.7,36.9,49.7,36.6 M30.5,46.8c0.9-0.3,1.6-0.4,2.7-0.5h0.2c0.5-0.2,1.1-0.1,1.6-0.1h4.1c0.9,0,1.7,0.1,2.5,0.2
			c0.7,0.1,1.4,0.1,2,0.5c0.1-0.5,0.1-1.4,0-1.8c-0.3-0.2-0.7-0.3-1.1-0.3c-1-0.2-2.1-0.2-3.1-0.2H39c-0.2,0-0.5-0.1-0.7-0.1
			c-1.1,0-2.2,0-3.3,0.1c-1.1,0.1-2.1,0.1-3.2,0.2c-0.4,0.1-0.7,0.2-1.1,0.2c-0.2,0-0.2,0.2-0.2,0.3v1.2
			C30.4,46.5,30.5,46.7,30.5,46.8 M37.2,30.5c0.1-0.1,0.2-0.2,0.3-0.3c0.1-0.1,0.2-0.2,0.2-0.2c0.1-0.2,0-0.4-0.2-0.5
			c-0.2-0.2-0.5,0.1-0.7-0.1c-0.1,0-0.2,0-0.2,0.1c-0.2,0.1-0.2,0.3-0.2,0.5c0.1,0.2,0.2,0.2,0.3,0.4c0.1,0.2,0.2,0.3,0.1,0.5
			C36.8,31,36.6,31,36.5,31c-0.2,0-0.4-0.1-0.5-0.2c0-0.2,0.1-0.4,0.1-0.5c0-0.2-0.2-0.4-0.4-0.4h-0.3c-0.2-0.3-0.2-0.5-0.2-0.7
			v-0.5c0-0.2,0.2-0.2,0.3-0.1c0.1,0.1,0.2,0.2,0.3,0.3c0.1,0.1,0.2,0.1,0.4,0.1c0.1,0,0.2-0.2,0.2-0.2c-0.2-0.1-0.5-0.2-0.5-0.4
			c-0.2-0.3-0.6-0.3-0.9-0.2c-0.3,0.1-0.4,0.4-0.5,0.6c0,0.4,0.1,0.7,0.2,1c0.2,0.2,0.3,0.5,0.5,0.8c0.2,0.2,0.2,0.4,0.1,0.6
			c0,0.2-0.1,0.2-0.2,0.2h-0.2v-0.2c0-0.2-0.1-0.3-0.2-0.5c-0.2-0.1-0.2,0-0.4,0h-0.1c-0.2-0.2-0.3-0.3-0.4-0.5
			c-0.1-0.4-0.1-0.5-0.2-0.7c0-0.1,0-0.2,0.2-0.2c0.1,0.1,0.2,0.1,0.3,0.2c0.2,0,0.2-0.1,0.2-0.2c-0.2-0.1-0.2-0.2-0.4-0.2
			c-0.5-0.2-0.8,0-0.9,0.5c0,0.2,0.1,0.5,0.2,0.7c0.1,0.2,0.2,0.2,0.3,0.4c0.2,0.2,0.4,0.5,0.4,0.9c0.3,0.2,0.5,0.4,0.4,0.7
			c0,0.2,0.1,0.4,0.2,0.5c1.7-0.4,3.4-0.4,5.1,0v-0.5c0-0.2,0.1-0.4,0.2-0.6c0.1-0.1,0.2-0.2,0.3-0.2c0-0.3,0.2-0.5,0.3-0.8
			c0.2-0.2,0.4-0.5,0.5-0.8c0.1-0.2,0.1-0.5-0.1-0.7c-0.1-0.2-0.2-0.2-0.4-0.2c-0.3-0.1-0.6,0.1-0.9,0.3c0.2,0.2,0.2,0.2,0.3,0.2
			c0.1,0,0.2-0.1,0.2-0.1c0.1,0,0.2,0,0.2,0.2v0.3c-0.1,0.3-0.2,0.6-0.5,0.9h-0.2c-0.1,0-0.2-0.1-0.3,0c-0.2,0.1-0.2,0.2-0.2,0.3
			c0,0.1,0,0.2-0.1,0.4c-0.2,0-0.2,0-0.3-0.1c-0.1,0-0.2-0.2-0.2-0.2v-0.3c0.1-0.2,0.1-0.2,0.2-0.4c0.2-0.2,0.2-0.4,0.4-0.6
			c0.2-0.3,0.3-0.5,0.3-0.9c0-0.3-0.2-0.6-0.5-0.8c-0.3-0.2-0.6-0.2-0.9,0.2c-0.2,0.2-0.4,0.3-0.5,0.5c0.1,0.1,0.2,0.2,0.2,0.2
			c0.2,0.1,0.3,0,0.4-0.1c0.1-0.1,0.2-0.2,0.2-0.2c0.1-0.1,0.3-0.1,0.3,0.1v0.2c0,0.4-0.1,0.8-0.3,1.1h-0.2c-0.3,0-0.5,0.2-0.5,0.4
			c0,0.2,0.1,0.3,0.1,0.5c-0.1,0.2-0.2,0.3-0.5,0.2C37.5,30.9,37.3,30.7,37.2,30.5 M27.8,31.8c-0.1,0.2-0.1,0.2,0,0.5h-0.2
			c-0.2-0.1-0.5,0-0.7,0.1c-0.2,0.1-0.2,0.2-0.1,0.3c0,0.1,0.1,0.1,0.1,0.2c0.2,0.2,0.4,0.2,0.5,0.2c-0.2,0.3-0.4,0.1-0.6,0.2
			c-0.2,0.4-0.2,0.4-0.2,0.7c0,0.2,0,0.4,0.1,0.5c0,0.2,0,0.3-0.1,0.5c-0.1,0.1-0.2,0.1-0.2,0.2L26.2,35c0,0.2,0.2,0.2,0.2,0.3h0.2
			c0.2,0,0.3,0.1,0.3,0.3s0,0.4-0.2,0.5c0-0.1-0.2-0.1-0.2,0.1c0.2,0,0.2,0.1,0.4,0c0.2,0,0.3-0.1,0.4-0.1c0.3,0.4,0,0.6-0.1,0.9
			c0.2,0.1,0.2,0.2,0.4,0.2c0.3,0.2,0.5,0.2,0.7-0.1c0.1-0.1,0.1-0.1,0.2-0.2v0.5c0.5,0.1,0.8,0,1.2-0.2c0.4-0.2,0.8-0.5,1.3-0.5
			c0.1-0.2,0-0.4,0-0.5c-0.1-0.2-0.2-0.5-0.4-0.7c-0.3-0.3-0.6-0.5-1.1-0.6c-0.2-0.1-0.5-0.2-0.7-0.2c-0.1-0.1-0.2-0.2-0.1-0.3
			c0.2-0.2,0.5,0,0.7,0c0.1-0.2,0.1-0.3,0-0.5c-0.2,0-0.3-0.1-0.5-0.1c-0.1,0-0.2-0.1-0.2-0.2c-0.1-0.1,0-0.2,0.1-0.2
			c0.1-0.1,0.2-0.2,0.3-0.1c0.2,0.1,0.4,0.1,0.5,0.2c0.2-0.2,0.2-0.4,0.2-0.6c-0.1-0.1-0.2-0.2-0.2-0.2c-0.2-0.2-0.5-0.3-0.8-0.5
			c-0.1-0.1-0.2-0.1-0.3-0.2h-0.5C28.1,31.9,28.1,31.9,27.8,31.8 M45.4,37.5c0-0.2,0.1-0.2,0.1-0.4c0.2,0.1,0.2,0.2,0.3,0.2
			c0.1,0.1,0.2,0.1,0.2,0.1c0.2-0.1,0.5-0.1,0.6-0.4c-0.1-0.2-0.2-0.3-0.2-0.5c-0.1-0.2-0.1-0.3,0.2-0.5c0.2,0.1,0.5,0.2,0.8,0.1
			c0-0.2-0.2-0.2-0.2-0.2C47,35.8,47,35.6,47,35.4c0.1-0.2,0.2-0.3,0.4-0.3h0.2c0.2-0.1,0.3-0.2,0.3-0.3l-0.1-0.1
			c-0.3-0.1-0.4-0.2-0.4-0.5c0-0.2,0.1-0.2,0.1-0.4c0-0.3,0-0.6-0.2-0.9c-0.4,0-0.4,0-0.6-0.2c0.2,0,0.3-0.1,0.5-0.1
			c0.2-0.1,0.2-0.2,0.2-0.4c-0.4-0.2-0.4-0.2-1.2-0.1c0.2-0.2,0.4-0.2,0.2-0.5c-0.2,0.2-0.4,0.2-0.6,0.2h-0.4
			c-0.2,0-0.5,0.1-0.6,0.3c-0.1,0.1-0.2,0.2-0.4,0.2c-0.1,0.1-0.2,0.2-0.3,0.2c-0.1,0.1-0.2,0.2-0.1,0.3c0.1,0.2,0.1,0.3,0.2,0.5
			c0.2-0.1,0.2-0.1,0.4-0.2c0.3-0.1,0.5,0.1,0.5,0.4c-0.2,0.2-0.3,0.2-0.5,0.2c0,0-0.1,0-0.1,0.1c0,0.2-0.1,0.3,0.1,0.4
			c0.2,0,0.5-0.2,0.7,0c0,0.2-0.1,0.3-0.2,0.4c-0.2,0.1-0.4,0.2-0.6,0.2c-0.2,0.1-0.5,0.2-0.8,0.3c-0.5,0.4-0.6,0.9-0.7,1.4
			c0,0.1,0,0.2,0.1,0.2c0.4,0,0.8,0.2,1.1,0.4c0.2,0.1,0.2,0.2,0.4,0.2C44.8,37.4,45.1,37.6,45.4,37.5 M42.3,41.3
			c0.2,0.4,0.3,0.7,0.5,1c-0.2,0.2-0.5,0.4-0.8,0.5c-0.1-0.1-0.2-0.2-0.2-0.2c-0.2-0.2-0.3-0.2-0.5,0l0.2,0.2
			c-0.6,0.1-0.6,0.1-0.7,0.5c0.2,0.1,0.3-0.2,0.4,0.1c-0.2,0.2-0.4,0.4-0.1,0.8c0.1-0.1,0.1-0.2,0.2-0.2c0.1-0.1,0.2-0.2,0.3-0.1
			c0.3,0.1,0.7,0,1,0.2c0.1,0.1,0.2,0.1,0.4,0c-0.2-0.3-0.2-0.4-0.1-0.5c0.2-0.2,0.5-0.4,0.8-0.3c0.2,0.1,0.3,0.1,0.5,0.1
			c0.1,0,0.2-0.1,0.2-0.2c-0.4-0.2-0.4-0.2-0.5-0.7c0-0.2-0.1-0.3-0.1-0.5c0-0.3,0.1-0.5,0.4-0.7c0.3-0.2,0.7-0.3,1-0.4
			c0.2-0.1,0.2-0.2,0.4-0.2c-0.2-0.2-0.2-0.2-0.2-0.7c-0.5-0.5-1-0.5-1.6-0.2c-0.4,0.2-0.7,0.5-1,0.8c-0.2,0.2-0.5,0.4-0.8,0.4
			C41.9,41.2,41.9,41.2,42.3,41.3 M32.1,42.8c-0.2-0.1-0.5-0.2-0.6-0.3c-0.1-0.1-0.2-0.2-0.1-0.3c0.2-0.2,0.3-0.5,0.5-0.9
			c0.2-0.1,0.4-0.1,0.4-0.5c-0.3,0-0.3,0-0.5-0.2c-0.1-0.1-0.2-0.2-0.2-0.2c-0.3-0.2-0.6-0.6-1-0.8c-0.6-0.3-1.1-0.2-1.7,0.2
			c0,0.1,0.1,0.2,0.1,0.2c0,0.1-0.1,0.2-0.1,0.3c0,0.1-0.2,0.1-0.2,0.2c0.2,0.1,0.3,0.2,0.5,0.2c0.3,0.2,0.6,0.3,0.9,0.5
			c0.2,0.1,0.4,0.3,0.3,0.5c0,0.2-0.1,0.5-0.2,0.8c-0.1,0.2-0.2,0.3-0.5,0.5c0.2,0.2,0.3,0.2,0.5,0.2c0.1,0,0.2-0.1,0.2-0.1
			c0.3-0.1,0.5,0.1,0.7,0.2c0.2,0.2,0.1,0.4,0,0.5v0.1c0.1,0,0.2,0,0.3-0.1c0.3-0.2,0.6-0.2,0.9-0.2c0.2-0.1,0.2,0,0.4,0.2
			c0.1,0.1,0.1,0.1,0.2,0.2c0.3-0.3,0.1-0.5-0.2-0.8h0.5c-0.2-0.5-0.2-0.5-0.7-0.4v-0.1c0.1-0.1,0.2-0.2,0.3-0.3
			C32.5,42.2,32.4,42.5,32.1,42.8 M26.1,47.9c0.7-0.3,1.4-0.4,2.1-0.3c0.2,0,0.5,0.1,0.8,0.2c0.6,0.2,1.2,0.3,1.9,0.4
			c0.2,0.1,0.5,0.1,0.7,0c0.2,0,0.4-0.2,0.4-0.4V47c-0.6-0.2-1.2,0-1.8,0.4c-0.3-0.3-0.1-0.8-0.2-1.1c-0.1,0-0.2-0.1-0.4-0.2
			C29.2,46,28.9,46,28.5,46c-0.5-0.1-1.2-0.1-1.7,0.1c-0.2,0.1-0.4,0.2-0.5,0.5C26.3,47,26.2,47.4,26.1,47.9 M42.1,47.1
			c-0.1,0.2-0.1,0.5,0,0.8c0,0.2,0.2,0.4,0.4,0.5h0.3c0.3-0.1,0.6-0.1,0.9-0.2c0.6-0.2,1.2-0.3,1.9-0.4c0.8-0.2,1.5-0.1,2.3,0.2H48
			c-0.1-0.5-0.2-0.9-0.2-1.4c0-0.2-0.2-0.3-0.3-0.3C47.3,46.1,47,46,46.8,46c-0.8-0.1-1.6,0-2.3,0.2c-0.1,0-0.2,0.1-0.3,0.2
			c-0.2,0.4,0.1,0.8-0.2,1.1C43,47,42.9,47,42.1,47.1 M36.9,26.9c-0.1,0.1-0.2,0.2-0.3,0.2c-0.2,0.2-0.2,0.4-0.1,0.5
			c0.2,0.2,0.3,0.3,0.5,0.4c0.1-0.1,0.2-0.2,0.4-0.3c0.2-0.2,0.2-0.5,0-0.7c-0.3-0.2-0.3-0.4-0.2-0.7c0.2,0,0.2,0,0.3,0.1
			c0.2,0,0.2-0.1,0.2-0.2c0-0.2-0.1-0.2-0.2-0.2c-0.2,0-0.2,0.1-0.4,0.1c0-0.1,0-0.2,0.1-0.2c0-0.1,0.1-0.2,0.1-0.2
			c0-0.2-0.1-0.3-0.2-0.3c-0.2,0-0.2,0.2-0.2,0.2c0,0.1,0,0.2,0.1,0.3h-0.5c-0.1,0-0.2,0.1-0.2,0.2c0,0.1,0.1,0.2,0.2,0.2h0.5V26.9z
			 M37.1,28.3c-0.2,0-0.4,0.2-0.5,0.4c0,0.2,0.2,0.4,0.4,0.4c0.2,0,0.4-0.2,0.5-0.4C37.6,28.6,37.3,28.3,37.1,28.3 M44.4,33.6
			l-0.2-0.2c-0.2,0-0.4,0.1-0.6,0.1c-0.2,0-0.5,0-0.6-0.2h-0.1c-0.1,0.2,0,0.3,0.2,0.5c0.2,0.2,0.3,0.2,0.5,0.1
			C43.8,33.9,44.1,33.8,44.4,33.6 M29.8,33.6c0.3,0.1,0.6,0.2,0.9,0.3c0.2,0.1,0.5,0,0.6-0.2c0.1-0.1,0.2-0.2,0.1-0.4
			c-0.3,0.2-0.5,0.3-0.9,0.3c-0.2,0-0.3-0.1-0.5-0.1C29.9,33.5,29.8,33.5,29.8,33.6"/>
		<path d="M139,31.8c0.2,0.1,0.3,0.1,0.5,0.2c0.6,0.2,1,0.8,1,1.3c0,0.7-0.4,1.2-0.9,1.6c-0.5,0.2-0.9,0.4-1.5,0.4
			c-0.6,0.1-1.2-0.1-1.7-0.1c-0.1,0-0.1,0-0.2-0.1c-0.1,0-0.1-0.2,0-0.2c0.1-0.1,0.2-0.1,0.2-0.2c0.2-0.2,0.3-0.3,0.3-0.6v-0.2v-4.1
			v-0.5c-0.2-0.1-0.4-0.2-0.5-0.2c0,0-0.1-0.1-0.1-0.2c0-0.1,0.1-0.1,0.1-0.2c0.2-0.1,0.4-0.1,0.6-0.1h1.8c0.3,0,0.5,0.1,0.9,0.2
			c0.5,0.2,0.9,0.8,0.8,1.5c-0.1,0.5-0.4,0.9-0.8,1.2C139.3,31.6,139.2,31.6,139,31.8 M137.6,32.1c-0.1,0.8-0.1,1.9,0,2.3
			c0.2,0.1,0.5,0.1,0.8,0c0.2,0,0.5-0.2,0.7-0.3c0.6-0.5,0.5-1.6-0.1-1.9C138.5,32.1,138,32.1,137.6,32.1 M137.6,31.5
			c0.4,0.1,0.7,0,1.1-0.2c0.5-0.3,0.7-0.9,0.5-1.5c-0.1-0.2-0.2-0.4-0.5-0.5c-0.2-0.1-0.5-0.2-0.8-0.2c-0.1,0-0.2,0.1-0.2,0.1
			C137.5,29.8,137.5,31.1,137.6,31.5"/>
		<path d="M61.6,32.5c-0.1,0.5-0.1,1.5,0,1.9c0.2,0.1,0.3,0.1,0.4,0.2c0.1,0,0.1,0.1,0.2,0.2c0,0.1-0.1,0.2-0.2,0.2
			c-0.1,0-0.2,0.1-0.2,0.1c-0.5,0.1-1,0.1-1.5,0c-0.2,0-0.2-0.1-0.2-0.2c0.1-0.1,0.2-0.1,0.2-0.2c0.2-0.1,0.3-0.3,0.3-0.5v-0.2v-4.3
			v-0.3c-0.2-0.1-0.3-0.2-0.5-0.2c-0.1,0-0.1-0.1-0.1-0.2c0-0.1,0.1-0.2,0.2-0.2c0.2-0.1,0.4-0.1,0.5-0.1h1.7c0.3,0,0.6,0.1,0.9,0.2
			c0.5,0.2,0.7,0.5,0.8,0.9c0.2,0.5,0.1,1.1-0.2,1.6c-0.2,0.3-0.4,0.5-0.7,0.7c-0.2,0.1-0.2,0.2-0.4,0.2c0.1,0.1,0.1,0.2,0.2,0.2
			c0.3,0.5,0.7,0.9,1,1.4c0.2,0.3,0.5,0.5,0.9,0.8c0.1,0,0.1,0.1,0.2,0.1c0.1,0.1,0.1,0.2,0,0.2c-0.4,0.2-0.7,0.3-1.1,0.1
			c-0.2-0.1-0.4-0.3-0.5-0.5c-0.3-0.4-0.5-0.9-0.9-1.2c-0.2-0.2-0.3-0.4-0.4-0.6C62,32.5,61.9,32.5,61.6,32.5 M61.6,31.9
			c1,0.2,1.6-0.3,1.7-1.2c0.1-0.6-0.2-1.2-0.8-1.3c-0.2-0.1-0.6-0.1-0.9,0C61.5,29.9,61.5,31.5,61.6,31.9"/>
		<path d="M88.1,30.3c0.1-0.4,0.1-1.1,0-1.6c-0.2-0.1-0.4-0.2-0.5-0.2c-0.1,0-0.1-0.1-0.1-0.2c0-0.1,0.1-0.2,0.1-0.2
			c0.5-0.2,0.9-0.2,1.4-0.1v0.3v5.5c0,0.2,0.1,0.5,0.2,0.7c0.1,0.1,0.1,0.1,0.1,0.2c-0.2,0.2-0.4,0.4-0.7,0.5l-0.5-0.5
			c-0.2,0-0.2,0.1-0.2,0.2c-0.1,0-0.2,0.1-0.2,0.2c-0.7,0.4-1.6,0.2-2.2-0.5c-0.2-0.3-0.4-0.7-0.4-1.2c-0.1-0.9,0.1-1.8,0.9-2.5
			c0.5-0.5,1.2-0.6,1.9-0.5C88,30.3,88,30.3,88.1,30.3 M88.1,31c-0.5-0.2-0.9-0.2-1.2,0c-0.4,0.2-0.6,0.5-0.7,0.9
			c-0.2,0.5-0.2,1-0.2,1.6c0.1,0.3,0.2,0.6,0.4,0.8c0.1,0.2,0.2,0.2,0.4,0.2c0.4,0.1,0.7,0.1,1-0.2c0.1-0.1,0.2-0.2,0.2-0.3v-0.2
			v-2.5C88.2,31.2,88.2,31.1,88.1,31"/>
		<path d="M111.6,32.8c0,0.1-0.1,0.1-0.1,0.2v1.6c0.2,0.1,0.2,0.1,0.4,0.2c0.1,0,0.2,0,0.2,0.1c0.1,0,0.1,0.1,0.1,0.2
			c0,0.1-0.1,0.1-0.1,0.2H112c-0.6,0.2-1.2,0.2-1.8,0.1c-0.1,0-0.1-0.1-0.2-0.2c0,0,0-0.1,0.1-0.2c0.5-0.2,0.5-0.5,0.5-1v-4v-0.5
			c-0.2-0.1-0.3-0.2-0.5-0.2c-0.1,0-0.1-0.1-0.1-0.2c0-0.1,0.1-0.2,0.2-0.2c0.3-0.1,0.6-0.1,0.9-0.1h1.2c0.5,0,0.9,0.1,1.2,0.3
			c0.5,0.3,0.8,0.8,0.9,1.4c0.1,1.2-0.8,2.1-1.8,2.3c-0.3,0.1-0.7,0.2-1,0C111.7,32.7,111.6,32.7,111.6,32.8 M111.6,32
			c0.3,0.2,0.5,0.2,0.9,0.1c0.9-0.2,1.3-1,1-1.9c-0.2-0.5-0.5-0.8-0.9-0.9c-0.3-0.1-0.7-0.1-1,0C111.5,29.7,111.5,31.5,111.6,32"/>
		<path d="M76.8,34.5c0.2,0.1,0.2,0.1,0.4,0.2c0.1,0.1,0.1,0.2,0,0.2h-0.1c-0.5,0.2-1,0.3-1.6,0v-0.1v-0.1c0.2-0.2,0.3-0.5,0.3-0.9
			v-1.8c0-0.2,0-0.4-0.1-0.6c-0.2-0.4-0.5-0.6-0.9-0.6c-0.3,0-0.6,0.1-0.9,0.2c-0.1,0.4-0.1,2.7,0,3.3c0.2,0.1,0.3,0.2,0.5,0.2
			c0,0.2-0.1,0.2-0.2,0.2c-0.5,0.2-1.1,0.2-1.6,0.1c-0.2-0.1-0.2-0.2-0.1-0.2c0.5-0.3,0.4-0.4,0.4-0.9v-2.3v-0.5
			c-0.2-0.2-0.3-0.2-0.5-0.3c-0.1,0-0.1-0.2-0.2-0.2c0-0.1,0.1-0.2,0.2-0.2c0.4-0.1,0.8-0.2,1.2-0.1c0,0.1,0.1,0.2,0.1,0.2v0.2h0.1
			c0.4-0.3,0.9-0.5,1.4-0.4c0.7,0,1.2,0.5,1.3,1.2v0.5v2C76.8,34.2,76.8,34.4,76.8,34.5"/>
		<path d="M99.2,32.9c0-0.6,0.1-1.1,0.4-1.6c0.3-0.5,0.8-0.9,1.4-1.1c0.6-0.2,1.2-0.1,1.8,0.2c0.5,0.2,0.7,0.7,0.9,1.2
			c0.3,1,0.1,1.9-0.5,2.8c-0.3,0.4-0.9,0.6-1.3,0.7c-0.3,0.1-0.6,0-0.9-0.1c-0.9-0.2-1.2-0.9-1.4-1.7C99.2,33.2,99.2,33.1,99.2,32.9
			 M102.7,32.7c0-0.5-0.1-0.9-0.4-1.3c-0.5-0.7-1.3-0.7-1.8,0c-0.4,0.5-0.5,1.2-0.4,1.8c0,0.2,0.2,0.5,0.2,0.8
			c0.5,0.8,1.5,0.8,1.9,0.2c0.2-0.2,0.2-0.3,0.3-0.5C102.6,33.3,102.7,33,102.7,32.7"/>
		<path d="M148.2,32.9c0-0.6,0.1-1.1,0.4-1.6c0.3-0.5,0.8-0.9,1.4-1.1c0.6-0.2,1.2-0.1,1.8,0.2c0.5,0.2,0.7,0.7,0.9,1.2
			c0.3,1,0.1,1.9-0.5,2.8c-0.3,0.4-0.7,0.5-1.2,0.6c-0.8,0.2-1.6,0-2.1-0.6c-0.3-0.3-0.5-0.7-0.5-1.1
			C148.2,33.2,148.2,33.1,148.2,32.9 M151.7,32.7c0-0.5-0.1-0.9-0.3-1.3c-0.5-0.7-1.3-0.7-1.9,0c-0.4,0.5-0.5,1.2-0.4,1.8
			c0.1,0.2,0.2,0.5,0.2,0.8c0.5,0.8,1.4,0.8,1.9,0.2c0.2-0.2,0.2-0.3,0.3-0.5C151.7,33.3,151.8,33,151.7,32.7"/>
		<path d="M82.4,32.5c0,0.7-0.2,1.2-0.5,1.8c-0.4,0.5-0.9,0.8-1.5,0.9c-0.3,0.1-0.7,0-1-0.1c-0.7-0.2-1.1-0.7-1.3-1.4
			c-0.2-0.8-0.1-1.6,0.3-2.3c0.3-0.5,0.8-0.9,1.3-1c0.7-0.2,1.3,0,1.9,0.3c0.2,0.1,0.3,0.3,0.5,0.5C82.4,31.5,82.5,32.1,82.4,32.5
			 M78.9,32.8c0,0.4,0.1,0.8,0.3,1.2c0.2,0.4,0.5,0.6,1,0.6c0.4,0,0.7-0.2,0.9-0.5c0.2-0.3,0.3-0.7,0.4-1c0.1-0.6,0-1.2-0.4-1.7
			c-0.4-0.5-1.1-0.6-1.6-0.2c-0.1,0.1-0.2,0.2-0.2,0.3C79,31.8,78.9,32.3,78.9,32.8"/>
		<path d="M69.2,32.8h-2.7c-0.2,0.2-0.1,0.3-0.1,0.4c0.1,0.2,0.2,0.5,0.3,0.6c0.4,0.5,0.9,0.6,1.4,0.5c0.3-0.1,0.7-0.2,0.9-0.3
			c0.2,0.2,0.1,0.4,0,0.5c-0.2,0.2-0.3,0.3-0.5,0.4c-0.5,0.2-0.9,0.2-1.5,0.2c-0.7-0.2-1.4-0.7-1.6-1.6c-0.2-0.7-0.1-1.4,0.2-2
			c0.3-0.6,0.8-1.1,1.5-1.2c0.8-0.2,1.6,0.3,1.8,0.9C69.2,31.7,69.3,32.2,69.2,32.8 M68.4,32.1c0-0.3-0.1-0.6-0.2-0.9
			c-0.3-0.5-0.9-0.5-1.2-0.2c-0.2,0.2-0.4,0.5-0.5,0.8c0,0.1-0.1,0.2,0,0.3C67,32.2,68,32.2,68.4,32.1"/>
		<path d="M126.8,32.8c-0.1,0.8,0.5,1.5,1.3,1.6c0.3,0,0.7-0.1,1-0.2c0.2-0.1,0.3-0.1,0.4-0.2c0.2,0.2,0.1,0.4,0,0.5
			c-0.2,0.2-0.3,0.3-0.5,0.4c-0.5,0.2-0.9,0.2-1.5,0.2c-0.9-0.2-1.3-0.7-1.6-1.5c-0.2-0.7-0.2-1.4,0.2-2.1c0.3-0.7,0.9-1.2,1.6-1.2
			c0.7-0.1,1.3,0.2,1.6,0.8c0.1,0.2,0.2,0.3,0.2,0.5c0.1,0.4,0.1,0.8,0,1.2c-0.2,0.2-0.2,0.1-0.4,0.1h-2
			C127.1,32.8,126.9,32.8,126.8,32.8 M126.9,32.1h0.3h1.6c0,0,0.1,0,0.1-0.1c0-0.2-0.1-0.5-0.2-0.8c-0.2-0.5-0.9-0.6-1.3-0.2
			C127,31.4,126.9,31.7,126.9,32.1"/>
		<path d="M93.8,34c0.2,0.2,0.1,0.4-0.1,0.5c-0.1,0.2-0.2,0.4-0.5,0.4c-0.5,0.2-0.9,0.2-1.5,0.2c-0.6-0.2-1.1-0.5-1.4-1.1
			c-0.2-0.3-0.2-0.6-0.2-0.9c0-0.6,0.1-1.2,0.4-1.7c0.3-0.5,0.8-0.9,1.4-1c1.2-0.2,1.8,0.5,1.9,1.3v0.5v0.5
			c-0.2,0.2-0.3,0.2-0.4,0.2h-1.9h-0.5c-0.1,0.3,0,0.7,0.2,0.9c0.4,0.5,0.9,0.7,1.5,0.6C93.2,34.3,93.5,34.2,93.8,34 M93.1,32.1
			c0-0.3-0.1-0.5-0.2-0.9c-0.3-0.5-0.9-0.6-1.3-0.2c-0.2,0.2-0.3,0.5-0.4,0.8v0.3C91.8,32.2,92.7,32.2,93.1,32.1"/>
		<path d="M144.9,34.6c-0.2,0.2-0.4,0.4-0.6,0.5h-0.2c-0.1-0.1-0.2-0.2-0.3-0.3c-0.2,0.1-0.2,0.1-0.4,0.2c-0.2,0.2-0.5,0.2-0.9,0.2
			c-0.4,0-0.8-0.1-1-0.3c-0.2-0.2-0.4-0.6-0.3-1c0.2-0.5,0.5-0.9,1-1.1c0.3-0.2,0.7-0.2,1-0.2h0.4c0.2-0.5,0.1-0.9-0.2-1.2
			c-0.1-0.2-0.2-0.2-0.5-0.2c-0.5-0.1-0.9,0.1-1.3,0.4c-0.1,0.1-0.2,0.1-0.2,0.2c-0.2-0.5,0-0.9,0.5-1.1c0.5-0.2,0.9-0.2,1.5-0.1
			c0.3,0.1,0.6,0.2,0.9,0.5c0.2,0.2,0.3,0.5,0.3,0.7v1.1c-0.1,0.5,0,0.9,0,1.4C144.6,34.2,144.8,34.4,144.9,34.6 M143.8,33
			c-0.2,0-0.4,0-0.5,0.1c-0.3,0.1-0.6,0.2-0.9,0.4c-0.2,0.2-0.4,0.7,0,1c0.2,0.2,0.4,0.2,0.5,0.2c0.3-0.1,0.5-0.1,0.9-0.3V33z"/>
		<path d="M118.9,34.6c-0.2,0.1-0.2,0.2-0.3,0.2c-0.3,0.2-0.5,0.3-0.7,0c0,0-0.1-0.1-0.2-0.1c-0.2,0.1-0.3,0.2-0.5,0.2
			c-0.4,0.2-0.8,0.2-1.2,0.2c-0.7-0.2-1.1-0.8-0.9-1.5c0.2-0.5,0.5-0.8,1-0.9c0.3-0.2,0.7-0.2,1-0.2h0.4c0.2-0.5,0.1-0.9-0.2-1.2
			c-0.1-0.2-0.3-0.2-0.5-0.2c-0.3,0-0.5,0-0.8,0.1c-0.2,0.1-0.4,0.2-0.6,0.3c-0.1,0.1-0.2,0.1-0.2,0.2c-0.2-0.5,0-0.9,0.5-1.1
			c0.6-0.2,1.2-0.3,1.9,0c0.5,0.2,0.9,0.6,0.8,1.2c0,0.3,0,0.7-0.1,1c-0.1,0.4,0,0.9,0,1.3C118.4,34.2,118.6,34.4,118.9,34.6
			 M117.6,33c-0.2,0-0.4,0-0.5,0.1c-0.3,0.1-0.6,0.2-0.9,0.4c-0.4,0.4-0.2,0.9,0.2,1.1c0.5,0.2,0.9,0,1.2-0.2V33z"/>
		<path d="M156.1,31.3c-0.2-0.1-0.5-0.2-0.7-0.2c-0.3-0.1-0.6-0.1-0.9,0c-0.2,0.1-0.2,0.2-0.3,0.2c-0.2,0.2-0.2,0.5,0.1,0.6
			c0.1,0.1,0.2,0.2,0.3,0.2c0.2,0.1,0.4,0.2,0.6,0.2c0.2,0.1,0.5,0.2,0.7,0.4c0.3,0.2,0.5,0.5,0.5,0.8c0.1,0.9-0.5,1.3-1.2,1.6
			c-0.4,0.2-0.8,0.1-1.2,0c-0.5-0.1-0.8-0.5-0.5-1.1c0.1,0,0.2,0.1,0.2,0.1c0.2,0.2,0.5,0.3,0.9,0.4c0.3,0.1,0.5,0,0.8-0.1
			c0.3-0.2,0.4-0.5,0.2-0.8c-0.1-0.2-0.2-0.2-0.4-0.3c-0.2-0.1-0.4-0.2-0.5-0.2c-0.2-0.1-0.3-0.2-0.4-0.2c-0.8-0.4-0.9-1.3-0.5-1.9
			c0.1-0.2,0.2-0.3,0.5-0.5c0.5-0.3,1.1-0.4,1.7-0.2c0.3,0.2,0.5,0.4,0.5,0.7C156.2,31.1,156.2,31.2,156.1,31.3"/>
		<path d="M122.3,33.9c0.1,0.1,0.2,0.2,0.2,0.2c0.2,0.2,0.5,0.3,0.9,0.4c0.2,0.1,0.5,0,0.8-0.1c0.3-0.2,0.4-0.5,0.2-0.7
			c-0.1-0.2-0.2-0.2-0.4-0.3c-0.2-0.1-0.4-0.2-0.6-0.3c-0.2-0.1-0.3-0.2-0.4-0.2c-0.6-0.3-0.9-1-0.5-1.6c0.2-0.3,0.3-0.5,0.6-0.7
			c0.5-0.3,1.1-0.3,1.6-0.2c0.2,0.1,0.4,0.2,0.5,0.4c0.1,0.2,0.1,0.3-0.1,0.5c-0.2-0.1-0.4-0.2-0.6-0.2c-0.3-0.1-0.6-0.1-0.9,0
			c-0.2,0.1-0.2,0.2-0.3,0.2c-0.2,0.2-0.1,0.4,0.1,0.5c0.1,0.1,0.2,0.2,0.3,0.2c0.2,0.1,0.4,0.2,0.6,0.2c0.2,0.1,0.5,0.2,0.7,0.3
			c0.6,0.3,0.6,1.1,0.5,1.6c-0.2,0.5-0.6,0.7-1.1,0.9c-0.4,0.1-0.7,0.2-1.1,0.1c-0.2-0.1-0.5-0.1-0.6-0.3
			C122.1,34.6,122.1,34.4,122.3,33.9"/>
		<path d="M107.1,31.3c-0.2-0.1-0.5-0.2-0.6-0.2c-0.3-0.1-0.6-0.1-0.9,0c-0.2,0.1-0.3,0.2-0.4,0.3c-0.1,0.2-0.1,0.3,0.1,0.5
			c0.1,0.1,0.2,0.2,0.3,0.2c0.2,0.1,0.5,0.2,0.6,0.3c0.2,0.1,0.5,0.2,0.7,0.4c0.3,0.2,0.5,0.5,0.5,0.9c0,0.5-0.2,0.9-0.6,1.2
			c-0.2,0.2-0.5,0.2-0.9,0.3c-0.3,0-0.5,0.1-0.9,0c-0.6-0.2-0.9-0.5-0.6-1.2c0.1,0.1,0.2,0.1,0.2,0.2c0.2,0.2,0.5,0.3,0.8,0.4
			c0.3,0.1,0.5,0,0.8-0.1c0.3-0.2,0.4-0.5,0.2-0.8c-0.1-0.2-0.2-0.2-0.4-0.3c-0.2-0.1-0.4-0.2-0.5-0.2c-0.2-0.1-0.3-0.2-0.4-0.2
			c-0.8-0.4-0.9-1.3-0.5-1.9c0.2-0.2,0.2-0.4,0.5-0.5c0.5-0.3,1.1-0.4,1.7-0.2c0.2,0.1,0.4,0.2,0.5,0.5
			C107.3,31,107.3,31.1,107.1,31.3"/>
		<path d="M130.4,33.9c0.3,0.3,0.6,0.5,1,0.5c0.3,0.1,0.5,0,0.8-0.1c0.3-0.1,0.4-0.5,0.2-0.8c-0.1-0.2-0.2-0.2-0.4-0.3
			c-0.2-0.1-0.3-0.2-0.5-0.2c-0.2-0.1-0.3-0.2-0.5-0.2c-0.6-0.2-1-1.1-0.5-1.9c0.2-0.2,0.4-0.5,0.6-0.5c0.5-0.2,1-0.2,1.5-0.1
			c0.4,0.2,0.5,0.4,0.4,0.9c-0.2,0-0.3-0.1-0.5-0.2c-0.2-0.1-0.5-0.2-0.8-0.2c-0.2,0-0.3,0.1-0.5,0.1c-0.4,0.2-0.5,0.6-0.2,0.9
			c0.2,0.2,0.4,0.2,0.6,0.3c0.3,0.2,0.6,0.2,0.9,0.4c0.9,0.4,0.8,1.6,0.1,2c-0.3,0.2-0.6,0.4-1,0.4c-0.3,0.1-0.6,0-0.9,0
			c-0.4-0.1-0.5-0.3-0.6-0.6C130.3,34.2,130.3,34.1,130.4,33.9"/>
		<path d="M97.1,28.7c-0.2-0.1-0.3-0.2-0.5-0.2c-0.1-0.1-0.2-0.1-0.2-0.2c0-0.1,0.1-0.2,0.2-0.2c0.4-0.2,0.9-0.2,1.2-0.1
			C98,28,98,28.2,98,28.3V34v0.5c0.2,0.1,0.3,0.2,0.5,0.2c0.1,0,0.1,0.2,0,0.2L98.4,35c-0.5,0.2-1.2,0.2-1.8,0v-0.2
			c0-0.1,0.1-0.1,0.2-0.2c0.2-0.2,0.3-0.4,0.3-0.6v-0.9v-3.9C97.1,29,97.1,28.9,97.1,28.7"/>
		<path d="M145.3,37c0.7-0.2,0.9-0.8,0.9-1.3v-0.3v-3.9V31c-0.2-0.1-0.2-0.1-0.3-0.2c-0.1-0.1-0.2-0.1-0.2-0.2
			c0-0.2,0.2-0.2,0.2-0.2c0.4-0.2,0.8-0.1,1.2-0.1c0,0.1,0.1,0.1,0.1,0.2v4.7c0,0.4-0.1,0.8-0.1,1.2c-0.1,0.4-0.2,0.7-0.5,0.9
			c-0.2,0.2-0.4,0.2-0.6,0.2C145.6,37.4,145.5,37.4,145.3,37"/>
		<path d="M70.5,31c-0.2-0.1-0.4-0.2-0.5-0.3c0-0.2,0-0.2,0.2-0.3c0.2-0.1,0.3-0.1,0.5-0.1h0.8v0.3V34v0.5c0.2,0.2,0.5,0.1,0.5,0.4
			c0,0-0.1,0.1-0.2,0.2c-0.5,0.2-1.1,0.2-1.6,0.1c-0.2-0.1-0.2-0.2-0.1-0.3c0.1-0.1,0.2-0.1,0.2-0.2c0.2-0.1,0.2-0.2,0.2-0.5v-3
			C70.6,31.1,70.6,31.1,70.5,31"/>
		<path d="M119.6,34.9c0.2-0.1,0.2-0.2,0.4-0.3c0.1-0.1,0.2-0.2,0.2-0.3v-3.3V31c-0.2-0.1-0.3-0.2-0.5-0.2c-0.1-0.1-0.1-0.2,0-0.3
			c0.4-0.2,1-0.2,1.4-0.1c-0.1,0.5-0.1,3.7,0,4.2c0.2,0.1,0.3,0.2,0.5,0.2c0,0.2-0.1,0.2-0.2,0.2c-0.5,0.2-1.2,0.2-1.7,0.1
			C119.7,35,119.6,35,119.6,34.9"/>
		<path d="M38.7,41.9c-0.2-0.1-0.1-0.2-0.1-0.3c-0.1,0-0.2-0.1-0.2-0.1c0-0.2,0.2-0.2,0.2-0.2c-0.1-0.1-0.2-0.2-0.2-0.2
			c0.2,0,0.2,0.1,0.3,0.1c0.2,0,0.2,0,0.2-0.1c0-0.1-0.1-0.2-0.1-0.2c-0.1-0.1-0.2-0.2-0.2-0.2c-0.2-0.1-0.3-0.1-0.5-0.1
			c-0.1,0-0.2,0-0.2-0.1c-0.1-0.1-0.2-0.2-0.2-0.2c-0.1,0-0.2,0.1-0.3-0.1c0.3-0.3,0.3-0.6,0.2-1c-0.2-0.4-0.4-0.7-0.8-0.9
			c-0.2-0.1-0.3-0.1-0.5-0.1c-0.5,0-0.9,0.2-1.2,0.5c0.1,0.1,0.2,0.1,0.2,0.2c0,0,0.1,0.1,0,0.2c-0.1,0.1-0.2,0.2-0.2,0.2
			c-0.1,0.1-0.2,0.1-0.3,0v-0.3h-0.2v-0.2c-0.2-0.1-0.3-0.2-0.5-0.2c-0.2-0.1-0.2-0.2-0.2-0.2c0.1-0.1,0.2-0.2,0.3-0.3
			c0.2-0.1,0.4-0.3,0.6-0.2c0,0.2-0.1,0.3,0,0.5c0.2,0,0.3-0.2,0.5-0.2c0.2-0.2,0.5-0.3,0.6-0.5c0.2-0.2,0.4-0.2,0.6-0.1
			c0,0,0.1,0,0.1,0.1c0.3,0.2,0.7,0.3,1.1,0.2h0.2c0.1,0.1,0.2,0.2,0.2,0.3c0.1,0.2,0.1,0.3,0.2,0.5c0.2,0.4,0.3,0.5,0.7,0.4
			c0.2,0,0.2-0.2,0.2-0.3c0-0.2,0-0.3-0.1-0.4c-0.1-0.2-0.2-0.2-0.3-0.4c-0.2-0.2-0.2-0.4-0.1-0.6c0.1-0.2,0.4-0.4,0.6-0.3
			c0.4,0.1,0.7,0.2,1,0c0.1,0.2,0,0.2-0.1,0.3c-0.1,0.1-0.2,0.1-0.2,0.2L40,37.7c-0.1,0-0.1-0.2-0.2-0.2c-0.1,0-0.1-0.1-0.2-0.2
			c-0.2-0.1-0.3-0.2-0.4,0c-0.1,0.1-0.2,0.2,0,0.4c0.1,0.1,0.2,0.2,0.2,0.2c0.1,0.2,0.2,0.3,0.2,0.5c0.2,0.5-0.1,0.9-0.6,0.9h-0.5
			c0,0.3,0.2,0.4,0.3,0.5c0.2,0.2,0.4,0.2,0.6,0.1c-0.1,0.3,0.1,0.5,0.2,0.9l0.3,0.3c-0.2,0.1-0.2,0.1-0.3,0.2c0,0.1,0,0.2,0.1,0.2
			C39.2,41.5,39,41.6,38.7,41.9"/>
		<path d="M37.6,34.6c0.1-0.2,0.1-0.2,0.1-0.3c0.3,0.2,0.3,0.2,0.7,0.1c0.1,0.1,0.1,0.2,0.2,0.3c0.1,0,0.2,0.1,0.4,0.1
			c-0.2,0.1-0.3,0.2-0.4,0.3c0.1,0.3,0.2,0.6,0.1,0.9c0.1,0.2,0.2,0.2,0.2,0.3v0.1c-0.1,0.1-0.3,0-0.4,0.2c-0.1,0.2,0.1,0.2,0.1,0.4
			v0.1c-0.2,0-0.2,0-0.4-0.1c0,0.2-0.1,0.3-0.1,0.5c-0.3,0.2-0.6,0.2-1,0.1c-0.3-0.2-0.6-0.2-0.9-0.4c0-0.3,0.2-0.5,0.5-0.6
			c0.2-0.1,0.3-0.1,0.5-0.2c0.2-0.1,0.3-0.1,0.3-0.3c-0.2-0.1-0.2-0.1-0.4-0.2v-0.1c0,0,0.1-0.1,0.2-0.1c0.1-0.1,0.2-0.2,0.1-0.2
			c0-0.1-0.2-0.1-0.2-0.2h-0.2c-0.1,0-0.2-0.1-0.2-0.1c-0.1-0.1-0.1-0.2,0-0.2C37,34.9,37.2,34.6,37.6,34.6 M37.1,35
			c0.2,0.2,0.2,0.2,0.3,0C37.3,34.9,37.2,34.9,37.1,35"/>
		<path d="M35.3,39.7c0.2-0.2,0.3-0.3,0.5-0.5c0.2-0.2,0.3-0.2,0.5-0.4c0.3-0.2,0.5-0.2,0.9,0v0.3c0,0.1,0.1,0.2,0.1,0.2
			c-0.2,0.1-0.4,0.2-0.5,0.3c-0.2,0.2-0.4,0.4-0.4,0.7c0,0.2,0,0.5,0.2,0.7c-0.2,0-0.5-0.2-0.6,0.1c-0.1,0.1-0.2,0.2-0.2,0.3
			c-0.2,0-0.3-0.1-0.5-0.1h-0.5c0.1-0.1,0.1-0.2,0.1-0.2c-0.1,0-0.1-0.1-0.2-0.1c0-0.1,0.1-0.2,0.2-0.2c0.2,0.1,0.1-0.1,0.2-0.2
			c0.2-0.1,0.2,0.2,0.3,0.2c0.1-0.1,0.2-0.1,0.3-0.2c0.1-0.1,0.2-0.2,0.2-0.2c0-0.2-0.1-0.3-0.2-0.5C35.5,39.9,35.4,39.8,35.3,39.7"
			/>
		<path d="M35.2,35.9c-0.3,0.1-0.3,0.1-0.5,0.2c0,0.2,0.2,0.2,0.2,0.2c0.3,0,0.6,0.1,0.9,0.2c-0.1,0.2-0.1,0.2-0.2,0.4h-0.2
			c-0.3-0.2-0.6-0.3-1-0.5c-0.2,0.1-0.2,0.2-0.4,0.3c-0.1,0-0.2-0.1-0.2-0.2c0-0.1,0.1-0.2,0.1-0.2c0-0.1-0.2-0.1-0.1-0.2l0.1-0.1
			c0-0.2,0.1-0.2,0.2-0.2c0,0,0.1,0,0.1-0.1c0-0.1-0.1-0.2-0.1-0.2c0.1-0.1,0.2,0,0.2,0s0.1,0,0.1-0.1c0.3-0.4,0.5-0.8,0.9-1.2
			c0.1-0.1,0.2-0.2,0.2-0.2c0.1-0.1,0.2-0.1,0.2,0c0,0.2-0.1,0.3-0.2,0.4c-0.2,0.4-0.5,0.8-0.8,1.2C35.1,35.8,35.1,35.9,35.2,35.9"
			/>
		<path d="M40.1,36.2h-0.5l-0.1-0.1v-1.2c0-0.2,0.1-0.2,0.2-0.2c0.2,0,0.2,0.1,0.3,0.2v0.1V36.2z"/>
		<path d="M37.2,41.5c0.4-0.1,0.4,0,0.5,0.2v1.1c0,0.2-0.1,0.2-0.2,0.2c-0.2,0-0.2-0.1-0.2-0.2C37.1,42.3,37.1,41.8,37.2,41.5"/>
		<path d="M36.6,35.6c-0.2,0.2-0.2,0.2-0.5,0C36.3,35.6,36.5,35.6,36.6,35.6"/>
		<path d="M44.8,32.7C44.8,32.7,44.8,32.6,44.8,32.7c0.2-0.1,0.3-0.2,0.4-0.2l0.1,0.1C45.2,32.8,44.9,32.9,44.8,32.7
			C44.8,32.8,44.8,32.8,44.8,32.7"/>
	</g>
	<ellipse transform="matrix(8.304548e-02 -0.9965 0.9965 8.304548e-02 105.3888 172.873)" cx="146.6" cy="29.2" rx="0.5" ry="0.6"/>
	<path d="M121.1,28.1c0.3-0.1,0.5-0.1,0.7,0.2c0.2,0.3,0.1,0.4,0,0.6c-0.3,0.5-0.7,0.9-1.3,1.1h-0.3c0.1-0.3,0.3-0.4,0.4-0.7
		c0.1-0.2,0.3-0.4,0.3-0.6C120.9,28.5,121,28.3,121.1,28.1"/>
	<ellipse transform="matrix(8.304548e-02 -0.9965 0.9965 8.304548e-02 35.7434 97.1824)" cx="70.7" cy="29.2" rx="0.5" ry="0.6"/>
</g>
</svg>
