<?xml version="1.0" encoding="utf-8"?>
<!-- Generator: Adobe Illustrator 22.0.1, SVG Export Plug-In . SVG Version: 6.00 Build 0)  -->
<svg version="1.1" id="Layer_1" xmlns="http://www.w3.org/2000/svg" xmlns:xlink="http://www.w3.org/1999/xlink" x="0px" y="0px"
	 viewBox="0 0 177.5 57.3" style="enable-background:new 0 0 177.5 57.3;" xml:space="preserve">
<style type="text/css">
	.st0{opacity:0.19;fill:#010101;}
	.st1{fill:#010101;}
	.st2{fill:#4D4D4D;}
	.st3{fill:#1D1C1A;}
	.st4{fill-rule:evenodd;clip-rule:evenodd;fill:#010101;}
</style>
<g>
	<path d="M20.2,22.8L9.4,12.2v9.3l6,6c0.6,0.6,0.6,1.7,0,2.3l-6,6v9.3l10.7-10.6C23.4,31.3,23.4,26,20.2,22.8"/>
	<path d="M82.8,12.2h-6.6c-2.7,0-4.9,2.2-4.9,4.9v28h3.3V30.3h8.2c2.7,0,4.9-2.2,4.9-4.9v-8.2C87.8,14.4,85.6,12.2,82.8,12.2
		 M84.5,25.4c0,0.9-0.7,1.6-1.6,1.6h-8.2v-9.9c0-0.9,0.7-1.6,1.6-1.6h6.6c0.9,0,1.6,0.7,1.6,1.6V25.4z"/>
	<path d="M103.3,45.1h-6.6c-2.7,0-4.9-2.2-4.9-4.9v-28H95v28c0,0.9,0.7,1.6,1.6,1.6h6.6c0.9,0,1.6-0.7,1.6-1.6v-28h3.3v28
		C108.2,42.9,106,45.1,103.3,45.1"/>
	<path d="M163.2,45.1h-6.6c-2.7,0-4.9-2.2-4.9-4.9V17.1c0-2.7,2.2-4.9,4.9-4.9h6.6c2.7,0,4.9,2.2,4.9,4.9v23.1
		C168.1,42.9,165.9,45.1,163.2,45.1 M156.6,15.5c-0.9,0-1.6,0.7-1.6,1.6v23.1c0,0.9,0.7,1.6,1.6,1.6h6.6c0.9,0,1.6-0.7,1.6-1.6V17.1
		c0-0.9-0.7-1.6-1.6-1.6H156.6z"/>
	<path d="M62.4,12.2H42.7c-2.7,0-4.9,2.2-4.9,4.9v28H41v-28c0-0.9,0.7-1.6,1.6-1.6h8.2v29.6h3.3V15.5h8.2c0.9,0,1.6,0.7,1.6,1.6v28
		h3.3v-28C67.4,14.4,65.2,12.2,62.4,12.2"/>
	<rect x="30.5" y="12.2" width="3.3" height="32.9"/>
	<path d="M142.8,45.1h-11.5v-3.3h11.5c0.9,0,1.6-0.7,1.6-1.6v-8.2c0-0.9-0.7-1.6-1.6-1.6h-6.6c-2.7,0-4.9-2.2-4.9-4.9v-8.2
		c0-2.7,2.2-4.9,4.9-4.9h11.5v3.3h-11.5c-0.9,0-1.6,0.7-1.6,1.6v8.2c0,0.9,0.7,1.6,1.6,1.6h6.6c2.7,0,4.9,2.2,4.9,4.9v8.2
		C147.7,42.9,145.5,45.1,142.8,45.1"/>
	<path d="M128.6,45.1h-11.5c-2.7,0-4.9-2.2-4.9-4.9v-28h3.3v28c0,0.9,0.7,1.6,1.6,1.6h11.5V45.1z"/>
</g>
</svg>
