<?xml version="1.0" encoding="utf-8"?>
<!-- Generator: Adobe Illustrator 22.0.1, SVG Export Plug-In . SVG Version: 6.00 Build 0)  -->
<svg version="1.1" id="Layer_1" xmlns="http://www.w3.org/2000/svg" xmlns:xlink="http://www.w3.org/1999/xlink" x="0px" y="0px"
	 viewBox="0 0 177.5 57.3" style="enable-background:new 0 0 177.5 57.3;" xml:space="preserve">
<style type="text/css">
	.st0{opacity:0.19;fill:#010101;}
	.st1{fill:#010101;}
	.st2{fill:#4D4D4D;}
	.st3{fill:#1D1C1A;}
	.st4{fill-rule:evenodd;clip-rule:evenodd;fill:#010101;}
</style>
<g>
	<path d="M88.5,42.3c-6.1,0-12.1,0-18.2,0c-0.8,0-1.6,0-2.4,0c-1.9-0.1-3.7-0.5-5.4-1.1c-6.3-2.3-10.9-7.5-12.5-14.1
		c-0.5-2.1-0.6-4.1-0.4-6.2c0.4-5,2.5-9.2,6.1-12.7c2.9-2.8,6.3-4.5,10.3-5.2c1.2-0.2,2.5-0.3,3.8-0.3c4.9,0,9.8,0,14.8,0
		c7.6,0,15.3,0,22.9,0c1,0,2,0,3,0.2c2.5,0.3,4.8,1,7,2.3c5.3,3,8.6,7.4,9.9,13.3c2.2,10.6-4.3,20.6-14.4,23.3
		c-1.6,0.4-3.2,0.6-4.9,0.6C101.4,42.3,94.9,42.3,88.5,42.3C88.5,42.3,88.5,42.3,88.5,42.3z M88.5,41.6c6.3,0,12.6,0,18.9,0
		c1.8,0,3.5-0.2,5.2-0.7c9.1-2.5,15.3-11.2,14.1-20.8c-0.4-3.2-1.5-6.1-3.4-8.7c-3.9-5.3-9.2-8.1-15.8-8.1c-12.6-0.1-25.2,0-37.9,0
		c-1,0-1.9,0.1-2.9,0.2C63.5,4,60.6,5.2,58,7.1c-5.9,4.3-8.8,11.5-7.6,18.6c0.7,3.9,2.4,7.3,5.2,10.1c3.8,3.9,8.5,5.8,14,5.8
		C75.9,41.6,82.2,41.6,88.5,41.6z"/>
	<path d="M55.4,55c-0.5,0-1.1,0-1.6,0c0-2.3,0-4.6,0-7c0.8,0,1.5,0,2.3,0c0.3,1.4,0.6,2.7,1,4.1c0,0,0.1,0,0.1,0
		c0.3-1.4,0.6-2.8,1-4.1c0.7,0,1.5,0,2.2,0c0.1,0.3,0.1,6.4,0,7c-0.5,0-1,0-1.6,0c0-1.4,0-2.7,0-4.1c-0.3,1.4-0.6,2.7-1,4.1
		c-0.4,0-0.9,0-1.3,0c-0.3-1.3-0.6-2.6-0.9-3.9c0,0,0,0,0,0C55.4,52.4,55.4,53.7,55.4,55z"/>
	<path d="M87.5,48.1c0.6,0,1.2,0,1.8,0c0.1,0.4,0,0.8,0,1.2c0,0.4,0,0.7,0,1.2c0.6,0,1.2,0,1.8,0c0-0.8,0-1.5,0-2.3
		c0.6,0,1.2,0,1.8,0c0.1,0.3,0.1,6.2,0,7c-0.3,0-0.6,0-0.9,0c-0.3,0-0.6,0-0.9,0c0-0.9,0-1.8,0-2.7c-0.6,0-1.2,0-1.8,0
		c0,0.9,0,1.8,0,2.7c-0.6,0-1.2,0-1.8,0C87.4,54.8,87.4,48.5,87.5,48.1z"/>
	<path d="M106.7,52.7c-0.3,0-0.5,0-0.8,0c0-0.5,0-1,0-1.5c0.8,0,1.7,0,2.5,0c0.1,0.3,0.1,2.9,0,3.8c-0.4,0-0.8,0-1.2,0
		c0-0.2-0.1-0.4-0.1-0.6c-0.1,0.1-0.1,0.1-0.2,0.1c-0.7,0.9-2.4,0.8-3.3,0c-0.6-0.6-0.9-1.3-1-2.1c-0.1-0.8-0.1-1.5,0.1-2.3
		c0.1-0.3,0.2-0.7,0.4-1c1.1-1.8,3.4-1.6,4.4-0.5c0.4,0.5,0.7,1.1,0.8,1.7c-0.3,0.1-0.6,0-0.9,0c-0.3,0-0.6,0-0.9,0
		c-0.1-0.1-0.1-0.3-0.2-0.4c-0.2-0.3-0.4-0.5-0.8-0.5c-0.4,0-0.6,0.2-0.8,0.5c-0.1,0.3-0.2,0.5-0.3,0.8c-0.1,0.6-0.1,1.2,0.1,1.8
		c0.2,0.6,0.6,0.9,1.1,0.9C106.3,53.5,106.6,53.2,106.7,52.7z"/>
	<path d="M74.7,48.1c0.6,0,1.2,0,1.9,0c0,0.2,0,0.3,0,0.4c0,1.2,0,2.5,0,3.7c0,0.3,0,0.5,0.1,0.8c0.1,0.4,0.3,0.5,0.7,0.5
		c0.4,0,0.7-0.1,0.8-0.5c0.1-0.3,0.1-0.6,0.1-0.9c0-1.2,0-2.4,0-3.7c0-0.1,0-0.3,0-0.4c0.6,0,1.3,0,1.9,0c0,0.1,0,0.3,0,0.4
		c0,1.2,0,2.3,0,3.5c0,0.5,0,0.9-0.1,1.4c-0.2,1.1-0.9,1.7-2,1.9c-0.6,0.1-1.1,0.1-1.7-0.1c-0.7-0.2-1.2-0.6-1.4-1.2
		c-0.2-0.4-0.3-0.9-0.3-1.3c0-1.5,0-2.9,0-4.4C74.6,48.2,74.6,48.1,74.7,48.1z"/>
	<path d="M65,48.1c0.6,0,1.2,0,1.9,0c0,0.1,0,0.3,0,0.4c0,1.2,0,2.4,0,3.6c0,0.5,0,1-0.2,1.5c-0.3,1-1,1.5-1.9,1.6
		c-0.5,0.1-1,0.1-1.6-0.1c-0.8-0.2-1.3-0.6-1.6-1.3c-0.2-0.5-0.3-1-0.3-1.6c0-1.3,0-2.6,0-3.9c0-0.1,0-0.1,0-0.2c0.6,0,1.2,0,1.9,0
		c0,0.1,0,0.3,0,0.4c0,1.2,0,2.4,0,3.6c0,0.3,0,0.6,0.1,0.9c0.1,0.4,0.3,0.5,0.7,0.5c0.4,0,0.7-0.1,0.8-0.4c0.1-0.3,0.1-0.5,0.1-0.8
		c0-1.2,0-2.5,0-3.7C65,48.4,65,48.2,65,48.1z"/>
	<path d="M68,48.1c0.6,0,1.2,0,1.9,0c0,0.2,0,0.3,0,0.4c0,1.2,0,2.4,0,3.6c0,0.3,0,0.6,0.1,0.8c0.1,0.4,0.3,0.5,0.7,0.5
		c0.4,0,0.7-0.1,0.8-0.5c0.1-0.3,0.1-0.5,0.1-0.8c0-1.2,0-2.5,0-3.7c0-0.1,0-0.3,0-0.5c0.6,0,1.2,0,1.9,0c0,0.1,0,0.1,0,0.2
		c0,1.4,0,2.9,0,4.3c0,0.3-0.1,0.6-0.2,1c-0.2,0.9-0.8,1.5-1.8,1.6c-0.5,0.1-1,0.1-1.5,0c-1.1-0.2-1.7-0.8-1.9-1.9
		C68,53,68,52.6,68,52.3c0-1.3,0-2.7,0-4C68,48.2,68,48.2,68,48.1z"/>
	<path d="M128.4,49.7c0,0.4,0,0.7,0,1c0.8,0,1.5,0,2.3,0c0,0.6,0,1.1,0,1.6c-0.8,0-1.5,0-2.3,0c0,0.4,0,0.7,0,1.1c0.3,0,0.6,0,0.9,0
		c0.3,0,0.7,0,1,0c0.3,0,0.6,0,1,0c0,0.5,0,1.1,0,1.6c-0.3,0.1-4.1,0.1-4.8,0c0-2.3,0-4.6,0-6.9c1.5,0,3.1,0,4.6,0
		c0.1,0.3,0.1,1.1,0,1.6C130.3,49.7,129.4,49.7,128.4,49.7z"/>
	<path d="M36.4,49.7c-0.9,0-1.8,0-2.7,0c-0.1,0.3,0,0.6,0,1c0.8,0,1.5,0,2.3,0c0,0.5,0,1.1,0,1.6c-0.8,0-1.5,0-2.3,0
		c0,0.4,0,0.7,0,1.1c0.9,0,1.9,0,2.9,0c0,0.6,0,1.1,0,1.6c-1.6,0-3.2,0-4.8,0c0-2.3,0-4.6,0-7c1.5,0,3.1,0,4.6,0
		C36.4,48.6,36.4,49.1,36.4,49.7z"/>
	<path d="M42.2,50.1c-0.6,0-1.1,0-1.6,0c-0.2-0.2-0.3-0.4-0.5-0.5c-0.2-0.1-0.4-0.1-0.6-0.1c-0.2,0-0.3,0.1-0.4,0.3
		c0,0.2,0,0.3,0.2,0.4c0.1,0.1,0.3,0.2,0.4,0.2c0.4,0.1,0.8,0.3,1.1,0.4c1.3,0.5,1.7,1.3,1.4,2.7c-0.1,0.5-0.4,1-0.9,1.2
		c-0.9,0.5-1.9,0.6-2.9,0.1c-0.8-0.4-1.3-1.1-1.3-2.1c0.3,0,0.6,0,0.9,0c0.3,0,0.6,0,0.9,0c0,0.1,0.1,0.1,0.1,0.1
		c0.2,0.5,0.7,0.7,1.2,0.5c0.2-0.1,0.3-0.2,0.3-0.4c0-0.2-0.1-0.3-0.2-0.4c-0.1-0.1-0.2-0.1-0.4-0.2c-0.3-0.1-0.7-0.2-1-0.4
		c-0.1,0-0.1,0-0.2-0.1c-1.3-0.5-1.8-1.5-1.4-2.9c0.1-0.5,0.5-0.9,1-1.1c0.8-0.4,1.6-0.4,2.4-0.1C41.6,48.3,42.2,49.2,42.2,50.1z"/>
	<path d="M86.7,52.3c-0.1,0.7-0.3,1.4-0.7,2c-0.5,0.6-1.1,0.9-1.8,0.9c-1.6,0.1-2.7-0.7-3.1-2.2c-0.2-0.9-0.3-1.9,0-2.8
		c0.1-0.3,0.2-0.6,0.3-0.8c0.9-1.7,2.6-1.8,3.9-1.2c1,0.5,1.3,1.4,1.4,2.5c-0.3,0.1-0.6,0-0.9,0c-0.3,0-0.6,0-0.9,0
		c0-0.1-0.1-0.2-0.1-0.3c-0.1-0.2-0.1-0.3-0.2-0.5c-0.4-0.6-1.2-0.6-1.5,0c-0.2,0.3-0.2,0.6-0.3,0.9c-0.1,0.6-0.1,1.3,0.1,1.9
		c0.1,0.4,0.3,0.6,0.7,0.7c0.5,0.1,0.9-0.1,1.1-0.6c0.1-0.2,0.1-0.3,0.2-0.5C85.5,52.3,86,52.3,86.7,52.3z"/>
	<path d="M143.5,55c-0.7,0-1.2,0-1.9,0c-0.1-0.3-0.2-0.6-0.2-0.9c-0.6,0-1.2,0-1.9,0c-0.1,0.3-0.2,0.6-0.2,0.9c-0.6,0-1.2,0-1.8,0
		c0.7-2.3,1.4-4.6,2-7c0.6,0,1.2,0,1.9,0C142.2,50.4,142.8,52.7,143.5,55z M139.9,52.6c0.4,0,0.8,0,1.2,0c-0.2-0.8-0.3-1.5-0.6-2.3
		C140.3,51.1,140.1,51.9,139.9,52.6z"/>
	<path d="M97.6,48.1c0.7,2.3,1.4,4.6,2.1,7c-0.6,0-1.2,0-1.9,0c-0.1-0.3-0.2-0.6-0.2-0.9c-0.6,0-1.2,0-1.8,0
		c-0.1,0.3-0.2,0.6-0.2,0.9c-0.6,0-1.2,0-1.8,0c0.7-2.3,1.4-4.7,2.1-7C96.3,48.1,96.9,48.1,97.6,48.1z M96.7,50.3
		C96.7,50.3,96.6,50.4,96.7,50.3c-0.3,0.8-0.4,1.5-0.6,2.3c0.4,0,0.8,0,1.2,0C97,51.8,96.9,51.1,96.7,50.3z"/>
	<path d="M111.2,48.1c0.6,0,1.3,0,1.9,0c0.7,2.3,1.4,4.6,2.1,7c-0.6,0-1.2,0-1.9,0c-0.1-0.3-0.2-0.6-0.2-0.9c-0.6,0-1.2,0-1.9,0
		c-0.1,0.3-0.2,0.6-0.2,0.9c-0.6,0-1.2,0-1.8,0C109.8,52.7,110.5,50.4,111.2,48.1z M112.2,50.4C112.2,50.4,112.1,50.4,112.2,50.4
		c-0.3,0.8-0.4,1.5-0.6,2.3c0.4,0,0.8,0,1.1,0c0-0.1,0-0.2-0.1-0.3C112.5,51.7,112.3,51,112.2,50.4z"/>
	<path d="M137.2,48.1c0,0.6,0,1.2,0,1.8c-0.6,0-1.1,0-1.7,0c0,0.5,0,0.9,0,1.3c0,0.4,0,0.9,0,1.3c0,0.4,0,0.8,0,1.2
		c0,0.4,0,0.9,0,1.3c-0.6,0-1.2,0-1.9,0c0-0.4,0-0.8,0-1.3c0-0.4,0-0.9,0-1.3c0-0.4,0-0.8,0-1.2c0-0.4,0-0.9,0-1.3
		c-0.6,0-1.1,0-1.7,0c0-0.6,0-1.2,0-1.8C132.2,48,136.7,48,137.2,48.1z"/>
	<path d="M115.9,48.1c0.6,0,1.2,0,1.8,0c0,0.9,0,1.8,0,2.6c0,0.9,0,1.8,0,2.7c0.9,0,1.7,0,2.6,0c0,0.5,0,1.1,0,1.6
		c-1.5,0-2.9,0-4.4,0C115.9,54.8,115.8,48.5,115.9,48.1z"/>
	<path d="M123.1,53.4c0.9,0,1.7,0,2.6,0c0,0.5,0,1.1,0,1.6c-1.5,0-2.9,0-4.4,0c0-2.3,0-4.6,0-7c0.6,0,1.2,0,1.9,0
		C123.1,49.8,123.1,51.6,123.1,53.4z"/>
	<path d="M144.1,48c0.6,0,1.1,0,1.6,0c0.2,1.5-0.2,2.9-0.4,4.4c-0.3,0-0.6,0-0.9,0C144.3,51,144,49.6,144.1,48z"/>
	<path d="M43.1,53.1c0.5,0,1.1,0,1.6,0c0.1,0.3,0.1,1.5,0,2c-0.5,0-1.1,0-1.6,0C43.1,54.8,43.1,53.5,43.1,53.1z"/>
	<path d="M47.4,53.1c0,0.7,0,1.3,0,2c-0.5,0-1.1,0-1.6,0c-0.1-0.3-0.1-1.5,0-2C46.3,53.1,46.9,53.1,47.4,53.1z"/>
	<path d="M48.5,53.1c0.6,0,1.1,0,1.6,0c0,0.7,0,1.3,0,2c-0.6,0-1.1,0-1.6,0C48.4,54.8,48.4,53.5,48.5,53.1z"/>
	<path d="M145.7,55c-0.5,0-1.1,0-1.6,0c0-0.6,0-1.2,0-1.8c0.5,0,1.1,0,1.6,0C145.7,53.8,145.7,54.4,145.7,55z"/>
	<path d="M88.5,39.5c-5.9,0-11.9,0-17.8,0c-1.8,0-3.6-0.2-5.4-0.7c-4.2-1.2-7.6-3.5-10.1-7.1C53,28.5,52,25,52.3,21.2
		c0.3-3.8,1.8-7,4.4-9.8c2.7-2.9,6.1-4.7,10-5.5c1.3-0.3,2.7-0.4,4.1-0.4c11.9,0,23.8,0,35.6,0c4.4,0,8.4,1.3,11.8,4
		c3.1,2.4,5.2,5.5,6.1,9.3c1.2,5.3-0.1,10.1-3.6,14.3c-2.7,3.1-6.2,5-10.2,5.9c-1.4,0.3-2.9,0.4-4.3,0.4
		C100.3,39.5,94.4,39.5,88.5,39.5z M88.5,38.3c5.4,0,10.7,0,16.1,0c1.3,0,2.7-0.1,4-0.4c4.4-1,7.9-3.2,10.5-6.9
		c2.4-3.5,3.2-7.4,2.4-11.6c-0.7-3.7-2.7-6.7-5.6-9.1c-3.2-2.5-6.8-3.8-10.9-3.8c-10.9,0-21.9,0-32.8,0c-1,0-2,0.1-3,0.2
		c-4.2,0.7-7.6,2.7-10.3,5.9c-2.7,3.3-3.9,7.2-3.4,11.5c0.4,3.8,2.2,7,5,9.5c3.3,3,7.3,4.5,11.7,4.5C77.6,38.4,83,38.3,88.5,38.3z"
		/>
	<path d="M118.2,22.5c0,1.5,0,3,0,4.5c0,0.7-0.2,1.4-0.5,2.1c-0.5,1.2-1.4,1.8-2.7,2c-0.6,0.1-1.2,0.1-1.8-0.1
		c-1.1-0.3-1.9-0.9-2.3-2c-0.4-0.9-0.5-1.8-0.5-2.7c0-2.5,0-5,0-7.4c0-0.5,0-1,0.1-1.4c0.1-0.5,0.2-1,0.4-1.5
		c0.4-1.1,1.3-1.8,2.5-2.1c0.7-0.1,1.5-0.1,2.2,0c1.1,0.3,1.8,0.9,2.2,1.9c0.3,0.6,0.4,1.3,0.5,2c0,0.5,0,1.1,0,1.6
		C118.3,20.5,118.3,21.5,118.2,22.5C118.2,22.5,118.2,22.5,118.2,22.5z M113.5,22.4C113.5,22.4,113.5,22.4,113.5,22.4
		c0,1.6,0,3.2,0,4.8c0,0.3,0.1,0.5,0.2,0.8c0.1,0.3,0.3,0.4,0.6,0.4c0.3,0,0.6-0.2,0.7-0.5c0.1-0.3,0.1-0.6,0.1-0.9c0-3,0-6.1,0-9.1
		c0-0.3,0-0.5-0.1-0.8c-0.1-0.4-0.4-0.6-0.7-0.6c-0.4,0-0.6,0.2-0.7,0.6c-0.1,0.3-0.1,0.6-0.1,0.8C113.5,19.5,113.5,20.9,113.5,22.4
		z"/>
	<path d="M68.8,22.4c0-1.3,0-2.5,0-3.8c0-0.7,0.1-1.5,0.3-2.2c0.1-0.3,0.2-0.5,0.3-0.8c0.4-0.9,1.2-1.5,2.1-1.7
		c0.8-0.2,1.6-0.2,2.4,0c1.2,0.3,1.9,1.1,2.3,2.2c0.3,0.8,0.4,1.5,0.4,2.3c0,2.7,0,5.3,0,8c0,0.6-0.1,1.2-0.2,1.7
		c-0.4,1.9-1.7,2.9-3.6,3c-0.3,0-0.7,0-1-0.1c-1.3-0.2-2.1-1-2.6-2.3c-0.3-0.8-0.4-1.6-0.4-2.4C68.8,25,68.8,23.7,68.8,22.4z
		 M71.9,22.5C71.9,22.5,71.9,22.5,71.9,22.5c0,1.5,0,3.1,0,4.6c0,0.3,0,0.5,0.1,0.8c0.1,0.4,0.3,0.5,0.7,0.5c0.3,0,0.6-0.1,0.7-0.5
		c0.1-0.2,0.1-0.5,0.1-0.7c0-3.2,0-6.3,0-9.5c0-0.2,0-0.5-0.1-0.7c-0.1-0.4-0.4-0.6-0.7-0.6c-0.3,0-0.6,0.2-0.7,0.6
		c-0.1,0.3-0.1,0.5-0.1,0.8C71.9,19.4,71.9,20.9,71.9,22.5z"/>
	<path d="M90.6,14.1c1.1,0,2,0,3.1,0c0,0.1,0,0.3,0,0.4c0,3.8,0,7.7,0,11.5c0,0.7-0.1,1.4-0.2,2.2c0,0.2-0.1,0.5-0.2,0.7
		c-0.4,1.2-1.2,1.9-2.4,2.1c-0.8,0.1-1.5,0.1-2.3,0c-1-0.2-1.7-0.8-2.2-1.7c-0.3-0.6-0.4-1.2-0.5-1.8c0-0.5-0.1-1-0.1-1.4
		c0-3.8,0-7.6,0-11.4c0-0.2,0-0.3,0-0.4c0.3-0.1,2.6-0.1,3.1,0c0,0.2,0,0.3,0,0.5c0,3.9,0,7.8,0,11.7c0,0.4,0,0.8,0.1,1.2
		c0,0.2,0.1,0.3,0.1,0.4c0.1,0.2,0.3,0.3,0.6,0.4c0.3,0,0.5-0.1,0.6-0.3c0.1-0.2,0.1-0.4,0.2-0.6c0-0.4,0.1-0.8,0.1-1.2
		c0-3.9,0-7.8,0-11.7C90.6,14.5,90.6,14.4,90.6,14.1z"/>
	<path d="M62.7,24.4c0,2.2,0,4.3,0,6.4c-0.4,0.1-2.7,0.1-3.1,0c-0.1-0.4-0.1-16.2,0-16.6c0.1,0,0.2,0,0.3,0c1.3,0,2.6,0,3.9,0
		c0.6,0,1.1,0.1,1.7,0.3c0.9,0.3,1.5,0.9,1.7,1.8c0.1,0.4,0.2,0.9,0.2,1.4c0,1.1,0,2.1,0,3.2c0,0.3,0,0.5-0.1,0.8
		c-0.3,1.7-1.6,2.8-3.3,2.8C63.6,24.4,63.2,24.4,62.7,24.4z M62.7,21.9c0.1,0,0.2,0,0.3,0c0.8,0,1.1-0.2,1.2-1
		c0.1-0.4,0.1-0.8,0.1-1.2c0-0.8,0-1.6-0.1-2.4c-0.1-0.8-0.7-1.1-1.5-0.8C62.7,18.4,62.7,20.1,62.7,21.9z"/>
	<path d="M101.5,14.2c0,0.8,0,1.6,0,2.4c-0.4,0.1-0.7,0-1.1,0.1c-0.4,0-0.7,0-1.1,0c-0.4,0-0.7,0-1.1,0c-0.1,0.3-0.1,3.8,0,4.4
		c1,0.1,2.1,0,3.1,0c0,0.8,0,1.6,0,2.5c-0.2,0-0.3,0-0.4,0c-0.8,0-1.5,0-2.3,0c-0.1,0-0.3,0-0.4,0c-0.1,0.3-0.1,4.2,0,4.6
		c0.5,0,1.1,0,1.6,0c0.5,0,1.1,0,1.6,0c0.1,0.9,0,1.7,0,2.5c-0.4,0.1-6,0.1-6.4,0c-0.1-0.3-0.1-16.1,0-16.6
		C95.4,14.1,101,14.1,101.5,14.2z"/>
	<path d="M82,16.7c-1.4,0-2.8,0-4.1,0c0-0.8,0-1.6,0-2.5c0.1,0,0.3,0,0.4,0c2,0,4,0,5.9,0c0.1,0,0.2,0,0.4,0c0,0.2,0,0.3,0,0.5
		c0,1.2,0,2.3,0,3.5c0,0.3,0,0.5-0.1,0.8c-1.2,2.9-2.4,5.9-3.5,8.8c-0.1,0.2-0.1,0.3-0.2,0.5c1.3,0,2.5,0,3.8,0c0,0.9,0,1.7,0,2.5
		c-0.3,0.1-6.4,0.1-6.9,0c0-0.1,0-0.2,0-0.4c0-0.9,0-1.9,0-2.8c0-0.2,0.1-0.4,0.1-0.6c1.3-3.2,2.6-6.4,3.9-9.5
		C81.8,17.2,81.9,17,82,16.7z"/>
	<path d="M109.2,28.3c0,0.9,0,1.7,0,2.5c-0.4,0.1-6,0.1-6.4,0c-0.1-0.3-0.1-16.2,0-16.6c0.3-0.1,2.6-0.1,3,0c0,0.2,0,0.3,0,0.5
		c0,4.3,0,8.7,0,13c0,0.2,0,0.4,0,0.6C107,28.3,108.1,28.3,109.2,28.3z"/>
</g>
</svg>
