<?xml version="1.0" encoding="utf-8"?>
<!-- Generator: Adobe Illustrator 22.0.1, SVG Export Plug-In . SVG Version: 6.00 Build 0)  -->
<svg version="1.1" id="Layer_1" xmlns="http://www.w3.org/2000/svg" xmlns:xlink="http://www.w3.org/1999/xlink" x="0px" y="0px"
	 viewBox="0 0 177.5 57.3" style="enable-background:new 0 0 177.5 57.3;" xml:space="preserve">
<style type="text/css">
	.st0{opacity:0.19;fill:#010101;}
	.st1{fill:#010101;}
	.st2{fill:#4D4D4D;}
	.st3{fill:#1D1C1A;}
	.st4{fill-rule:evenodd;clip-rule:evenodd;fill:#010101;}
</style>
<g>
	<path d="M95,6.6c-0.6,1.1-1.2,2.3-1.9,3.5c0.9,0,1.7,0,2.5,0c0.2,0,0.4-0.3,0.5-0.5c0.3-0.7,0.5-1.4,0.8-2.1
		c0.2,0.1,0.4,0.2,0.5,0.3c4.6,2.7,7.5,6.6,8.5,11.9c1.6,7.8-2.8,16-10.2,19.1c-6.4,2.7-12.5,2.1-18.2-2c-3.9-2.8-6.2-6.8-6.8-11.6
		c-1.3-9.7,5.7-18.2,15-19.5c3.1-0.4,6.1-0.2,9.1,0.9C94.8,6.5,94.9,6.6,95,6.6z M97.3,17c-5.9,0-11.7,0-17.4,0
		c0.2,1.8,0.5,3.6,0.7,5.5c0.1,1.9-0.4,3.7-0.9,5.5c5.9,0,11.7,0,17.6,0C96.1,24.3,96.1,20.7,97.3,17z M101.2,34.1
		c0-0.1,0-0.2,0-0.2c-1.4-1.5-2.5-3.1-3.4-5c-0.1-0.2-0.4-0.3-0.6-0.3c-5.7,0-11.5,0-17.2,0c-0.4,0-0.5,0.1-0.7,0.5
		c-0.8,1.8-1.9,3.3-3.2,4.7c-0.1,0.1-0.1,0.2-0.2,0.3C84.3,34.1,92.7,34.1,101.2,34.1z M101.1,10.9c-8.4,0-16.8,0-25.3,0
		c0.1,0.1,0.1,0.2,0.2,0.3c1.4,1.4,2.4,3,3.3,4.8c0.1,0.2,0.4,0.4,0.6,0.4c5.7,0,11.5,0,17.2,0c0.2,0,0.5-0.2,0.6-0.4
		c0.4-0.7,0.8-1.5,1.3-2.2C99.6,12.8,100.4,11.9,101.1,10.9z"/>
	<path d="M65.3,46.2c-0.4,3.6-0.8,7.2-1.2,10.8c-0.5,0-0.9,0-1.4,0c-0.4-3.6-0.8-7.2-1.2-10.7c-0.1,0-0.1,0-0.2,0c0,0.8,0,1.6,0,2.5
		c0,2.1,0,4.2,0,6.3c0,0.3,0,0.6,0.4,0.9c0.2,0.1,0.1,0.7,0.2,1.1c-0.7,0-1.2,0-1.8,0c0-0.5-0.3-1,0.4-1.3c0.1,0,0.1-0.3,0.1-0.5
		c0-3.9,0-7.9,0-11.8c0-0.3-0.1-0.5-0.4-0.7c-0.2-0.2-0.2-0.7-0.3-1.1c1.1,0,2.1,0,3.2,0c0.3,2.4,0.5,4.8,0.8,7.2c0,0,0.1,0,0.1,0
		c0.3-2.4,0.5-4.8,0.8-7.2c1.1,0,2.1,0,3.1,0c0,0.5,0.3,1-0.4,1.3c-0.1,0-0.1,0.3-0.1,0.5c0,4,0,7.9,0,11.9c0,0.2,0.3,0.5,0.4,0.7
		c0.1,0,0.1,0,0.2-0.1c0,0.3,0,0.7,0,1.1c-1.1,0-2.1,0-3.2,0c0-0.5-0.3-1,0.4-1.2c0.1,0,0.1-0.2,0.1-0.3c0-3.1,0-6.1,0-9.2
		C65.4,46.2,65.4,46.2,65.3,46.2z"/>
	<path d="M100.5,49.3c1.3,0.5,1.7,1.5,1.7,2.7c0,1.1,0,2.2,0,3.3c0,0.2,0,0.4,0.1,0.5c0.6,0.5,0.6,0.5,0.5,1.2c-1,0-1.9,0-3,0
		c0-0.7,0-1.4,0-2.2c0-1.3,0-2.6-0.1-3.9c0-0.5-0.3-1-0.9-0.9c-0.2,0-0.5,0.3-0.5,0.4c0,1.6,0,3.3,0,4.9c0,0.2,0.4,0.4,0.6,0.7
		c0,0,0.1-0.1,0.1-0.1c0,0.3,0,0.6,0,1c-1.2,0-2.4,0-3.7,0c0-0.3,0-0.7,0-1.1c0.6,0,0.6-0.4,0.6-0.8c0-3.8,0-7.7,0-11.5
		c0-0.3,0-0.5-0.3-0.8c-0.2-0.1-0.2-0.7-0.3-1.2c0.4,0,0.6,0,0.8,0c1.1,0,2.1,0,3.2,0c1.7,0,2.6,0.7,2.8,2.3c0.1,1.1,0.1,2.2,0,3.3
		c-0.1,0.5-0.5,1-0.9,1.4C101.1,49,100.8,49.1,100.5,49.3z M98.4,45.8c0,0.8,0,1.5,0,2.3c0,0.2,0.1,0.6,0.1,0.6c0.3,0,0.6,0,0.9-0.2
		c0.2-0.2,0.4-0.5,0.4-0.8c0-1.3,0-2.5,0-3.8c0-0.5-0.3-0.9-0.9-1.1c-0.4-0.1-0.6,0-0.6,0.4C98.4,44.2,98.4,45,98.4,45.8z"/>
	<path d="M76.4,41.7c1.5,0,2.9-0.1,4.2,0c1.2,0.1,1.9,0.9,2.2,1.9c0.4,1.2,0.7,2.4,0.8,3.6c0.2,2.2,0.2,4.4-0.3,6.6
		c-0.2,0.8-0.6,1.5-1,2.2c-0.5,0.7-1.2,1-2.1,1c-1.2,0-2.4,0-3.7,0c0-0.5-0.4-1.1,0.5-1.3c0.1,0,0.1-0.3,0.1-0.5c0-3.9,0-7.9,0-11.8
		c0-0.2-0.2-0.4-0.3-0.6C76.6,42.5,76.6,42.2,76.4,41.7z M79.4,49.4c0,1.9,0,3.9,0,5.8c0,0.2,0.1,0.6,0.2,0.6c0.3,0,0.7,0,0.9-0.2
		c0.2-0.2,0.3-0.6,0.4-0.9c0.1-3.3,0.1-6.5,0.1-9.8c0-0.5-0.1-1.1-0.4-1.6c-0.1-0.2-0.6-0.3-0.9-0.4c-0.1,0.2-0.3,0.5-0.3,0.7
		C79.4,45.6,79.4,47.5,79.4,49.4z"/>
	<path d="M70.5,43c-0.2-0.1-0.4-0.1-0.6-0.2c0-0.4,0-0.7,0-1.1c2.1,0,4.1,0,6.2,0c0,1.7,0,3.4,0,5.1c-0.1,0-0.1,0.1-0.1,0.1
		c-1.4,0.1-1.4,0.1-1.4-1.2c0-0.7,0-1.4,0-2.2c0-0.4-0.1-0.6-0.5-0.5c-0.2,0-0.3,0-0.5,0c-0.5-0.1-0.7,0.1-0.7,0.7
		c0,1.4,0,2.9,0,4.3c0,0.5,0.1,0.6,0.6,0.6c0.5,0,1,0,1.5,0c0,0.4,0,0.8,0,1.2c-0.5,0-1,0-1.5,0c-0.4,0-0.6,0.1-0.6,0.5
		c0,1.7,0,3.5,0,5.2c0,0.3,0.1,0.5,0.5,0.5c0.2,0,0.4,0,0.7,0c0.4,0,0.5-0.1,0.5-0.5c0-1.2,0-2.4,0-3.6c0-0.2,0-0.5,0-0.8
		c0.5,0,1,0,1.5,0c0,2,0,4,0,6c-2.1,0-4.1,0-6.2,0c0-0.4,0-0.7,0-1.1c0.4,0,0.7-0.2,0.7-0.7c0-3.9,0-7.9,0-11.8
		C70.5,43.3,70.5,43.2,70.5,43z"/>
	<path d="M110.4,57.1c-1.2,0-2.4,0-3.6,0c0-0.5-0.4-1.1,0.5-1.3c0.1,0,0.1-0.3,0.1-0.5c-0.1-0.8-0.2-1.7-0.3-2.5
		c0-0.1-0.1-0.3-0.2-0.3c-0.5,0-1.1,0-1.6,0c-0.1,0-0.3,0.2-0.3,0.4c-0.1,0.8-0.2,1.7-0.3,2.5c0,0.2,0.1,0.4,0.2,0.4
		c0.9,0.1,0.4,0.8,0.5,1.3c-0.7,0-1.3,0-1.9,0c-0.1,0-0.3-0.2-0.3-0.3c0-0.3,0.1-0.6,0.2-0.9c0.1-0.3,0.4-0.5,0.4-0.7
		c0.4-3.7,0.9-7.4,1.3-11c0.1-0.7,0.2-1.3,0.2-2c0-0.3,0.1-0.5,0.5-0.5c0.7,0,1.4,0,2,0c0.4,0,0.5,0.2,0.6,0.5
		c0.2,2.4,0.5,4.8,0.8,7.3c0.2,2,0.4,4,0.7,5.9c0,0.1,0,0.3,0.1,0.4C110.7,56,110.3,56.6,110.4,57.1z M106.2,44.2
		c-0.1,0-0.1,0-0.2,0c0,0.3-0.1,0.6-0.1,0.9c-0.2,1.6-0.4,3.3-0.6,4.9c-0.2,1.3-0.2,1.2,1.1,1.2c0.4,0,0.5-0.2,0.5-0.5
		c-0.1-0.5-0.1-1-0.1-1.4C106.5,47.6,106.4,45.9,106.2,44.2z"/>
	<path d="M94.4,46.2c-0.5,0-1,0-1.6,0c0-0.6,0-1.2,0-1.8c0-0.4,0-0.8-0.2-1.1c-0.2-0.3-0.6-0.7-0.8-0.7c-0.3,0-0.7,0.4-0.9,0.7
		c-0.2,0.4-0.3,0.9-0.3,1.3c0,3.2,0,6.4,0,9.6c0,0.3,0,0.7,0.1,1c0.1,0.3,0.5,0.4,0.7,0.7c0.2-0.2,0.5-0.4,0.6-0.7
		c0.1-0.4,0.1-0.9,0.2-1.3c0-0.8,0-1.5,0-2.3c0-0.5,0-0.9-0.7-0.9c0-0.4,0-0.7,0-1.1c1,0,1.9,0,2.9,0c0,2.5,0,5,0,7.4
		c-0.8,0.1-0.8,0.1-0.9-0.8c-0.1,0.1-0.2,0.1-0.3,0.2c-0.6,0.7-1.4,1.1-2.3,0.8c-1.1-0.3-1.8-1.1-1.9-2.2c-0.2-2.1-0.3-4.2-0.3-6.2
		c0-1.5,0.1-3,0.2-4.5c0.1-1.8,1.4-3,3-2.8c0.6,0.1,1.1,0.5,1.7,0.8c-0.1-0.6,0.3-0.8,1-0.6C94.4,43.2,94.4,44.7,94.4,46.2z"/>
	<path d="M114.9,48.4c0.3-1.6,0.7-3.3,1-4.9c0-0.1,0-0.4-0.1-0.5c-0.5-0.4-0.5-0.4-0.4-1.2c0.7,0,1.4,0,2.1,0c0,0.4,0,0.7,0,1
		c0,0-0.1-0.1-0.1-0.1c-0.2,0.3-0.4,0.6-0.5,0.9c-0.5,2.4-1.1,4.7-1.5,7.1c-0.2,1.6-0.1,3.2-0.1,4.9c0,0.2,0.3,0.4,0.6,0.6
		c0,0.1,0,0.5,0,0.9c-1.2,0-2.4,0-3.7,0c0-0.5-0.3-1,0.5-1.2c0.1,0,0.1-0.4,0.2-0.7c0.2-2.5-0.2-4.9-0.8-7.3c-0.4-1.4-0.7-2.9-1-4.4
		c0-0.2-0.1-0.4-0.2-0.5c-0.8-0.2-0.4-0.8-0.5-1.2c1.3,0,2.5,0,3.7,0c-0.1,0.5,0.3,1-0.4,1.2c-0.1,0-0.1,0.2-0.1,0.3
		c0.3,1.7,0.6,3.4,1,5.1C114.8,48.4,114.9,48.4,114.9,48.4z"/>
	<path d="M84,57.1c0.1-0.5-0.3-1.1,0.5-1.3c0.1,0,0.2-0.3,0.2-0.5c0-4,0-7.9,0-11.9c0-0.2-0.3-0.4-0.5-0.6c-0.1,0-0.1,0.1-0.2,0.1
		c0-0.4,0-0.7,0-1.1c1.2,0,2.4,0,3.7,0c0,0.4,0,0.7,0,1.1c-0.6,0-0.6,0.4-0.6,0.9c0,3.8,0,7.5,0,11.3c0,0.5-0.1,1,0.7,0.9
		c0,0.4,0,0.8,0,1.1C86.5,57.1,85.3,57.1,84,57.1z"/>
	<path d="M96.8,7.3c-0.6-0.3-1.1-0.5-1.6-0.7c0-0.1,0-0.1,0-0.1c0.4-0.6,0.4-1.1-0.1-1.8c-0.8-1-0.8-2.2-0.2-3.3
		c0.7-1.2,1.7-1.7,3.1-1.6c1.3,0.1,2.2,0.8,2.7,2c0.7,1.9-0.5,4-2.5,4.1c-0.7,0.1-1,0.3-1.1,0.9C97,7,96.9,7.1,96.8,7.3z"/>
	<path d="M79.1,40.1c-2.8,0-5.4,0-7.9,0c-3.6,0-7.2,0-10.8,0c-0.5,0-0.7-0.1-0.7-0.7c0-0.4,0-0.7,0-1.2c0.3,0,0.5,0,0.7,0
		c4.8,0,9.6,0,14.5,0c0.4,0,0.7,0.2,1.1,0.4c0.8,0.4,1.6,0.8,2.3,1.2C78.5,39.9,78.7,40,79.1,40.1z"/>
	<path d="M98.9,40.1c0.9-0.5,1.9-1.1,3-1.7c0.1-0.1,0.3-0.1,0.4-0.1c5,0,10,0,15,0c0.1,0,0.3,0,0.5,0c0,0.6,0,1.2,0,1.8
		C111.4,40.1,105.1,40.1,98.9,40.1z"/>
</g>
</svg>
