<?xml version="1.0" encoding="utf-8"?>
<!-- Generator: Adobe Illustrator 22.0.1, SVG Export Plug-In . SVG Version: 6.00 Build 0)  -->
<svg version="1.1" id="Layer_1" xmlns="http://www.w3.org/2000/svg" xmlns:xlink="http://www.w3.org/1999/xlink" x="0px" y="0px"
	 viewBox="0 0 177.5 57.3" style="enable-background:new 0 0 177.5 57.3;" xml:space="preserve">
<style type="text/css">
	.st0{opacity:0.19;fill:#010101;}
	.st1{fill:#010101;}
	.st2{font-family:'CaviarDreams';}
	.st3{font-size:7.3431px;}
	.st4{letter-spacing:1;}
	.st5{fill:#4D4D4D;}
	.st6{fill:#1D1C1A;}
	.st7{fill-rule:evenodd;clip-rule:evenodd;fill:#010101;}
</style>
<g>
	<g>
		<path d="M91.7,41.5c-1.9,0-3.8,0.1-5.7,0c-0.9,0-1.9-0.2-2.8-0.5c-1.4-0.5-2.1-1.6-2.2-3.1c-0.1-3.1-0.1-6.3,0-9.4
			c0-1.4,0.8-2.6,2.1-3.1c0.8-0.3,1.7-0.5,2.5-0.6c4.1-0.1,8.1,0,12.2,0c0.8,0,1.6,0.2,2.3,0.5c1.4,0.5,2.2,1.6,2.3,3.1
			c0,3.1,0,6.3,0,9.4c0,1.7-1,2.7-2.4,3.2c-0.8,0.3-1.6,0.4-2.4,0.4C95.6,41.6,93.6,41.5,91.7,41.5z M91.7,38.8
			C91.7,38.8,91.7,38.8,91.7,38.8c1.8,0,3.6,0,5.3,0c1.4,0,1.8-0.5,1.8-1.9c0-2.5,0-5,0-7.5c0-1.3-0.3-1.6-1.6-1.7
			c-3.7,0-7.5,0-11.2,0c-1.2,0-1.6,0.4-1.6,1.7c0,2.5,0,5.1,0,7.6c0,1.2,0.4,1.5,1.5,1.7c0.3,0,0.7,0,1,0
			C88.6,38.8,90.2,38.8,91.7,38.8z"/>
		<path d="M101.2,14.3c0-2.2,0-4.3,0-6.5c0-1.1-0.1-1,1-1.1c1.5-0.2,2.3,0.4,3.1,1.6c2.1,3.1,4.4,6.1,6.6,9.2
			c0.2,0.2,0.3,0.5,0.5,0.7c0.3,0.4,0.5,0.3,0.8,0c0.8-1,1.5-2.1,2.3-3.1c1.8-2.5,3.6-5,5.4-7.5c0.4-0.6,0.9-0.8,1.6-0.8
			c1.7,0,1.7,0,1.7,1.8c0,4.1,0,8.1,0,12.2c0,0.3,0,0.6,0,0.9c-0.1,0.2-0.3,0.3-0.4,0.5c-0.1,0-0.2,0-0.2,0c-2.8,0-2.2,0.4-2.3-2.2
			c0-2,0-4.1,0-6.1c0-0.3,0-0.6,0-0.9c0-0.1-0.1-0.2-0.1-0.3c-0.1,0.1-0.3,0.1-0.4,0.2c-0.2,0.2-0.4,0.5-0.5,0.7
			c-1.8,2.5-3.7,5.1-5.5,7.7c-0.4,0.6-0.9,1-1.7,0.9c-0.2,0-0.3,0-0.5,0c-0.7,0.1-1.2-0.2-1.6-0.8c-1.8-2.6-3.7-5.1-5.6-7.6
			c-0.2-0.3-0.6-0.6-0.8-0.8c0,0.4-0.1,0.8-0.1,1.2c0,2.4,0,4.7,0,7.1c0,1,0,1-0.9,1c-2.2,0.1-2.2,0.1-2.2-2.1
			C101.2,18,101.2,16.1,101.2,14.3z"/>
		<path d="M53.3,33.2c0,2.4,0,4.9,0,7.3c0,1,0,1-1.1,1c-0.6,0-1.1-0.2-1.6-0.6c-4.9-3.6-9.8-7.1-14.6-10.7c-0.2-0.1-0.4-0.3-0.6-0.4
			c-0.2-0.1-0.5-0.2-0.7-0.3c0,0.2-0.1,0.5-0.1,0.7c0,3.2,0,6.4,0,9.6c0,0.2,0,0.4,0,0.6c0,1.1,0,1.1-1.1,1.1c-2.5,0-2,0.3-2-2
			c0-4.4,0-8.8,0-13.2c0-0.3,0-0.7,0-1c0-0.2,0.3-0.4,0.4-0.4c1.3,0,2.5-0.1,3.7,0.9c4.4,3.4,8.9,6.7,13.4,10.1
			c0.2,0.2,0.5,0.3,0.7,0.5c0.3,0.2,0.5,0.1,0.5-0.2c0-0.3,0-0.7,0-1c0-2.9,0-5.8,0-8.7c0-0.3,0-0.7,0-1c0-0.3,0.2-0.5,0.5-0.5
			c0.1,0,0.2,0,0.2,0c2.7,0,2.2-0.4,2.2,2.1C53.4,29,53.3,31.1,53.3,33.2z"/>
		<path d="M88.1,22c-2.2,0-4.3,0-6.5,0c-0.8,0-0.9,0-0.9-0.8c0-2.2-0.3-1.8,1.7-1.8c3.6,0,7.2,0,10.8,0c0.3,0,0.7,0,1,0
			c0.9-0.1,1.1-0.4,1.2-1.3c0-0.5,0-0.9,0-1.4c0-1.1-0.2-1.3-1.3-1.4c-0.4-0.1-0.7,0-1.1,0c-2.6,0-5.2,0-7.8,0
			c-0.9,0-1.8-0.1-2.7-0.4c-1.4-0.5-2.2-1.5-2.3-3.1c0-0.5,0-1,0-1.5c0.1-1.7,1-2.8,2.6-3.2c0.6-0.2,1.3-0.3,2-0.3c4,0,8,0,12.1,0
			c1,0,1,0,1,1c0,2,0.2,1.6-1.6,1.7c-3.4,0-6.9,0-10.3,0c-0.3,0-0.6,0-0.9,0c-1.3,0.1-1.8,0.6-1.6,1.9c0.1,0.7,0.3,1,1.1,1.2
			c0.5,0.1,1.1,0.1,1.6,0.1c2.6,0,5.2,0,7.8,0c0.8,0,1.7,0.1,2.4,0.3c1.5,0.4,2.2,1.5,2.3,3.1c0,0.8,0,1.6,0,2.4c0,1.9-1,3-2.8,3.4
			c-0.6,0.1-1.3,0.2-2,0.2C92,22,90,22,88.1,22z"/>
		<path d="M56.6,33.2c0-2.4,0-4.8,0-7.2c0-0.9,0-0.9,0.9-0.9c0.4,0,0.7,0,1.1,0c0.7-0.1,1.2,0.2,1.7,0.6c4.6,3.5,9.3,7,13.9,10.4
			c0.3,0.2,0.7,0.4,1,0.6c0.1-0.4,0.2-0.8,0.2-1.2c0-3.1,0-6.2,0-9.3c0-1.1,0-1.1,1.1-1.1c1.9,0,1.7-0.2,1.7,1.7c0,4.4,0,8.8,0,13.2
			c0,0.3,0,0.7,0,1c0,0.2-0.3,0.4-0.4,0.4c-0.7,0.1-1.3,0-1.9-0.4c-5-3.7-10-7.3-15-11c-0.4-0.3-0.8-0.5-1.2-0.8
			c0,0.5-0.1,1-0.1,1.5c0,3.3,0,6.6,0,9.8c0,0.9,0,0.9-0.9,1c-2,0-2,0-2-1.9C56.6,37.4,56.6,35.3,56.6,33.2z"/>
		<path d="M24.6,14.4c0-2.3,0-4.6,0-6.8c0-0.8,0-0.9,0.8-0.9c3.6,0,7.1,0,10.7,0c0.7,0,1.5,0.2,2.1,0.5c1,0.5,1.7,1.4,1.7,2.5
			c0,1.2,0.1,2.4,0,3.6c-0.1,1.5-1.1,2.6-2.6,2.9c-0.6,0.1-1.2,0.2-1.8,0.2c-2.2,0-4.5,0-6.7,0c-1.3,0-1.3,0-1.3,1.3
			c0,1.1,0,2.2,0,3.4c0,0.6-0.2,0.8-0.8,0.8c-2.6,0-2.1,0.3-2.2-2C24.6,18.1,24.6,16.2,24.6,14.4z M31.8,13.9c1.2,0,2.4,0,3.6,0
			c1.3,0,1.5-0.3,1.6-1.5c0-0.6,0-1.2,0-1.7c0-0.9-0.3-1.2-1.2-1.2c-2.5,0-5.1,0-7.6,0c-0.5,0-0.7,0.2-0.7,0.7c0,1,0,2,0,3
			c0,0.9,0,0.9,1,0.9C29.6,13.9,30.7,13.9,31.8,13.9z"/>
		<path d="M147.3,41.4c-1.4,0-2.1-0.5-2.8-1.6c-2.2-3.3-4.4-6.6-6.7-9.9c-0.1-0.2-0.2-0.3-0.3-0.5c-0.7-0.9-0.7-0.9-1.3,0
			c-2.2,3.1-4.3,6.3-6.5,9.4c-0.5,0.7-1,1.3-1.4,2c-0.2,0.3-0.4,0.6-0.9,0.6c-1,0-1.9,0-2.9,0c-0.4,0-0.4-0.1-0.2-0.4
			c0.3-0.4,0.6-0.9,0.9-1.3c3.2-4.6,6.4-9.1,9.7-13.7c0.2-0.3,0.5-0.8,0.8-0.8c0.8-0.1,1.6-0.1,2.3,0c0.2,0,0.3,0.3,0.5,0.5
			c3.5,5,7,10,10.5,15c0.1,0.1,0.2,0.3,0.3,0.4c0.1,0.2,0.1,0.4-0.2,0.4C148.5,41.5,148,41.4,147.3,41.4z"/>
		<path d="M76.7,22c-1.2,0.4-2-0.4-2.6-1.5c-1.9-3.1-3.9-6.1-5.8-9.1c-0.1-0.2-0.3-0.4-0.4-0.6c-0.2-0.3-0.4-0.3-0.6,0
			c-0.2,0.3-0.4,0.6-0.6,0.9c-2.1,3.2-4.1,6.3-6.1,9.5c-0.4,0.6-0.8,1-1.6,0.9c-0.7-0.1-1.4,0-2.1,0c-0.3,0-0.4-0.2-0.3-0.5
			c0.1-0.2,0.2-0.3,0.3-0.5c3-4.5,6-9,9-13.4c0.2-0.3,0.5-0.7,0.8-0.8c0.6-0.1,1.3,0,2,0c0.2,0,0.3,0.3,0.5,0.5
			c3.1,4.7,6.2,9.3,9.3,14c0.4,0.6,0.4,0.7-0.4,0.7C77.6,22,77.3,22,76.7,22z"/>
		<path d="M41.9,14.3c0-2.2,0-4.4,0-6.6c0-1,0-1,0.9-1c0.5,0,1.1,0,1.6,0c0.6,0,0.7,0.2,0.7,0.7c0,1.8,0,3.6,0,5.5
			c0,1.9,0,3.7,0,5.6c0,0.9,0,0.9,0.9,0.9c2.7,0,5.5,0,8.2,0c0.3,0,0.6,0,0.9,0c0.2,0.1,0.4,0.3,0.4,0.4c0,0.7-0.1,1.4-0.1,2.1
			c-0.6,0-1.1,0.1-1.7,0.1c-3.6,0-7.2,0-10.8,0c-1,0-1.1,0-1.1-1C41.8,18.7,41.9,16.5,41.9,14.3z"/>
		<path d="M27.7,33.4c0,2.4,0,4.8,0,7.2c0,0.8,0,0.8-0.8,0.8c-0.7,0-1.3,0-2,0c-0.4,0-0.6-0.1-0.6-0.6c0-0.2,0-0.4,0-0.6
			c0-4.7,0-9.3,0-14c0-0.2,0-0.4,0-0.6c0-0.4,0.2-0.5,0.5-0.5c0,0,0.1,0,0.1,0c0.9,0,1.7,0.1,2.6,0.1c0.1,0.8,0.1,1.6,0.2,2.4
			C27.7,29.5,27.7,31.5,27.7,33.4z"/>
		<path d="M88.5,44.6c-10.2,0-20.3,0-30.5,0c-0.4,0-0.8-0.1-1.2-0.1c0.4-0.1,0.8-0.2,1.3-0.2c20.3,0,40.6,0,60.9,0c0.3,0,0.7,0,1,0
			c0.1,0,0.2,0.1,0.3,0.1c-0.1,0-0.2,0.1-0.3,0.1c-0.3,0-0.7,0-1,0C108.8,44.6,98.7,44.6,88.5,44.6z"/>
		<path d="M150.4,16.1c0.1,0.2,0.2,0.3,0.3,0.5l0,0C150.6,16.4,150.5,16.3,150.4,16.1C150.4,16.1,150.4,16.1,150.4,16.1z"/>
		<path d="M151,17c-0.1-0.2-0.2-0.3-0.3-0.5l0,0C150.8,16.7,150.9,16.9,151,17L151,17z"/>
		<path d="M151,17.1c0,0.1,0.1,0.2,0.1,0.3c0,0,0,0-0.1,0.1C151,17.3,151,17.2,151,17.1L151,17.1z"/>
		<path d="M151.3,18.1C151.3,18.1,151.3,18.1,151.3,18.1C151.3,18.1,151.3,18.1,151.3,18.1C151.3,18,151.3,18,151.3,18.1
			C151.3,18,151.3,18.1,151.3,18.1z"/>
		<path d="M104.9,29.8c0-0.1-0.1-0.2-0.1-0.3c0,0,0,0,0.1-0.1C104.8,29.6,104.8,29.7,104.9,29.8L104.9,29.8z"/>
		<polygon points="104.5,29 104.5,28.9 104.5,28.9 		"/>
		<text transform="matrix(1.0398 0 0 1 24.2967 53.1193)" class="st2 st3 st4">Research  Tecnologies</text>
	</g>
	<path d="M103.5,23.2c0,0,1.6,8.3,5.8,13.8c1.8,2.3,4.2,4.5,7,4.6c2.8,0.2,5.7-3.3,8.6-8c7.6-12.3,8.9-25.3,14.4-27
		c2-0.7,3.5,0.3,5.1,1.5c5.4,3.8,8.8,14.4,8.8,14.4s-5.5-19.7-13.8-19.7c-5,0-8.9,15.5-14.9,25.9c-2.2,3.7-5,7.9-7.6,8.6
		C107.9,39.7,103.5,23.2,103.5,23.2z"/>
</g>
</svg>
