<?xml version="1.0" encoding="utf-8"?>
<!-- Generator: Adobe Illustrator 22.0.1, SVG Export Plug-In . SVG Version: 6.00 Build 0)  -->
<svg version="1.1" id="Layer_1" xmlns="http://www.w3.org/2000/svg" xmlns:xlink="http://www.w3.org/1999/xlink" x="0px" y="0px"
	 viewBox="0 0 177.5 57.3" style="enable-background:new 0 0 177.5 57.3;" xml:space="preserve">
<style type="text/css">
	.st0{opacity:0.19;fill:#010101;}
	.st1{fill:#010101;}
	.st2{fill:#4D4D4D;}
	.st3{fill:#1D1C1A;}
	.st4{fill-rule:evenodd;clip-rule:evenodd;fill:#010101;}
</style>
<g>
	<g>
		<path d="M153.4,21.6c0-6.4,0-12.8,0-19.3c0.6,0,1.1,0,1.7,0c0,13.3,0,26.5,0,39.9c-0.5,0-1,0-1.6,0c0-2.3,0-4.6,0-7.2
			c-0.2,0.3-0.3,0.4-0.4,0.5c-2.7,5.2-7,7.7-12.8,7.3c-5.6-0.4-9.4-3.5-11.6-8.6c-2.6-6.2-0.5-13.8,4.7-17.7
			c5.9-4.3,15.5-3.3,19.5,4.5c0.1,0.2,0.2,0.4,0.3,0.5C153.4,21.6,153.4,21.6,153.4,21.6z M129.5,28.7c0.1,0.7,0.2,1.8,0.4,2.9
			c1.8,8.7,11.6,12.5,18.6,7.2c4.4-3.4,5.9-8,4.8-13.3c-1.7-8.1-10.8-12.3-17.8-8.2C131.2,19.7,129.6,23.7,129.5,28.7z"/>
		<path d="M113.3,29.2c-7.9,0-15.8,0-23.7,0c-0.3,2.9,1.6,8.2,6,10.6c1.7,0.9,3.6,1.4,5.6,1.4c2,0,3.9-0.3,5.6-1.4
			c1.6-1,3.1-2.3,4.7-3.5c0.2,0.2,0.6,0.5,1.1,0.9c-2.3,2.7-4.9,4.8-8.4,5.4c-5.3,0.9-10-0.4-13.5-4.7c-2.7-3.3-3.4-7.2-3-11.3
			c0.6-5.2,3-9.3,7.9-11.4c6.5-2.8,13.8-0.3,16.7,7.1C113.1,24.4,113.6,27.6,113.3,29.2z M89.6,27.5c7.3,0,14.6,0,21.9,0
			c-0.1-5.4-3.7-12.1-11.4-11.8C94.3,16,89,21.8,89.6,27.5z"/>
		<path d="M71.4,36.2c0.4,0.4,0.8,0.7,1.3,1c-2.7,3.3-5.9,5.5-10.2,5.7c-7.2,0.4-13-3.8-14.4-10.9c-1.1-5.3-0.1-10.2,3.8-14.2
			c5.5-5.7,16.7-5.4,20.5,4.4c0.9,2.2,1.2,4.6,1.2,7c-7.9,0-15.9,0-23.7,0c-0.5,2.5,1.3,8.1,5.8,10.5C59.9,42,66.2,42.3,71.4,36.2z
			 M49.6,27.5c7.4,0,14.6,0,22,0c-0.4-4.2-1.7-8-5.5-10.3c-3.7-2.2-7.5-2.1-11.1,0.2C51.4,19.7,50,23.3,49.6,27.5z"/>
		<path d="M12,38.7c0.4-0.5,0.7-0.9,1-1.4c0.3,0.2,0.5,0.4,0.8,0.5c3,2.1,6.3,3.4,10.1,3.2c2.2-0.1,4.2-0.6,5.8-2.2
			c2.4-2.3,2.1-5.8-0.8-7.5c-1.6-0.9-3.5-1.4-5.3-2.1c-2.4-0.9-5-1.7-7.3-2.7c-1.9-0.9-3-2.6-3-4.8c0-3.1,1.6-5.2,4.3-6.4
			c3.4-1.6,7-1.3,10.5-0.1c1.5,0.5,2.9,1.3,4.4,2c-0.4,0.6-0.7,1.1-1.1,1.6c-2.3-1.6-4.7-2.6-7.4-2.8c-2.4-0.2-4.7,0-6.8,1.4
			c-1.1,0.8-1.9,1.8-2.1,3.2c-0.3,1.8,0.3,3.3,1.9,4.2c1.5,0.9,3.2,1.5,4.8,2.1c2.4,0.9,5,1.6,7.4,2.6c2,0.8,3.4,2.3,3.7,4.6
			c0.5,3.3-1,6.1-4.2,7.5c-3.6,1.7-7.4,1.5-11,0.2c-1.2-0.4-2.3-1-3.4-1.6C13.5,39.8,12.8,39.2,12,38.7z"/>
		<path d="M41.8,42.2c-0.9,0-1.6,0-2.5,0c0-1.2,0-2.3,0-3.4c0.8,0,1.6,0,2.5,0C41.8,39.9,41.8,41,41.8,42.2z"/>
		<path d="M81.6,42.2c-0.9,0-1.7,0-2.5,0c0-1.2,0-2.3,0-3.4c0.8,0,1.6,0,2.5,0C81.6,39.9,81.6,41,81.6,42.2z"/>
		<path d="M119.1,42.2c0-1.2,0-2.3,0-3.4c0.8,0,1.7,0,2.5,0c0,1.1,0,2.3,0,3.4C120.8,42.2,120,42.2,119.1,42.2z"/>
		<path d="M165.5,42.2c-0.9,0-1.7,0-2.5,0c0-1.2,0-2.3,0-3.4c0.8,0,1.6,0,2.5,0C165.5,39.9,165.5,41,165.5,42.2z"/>
	</g>
	<g>
		<path d="M13.4,51.7c-0.3-0.2-0.5-0.3-0.6-0.4c-0.2-0.2-0.3-0.4-0.3-0.6c0-0.2,0.1-0.4,0.3-0.6c0.2-0.2,0.4-0.3,0.6-0.3
			c0.2,0,0.4,0.1,0.6,0.2c0.2,0.2,0.2,0.3,0.2,0.5v0l-0.3,0.1c0-0.2-0.1-0.3-0.2-0.4c-0.1-0.1-0.2-0.1-0.4-0.1
			c-0.1,0-0.3,0.1-0.4,0.2c-0.1,0.1-0.2,0.2-0.2,0.4c0,0.1,0.1,0.3,0.2,0.4c0.1,0.1,0.2,0.2,0.4,0.3c0.3,0.2,0.5,0.3,0.7,0.5
			c0.2,0.2,0.3,0.5,0.3,0.8c0,0.3-0.1,0.6-0.3,0.8c-0.2,0.2-0.5,0.3-0.8,0.3s-0.6-0.1-0.8-0.3c-0.2-0.2-0.3-0.4-0.3-0.7l0.3-0.1
			c0,0.2,0.1,0.4,0.2,0.5c0.1,0.1,0.3,0.2,0.5,0.2s0.4-0.1,0.5-0.2c0.1-0.1,0.2-0.3,0.2-0.5c0-0.2-0.1-0.4-0.2-0.5
			C13.8,51.9,13.6,51.8,13.4,51.7z"/>
		<path d="M17.1,49.6c0.6,0,1,0.2,1.4,0.6c0.4,0.4,0.6,0.9,0.6,1.4c0,0.6-0.2,1-0.6,1.4c-0.4,0.4-0.9,0.6-1.4,0.6
			c-0.6,0-1-0.2-1.4-0.6c-0.4-0.4-0.6-0.9-0.6-1.4c0-0.6,0.2-1,0.6-1.4C16,49.8,16.5,49.6,17.1,49.6z M15.9,50.5
			c-0.3,0.3-0.5,0.7-0.5,1.2c0,0.5,0.2,0.9,0.5,1.2c0.3,0.3,0.7,0.5,1.2,0.5c0.5,0,0.9-0.2,1.2-0.5s0.5-0.7,0.5-1.2
			c0-0.5-0.2-0.9-0.5-1.2S17.5,50,17.1,50C16.6,50,16.2,50.2,15.9,50.5z"/>
		<path d="M22.9,52.7l0.4,0.1c-0.1,0.1-0.1,0.2-0.2,0.3c-0.4,0.4-0.9,0.6-1.4,0.6c-0.6,0-1-0.2-1.4-0.6c-0.4-0.4-0.6-0.9-0.6-1.4
			s0.2-1,0.6-1.4c0.4-0.4,0.9-0.6,1.4-0.6c0.6,0,1,0.2,1.4,0.6c0.1,0.1,0.2,0.2,0.2,0.3l-0.4,0.1c0,0-0.1-0.1-0.1-0.1
			c-0.3-0.3-0.7-0.5-1.2-0.5c-0.5,0-0.9,0.2-1.2,0.5c-0.3,0.3-0.5,0.7-0.5,1.2c0,0.5,0.2,0.9,0.5,1.2c0.3,0.3,0.7,0.5,1.2,0.5
			c0.5,0,0.9-0.2,1.2-0.5C22.9,52.8,22.9,52.8,22.9,52.7z"/>
		<path d="M24.4,48.8c0.1,0.1,0.1,0.1,0.1,0.2c0,0.1,0,0.2-0.1,0.2c-0.1,0.1-0.1,0.1-0.2,0.1c-0.1,0-0.2,0-0.2-0.1
			c-0.1-0.1-0.1-0.1-0.1-0.2c0-0.1,0-0.2,0.1-0.2c0.1-0.1,0.1-0.1,0.2-0.1C24.3,48.7,24.4,48.7,24.4,48.8z M24.3,50v3.6H24V50H24.3z
			"/>
		<path d="M25.4,51.5c0,0.1,0,0.1,0,0.2c0,0.5,0.2,0.9,0.5,1.2s0.7,0.5,1.2,0.5s0.9-0.2,1.2-0.5c0.1-0.1,0.1-0.1,0.2-0.2l0.4,0.1
			c0,0.1-0.1,0.2-0.3,0.3c-0.4,0.4-0.9,0.6-1.4,0.6c-0.6,0-1-0.2-1.4-0.6c-0.4-0.4-0.6-0.9-0.6-1.4c0-0.6,0.2-1,0.6-1.4
			c0.4-0.4,0.9-0.6,1.4-0.6c0.6,0,1,0.2,1.4,0.6c0.3,0.4,0.5,0.8,0.5,1.3H25.4z M25.5,51.1h3.2c-0.1-0.3-0.2-0.5-0.4-0.7
			C28,50.2,27.6,50,27.1,50s-0.9,0.2-1.2,0.5C25.7,50.7,25.6,50.9,25.5,51.1z"/>
		<path d="M33.5,53.6h-0.3v-0.7c-0.1,0.1-0.1,0.2-0.2,0.2c-0.4,0.4-0.9,0.6-1.4,0.6c-0.6,0-1-0.2-1.4-0.6c-0.4-0.4-0.6-0.9-0.6-1.4
			c0-0.6,0.2-1,0.6-1.4s0.9-0.6,1.4-0.6c0.6,0,1,0.2,1.4,0.6c0.1,0.1,0.1,0.2,0.2,0.2v-2.8h0.3V53.6z M33.2,52v-0.7
			c-0.1-0.3-0.2-0.6-0.5-0.9C32.4,50.2,32,50,31.6,50c-0.5,0-0.9,0.2-1.2,0.5s-0.5,0.7-0.5,1.2c0,0.5,0.2,0.9,0.5,1.2
			s0.7,0.5,1.2,0.5c0.5,0,0.9-0.2,1.2-0.5C33,52.6,33.1,52.3,33.2,52z"/>
		<path d="M38.3,53.6h-0.3v-0.7c-0.1,0.1-0.1,0.2-0.2,0.2c-0.4,0.4-0.9,0.6-1.4,0.6c-0.6,0-1-0.2-1.4-0.6c-0.4-0.4-0.6-0.9-0.6-1.4
			c0-0.6,0.2-1,0.6-1.4c0.4-0.4,0.9-0.6,1.4-0.6c0.6,0,1,0.2,1.4,0.6c0.1,0.1,0.1,0.2,0.2,0.2V50h0.3V53.6z M37.9,52v-0.7
			c-0.1-0.3-0.2-0.6-0.5-0.9c-0.3-0.3-0.7-0.5-1.2-0.5c-0.5,0-0.9,0.2-1.2,0.5c-0.3,0.3-0.5,0.7-0.5,1.2c0,0.5,0.2,0.9,0.5,1.2
			c0.3,0.3,0.7,0.5,1.2,0.5c0.5,0,0.9-0.2,1.2-0.5C37.7,52.6,37.9,52.3,37.9,52z"/>
		<path d="M43,53.6h-0.3v-0.7c-0.1,0.1-0.1,0.2-0.2,0.2c-0.4,0.4-0.9,0.6-1.4,0.6c-0.6,0-1-0.2-1.4-0.6c-0.4-0.4-0.6-0.9-0.6-1.4
			c0-0.6,0.2-1,0.6-1.4c0.4-0.4,0.9-0.6,1.4-0.6c0.6,0,1,0.2,1.4,0.6c0.1,0.1,0.1,0.2,0.2,0.2v-2.8H43V53.6z M42.6,52v-0.7
			c-0.1-0.3-0.2-0.6-0.5-0.9C41.8,50.2,41.4,50,41,50s-0.9,0.2-1.2,0.5c-0.3,0.3-0.5,0.7-0.5,1.2c0,0.5,0.2,0.9,0.5,1.2
			c0.3,0.3,0.7,0.5,1.2,0.5s0.9-0.2,1.2-0.5C42.4,52.6,42.6,52.3,42.6,52z"/>
		<path d="M44,53.1c0.1,0.1,0.1,0.1,0.1,0.2s0,0.2-0.1,0.2c-0.1,0.1-0.1,0.1-0.2,0.1c-0.1,0-0.2,0-0.2-0.1c-0.1-0.1-0.1-0.1-0.1-0.2
			s0-0.2,0.1-0.2c0.1-0.1,0.1-0.1,0.2-0.1C43.8,53,43.9,53,44,53.1z"/>
		<path d="M47,51.5c0,0.1,0,0.1,0,0.2c0,0.5,0.2,0.9,0.5,1.2c0.3,0.3,0.7,0.5,1.2,0.5c0.5,0,0.9-0.2,1.2-0.5
			c0.1-0.1,0.1-0.1,0.2-0.2l0.4,0.1c0,0.1-0.1,0.2-0.3,0.3c-0.4,0.4-0.9,0.6-1.4,0.6c-0.6,0-1-0.2-1.4-0.6c-0.4-0.4-0.6-0.9-0.6-1.4
			c0-0.6,0.2-1,0.6-1.4c0.4-0.4,0.9-0.6,1.4-0.6c0.6,0,1,0.2,1.4,0.6c0.3,0.4,0.5,0.8,0.5,1.3H47z M47.1,51.1h3.2
			c-0.1-0.3-0.2-0.5-0.4-0.7c-0.3-0.3-0.7-0.5-1.2-0.5c-0.5,0-0.9,0.2-1.2,0.5C47.3,50.7,47.2,50.9,47.1,51.1z"/>
		<path d="M54.4,52.7l0.4,0.1c-0.1,0.1-0.1,0.2-0.2,0.3c-0.4,0.4-0.9,0.6-1.4,0.6c-0.6,0-1-0.2-1.4-0.6c-0.4-0.4-0.6-0.9-0.6-1.4
			s0.2-1,0.6-1.4c0.4-0.4,0.9-0.6,1.4-0.6c0.6,0,1,0.2,1.4,0.6c0.1,0.1,0.2,0.2,0.2,0.3l-0.4,0.1c0,0-0.1-0.1-0.1-0.1
			c-0.3-0.3-0.7-0.5-1.2-0.5c-0.5,0-0.9,0.2-1.2,0.5c-0.3,0.3-0.5,0.7-0.5,1.2c0,0.5,0.2,0.9,0.5,1.2c0.3,0.3,0.7,0.5,1.2,0.5
			c0.5,0,0.9-0.2,1.2-0.5C54.3,52.8,54.3,52.8,54.4,52.7z"/>
		<path d="M57.3,49.6c0.6,0,1,0.2,1.4,0.6c0.4,0.4,0.6,0.9,0.6,1.4c0,0.6-0.2,1-0.6,1.4c-0.4,0.4-0.9,0.6-1.4,0.6
			c-0.6,0-1-0.2-1.4-0.6c-0.4-0.4-0.6-0.9-0.6-1.4c0-0.6,0.2-1,0.6-1.4C56.2,49.8,56.7,49.6,57.3,49.6z M56.1,50.5
			c-0.3,0.3-0.5,0.7-0.5,1.2c0,0.5,0.2,0.9,0.5,1.2c0.3,0.3,0.7,0.5,1.2,0.5c0.5,0,0.9-0.2,1.2-0.5c0.3-0.3,0.5-0.7,0.5-1.2
			c0-0.5-0.2-0.9-0.5-1.2c-0.3-0.3-0.7-0.5-1.2-0.5C56.8,50,56.4,50.2,56.1,50.5z"/>
		<path d="M60.4,47.7v5.9h-0.3v-5.9H60.4z"/>
		<path d="M63.2,49.6c0.6,0,1,0.2,1.4,0.6c0.4,0.4,0.6,0.9,0.6,1.4c0,0.6-0.2,1-0.6,1.4c-0.4,0.4-0.9,0.6-1.4,0.6
			c-0.6,0-1-0.2-1.4-0.6c-0.4-0.4-0.6-0.9-0.6-1.4c0-0.6,0.2-1,0.6-1.4C62.2,49.8,62.6,49.6,63.2,49.6z M62,50.5
			c-0.3,0.3-0.5,0.7-0.5,1.2c0,0.5,0.2,0.9,0.5,1.2c0.3,0.3,0.7,0.5,1.2,0.5s0.9-0.2,1.2-0.5s0.5-0.7,0.5-1.2c0-0.5-0.2-0.9-0.5-1.2
			S63.7,50,63.2,50S62.3,50.2,62,50.5z"/>
		<path d="M69.4,52.9c-0.1,0.1-0.1,0.2-0.2,0.2c-0.4,0.4-0.9,0.6-1.4,0.6c-0.6,0-1-0.2-1.4-0.6c-0.4-0.4-0.6-0.9-0.6-1.4
			c0-0.6,0.2-1,0.6-1.4c0.4-0.4,0.9-0.6,1.4-0.6c0.6,0,1,0.2,1.4,0.6c0.1,0.1,0.1,0.2,0.2,0.2V50h0.3v2.8c0,0.5-0.2,1-0.6,1.4
			c-0.4,0.4-0.9,0.6-1.4,0.6s-1-0.2-1.4-0.6c-0.1-0.1-0.2-0.2-0.2-0.3l0.4-0.1c0,0,0.1,0.1,0.1,0.1c0.3,0.3,0.7,0.5,1.2,0.5
			c0.5,0,0.9-0.2,1.2-0.5C69.2,53.6,69.4,53.3,69.4,52.9z M69.4,51.3c-0.1-0.3-0.2-0.6-0.5-0.8c-0.3-0.3-0.7-0.5-1.2-0.5
			c-0.5,0-0.9,0.2-1.2,0.5s-0.5,0.7-0.5,1.2c0,0.5,0.2,0.9,0.5,1.2c0.3,0.3,0.7,0.5,1.2,0.5c0.5,0,0.9-0.2,1.2-0.5
			c0.2-0.2,0.4-0.5,0.5-0.8V51.3z"/>
		<path d="M71.6,48.5l-0.9,0.7h-0.3l0.6-0.7H71.6z M70.9,50v3.6h-0.3V50H70.9z"/>
		<path d="M75.7,53.6h-0.3v-0.7c-0.1,0.1-0.1,0.2-0.2,0.2c-0.4,0.4-0.9,0.6-1.4,0.6c-0.6,0-1-0.2-1.4-0.6c-0.4-0.4-0.6-0.9-0.6-1.4
			c0-0.6,0.2-1,0.6-1.4c0.4-0.4,0.9-0.6,1.4-0.6c0.6,0,1,0.2,1.4,0.6c0.1,0.1,0.1,0.2,0.2,0.2V50h0.3V53.6z M75.4,52v-0.7
			c-0.1-0.3-0.2-0.6-0.5-0.9c-0.3-0.3-0.7-0.5-1.2-0.5c-0.5,0-0.9,0.2-1.2,0.5s-0.5,0.7-0.5,1.2c0,0.5,0.2,0.9,0.5,1.2
			s0.7,0.5,1.2,0.5c0.5,0,0.9-0.2,1.2-0.5C75.2,52.6,75.3,52.3,75.4,52z"/>
		<path d="M76.8,53.1c0.1,0.1,0.1,0.1,0.1,0.2s0,0.2-0.1,0.2c-0.1,0.1-0.1,0.1-0.2,0.1c-0.1,0-0.2,0-0.2-0.1
			c-0.1-0.1-0.1-0.1-0.1-0.2s0-0.2,0.1-0.2c0.1-0.1,0.1-0.1,0.2-0.1C76.6,53,76.7,53,76.8,53.1z"/>
		<path d="M79.8,51.5c0,0.1,0,0.1,0,0.2c0,0.5,0.2,0.9,0.5,1.2s0.7,0.5,1.2,0.5c0.5,0,0.9-0.2,1.2-0.5c0.1-0.1,0.1-0.1,0.2-0.2
			l0.4,0.1c0,0.1-0.1,0.2-0.3,0.3c-0.4,0.4-0.9,0.6-1.4,0.6c-0.6,0-1-0.2-1.4-0.6c-0.4-0.4-0.6-0.9-0.6-1.4c0-0.6,0.2-1,0.6-1.4
			c0.4-0.4,0.9-0.6,1.4-0.6c0.6,0,1,0.2,1.4,0.6c0.3,0.4,0.5,0.8,0.5,1.3H79.8z M79.9,51.1h3.2c-0.1-0.3-0.2-0.5-0.4-0.7
			c-0.3-0.3-0.7-0.5-1.2-0.5c-0.5,0-0.9,0.2-1.2,0.5C80.1,50.7,79.9,50.9,79.9,51.1z"/>
		<path d="M84,50h0.3v0.1c0.2-0.2,0.5-0.3,0.7-0.3c0.3,0,0.6,0.1,0.8,0.3c0.1,0.1,0.1,0.1,0.1,0.2c0-0.1,0.1-0.1,0.2-0.2
			c0.2-0.2,0.5-0.3,0.8-0.3s0.6,0.1,0.8,0.3c0.2,0.2,0.3,0.4,0.3,0.7v2.8h-0.3v-2.8h0c0-0.2-0.1-0.4-0.2-0.5
			c-0.1-0.1-0.3-0.2-0.5-0.2c-0.2,0-0.4,0.1-0.5,0.2c-0.1,0.1-0.2,0.3-0.2,0.5v2.8h-0.3v-2.8h0c0-0.2-0.1-0.4-0.2-0.5
			c-0.1-0.1-0.3-0.2-0.5-0.2c-0.2,0-0.4,0.1-0.5,0.2c-0.1,0.1-0.2,0.3-0.2,0.5v2.8H84V50z"/>
		<path d="M88.8,50h0.3v0.5c0.1-0.1,0.1-0.2,0.2-0.2c0.4-0.4,0.9-0.6,1.4-0.6s1,0.2,1.4,0.6c0.4,0.4,0.6,0.9,0.6,1.4
			c0,0.6-0.2,1-0.6,1.4c-0.4,0.4-0.9,0.6-1.4,0.6s-1-0.2-1.4-0.6c-0.1-0.1-0.1-0.2-0.2-0.2V55h-0.3V50z M89.1,51.3V52
			c0.1,0.3,0.2,0.6,0.5,0.8c0.3,0.3,0.7,0.5,1.2,0.5s0.9-0.2,1.2-0.5c0.3-0.3,0.5-0.7,0.5-1.2c0-0.5-0.2-0.9-0.5-1.2
			c-0.3-0.3-0.7-0.5-1.2-0.5s-0.9,0.2-1.2,0.5C89.3,50.7,89.2,51,89.1,51.3z"/>
		<path d="M94.8,50.3c-0.2,0-0.5,0.2-0.7,0.5c-0.2,0.3-0.3,0.5-0.3,0.8v2.1h-0.3V50h0.3v0.8c0.1-0.4,0.4-0.6,0.9-0.8L94.8,50.3z"/>
		<path d="M95.3,51.5c0,0.1,0,0.1,0,0.2c0,0.5,0.2,0.9,0.5,1.2s0.7,0.5,1.2,0.5s0.9-0.2,1.2-0.5c0.1-0.1,0.1-0.1,0.2-0.2l0.4,0.1
			c0,0.1-0.1,0.2-0.3,0.3c-0.4,0.4-0.9,0.6-1.4,0.6c-0.6,0-1-0.2-1.4-0.6c-0.4-0.4-0.6-0.9-0.6-1.4c0-0.6,0.2-1,0.6-1.4
			c0.4-0.4,0.9-0.6,1.4-0.6c0.6,0,1,0.2,1.4,0.6c0.3,0.4,0.5,0.8,0.5,1.3H95.3z M95.4,51.1h3.2c-0.1-0.3-0.2-0.5-0.4-0.7
			C97.9,50.2,97.5,50,97,50s-0.9,0.2-1.2,0.5C95.6,50.7,95.5,50.9,95.4,51.1z"/>
		<path d="M99.9,50.8v2.8h-0.3V50h0.3v0.2c0.3-0.3,0.7-0.5,1.1-0.5c0.4,0,0.8,0.1,1.1,0.4c0.3,0.3,0.4,0.6,0.4,1v2.4h-0.3v-2.4
			c0-0.3-0.1-0.6-0.3-0.8c-0.2-0.2-0.5-0.3-0.8-0.3c-0.3,0-0.6,0.1-0.8,0.3C100,50.5,99.9,50.7,99.9,50.8z"/>
		<path d="M107.1,53.6h-0.3v-0.7c-0.1,0.1-0.1,0.2-0.2,0.2c-0.4,0.4-0.9,0.6-1.4,0.6c-0.6,0-1-0.2-1.4-0.6c-0.4-0.4-0.6-0.9-0.6-1.4
			c0-0.6,0.2-1,0.6-1.4s0.9-0.6,1.4-0.6c0.6,0,1,0.2,1.4,0.6c0.1,0.1,0.1,0.2,0.2,0.2v-2.8h0.3V53.6z M106.8,52v-0.7
			c-0.1-0.3-0.2-0.6-0.5-0.9c-0.3-0.3-0.7-0.5-1.2-0.5c-0.5,0-0.9,0.2-1.2,0.5c-0.3,0.3-0.5,0.7-0.5,1.2c0,0.5,0.2,0.9,0.5,1.2
			c0.3,0.3,0.7,0.5,1.2,0.5c0.5,0,0.9-0.2,1.2-0.5C106.6,52.6,106.7,52.3,106.8,52z"/>
		<path d="M108.4,48.8c0.1,0.1,0.1,0.1,0.1,0.2c0,0.1,0,0.2-0.1,0.2c-0.1,0.1-0.1,0.1-0.2,0.1c-0.1,0-0.2,0-0.2-0.1
			c-0.1-0.1-0.1-0.1-0.1-0.2c0-0.1,0-0.2,0.1-0.2c0.1-0.1,0.1-0.1,0.2-0.1C108.3,48.7,108.3,48.7,108.4,48.8z M108.3,50v3.6H108V50
			H108.3z"/>
		<path d="M109.3,50h0.3v0.1c0.2-0.2,0.5-0.3,0.7-0.3c0.3,0,0.6,0.1,0.8,0.3c0.1,0.1,0.1,0.1,0.1,0.2c0-0.1,0.1-0.1,0.2-0.2
			c0.2-0.2,0.5-0.3,0.8-0.3s0.6,0.1,0.8,0.3c0.2,0.2,0.3,0.4,0.3,0.7v2.8h-0.3v-2.8h0c0-0.2-0.1-0.4-0.2-0.5
			c-0.1-0.1-0.3-0.2-0.5-0.2c-0.2,0-0.4,0.1-0.5,0.2c-0.1,0.1-0.2,0.3-0.2,0.5v2.8h-0.3v-2.8h0c0-0.2-0.1-0.4-0.2-0.5
			c-0.1-0.1-0.3-0.2-0.5-0.2c-0.2,0-0.4,0.1-0.5,0.2c-0.1,0.1-0.2,0.3-0.2,0.5v2.8h-0.3V50z"/>
		<path d="M114.6,48.8c0.1,0.1,0.1,0.1,0.1,0.2c0,0.1,0,0.2-0.1,0.2c-0.1,0.1-0.1,0.1-0.2,0.1c-0.1,0-0.2,0-0.2-0.1
			c-0.1-0.1-0.1-0.1-0.1-0.2c0-0.1,0-0.2,0.1-0.2c0.1-0.1,0.1-0.1,0.2-0.1C114.4,48.7,114.5,48.7,114.6,48.8z M114.5,50v3.6h-0.3V50
			H114.5z"/>
		<path d="M115.6,51.5c0,0.1,0,0.1,0,0.2c0,0.5,0.2,0.9,0.5,1.2s0.7,0.5,1.2,0.5c0.5,0,0.9-0.2,1.2-0.5c0.1-0.1,0.1-0.1,0.2-0.2
			l0.4,0.1c0,0.1-0.1,0.2-0.3,0.3c-0.4,0.4-0.9,0.6-1.4,0.6c-0.6,0-1-0.2-1.4-0.6c-0.4-0.4-0.6-0.9-0.6-1.4c0-0.6,0.2-1,0.6-1.4
			c0.4-0.4,0.9-0.6,1.4-0.6c0.6,0,1,0.2,1.4,0.6c0.3,0.4,0.5,0.8,0.5,1.3H115.6z M115.6,51.1h3.2c-0.1-0.3-0.2-0.5-0.4-0.7
			c-0.3-0.3-0.7-0.5-1.2-0.5c-0.5,0-0.9,0.2-1.2,0.5C115.8,50.7,115.7,50.9,115.6,51.1z"/>
		<path d="M120.1,50.8v2.8h-0.3V50h0.3v0.2c0.3-0.3,0.7-0.5,1.1-0.5c0.4,0,0.8,0.1,1.1,0.4c0.3,0.3,0.4,0.6,0.4,1v2.4h-0.3v-2.4
			c0-0.3-0.1-0.6-0.3-0.8c-0.2-0.2-0.5-0.3-0.8-0.3c-0.3,0-0.6,0.1-0.8,0.3C120.2,50.5,120.2,50.7,120.1,50.8z"/>
		<path d="M123.9,50v-1.5h0.3V50h0.7v0.3h-0.7v3.3h-0.3v-3.3h-0.7V50H123.9z"/>
		<path d="M127.5,49.6c0.6,0,1,0.2,1.4,0.6c0.4,0.4,0.6,0.9,0.6,1.4c0,0.6-0.2,1-0.6,1.4c-0.4,0.4-0.9,0.6-1.4,0.6
			c-0.6,0-1-0.2-1.4-0.6c-0.4-0.4-0.6-0.9-0.6-1.4c0-0.6,0.2-1,0.6-1.4C126.4,49.8,126.9,49.6,127.5,49.6z M126.3,50.5
			c-0.3,0.3-0.5,0.7-0.5,1.2c0,0.5,0.2,0.9,0.5,1.2s0.7,0.5,1.2,0.5c0.5,0,0.9-0.2,1.2-0.5c0.3-0.3,0.5-0.7,0.5-1.2
			c0-0.5-0.2-0.9-0.5-1.2c-0.3-0.3-0.7-0.5-1.2-0.5C127,50,126.6,50.2,126.3,50.5z"/>
		<path d="M130.3,53.1c0.1,0.1,0.1,0.1,0.1,0.2s0,0.2-0.1,0.2c-0.1,0.1-0.1,0.1-0.2,0.1c-0.1,0-0.2,0-0.2-0.1
			c-0.1-0.1-0.1-0.1-0.1-0.2s0-0.2,0.1-0.2c0.1-0.1,0.1-0.1,0.2-0.1C130.1,53,130.2,53,130.3,53.1z"/>
		<path d="M137.1,53.6h-0.3v-0.7c-0.1,0.1-0.1,0.2-0.2,0.2c-0.4,0.4-0.9,0.6-1.4,0.6c-0.6,0-1-0.2-1.4-0.6c-0.4-0.4-0.6-0.9-0.6-1.4
			c0-0.6,0.2-1,0.6-1.4s0.9-0.6,1.4-0.6c0.6,0,1,0.2,1.4,0.6c0.1,0.1,0.1,0.2,0.2,0.2v-2.8h0.3V53.6z M136.7,52v-0.7
			c-0.1-0.3-0.2-0.6-0.5-0.9c-0.3-0.3-0.7-0.5-1.2-0.5c-0.5,0-0.9,0.2-1.2,0.5c-0.3,0.3-0.5,0.7-0.5,1.2c0,0.5,0.2,0.9,0.5,1.2
			c0.3,0.3,0.7,0.5,1.2,0.5c0.5,0,0.9-0.2,1.2-0.5C136.5,52.6,136.7,52.3,136.7,52z"/>
		<path d="M138,51.5c0,0.1,0,0.1,0,0.2c0,0.5,0.2,0.9,0.5,1.2c0.3,0.3,0.7,0.5,1.2,0.5c0.5,0,0.9-0.2,1.2-0.5
			c0.1-0.1,0.1-0.1,0.2-0.2l0.4,0.1c0,0.1-0.1,0.2-0.3,0.3c-0.4,0.4-0.9,0.6-1.4,0.6c-0.6,0-1-0.2-1.4-0.6c-0.4-0.4-0.6-0.9-0.6-1.4
			c0-0.6,0.2-1,0.6-1.4c0.4-0.4,0.9-0.6,1.4-0.6c0.6,0,1,0.2,1.4,0.6c0.3,0.4,0.5,0.8,0.5,1.3H138z M138.1,51.1h3.2
			c-0.1-0.3-0.2-0.5-0.4-0.7c-0.3-0.3-0.7-0.5-1.2-0.5c-0.5,0-0.9,0.2-1.2,0.5C138.3,50.7,138.2,50.9,138.1,51.1z"/>
		<path d="M143.2,51.7c-0.3-0.2-0.5-0.3-0.6-0.4c-0.2-0.2-0.3-0.4-0.3-0.6c0-0.2,0.1-0.4,0.3-0.6c0.2-0.2,0.4-0.3,0.6-0.3
			c0.2,0,0.4,0.1,0.6,0.2c0.2,0.2,0.2,0.3,0.2,0.5v0l-0.3,0.1c0-0.2-0.1-0.3-0.2-0.4c-0.1-0.1-0.2-0.1-0.4-0.1
			c-0.1,0-0.3,0.1-0.4,0.2c-0.1,0.1-0.2,0.2-0.2,0.4c0,0.1,0.1,0.3,0.2,0.4c0.1,0.1,0.2,0.2,0.4,0.3c0.3,0.2,0.5,0.3,0.7,0.5
			c0.2,0.2,0.3,0.5,0.3,0.8c0,0.3-0.1,0.6-0.3,0.8c-0.2,0.2-0.5,0.3-0.8,0.3s-0.6-0.1-0.8-0.3c-0.2-0.2-0.3-0.4-0.3-0.7l0.3-0.1
			c0,0.2,0.1,0.4,0.2,0.5s0.3,0.2,0.5,0.2c0.2,0,0.4-0.1,0.5-0.2c0.1-0.1,0.2-0.3,0.2-0.5c0-0.2-0.1-0.4-0.2-0.5
			C143.6,51.9,143.4,51.8,143.2,51.7z"/>
		<path d="M148.8,53.6h-0.3v-0.7c-0.1,0.1-0.1,0.2-0.2,0.2c-0.4,0.4-0.9,0.6-1.4,0.6c-0.6,0-1-0.2-1.4-0.6c-0.4-0.4-0.6-0.9-0.6-1.4
			c0-0.6,0.2-1,0.6-1.4s0.9-0.6,1.4-0.6c0.6,0,1,0.2,1.4,0.6c0.1,0.1,0.1,0.2,0.2,0.2V50h0.3V53.6z M148.5,52v-0.7
			c-0.1-0.3-0.2-0.6-0.5-0.9c-0.3-0.3-0.7-0.5-1.2-0.5c-0.5,0-0.9,0.2-1.2,0.5s-0.5,0.7-0.5,1.2c0,0.5,0.2,0.9,0.5,1.2
			s0.7,0.5,1.2,0.5c0.5,0,0.9-0.2,1.2-0.5C148.3,52.6,148.5,52.3,148.5,52z"/>
		<path d="M150.9,50.3c-0.2,0-0.5,0.2-0.7,0.5c-0.2,0.3-0.3,0.5-0.3,0.8v2.1h-0.3V50h0.3v0.8c0.1-0.4,0.4-0.6,0.9-0.8L150.9,50.3z"
			/>
		<path d="M152.6,50.3c-0.2,0-0.5,0.2-0.7,0.5c-0.2,0.3-0.3,0.5-0.3,0.8v2.1h-0.3V50h0.3v0.8c0.1-0.4,0.4-0.6,0.9-0.8L152.6,50.3z"
			/>
		<path d="M155,49.6c0.6,0,1,0.2,1.4,0.6c0.4,0.4,0.6,0.9,0.6,1.4c0,0.6-0.2,1-0.6,1.4c-0.4,0.4-0.9,0.6-1.4,0.6
			c-0.6,0-1-0.2-1.4-0.6c-0.4-0.4-0.6-0.9-0.6-1.4c0-0.6,0.2-1,0.6-1.4C153.9,49.8,154.4,49.6,155,49.6z M153.8,50.5
			c-0.3,0.3-0.5,0.7-0.5,1.2c0,0.5,0.2,0.9,0.5,1.2c0.3,0.3,0.7,0.5,1.2,0.5c0.5,0,0.9-0.2,1.2-0.5c0.3-0.3,0.5-0.7,0.5-1.2
			c0-0.5-0.2-0.9-0.5-1.2c-0.3-0.3-0.7-0.5-1.2-0.5C154.5,50,154.1,50.2,153.8,50.5z"/>
		<path d="M158.1,47.7v5.9h-0.3v-5.9H158.1z"/>
		<path d="M159.3,47.7v5.9H159v-5.9H159.3z"/>
		<path d="M162.1,49.6c0.6,0,1,0.2,1.4,0.6c0.4,0.4,0.6,0.9,0.6,1.4c0,0.6-0.2,1-0.6,1.4c-0.4,0.4-0.9,0.6-1.4,0.6
			c-0.6,0-1-0.2-1.4-0.6c-0.4-0.4-0.6-0.9-0.6-1.4c0-0.6,0.2-1,0.6-1.4S161.6,49.6,162.1,49.6z M161,50.5c-0.3,0.3-0.5,0.7-0.5,1.2
			c0,0.5,0.2,0.9,0.5,1.2c0.3,0.3,0.7,0.5,1.2,0.5c0.5,0,0.9-0.2,1.2-0.5c0.3-0.3,0.5-0.7,0.5-1.2c0-0.5-0.2-0.9-0.5-1.2
			c-0.3-0.3-0.7-0.5-1.2-0.5C161.7,50,161.3,50.2,161,50.5z"/>
		<path d="M165,53.1c0.1,0.1,0.1,0.1,0.1,0.2s0,0.2-0.1,0.2c-0.1,0.1-0.1,0.1-0.2,0.1c-0.1,0-0.2,0-0.2-0.1
			c-0.1-0.1-0.1-0.1-0.1-0.2s0-0.2,0.1-0.2c0.1-0.1,0.1-0.1,0.2-0.1C164.8,53,164.9,53,165,53.1z"/>
	</g>
	<rect x="12.1" y="43.8" width="153.3" height="1.1"/>
</g>
</svg>
