<?xml version="1.0" encoding="utf-8"?>
<!-- Generator: Adobe Illustrator 22.0.1, SVG Export Plug-In . SVG Version: 6.00 Build 0)  -->
<svg version="1.1" id="Layer_1" xmlns="http://www.w3.org/2000/svg" xmlns:xlink="http://www.w3.org/1999/xlink" x="0px" y="0px"
	 viewBox="0 0 177.5 57.3" style="enable-background:new 0 0 177.5 57.3;" xml:space="preserve">
<style type="text/css">
	.st0{opacity:0.19;fill:#010101;}
	.st1{fill:#010101;}
	.st2{fill:#4D4D4D;}
	.st3{fill:#1D1C1A;}
	.st4{fill-rule:evenodd;clip-rule:evenodd;fill:#010101;}
</style>
<g>
	<path d="M44.4,45.4c0,0.4-0.3,0.6-1,0.6H43h-4.3c-0.5,0-0.8,0-0.9,0c-0.4-0.1-0.5-0.3-0.5-0.6c0-0.3,0.2-0.5,0.5-0.6
		c0.6-0.1,0.9-0.2,1-0.3c0.4-0.2,0.5-0.6,0.5-1.2V29.8c-1,0-1.8,0.2-2.4,0.7c-0.3,0.2-0.6,0.6-1,1.3c-0.3,0.5-0.6,0.7-0.9,0.7
		c-0.3,0-0.5-0.2-0.5-0.5c0-0.4,0.1-1,0.4-1.8c0.2-0.6,0.4-1.2,0.6-1.8c0.1-0.5,0.2-0.7,0.3-0.7c0.1-0.3,0.3-0.4,0.6-0.4
		c0.3,0,0.5,0.2,0.6,0.6c0.1,0.4,0.3,0.6,0.8,0.7c0.5,0,1.4,0.1,2.7,0.1c0.6,0,1.5,0,2.7,0c1.2,0,2.1,0,2.7,0c0.3,0,0.6-0.2,0.8-0.6
		c0.2-0.4,0.4-0.6,0.6-0.6c0.3,0,0.5,0.2,0.5,0.6c0,0.4-0.4,1.8-1.2,4c-0.2,0.5-0.4,0.8-0.8,0.8c-0.3,0-0.5-0.2-0.5-0.7
		c0-0.7-0.1-1.1-0.2-1.3c-0.2-0.5-0.7-0.7-1.5-0.8c-0.1,0-0.3,0-0.6,0h-0.7c0,1,0,2.5,0,4.5c0,2,0,3.5,0,4.5c0,2.4,0,3.9,0.1,4.7
		c0,0.5,0.2,0.9,0.6,1.1c0.3,0.1,0.6,0.2,1,0.2C44.2,44.8,44.4,45,44.4,45.4z"/>
	<path d="M45.8,45.4c0-0.3,0.2-0.5,0.5-0.6c0.6-0.1,0.9-0.2,1-0.2c0.4-0.2,0.5-0.6,0.5-1.3c0-0.5,0-1.2,0-2.1c0-0.9,0-1.6,0-2.1
		c0-1.1,0-1.9,0-2.3c0-0.5-0.4-0.9-1-1c-0.6-0.1-0.9-0.4-0.9-0.7c0-0.3,0.2-0.5,0.6-0.5c-0.1,0,0.2,0,0.9,0c0.3,0,0.8-0.1,1.4-0.3
		c0.6-0.2,1-0.3,1.3-0.3c0.4,0,0.5,0.2,0.5,0.5c0,0.2,0,0.4-0.1,0.7c0,0.3-0.1,0.6-0.1,0.7c0,0.5,0,1.4,0,2.4c0,1.1,0,1.9,0,2.4
		c0,1.3,0,2.2,0,2.6c0,0.5,0.2,0.9,0.6,1.1c0.3,0.1,0.6,0.1,1,0.2c0.3,0.1,0.5,0.3,0.5,0.6c0,0.4-0.7,0.7-2.1,0.7
		c-1.5,0-2.8,0-3.8-0.1C46.1,45.9,45.8,45.7,45.8,45.4z"/>
	<path d="M50.6,31.5c0,0.5-0.2,0.9-0.5,1.2c-0.3,0.3-0.7,0.5-1.2,0.5c-0.5,0-0.9-0.2-1.2-0.5c-0.3-0.3-0.5-0.7-0.5-1.2
		c0-0.5,0.2-0.9,0.5-1.2c0.3-0.3,0.7-0.5,1.2-0.5c0.5,0,0.8,0.2,1.2,0.5C50.4,30.7,50.6,31.1,50.6,31.5z"/>
	<path d="M63.2,38.8c0,1.5-0.6,2.6-1.8,3.3c-1,0.6-2.3,0.9-3.8,0.9c-0.2,0-0.5,0-0.8,0c-0.3,0.2-0.4,0.4-0.4,0.8
		c0,0.4,0.4,0.6,1.2,0.6c0.3,0,0.7,0,1.2-0.1c0.5-0.1,0.9-0.1,1.2-0.1c1.3,0,2,0.4,2,1.2c0,0.6-0.3,1.1-1,1.5
		c-0.6,0.3-1.2,0.7-1.9,1c-0.7,0.4-1,0.9-1,1.4c0,0.2,0.1,0.5,0.3,0.8c0.2,0.3,0.3,0.6,0.3,0.8c0,0.4-0.2,0.7-0.5,0.9
		c-0.3,0.2-0.6,0.3-1,0.3c-0.4,0-0.8-0.2-1-0.5c-0.3-0.4-0.4-0.7-0.4-1.2c0-0.5,0.2-1,0.6-1.5c0.1-0.1,0.5-0.5,1.1-1
		c0.4-0.3,0.6-0.6,0.6-0.8c0-0.4-0.3-0.6-1-0.6c-0.2,0-0.5,0-1,0.1c-0.4,0-0.7,0.1-1,0.1c-1,0-1.5-0.3-1.5-1c0-0.4,0.3-0.9,0.8-1.6
		c0.4-0.5,0.8-0.9,1.2-1.4c-1-0.5-1.8-1-2.2-1.5c-0.5-0.7-0.8-1.5-0.8-2.6c0-1.1,0.5-2.1,1.5-2.9c0.8-0.7,1.9-1.1,3.1-1.3
		c0-2.9,0.9-4.4,2.8-4.4c1,0,1.4,0.3,1.4,1c0,0.5-0.2,0.9-0.5,1c-0.1,0-0.5,0-1.2,0c-0.5,0-0.9,0.2-1.1,0.6
		c-0.1,0.3-0.2,0.7-0.2,1.3v0.5c1.4,0,2.5,0.4,3.4,1.1C62.7,36.3,63.2,37.4,63.2,38.8z M55.1,38.4c0,0.9,0.3,1.7,0.9,2.4
		c0.6,0.7,1.4,1.1,2.3,1.1c0.8,0,1.3-0.3,1.8-0.9c0.4-0.5,0.6-1.2,0.6-1.9c0-0.9-0.3-1.7-0.8-2.4c-0.6-0.8-1.3-1.2-2.2-1.2
		c-0.8,0-1.4,0.3-1.9,0.8C55.3,36.9,55.1,37.6,55.1,38.4z"/>
	<path d="M72.8,37.8c0,1-0.5,1.7-1.6,2.2c-1,0.3-2,0.6-3,1c-1.1,0.4-1.6,1-1.6,1.7c0,0.5,0.3,1,0.8,1.4c0.5,0.4,1,0.7,1.5,0.7
		c0.7,0,1.4-0.2,2.3-0.6c0.8-0.4,1.3-0.6,1.4-0.6c0.2,0,0.3,0.1,0.3,0.3c0,0.8-0.6,1.4-1.7,2c-1,0.5-1.9,0.7-2.8,0.7
		c-1.5,0-2.7-0.6-3.7-1.7c-1-1.1-1.5-2.4-1.5-3.9c0-1.7,0.5-3.1,1.5-4.3c1.1-1.3,2.5-1.9,4.1-1.9c1,0,2,0.3,2.7,0.8
		C72.4,36,72.8,36.8,72.8,37.8z M70.3,37.7c0-0.5-0.2-0.9-0.7-1.3c-0.4-0.3-0.9-0.5-1.4-0.5c-0.8,0-1.5,0.4-1.9,1.2
		c-0.3,0.6-0.5,1.4-0.5,2.3c0,0.5,0,1,0.1,1.4c0.3-0.3,0.9-0.6,1.7-1c0.9-0.4,1.5-0.7,1.8-0.9C70,38.7,70.3,38.2,70.3,37.7z"/>
	<g>
		<path d="M79.7,45.4c0,0.4-0.3,0.6-1,0.6h-0.4h-3.9c-0.5,0-0.8,0-0.9,0c-0.4-0.1-0.5-0.3-0.5-0.6c0-0.3,0.2-0.5,0.5-0.6
			c0.6-0.1,0.9-0.2,1-0.3c0.4-0.2,0.5-0.6,0.5-1.2V37c0-0.5-0.2-0.8-0.5-1c-0.3-0.1-0.6-0.2-0.9-0.2c-0.3-0.1-0.5-0.3-0.5-0.6
			c0-0.3,0.2-0.5,0.6-0.5c-0.1,0,0.2,0,0.9,0c0.3,0,0.8-0.1,1.4-0.3c0.6-0.2,1-0.3,1.3-0.3c0.4,0,0.5,0.2,0.5,0.5
			c0,0.3,0,0.7-0.1,1.2c-0.1,0.5-0.1,0.9-0.1,1.2c1.3-1.6,2.4-2.4,3.4-2.4c0.6,0,1,0.3,1.2,0.8c0.1,0.3,0.2,0.8,0.2,1.6
			c0,0.8-0.2,1.2-0.6,1.2c-0.2,0-0.4-0.2-0.6-0.7c-0.3-0.5-0.6-0.7-1-0.7c-0.5,0-0.9,0.2-1.5,0.7c-0.5,0.4-0.8,0.9-1,1.3v3
			c0,0.8,0,1.3,0,1.8c0,0.5,0.2,0.9,0.6,1.1c0.3,0.1,0.6,0.2,1,0.2C79.5,44.8,79.7,45,79.7,45.4z"/>
		<path class="st2" d="M87.4,37.4c0,0.4,0,1.1,0,2.1c0,0.9,0,1.6,0,2.1c0,0.9,0,1.5,0,1.8c0,0.5,0.2,0.9,0.6,1.1
			c0.3,0.1,0.6,0.2,1,0.2c0.3,0.1,0.5,0.3,0.5,0.6c0,0.4-0.3,0.6-1,0.6c-0.4,0-1,0-1.9,0c-0.8,0-1.5,0-1.9,0c-0.9,0-1.4,0-1.4,0
			c-0.7-0.1-1-0.3-1-0.6c0-0.3,0.2-0.5,0.5-0.6c0.6-0.1,0.9-0.2,1-0.3c0.4-0.2,0.5-0.6,0.5-1.2V31.1c0-0.6-0.2-1-0.5-1.2
			c0,0-0.4-0.1-1-0.3c-0.4-0.1-0.5-0.3-0.5-0.6c0-0.4,0.3-0.6,1-0.6h0.4H88c0.5,0,0.8,0,0.9,0c0.3,0.1,0.5,0.2,0.5,0.5
			c0,0.3-0.2,0.5-0.5,0.6c-0.6,0.1-0.9,0.2-1,0.3c-0.4,0.2-0.5,0.6-0.5,1.2l0,4.6h6.5v-3.1c0-0.6,0-1.1,0-1.5c0-0.6-0.2-1.1-0.6-1.3
			c0,0-0.4-0.1-1-0.2c-0.3-0.1-0.5-0.3-0.5-0.6c0-0.4,0.4-0.6,1.1-0.6h0.4h4.3c0.5,0,0.8,0,0.9,0c0.4,0.1,0.5,0.3,0.5,0.5
			c0,0.3-0.2,0.5-0.5,0.6c-0.6,0.1-0.9,0.2-1,0.3c-0.4,0.2-0.5,0.6-0.5,1.2v12.2c0,0.6,0.2,1,0.5,1.3c0.1,0,0.4,0.1,1,0.2
			c0.4,0.1,0.5,0.3,0.5,0.6c0,0.4-0.3,0.6-1,0.6c-0.4,0-1,0-1.9,0c-0.8,0-1.5,0-1.9,0c-0.9,0-1.4,0-1.4,0c-0.7-0.1-1-0.3-1-0.6
			c0-0.3,0.2-0.5,0.5-0.6c0.6-0.1,1-0.2,1-0.3c0.4-0.2,0.5-0.6,0.5-1.2v-5.9H87.4z"/>
		<path class="st2" d="M98.8,40.3c0-1.7,0.6-3.1,1.8-4.2c1.2-1.1,2.6-1.6,4.3-1.6c1.8,0,3.3,0.5,4.4,1.6c1.2,1.1,1.7,2.5,1.7,4.3
			c0,1.7-0.6,3.2-1.7,4.3c-1.2,1.1-2.6,1.7-4.3,1.7c-1.8,0-3.3-0.6-4.5-1.7C99.4,43.6,98.8,42.1,98.8,40.3z M104.3,36
			c-0.9,0-1.6,0.4-2.2,1.1c-0.5,0.6-0.7,1.4-0.7,2.4c0,1.3,0.3,2.6,1,3.7c0.8,1.3,1.8,1.9,3.1,1.9c0.9,0,1.7-0.4,2.2-1.1
			c0.5-0.7,0.7-1.5,0.7-2.5c0-1.3-0.4-2.5-1.1-3.6C106.6,36.6,105.6,36,104.3,36z"/>
		<path class="st2" d="M111.3,35.1c0-0.3,0.2-0.5,0.6-0.5c-0.1,0,0.2,0,0.9,0c0.3,0,0.8-0.1,1.4-0.3c0.6-0.2,1-0.3,1.3-0.3
			c0.4,0,0.5,0.2,0.5,0.5c0,0.2,0,0.4-0.1,0.7c0,0.3-0.1,0.6-0.1,0.7c0,0.4,0,1.1,0,1.9c0,0.9,0,1.5,0,1.9c0,0.1,0,0.3,0,0.6
			c0,0.3,0,0.5,0,0.6c0,2.4,0.7,3.5,2.1,3.5c1.8,0,2.6-1.3,2.6-4c0-0.3,0-0.7,0-1.2c0-0.5,0-0.9,0-1.1c0-0.6,0-1.1,0-1.3
			c0-0.5-0.2-0.9-0.6-1c-0.3-0.1-0.6-0.1-0.9-0.2c-0.3-0.1-0.5-0.3-0.5-0.6c0-0.3,0.2-0.5,0.6-0.5c-0.1,0,0.2,0,0.9,0
			c0.3,0,0.8-0.1,1.4-0.3c0.6-0.2,1-0.3,1.3-0.3c0.3,0,0.5,0.2,0.5,0.5c0,0.2,0,0.4-0.1,0.7c0,0.3-0.1,0.6-0.1,0.7
			c0,0.5,0,1.3,0,2.4c0,1.1,0,1.9,0,2.4c0,1.3,0,2.1,0,2.6c0,0.5,0.2,0.9,0.6,1.1c0.3,0.1,0.6,0.2,1,0.2c0.3,0.1,0.5,0.3,0.5,0.6
			c0,0.3-0.2,0.5-0.5,0.6c-0.1,0-0.4,0-0.9,0c-0.3,0-0.8,0.1-1.4,0.3c-0.6,0.2-1,0.3-1.3,0.3c-0.3,0-0.6-0.2-0.6-0.6c0,0,0-0.4,0-1
			c-1.1,1-2.3,1.4-3.5,1.4c-1.4,0-2.4-0.5-3-1.6c-0.4-0.8-0.6-1.9-0.6-3.5c0-0.4,0-0.9,0.1-1.7c0-0.7,0-1.2,0-1.5c0-0.7,0-1.1,0-1.3
			c0-0.5-0.3-0.9-1-1C111.6,35.7,111.3,35.5,111.3,35.1z"/>
		<path class="st2" d="M130.5,37.4c0-0.5-0.2-0.9-0.5-1.2c-0.3-0.3-0.7-0.5-1.2-0.5c-0.5,0-0.9,0.1-1.3,0.4
			c-0.4,0.3-0.6,0.7-0.6,1.2c0,0.6,0.5,1.1,1.6,1.5c1.9,0.7,2.9,1,3,1c1.1,0.6,1.6,1.4,1.6,2.6c0,1.2-0.5,2.2-1.5,3
			c-0.9,0.7-2,1-3.3,1c-0.9,0-1.7-0.2-2.5-0.7c-1-0.5-1.4-1.2-1.4-2c0-1.1,0.6-1.7,1.7-1.7c0.3,0,0.6,0.1,0.9,0.3
			c0.3,0.2,0.4,0.5,0.4,0.8c0,0.4-0.1,0.7-0.4,1.2c0.6,0.6,1.2,0.9,1.8,0.9c0.6,0,1.1-0.2,1.6-0.5c0.4-0.4,0.7-0.9,0.7-1.5
			c0-0.7-0.5-1.2-1.5-1.6c-0.9-0.3-1.9-0.7-2.8-1c-1-0.5-1.5-1.4-1.5-2.4c0-1,0.4-1.9,1.1-2.5c0.7-0.6,1.6-1,2.6-1
			c0.3,0,0.7,0.1,1.2,0.3c0.5,0.2,0.9,0.3,1.2,0.3c0.2,0,0.5-0.1,0.6-0.3c0.2-0.2,0.4-0.3,0.6-0.3c0.3,0,0.5,0.1,0.5,0.4
			c0,0.3-0.3,0.9-0.8,1.9c-0.5,1-0.9,1.5-1.1,1.5c-0.3,0-0.4-0.1-0.5-0.3V37.4z"/>
	</g>
	<path class="st2" d="M142.9,37.8c0,1-0.5,1.7-1.6,2.2c-1,0.3-2,0.6-3,1c-1.1,0.4-1.6,1-1.6,1.7c0,0.5,0.3,1,0.8,1.4
		c0.5,0.4,1,0.7,1.5,0.7c0.7,0,1.4-0.2,2.3-0.6c0.8-0.4,1.3-0.6,1.4-0.6c0.2,0,0.3,0.1,0.3,0.3c0,0.8-0.6,1.4-1.7,2
		c-1,0.5-1.9,0.7-2.8,0.7c-1.5,0-2.7-0.6-3.7-1.7c-1-1.1-1.5-2.4-1.5-3.9c0-1.7,0.5-3.1,1.5-4.3c1.1-1.3,2.5-1.9,4.1-1.9
		c1,0,1.9,0.3,2.7,0.8C142.4,36,142.9,36.8,142.9,37.8z M140.3,37.7c0-0.5-0.2-0.9-0.7-1.3c-0.4-0.3-0.9-0.5-1.4-0.5
		c-0.8,0-1.5,0.4-1.9,1.2c-0.3,0.6-0.5,1.4-0.5,2.3c0,0.5,0,1,0.1,1.4c0.3-0.3,0.9-0.6,1.7-1c0.9-0.4,1.5-0.7,1.8-0.9
		C140.1,38.7,140.3,38.2,140.3,37.7z"/>
	<path class="st2" d="M88.8,5.3c-2.1-3.1-5.6-5.1-9.6-5.1c-6.4,0-11.6,5.2-11.6,11.6c0,3.5,1.5,6.5,3.9,8.7
		c-0.3,0.8-1.1,2.7-2.8,4.2c0,0-1.1,0.8,0.2,1.1c1.1,0.3,4.9-0.7,7.3-2.8c1,0.3,2,0.4,3,0.4c4,0,7.5-2,9.6-5.1c-1.3-1.9-2-4.1-2-6.5
		C86.8,9.4,87.5,7.2,88.8,5.3z"/>
	<path d="M108.9,24.7c-1.7-1.5-2.5-3.4-2.8-4.2c2.4-2.1,3.9-5.2,3.9-8.7c0-6.4-5.2-11.6-11.6-11.6c-4,0-7.5,2-9.6,5.1
		c-1.3,1.9-2,4.1-2,6.5c0,2.4,0.7,4.6,2,6.5c2.1,3.1,5.6,5.1,9.6,5.1c1,0,2-0.1,3-0.4c2.4,2.1,6.2,3.1,7.3,2.8
		C110,25.5,108.9,24.7,108.9,24.7z"/>
	<g>
		<path class="st3" d="M82.9,50.3c0,0.2-0.1,0.3-0.2,0.3h-0.5c0,0,0,0,0,0V57c0,0.1,0,0.1-0.1,0.1c0,0-0.1,0.1-0.1,0.1
			c0,0-0.1,0-0.1,0c-0.1,0-0.1,0-0.1,0c0,0,0,0-0.1,0c0,0-0.1,0-0.1,0c0,0-0.1,0-0.1-0.1c0,0-0.1-0.1-0.1-0.1v-6.3l0-0.1h-0.6
			c0,0-0.1,0-0.1,0c0,0,0-0.1-0.1-0.1c0-0.1,0-0.1,0-0.1c0,0,0,0,0-0.1c0-0.2,0.1-0.3,0.2-0.3h1.9C82.8,50,82.9,50.1,82.9,50.3z"/>
		<path class="st3" d="M87.6,52.8c0,0.1-0.1,0.3-0.1,0.4c-0.1,0.1-0.2,0.2-0.3,0.3c0,0,0,0,0,0c0.1,0,0.1,0.1,0.1,0.1
			c0.1,0.1,0.2,0.4,0.2,0.7v2.5c0,0,0,0,0,0c0,0,0,0,0,0c0,0,0,0,0,0.1c0,0,0,0,0,0.1l0,0.1c0,0,0,0.1,0,0.1
			c-0.1,0.1-0.2,0.1-0.4,0.1h0c0,0-0.1,0-0.1,0c0,0-0.1,0-0.1,0c0,0-0.1,0-0.1-0.1c0,0-0.1-0.1-0.1-0.1c0-0.1,0-0.1,0-0.2v-2
			c0,0,0-0.1,0-0.2c0-0.3-0.1-0.4-0.2-0.5c-0.1-0.1-0.2-0.1-0.3-0.1c-0.1,0-0.2,0-0.2,0v3c0,0.1,0,0.1-0.1,0.1c0,0-0.1,0.1-0.1,0.1
			c0,0-0.1,0-0.1,0c0,0-0.1,0-0.1,0c0,0-0.1,0-0.1,0c0,0-0.1,0-0.1,0c0,0-0.1,0-0.1-0.1c0,0-0.1-0.1-0.1-0.1v-6.8c0,0,0-0.1,0.1-0.1
			c0-0.1,0.1-0.1,0.1-0.1h0.9c0.2,0,0.3,0,0.4,0c0.1,0,0.2,0,0.3,0c0.1,0,0.3,0.1,0.4,0.1c0.1,0.1,0.2,0.2,0.3,0.4
			c0.1,0.2,0.1,0.3,0.1,0.5V52.8z M86.8,51.7c0-0.1,0-0.2,0-0.2c0,0,0-0.1,0-0.2c0-0.1,0-0.2,0-0.2c0,0,0-0.1-0.1-0.2
			c0-0.1-0.1-0.1-0.1-0.1c0,0-0.1-0.1-0.1-0.1c-0.1,0-0.1,0-0.2,0c-0.1,0-0.2,0-0.2,0v2.4c0,0,0,0.1,0.1,0.1c0.1,0,0.2,0,0.2,0
			c0.1,0,0.1-0.1,0.2-0.1c0,0,0.1-0.1,0.1-0.2c0-0.1,0.1-0.1,0.1-0.2c0-0.1,0-0.1,0-0.3c0-0.1,0-0.2,0-0.3c0-0.1,0-0.2,0-0.3V51.7z"
			/>
		<path class="st3" d="M92.5,57L92.5,57c0,0.1-0.1,0.2-0.1,0.2h-0.5c-0.1,0-0.1-0.1-0.2-0.2c0-0.1-0.1-0.2-0.1-0.3c0,0,0,0,0-0.1
			c0,0,0,0,0,0h-0.9c0,0-0.1,0.1-0.1,0.2c0,0.1-0.1,0.3-0.2,0.4h-0.5c-0.1,0-0.1,0-0.2-0.1v0c0,0,0-0.1,0-0.1c0,0,0.1-1,0.4-3
			c0.3-2,0.5-3.3,0.5-3.9c0,0,0-0.1,0.1-0.1c0,0,0.1,0,0.1-0.1c0.1,0,0.1,0,0.1,0c0,0,0.1,0,0.1,0h0.1c0,0,0,0,0.1,0
			c0,0,0.1,0,0.1,0c0.1,0,0.1,0.1,0.2,0.1c0,0,0,0.1,0,0.1c0,0.1,0,0.1,0,0.1c0,0.3,0.1,0.5,0.1,0.6c0.2,1.5,0.4,2.8,0.5,3.8
			c0,0.2,0.1,0.5,0.1,1C92.4,56.4,92.5,56.8,92.5,57z M92.5,57L92.5,57c0,0.1-0.1,0.2-0.1,0.2h-0.5c-0.1,0-0.1-0.1-0.2-0.2
			c0-0.1-0.1-0.2-0.1-0.3c0,0,0,0,0-0.1c0,0,0,0,0,0h-0.9c0,0-0.1,0.1-0.1,0.2c0,0.1-0.1,0.3-0.2,0.4h-0.5c-0.1,0-0.1,0-0.2-0.1v0
			c0,0,0-0.1,0-0.1c0,0,0.1-1,0.4-3c0.3-2,0.5-3.3,0.5-3.9c0,0,0-0.1,0.1-0.1c0,0,0.1,0,0.1-0.1c0.1,0,0.1,0,0.1,0c0,0,0.1,0,0.1,0
			h0.1c0,0,0,0,0.1,0c0,0,0.1,0,0.1,0c0.1,0,0.1,0.1,0.2,0.1c0,0,0,0.1,0,0.1c0,0.1,0,0.1,0,0.1c0,0.3,0.1,0.5,0.1,0.6
			c0.2,1.5,0.4,2.8,0.5,3.8c0,0.2,0.1,0.5,0.1,1C92.4,56.4,92.5,56.8,92.5,57z M91.5,55.9c0-0.1,0-0.4-0.1-1.2
			c-0.1-0.7-0.2-1.3-0.2-1.8c0,0.1-0.1,0.8-0.3,2c0,0.1,0,0.3-0.1,0.5c0,0.2,0,0.4-0.1,0.5c0,0,0,0,0,0c0,0,0,0,0,0c0,0,0,0,0,0
			C91.1,56,91.4,56,91.5,55.9C91.5,55.9,91.5,55.9,91.5,55.9z M91.5,55.9c0-0.1,0-0.4-0.1-1.2c-0.1-0.7-0.2-1.3-0.2-1.8
			c0,0.1-0.1,0.8-0.3,2c0,0.1,0,0.3-0.1,0.5c0,0.2,0,0.4-0.1,0.5c0,0,0,0,0,0c0,0,0,0,0,0c0,0,0,0,0,0C91.1,56,91.4,56,91.5,55.9
			C91.5,55.9,91.5,55.9,91.5,55.9z"/>
		<path class="st3" d="M96.9,57C96.9,57.1,96.9,57.1,96.9,57c0,0.1-0.1,0.1-0.1,0.2c0,0,0,0-0.1,0c0,0-0.1,0-0.1,0c0,0-0.1,0-0.1,0
			c0,0,0,0-0.1,0c0,0,0,0,0,0h-0.1c-0.1,0-0.1,0-0.2,0c0,0-0.1,0-0.1,0c0,0-0.1-0.1-0.1-0.1c0-0.1,0-0.1-0.1-0.2
			c-0.1-0.5-0.3-1.3-0.5-2.5c0-0.1-0.1-0.2-0.1-0.3v3c0,0.1,0,0.1-0.1,0.2c-0.1,0-0.1,0.1-0.2,0c-0.1,0-0.1,0-0.2,0c0,0-0.1,0-0.1,0
			c0,0-0.1,0-0.1,0c0,0-0.1,0-0.1-0.1c0,0-0.1-0.1-0.1-0.1v-6.8c0-0.2,0.1-0.2,0.4-0.2h0c0.1,0,0.1,0,0.1,0c0,0,0.1,0,0.1,0
			c0,0,0.1,0.1,0.1,0.1c0,0.1,0.1,0.1,0.1,0.2c0.1,0.5,0.3,1.3,0.5,2.4l0.1,0.3v-2.9c0-0.2,0.2-0.2,0.5-0.2c0,0,0,0,0.1,0
			c0,0,0.1,0,0.1,0c0,0,0.1,0,0.1,0c0,0,0.1,0,0.1,0c0,0,0,0,0.1,0.1c0,0,0,0.1,0,0.1V57z"/>
		<path class="st3" d="M101.8,55.9c0,0.2,0,0.4,0,0.5c0,0.1-0.1,0.3-0.1,0.4c0,0.1-0.1,0.2-0.2,0.2c-0.1,0.1-0.2,0.1-0.2,0.2
			c-0.1,0-0.2,0.1-0.3,0.1c-0.1,0-0.2,0-0.3,0c-0.1,0-0.2,0-0.3,0c-0.2,0-0.4-0.1-0.6-0.2c-0.2-0.2-0.4-0.4-0.5-0.7
			c0-0.1,0-0.2,0-0.3c0-0.1,0-0.2,0-0.2c0,0,0,0,0,0c0-0.1,0-0.1,0-0.2c0,0,0-0.1,0-0.1c0-0.1,0-0.1,0-0.1c0,0,0,0,0-0.1
			c0,0,0,0,0,0c0,0,0,0,0.1,0c0,0,0.1,0,0.1,0c0,0,0.1,0,0.1,0h0.1c0.1,0,0.2,0,0.3,0c0,0.1,0.1,0.1,0.1,0.2c0,0.1,0,0.2,0,0.2
			c0,0.1,0,0.1,0,0.2c0,0.1,0,0.2,0.1,0.2c0,0.1,0,0.1,0.1,0.2c0,0.1,0.1,0.1,0.1,0.1c0,0,0.1,0,0.2,0c0.1,0,0.2-0.1,0.3-0.2
			c0.1-0.1,0.1-0.2,0.1-0.4c0-0.1,0-0.2-0.1-0.3c0-0.1-0.1-0.3-0.2-0.6c-0.1-0.2-0.2-0.4-0.3-0.5c-0.1-0.1-0.2-0.3-0.3-0.7
			c-0.3-0.7-0.6-1.1-0.7-1.5c0-0.1-0.1-0.3-0.1-0.5c0-0.2,0-0.4,0-0.5c0-0.2,0-0.4,0.1-0.5c0-0.2,0.1-0.3,0.2-0.4
			c0.1-0.1,0.1-0.2,0.2-0.3c0.1-0.1,0.2-0.1,0.3-0.2c0.1,0,0.2-0.1,0.3-0.1c0.1,0,0.2,0,0.3,0c0.4,0,0.7,0.1,0.9,0.3
			c0.2,0.2,0.3,0.6,0.3,1.1c0,0.2,0,0.4-0.1,0.5c0,0.1-0.1,0.1-0.3,0.1h-0.2c0,0-0.1,0-0.1,0c0,0,0,0-0.1,0c0,0-0.1,0-0.1-0.1
			c0,0-0.1-0.1-0.1-0.1c-0.1-0.7-0.2-1-0.4-1c-0.1,0-0.2,0-0.3,0.1c-0.1,0.1-0.1,0.2-0.1,0.3c0,0.3,0.2,0.8,0.5,1.5
			c0.1,0.2,0.2,0.3,0.2,0.4c0.1,0.2,0.2,0.4,0.3,0.7c0.1,0.2,0.2,0.4,0.3,0.6c0.1,0.2,0.2,0.4,0.2,0.5h0
			C101.7,55.2,101.8,55.5,101.8,55.9z"/>
		<path class="st3" d="M106.2,56.9c0,0,0,0.1,0,0.1c0,0,0,0.1-0.1,0.1c0,0.1-0.1,0.1-0.1,0.1h-1.8c0,0-0.1,0-0.1-0.1
			c-0.1-0.1-0.1-0.1-0.1-0.1v-6.8c0-0.2,0.1-0.2,0.4-0.2c0.3,0,0.4,0.1,0.4,0.2v6.3l0,0h1.1c0.1,0,0.1,0,0.1,0.1
			C106.2,56.7,106.2,56.8,106.2,56.9L106.2,56.9z"/>
		<path class="st3" d="M111.1,57L111.1,57c0,0.1-0.1,0.2-0.1,0.2h-0.5c-0.1,0-0.1-0.1-0.2-0.2c0-0.1-0.1-0.2-0.1-0.3c0,0,0,0,0-0.1
			c0,0,0,0,0,0h-0.9c0,0-0.1,0.1-0.1,0.2c0,0.1-0.1,0.3-0.2,0.4h-0.5c-0.1,0-0.1,0-0.2-0.1v0c0,0,0-0.1,0-0.1c0,0,0.1-1,0.4-3
			c0.3-2,0.5-3.3,0.5-3.9c0,0,0-0.1,0.1-0.1c0,0,0.1,0,0.1-0.1c0.1,0,0.1,0,0.1,0c0,0,0.1,0,0.1,0h0.1c0,0,0,0,0.1,0
			c0,0,0.1,0,0.1,0c0.1,0,0.1,0.1,0.2,0.1c0,0,0,0.1,0,0.1c0,0.1,0,0.1,0,0.1c0,0.3,0.1,0.5,0.1,0.6c0.2,1.5,0.4,2.8,0.5,3.8
			c0,0.2,0.1,0.5,0.1,1C111,56.4,111,56.8,111.1,57z M111.1,57L111.1,57c0,0.1-0.1,0.2-0.1,0.2h-0.5c-0.1,0-0.1-0.1-0.2-0.2
			c0-0.1-0.1-0.2-0.1-0.3c0,0,0,0,0-0.1c0,0,0,0,0,0h-0.9c0,0-0.1,0.1-0.1,0.2c0,0.1-0.1,0.3-0.2,0.4h-0.5c-0.1,0-0.1,0-0.2-0.1v0
			c0,0,0-0.1,0-0.1c0,0,0.1-1,0.4-3c0.3-2,0.5-3.3,0.5-3.9c0,0,0-0.1,0.1-0.1c0,0,0.1,0,0.1-0.1c0.1,0,0.1,0,0.1,0c0,0,0.1,0,0.1,0
			h0.1c0,0,0,0,0.1,0c0,0,0.1,0,0.1,0c0.1,0,0.1,0.1,0.2,0.1c0,0,0,0.1,0,0.1c0,0.1,0,0.1,0,0.1c0,0.3,0.1,0.5,0.1,0.6
			c0.2,1.5,0.4,2.8,0.5,3.8c0,0.2,0.1,0.5,0.1,1C111,56.4,111,56.8,111.1,57z M110.1,55.9c0-0.1,0-0.4-0.1-1.2
			c-0.1-0.7-0.2-1.3-0.2-1.8c0,0.1-0.1,0.8-0.3,2c0,0.1,0,0.3-0.1,0.5c0,0.2,0,0.4-0.1,0.5c0,0,0,0,0,0c0,0,0,0,0,0c0,0,0,0,0,0
			C109.7,56,109.9,56,110.1,55.9C110.1,55.9,110.1,55.9,110.1,55.9z M110.1,55.9c0-0.1,0-0.4-0.1-1.2c-0.1-0.7-0.2-1.3-0.2-1.8
			c0,0.1-0.1,0.8-0.3,2c0,0.1,0,0.3-0.1,0.5c0,0.2,0,0.4-0.1,0.5c0,0,0,0,0,0c0,0,0,0,0,0c0,0,0,0,0,0C109.7,56,109.9,56,110.1,55.9
			C110.1,55.9,110.1,55.9,110.1,55.9z"/>
		<path class="st3" d="M115.4,50.3c0,0.2-0.1,0.3-0.2,0.3h-0.5c0,0,0,0,0,0V57c0,0.1,0,0.1-0.1,0.1c0,0-0.1,0.1-0.1,0.1
			c0,0-0.1,0-0.1,0c-0.1,0-0.1,0-0.1,0c0,0,0,0-0.1,0c0,0-0.1,0-0.1,0c0,0-0.1,0-0.1-0.1c0,0-0.1-0.1-0.1-0.1v-6.3l0-0.1h-0.6
			c0,0-0.1,0-0.1,0c0,0,0-0.1-0.1-0.1c0-0.1,0-0.1,0-0.1c0,0,0,0,0-0.1c0-0.2,0.1-0.3,0.2-0.3h1.9C115.4,50,115.4,50.1,115.4,50.3z"
			/>
		<path class="st3" d="M118.6,57c0,0.1,0,0.1-0.1,0.2c-0.1,0-0.1,0.1-0.2,0c-0.1,0-0.1,0-0.2,0c0,0-0.1,0-0.1,0c0,0-0.1,0-0.1,0
			c0,0-0.1,0-0.1-0.1c0,0-0.1-0.1-0.1-0.1v-6.8c0-0.1,0-0.1,0.1-0.2c0,0,0.1-0.1,0.1-0.1c0,0,0.1,0,0.1,0c0,0,0.1,0,0.1,0
			c0,0,0.1,0,0.1,0c0,0,0.1,0,0.1,0c0,0,0.1,0,0.1,0.1c0,0,0.1,0.1,0.1,0.1V57z"/>
		<path class="st3" d="M123.6,56.2c0,0,0,0.1,0,0.2c0,0.1,0,0.1,0,0.1c0,0.1-0.1,0.3-0.2,0.4c-0.1,0.1-0.2,0.2-0.3,0.2
			c-0.1,0.1-0.3,0.1-0.4,0.1c-0.1,0-0.2,0-0.3,0c-0.1,0-0.3,0-0.4,0c-0.1,0-0.3-0.1-0.4-0.2c-0.1-0.1-0.2-0.2-0.3-0.3
			c-0.1-0.1-0.1-0.3-0.1-0.5c0,0,0,0,0,0c0,0,0,0,0,0c0,0,0-0.1,0-0.1v-4.9c0-0.1,0-0.1,0-0.2c0-0.3,0.1-0.5,0.3-0.6
			c0.1-0.1,0.2-0.2,0.5-0.2c0.2,0,0.4-0.1,0.6-0.1c0.1,0,0.3,0,0.5,0c0.1,0,0.2,0,0.3,0.1h0c0.1,0,0.2,0.1,0.3,0.3
			c0.1,0.2,0.1,0.3,0.1,0.4V56.2z M122.8,55.7v-4.3c0,0,0,0,0,0s0,0,0,0c0,0,0-0.1,0-0.1c0-0.2-0.1-0.3-0.1-0.4
			c-0.1-0.1-0.1-0.2-0.2-0.2c-0.3,0-0.5,0.3-0.5,0.9v3.9c0,0.6,0.1,0.9,0.4,0.9c0.1,0,0.2,0,0.3-0.1c0.1-0.1,0.1-0.2,0.1-0.4
			C122.7,55.9,122.7,55.8,122.8,55.7C122.8,55.8,122.8,55.8,122.8,55.7z"/>
		<path class="st3" d="M128.2,57C128.2,57.1,128.2,57.1,128.2,57c0,0.1-0.1,0.1-0.1,0.2c0,0,0,0-0.1,0c0,0-0.1,0-0.1,0
			c0,0-0.1,0-0.1,0c0,0,0,0-0.1,0c0,0,0,0,0,0h-0.1c-0.1,0-0.1,0-0.2,0c0,0-0.1,0-0.1,0c0,0-0.1-0.1-0.1-0.1c0-0.1,0-0.1-0.1-0.2
			c-0.1-0.5-0.3-1.3-0.5-2.5c0-0.1-0.1-0.2-0.1-0.3v3c0,0.1,0,0.1-0.1,0.2c-0.1,0-0.1,0.1-0.2,0c-0.1,0-0.1,0-0.2,0c0,0-0.1,0-0.1,0
			c0,0-0.1,0-0.1,0c0,0-0.1,0-0.1-0.1c0,0-0.1-0.1-0.1-0.1v-6.8c0-0.2,0.1-0.2,0.4-0.2h0c0.1,0,0.1,0,0.1,0c0,0,0.1,0,0.1,0
			c0,0,0.1,0.1,0.1,0.1c0,0.1,0.1,0.1,0.1,0.2c0.1,0.5,0.3,1.3,0.5,2.4l0.1,0.3v-2.9c0-0.2,0.2-0.2,0.5-0.2c0,0,0,0,0.1,0
			c0,0,0.1,0,0.1,0s0.1,0,0.1,0c0,0,0.1,0,0.1,0c0,0,0,0,0.1,0.1c0,0,0,0.1,0,0.1V57z"/>
		<path class="st3" d="M133,55.9c0,0.2,0,0.4,0,0.5c0,0.1-0.1,0.3-0.1,0.4c0,0.1-0.1,0.2-0.2,0.2c-0.1,0.1-0.2,0.1-0.2,0.2
			c-0.1,0-0.2,0.1-0.3,0.1c-0.1,0-0.2,0-0.3,0c-0.1,0-0.2,0-0.3,0c-0.2,0-0.4-0.1-0.6-0.2c-0.2-0.2-0.4-0.4-0.5-0.7
			c0-0.1,0-0.2,0-0.3c0-0.1,0-0.2,0-0.2c0,0,0,0,0,0c0-0.1,0-0.1,0-0.2c0,0,0-0.1,0-0.1c0-0.1,0-0.1,0-0.1c0,0,0,0,0-0.1
			c0,0,0,0,0,0c0,0,0,0,0.1,0c0,0,0.1,0,0.1,0c0,0,0.1,0,0.1,0h0.1c0.1,0,0.2,0,0.3,0c0,0.1,0.1,0.1,0.1,0.2c0,0.1,0,0.2,0,0.2
			c0,0.1,0,0.1,0,0.2c0,0.1,0,0.2,0.1,0.2c0,0.1,0,0.1,0.1,0.2c0,0.1,0.1,0.1,0.1,0.1c0,0,0.1,0,0.2,0c0.1,0,0.2-0.1,0.3-0.2
			c0.1-0.1,0.1-0.2,0.1-0.4c0-0.1,0-0.2-0.1-0.3c0-0.1-0.1-0.3-0.2-0.6c-0.1-0.2-0.2-0.4-0.3-0.5c-0.1-0.1-0.2-0.3-0.3-0.7
			c-0.3-0.7-0.6-1.1-0.7-1.5c0-0.1-0.1-0.3-0.1-0.5c0-0.2,0-0.4,0-0.5c0-0.2,0-0.4,0.1-0.5c0-0.2,0.1-0.3,0.2-0.4
			c0.1-0.1,0.1-0.2,0.2-0.3c0.1-0.1,0.2-0.1,0.3-0.2c0.1,0,0.2-0.1,0.3-0.1c0.1,0,0.2,0,0.3,0c0.4,0,0.7,0.1,0.9,0.3
			c0.2,0.2,0.3,0.6,0.3,1.1c0,0.2,0,0.4-0.1,0.5c0,0.1-0.1,0.1-0.3,0.1h-0.2c0,0-0.1,0-0.1,0c0,0,0,0-0.1,0c0,0-0.1,0-0.1-0.1
			c0,0-0.1-0.1-0.1-0.1c-0.1-0.7-0.2-1-0.4-1c-0.1,0-0.2,0-0.3,0.1c-0.1,0.1-0.1,0.2-0.1,0.3c0,0.3,0.2,0.8,0.5,1.5
			c0.1,0.2,0.2,0.3,0.2,0.4c0.1,0.2,0.2,0.4,0.3,0.7c0.1,0.2,0.2,0.4,0.3,0.6c0.1,0.2,0.2,0.4,0.2,0.5h0C133,55.2,133,55.5,133,55.9
			z"/>
	</g>
</g>
</svg>
