<?xml version="1.0" encoding="utf-8"?>
<!-- Generator: Adobe Illustrator 22.0.1, SVG Export Plug-In . SVG Version: 6.00 Build 0)  -->
<svg version="1.1" id="Layer_1" xmlns="http://www.w3.org/2000/svg" xmlns:xlink="http://www.w3.org/1999/xlink" x="0px" y="0px"
	 viewBox="0 0 177.5 57.3" style="enable-background:new 0 0 177.5 57.3;" xml:space="preserve">
<style type="text/css">
	.st0{opacity:0.19;fill:#010101;}
	.st1{fill:#010101;}
	.st2{fill:#4D4D4D;}
	.st3{fill:#1D1C1A;}
	.st4{fill-rule:evenodd;clip-rule:evenodd;fill:#010101;}
</style>
<g>
	<g>
		<rect x="82.2" y="11.5" class="st1" width="1.5" height="34.3"/>
	</g>
	<path class="st1" d="M101.7,14.8l0.1,2.7h-0.3c-0.1-0.5-0.1-0.8-0.3-1c-0.2-0.3-0.4-0.6-0.7-0.7c-0.3-0.2-0.7-0.2-1.1-0.2h-1.6v8.7
		c0,0.7,0.1,1.1,0.2,1.3c0.2,0.2,0.5,0.4,1,0.4h0.4v0.3h-4.8v-0.3H95c0.5,0,0.8-0.1,1-0.4c0.1-0.2,0.2-0.6,0.2-1.2v-8.7h-1.4
		c-0.5,0-0.9,0-1.1,0.1c-0.3,0.1-0.5,0.3-0.7,0.6c-0.2,0.3-0.3,0.7-0.4,1.2h-0.3l0.1-2.7H101.7z"/>
	<path class="st1" d="M102.9,21.4c0,1.1,0.3,2,0.8,2.7c0.6,0.6,1.2,1,2,1c0.5,0,0.9-0.1,1.3-0.4c0.4-0.3,0.7-0.8,0.9-1.4l0.3,0.2
		c-0.1,0.8-0.5,1.5-1,2.1c-0.6,0.6-1.3,0.9-2.1,0.9c-0.9,0-1.7-0.4-2.4-1.1c-0.7-0.7-1-1.7-1-2.9c0-1.3,0.3-2.3,1-3.1
		c0.7-0.7,1.5-1.1,2.5-1.1c0.9,0,1.6,0.3,2.1,0.9c0.6,0.6,0.8,1.3,0.8,2.3H102.9z M102.9,20.9h3.6c0-0.5-0.1-0.8-0.2-1
		c-0.1-0.3-0.3-0.6-0.6-0.7c-0.3-0.2-0.6-0.3-0.9-0.3c-0.5,0-0.9,0.2-1.2,0.5C103.2,19.8,102.9,20.3,102.9,20.9z"/>
	<path class="st1" d="M115.8,23.3c-0.2,1-0.6,1.8-1.2,2.3c-0.6,0.5-1.3,0.8-2,0.8c-0.9,0-1.6-0.4-2.3-1.1c-0.7-0.7-1-1.7-1-3
		c0-1.2,0.4-2.2,1.1-2.9c0.7-0.8,1.6-1.1,2.6-1.1c0.8,0,1.4,0.2,1.9,0.6c0.5,0.4,0.7,0.8,0.7,1.2c0,0.2-0.1,0.4-0.2,0.5
		c-0.1,0.1-0.3,0.2-0.6,0.2c-0.3,0-0.6-0.1-0.7-0.3c-0.1-0.1-0.2-0.3-0.2-0.7c0-0.3-0.1-0.6-0.3-0.8c-0.2-0.2-0.5-0.3-0.8-0.3
		c-0.6,0-1,0.2-1.4,0.6c-0.5,0.5-0.7,1.3-0.7,2.2c0,0.9,0.2,1.7,0.7,2.4c0.5,0.7,1.1,1.1,1.8,1.1c0.5,0,1-0.2,1.5-0.6
		c0.3-0.3,0.6-0.7,0.9-1.4L115.8,23.3z"/>
	<path class="st1" d="M119.1,19.9c0.9-1.1,1.8-1.6,2.6-1.6c0.4,0,0.8,0.1,1.1,0.3c0.3,0.2,0.5,0.6,0.7,1c0.1,0.3,0.2,0.9,0.2,1.5
		v3.3c0,0.5,0,0.8,0.1,1c0.1,0.1,0.2,0.2,0.3,0.3c0.1,0.1,0.4,0.1,0.8,0.1v0.3h-3.8v-0.3h0.2c0.4,0,0.6-0.1,0.8-0.2
		c0.1-0.1,0.2-0.3,0.3-0.5c0-0.1,0-0.3,0-0.8v-3.2c0-0.7-0.1-1.2-0.3-1.5c-0.2-0.3-0.5-0.5-0.9-0.5c-0.7,0-1.3,0.4-2,1.1v4.1
		c0,0.5,0,0.8,0.1,1c0.1,0.2,0.2,0.3,0.3,0.4c0.1,0.1,0.4,0.1,0.8,0.1v0.3h-3.8v-0.3h0.2c0.4,0,0.7-0.1,0.8-0.3
		c0.1-0.2,0.2-0.6,0.2-1.1v-2.9c0-0.9,0-1.5-0.1-1.7c0-0.2-0.1-0.3-0.2-0.4c-0.1-0.1-0.2-0.1-0.3-0.1c-0.2,0-0.3,0-0.6,0.1l-0.1-0.3
		l2.3-0.9h0.4V19.9z"/>
	<path class="st1" d="M129.2,18.3c1.2,0,2.1,0.4,2.8,1.3c0.6,0.8,0.9,1.6,0.9,2.6c0,0.7-0.2,1.4-0.5,2.1c-0.3,0.7-0.8,1.2-1.4,1.6
		c-0.6,0.4-1.2,0.5-1.9,0.5c-1.2,0-2.1-0.5-2.8-1.4c-0.6-0.8-0.9-1.7-0.9-2.6c0-0.7,0.2-1.4,0.5-2.1c0.4-0.7,0.8-1.2,1.4-1.5
		C128,18.5,128.6,18.3,129.2,18.3z M129,18.8c-0.3,0-0.6,0.1-0.9,0.3c-0.3,0.2-0.5,0.5-0.7,0.9c-0.2,0.4-0.3,1-0.3,1.7
		c0,1.1,0.2,2.1,0.7,2.9c0.4,0.8,1,1.2,1.8,1.2c0.5,0,1-0.2,1.3-0.7c0.4-0.4,0.5-1.2,0.5-2.3c0-1.4-0.3-2.4-0.9-3.2
		C130.1,19.1,129.6,18.8,129,18.8z"/>
	<path class="st1" d="M136.7,14.3v10.2c0,0.5,0,0.8,0.1,1c0.1,0.2,0.2,0.3,0.3,0.4c0.1,0.1,0.4,0.1,0.8,0.1v0.3h-3.8v-0.3
		c0.4,0,0.6,0,0.7-0.1c0.1-0.1,0.2-0.2,0.3-0.4c0.1-0.2,0.1-0.5,0.1-1v-7c0-0.9,0-1.4-0.1-1.6c0-0.2-0.1-0.3-0.2-0.4
		c-0.1-0.1-0.2-0.1-0.3-0.1c-0.1,0-0.3,0-0.6,0.1l-0.1-0.3l2.3-0.9H136.7z"/>
	<path class="st1" d="M142.6,18.3c1.2,0,2.1,0.4,2.8,1.3c0.6,0.8,0.9,1.6,0.9,2.6c0,0.7-0.2,1.4-0.5,2.1c-0.3,0.7-0.8,1.2-1.4,1.6
		c-0.6,0.4-1.2,0.5-1.9,0.5c-1.2,0-2.1-0.5-2.8-1.4c-0.6-0.8-0.9-1.7-0.9-2.6c0-0.7,0.2-1.4,0.5-2.1c0.4-0.7,0.8-1.2,1.4-1.5
		C141.4,18.5,142,18.3,142.6,18.3z M142.4,18.8c-0.3,0-0.6,0.1-0.9,0.3c-0.3,0.2-0.5,0.5-0.7,0.9c-0.2,0.4-0.3,1-0.3,1.7
		c0,1.1,0.2,2.1,0.7,2.9c0.4,0.8,1,1.2,1.8,1.2c0.5,0,1-0.2,1.3-0.7c0.4-0.4,0.5-1.2,0.5-2.3c0-1.4-0.3-2.4-0.9-3.2
		C143.5,19.1,143,18.8,142.4,18.8z M144.4,14.5l-2.5,2.9h-0.3l0.9-2.9H144.4z"/>
	<path class="st1" d="M149.5,23.4c-0.5-0.2-0.8-0.6-1.1-1c-0.3-0.4-0.4-0.9-0.4-1.4c0-0.8,0.3-1.4,0.9-2c0.6-0.5,1.3-0.8,2.2-0.8
		c0.7,0,1.4,0.2,1.9,0.5h1.6c0.2,0,0.4,0,0.4,0c0,0,0.1,0,0.1,0.1c0,0,0.1,0.1,0.1,0.3c0,0.1,0,0.2,0,0.3c0,0,0,0.1-0.1,0.1
		c0,0-0.2,0-0.4,0h-1c0.3,0.4,0.5,0.9,0.5,1.5c0,0.7-0.3,1.3-0.8,1.8c-0.5,0.5-1.3,0.8-2.2,0.8c-0.4,0-0.8-0.1-1.2-0.2
		c-0.2,0.2-0.4,0.4-0.5,0.6c-0.1,0.2-0.1,0.3-0.1,0.4c0,0.1,0,0.2,0.1,0.3c0.1,0.1,0.3,0.2,0.5,0.2c0.2,0,0.5,0,1.2,0.1
		c1.2,0,1.9,0.1,2.2,0.1c0.5,0.1,0.9,0.3,1.2,0.6c0.3,0.3,0.5,0.7,0.5,1.2c0,0.6-0.3,1.2-0.9,1.8c-0.9,0.8-2,1.2-3.4,1.2
		c-1.1,0-2-0.2-2.7-0.7c-0.4-0.3-0.6-0.6-0.6-0.9c0-0.1,0-0.3,0.1-0.4c0.1-0.2,0.3-0.5,0.6-0.9c0-0.1,0.3-0.4,0.9-0.9
		c-0.3-0.2-0.5-0.3-0.6-0.5c-0.1-0.1-0.2-0.3-0.2-0.5c0-0.2,0.1-0.4,0.2-0.7C148.6,24.3,148.9,23.9,149.5,23.4z M149.4,26.2
		c-0.3,0.3-0.5,0.6-0.6,0.8c-0.1,0.2-0.2,0.5-0.2,0.7c0,0.3,0.2,0.5,0.5,0.7c0.6,0.3,1.4,0.5,2.4,0.5c1,0,1.8-0.2,2.2-0.5
		c0.5-0.4,0.7-0.7,0.7-1.1c0-0.3-0.1-0.5-0.4-0.6c-0.3-0.1-0.9-0.2-1.7-0.2C151.1,26.4,150.1,26.3,149.4,26.2z M151,18.7
		c-0.4,0-0.8,0.2-1,0.5c-0.3,0.3-0.4,0.8-0.4,1.5c0,0.9,0.2,1.6,0.6,2.1c0.3,0.4,0.7,0.6,1.1,0.6c0.4,0,0.8-0.2,1.1-0.5
		c0.3-0.3,0.4-0.8,0.4-1.5c0-0.9-0.2-1.6-0.6-2.1C151.8,18.9,151.4,18.7,151,18.7z"/>
	<path class="st1" d="M158.7,18.3v6.2c0,0.5,0,0.8,0.1,1c0.1,0.2,0.2,0.3,0.3,0.4c0.1,0.1,0.4,0.1,0.8,0.1v0.3h-3.7v-0.3
		c0.4,0,0.6,0,0.8-0.1c0.1-0.1,0.2-0.2,0.3-0.4c0.1-0.2,0.1-0.5,0.1-1v-3c0-0.8,0-1.4-0.1-1.6c0-0.2-0.1-0.3-0.2-0.4
		c-0.1-0.1-0.2-0.1-0.3-0.1c-0.2,0-0.3,0-0.6,0.1l-0.1-0.3l2.3-0.9H158.7z M158,14.3c0.2,0,0.4,0.1,0.6,0.2c0.2,0.2,0.2,0.4,0.2,0.6
		c0,0.2-0.1,0.4-0.2,0.6c-0.2,0.2-0.4,0.3-0.6,0.3c-0.2,0-0.4-0.1-0.6-0.3c-0.2-0.2-0.3-0.4-0.3-0.6c0-0.2,0.1-0.4,0.2-0.6
		C157.6,14.3,157.8,14.3,158,14.3z"/>
	<path class="st1" d="M167.4,23.3c-0.2,1-0.6,1.8-1.2,2.3c-0.6,0.5-1.3,0.8-2,0.8c-0.9,0-1.6-0.4-2.3-1.1c-0.6-0.7-1-1.7-1-3
		c0-1.2,0.4-2.2,1.1-2.9c0.7-0.8,1.6-1.1,2.6-1.1c0.8,0,1.4,0.2,1.9,0.6c0.5,0.4,0.7,0.8,0.7,1.2c0,0.2-0.1,0.4-0.2,0.5
		c-0.1,0.1-0.3,0.2-0.6,0.2c-0.3,0-0.6-0.1-0.7-0.3c-0.1-0.1-0.2-0.3-0.2-0.7c0-0.3-0.1-0.6-0.3-0.8c-0.2-0.2-0.5-0.3-0.8-0.3
		c-0.6,0-1,0.2-1.4,0.6c-0.5,0.5-0.7,1.3-0.7,2.2c0,0.9,0.2,1.7,0.7,2.4c0.4,0.7,1.1,1.1,1.8,1.1c0.5,0,1-0.2,1.5-0.6
		c0.3-0.3,0.6-0.7,0.9-1.4L167.4,23.3z"/>
	<path class="st1" d="M172.2,18.3c1.2,0,2.1,0.4,2.8,1.3c0.6,0.8,0.9,1.6,0.9,2.6c0,0.7-0.2,1.4-0.5,2.1c-0.3,0.7-0.8,1.2-1.4,1.6
		c-0.6,0.4-1.2,0.5-1.9,0.5c-1.2,0-2.1-0.5-2.8-1.4c-0.6-0.8-0.9-1.7-0.9-2.6c0-0.7,0.2-1.4,0.5-2.1c0.4-0.7,0.8-1.2,1.4-1.5
		C171,18.5,171.6,18.3,172.2,18.3z M172,18.8c-0.3,0-0.6,0.1-0.9,0.3c-0.3,0.2-0.5,0.5-0.7,0.9c-0.2,0.4-0.3,1-0.3,1.7
		c0,1.1,0.2,2.1,0.7,2.9c0.4,0.8,1,1.2,1.8,1.2c0.5,0,1-0.2,1.3-0.7c0.4-0.4,0.5-1.2,0.5-2.3c0-1.4-0.3-2.4-0.9-3.2
		C173.1,19.1,172.6,18.8,172,18.8z"/>
	<g>
		<path class="st1" d="M97,42c-0.3,0.3-0.7,0.6-1,0.7c-0.3,0.2-0.7,0.2-1,0.2c-0.7,0-1.4-0.3-1.9-0.9c-0.6-0.6-0.8-1.4-0.8-2.4
			c0-1,0.3-1.9,0.9-2.7c0.6-0.8,1.4-1.2,2.4-1.2c0.6,0,1.1,0.2,1.5,0.6v-1.3c0-0.8,0-1.3-0.1-1.4c0-0.2-0.1-0.3-0.2-0.4
			c-0.1-0.1-0.2-0.1-0.3-0.1c-0.1,0-0.3,0-0.5,0.1l-0.1-0.3l2-0.8h0.3v7.8c0,0.8,0,1.3,0.1,1.5c0,0.2,0.1,0.3,0.2,0.4
			c0.1,0.1,0.2,0.1,0.3,0.1c0.1,0,0.3,0,0.5-0.1l0.1,0.3l-2,0.8H97V42z M97,41.5V38c0-0.3-0.1-0.6-0.3-0.9c-0.1-0.3-0.3-0.5-0.6-0.6
			c-0.2-0.1-0.5-0.2-0.7-0.2c-0.4,0-0.8,0.2-1.2,0.6c-0.4,0.5-0.7,1.3-0.7,2.3c0,1,0.2,1.8,0.7,2.3c0.4,0.5,0.9,0.8,1.5,0.8
			C96.2,42.2,96.6,42,97,41.5z"/>
		<path class="st1" d="M100.9,38.6c0,1,0.2,1.8,0.7,2.4c0.5,0.6,1.1,0.9,1.7,0.9c0.4,0,0.8-0.1,1.2-0.4c0.3-0.2,0.6-0.7,0.8-1.3
			l0.2,0.1c-0.1,0.7-0.4,1.3-0.9,1.8c-0.5,0.6-1.1,0.8-1.9,0.8c-0.8,0-1.5-0.3-2.1-1c-0.6-0.6-0.9-1.5-0.9-2.6
			c0-1.2,0.3-2.1,0.9-2.7c0.6-0.6,1.3-1,2.2-1c0.8,0,1.4,0.2,1.9,0.8c0.5,0.5,0.7,1.2,0.7,2H100.9z M100.9,38.1h3.1
			c0-0.4-0.1-0.7-0.2-0.9c-0.1-0.3-0.3-0.5-0.6-0.7c-0.2-0.2-0.5-0.2-0.8-0.2c-0.4,0-0.8,0.2-1.1,0.5
			C101.2,37.1,101,37.6,100.9,38.1z"/>
		<path class="st1" d="M119,32.5l0.2,3.4H119c-0.3-1-0.7-1.8-1.3-2.2c-0.6-0.4-1.2-0.7-2-0.7c-0.7,0-1.3,0.2-1.8,0.5
			c-0.5,0.3-1,0.9-1.3,1.6c-0.3,0.7-0.5,1.7-0.5,2.8c0,0.9,0.1,1.7,0.4,2.4c0.3,0.7,0.7,1.2,1.3,1.5c0.6,0.4,1.3,0.5,2,0.5
			c0.7,0,1.2-0.1,1.7-0.4c0.5-0.3,1-0.8,1.6-1.7l0.2,0.1c-0.5,0.9-1.1,1.5-1.8,2c-0.7,0.4-1.5,0.6-2.4,0.6c-1.7,0-3-0.6-3.9-1.9
			c-0.7-0.9-1-2-1-3.2c0-1,0.2-1.9,0.7-2.8c0.4-0.8,1.1-1.5,1.9-2c0.8-0.5,1.6-0.7,2.6-0.7c0.7,0,1.4,0.2,2.1,0.5
			c0.2,0.1,0.4,0.2,0.4,0.2c0.1,0,0.2,0,0.3-0.1c0.1-0.1,0.2-0.3,0.3-0.6H119z"/>
		<path class="st1" d="M123.8,35.8c1,0,1.9,0.4,2.5,1.2c0.5,0.7,0.8,1.4,0.8,2.3c0,0.6-0.1,1.2-0.4,1.8c-0.3,0.6-0.7,1.1-1.2,1.4
			c-0.5,0.3-1.1,0.5-1.7,0.5c-1,0-1.8-0.4-2.4-1.2c-0.5-0.7-0.8-1.5-0.8-2.3c0-0.6,0.2-1.2,0.5-1.9c0.3-0.6,0.7-1.1,1.2-1.4
			C122.7,36,123.2,35.8,123.8,35.8z M123.5,36.3c-0.3,0-0.5,0.1-0.8,0.2c-0.3,0.2-0.5,0.4-0.6,0.8c-0.2,0.4-0.2,0.9-0.2,1.5
			c0,1,0.2,1.8,0.6,2.6c0.4,0.7,0.9,1.1,1.6,1.1c0.5,0,0.9-0.2,1.2-0.6c0.3-0.4,0.5-1.1,0.5-2c0-1.2-0.3-2.2-0.8-2.8
			C124.5,36.5,124.1,36.3,123.5,36.3z"/>
		<path class="st1" d="M132.4,35.8v2.3h-0.2c-0.2-0.7-0.4-1.2-0.7-1.5c-0.3-0.3-0.7-0.4-1.1-0.4c-0.3,0-0.6,0.1-0.8,0.3
			c-0.2,0.2-0.3,0.4-0.3,0.6c0,0.3,0.1,0.5,0.2,0.7c0.2,0.2,0.5,0.4,0.9,0.6l1.1,0.5c1,0.5,1.5,1.1,1.5,1.9c0,0.6-0.2,1.1-0.7,1.5
			c-0.5,0.4-1,0.6-1.6,0.6c-0.4,0-0.9-0.1-1.4-0.2c-0.2,0-0.3-0.1-0.4-0.1c-0.1,0-0.2,0.1-0.3,0.2h-0.2v-2.4h0.2
			c0.1,0.7,0.4,1.2,0.8,1.6c0.4,0.4,0.8,0.5,1.3,0.5c0.3,0,0.6-0.1,0.8-0.3c0.2-0.2,0.3-0.4,0.3-0.7c0-0.3-0.1-0.6-0.4-0.9
			c-0.2-0.2-0.7-0.5-1.4-0.9c-0.7-0.4-1.2-0.7-1.4-1c-0.2-0.3-0.3-0.6-0.3-1.1c0-0.6,0.2-1,0.6-1.4c0.4-0.4,0.9-0.6,1.5-0.6
			c0.3,0,0.6,0.1,1,0.2c0.3,0.1,0.4,0.1,0.5,0.1c0.1,0,0.1,0,0.2-0.1c0,0,0.1-0.1,0.2-0.2H132.4z"/>
		<path class="st1" d="M135.9,33.8V36h1.6v0.5h-1.6v4.4c0,0.4,0.1,0.7,0.2,0.9c0.1,0.2,0.3,0.2,0.5,0.2c0.2,0,0.3-0.1,0.5-0.2
			c0.2-0.1,0.3-0.3,0.4-0.4h0.3c-0.2,0.5-0.4,0.8-0.7,1.1c-0.3,0.2-0.6,0.4-1,0.4c-0.2,0-0.4-0.1-0.7-0.2c-0.2-0.1-0.4-0.3-0.5-0.5
			c-0.1-0.2-0.2-0.6-0.2-1.1v-4.6h-1.1v-0.2c0.3-0.1,0.5-0.3,0.8-0.6c0.3-0.3,0.5-0.6,0.8-0.9c0.1-0.2,0.3-0.5,0.5-1H135.9z"/>
		<path class="st1" d="M142,41.8c-0.7,0.5-1.1,0.8-1.3,0.9c-0.3,0.1-0.5,0.2-0.9,0.2c-0.5,0-0.9-0.2-1.2-0.5
			c-0.3-0.3-0.5-0.7-0.5-1.3c0-0.3,0.1-0.6,0.2-0.9c0.2-0.3,0.6-0.7,1.1-0.9c0.5-0.3,1.3-0.7,2.5-1.1V38c0-0.7-0.1-1.1-0.3-1.4
			c-0.2-0.3-0.5-0.4-0.9-0.4c-0.3,0-0.6,0.1-0.7,0.3c-0.2,0.2-0.3,0.4-0.3,0.6l0,0.4c0,0.2-0.1,0.4-0.2,0.5
			c-0.1,0.1-0.3,0.2-0.5,0.2c-0.2,0-0.3-0.1-0.4-0.2c-0.1-0.1-0.2-0.3-0.2-0.5c0-0.4,0.2-0.8,0.7-1.2c0.4-0.4,1-0.5,1.8-0.5
			c0.6,0,1.1,0.1,1.5,0.3c0.3,0.2,0.5,0.4,0.6,0.7c0.1,0.2,0.1,0.6,0.1,1.3v2.3c0,0.6,0,1,0,1.2c0,0.1,0.1,0.2,0.1,0.3
			c0.1,0,0.1,0.1,0.2,0.1c0.1,0,0.1,0,0.2-0.1c0.1-0.1,0.3-0.2,0.6-0.5v0.4c-0.6,0.7-1.1,1.1-1.6,1.1c-0.2,0-0.4-0.1-0.6-0.3
			C142.1,42.5,142,42.2,142,41.8z M142,41.3v-2.6c-0.7,0.3-1.2,0.5-1.4,0.6c-0.4,0.2-0.7,0.4-0.8,0.7c-0.2,0.2-0.3,0.5-0.3,0.8
			c0,0.4,0.1,0.7,0.3,0.9c0.2,0.2,0.5,0.4,0.7,0.4C140.9,42.1,141.4,41.8,142,41.3z"/>
		<path class="st1" d="M158.4,42.8h-2.7l-3.4-4.7c-0.3,0-0.5,0-0.6,0c-0.1,0-0.1,0-0.2,0c-0.1,0-0.2,0-0.2,0V41c0,0.6,0.1,1,0.2,1.2
			c0.2,0.2,0.5,0.3,0.8,0.3h0.4v0.3h-4.3v-0.3h0.4c0.4,0,0.7-0.1,0.9-0.4c0.1-0.2,0.2-0.5,0.2-1.1v-6.5c0-0.6-0.1-1-0.2-1.2
			c-0.2-0.2-0.5-0.3-0.9-0.3h-0.4v-0.3h3.7c1.1,0,1.9,0.1,2.4,0.2c0.5,0.2,0.9,0.4,1.3,0.9c0.4,0.4,0.5,0.9,0.5,1.5
			c0,0.6-0.2,1.2-0.6,1.6c-0.4,0.5-1,0.8-1.9,1l2.1,2.9c0.5,0.7,0.9,1.1,1.2,1.3c0.3,0.2,0.8,0.4,1.3,0.4V42.8z M151.3,37.6
			c0.1,0,0.2,0,0.2,0c0.1,0,0.1,0,0.2,0c1,0,1.7-0.2,2.2-0.6c0.5-0.4,0.7-0.9,0.7-1.6c0-0.6-0.2-1.1-0.6-1.5
			c-0.4-0.4-0.9-0.6-1.6-0.6c-0.3,0-0.7,0-1.2,0.1V37.6z"/>
		<path class="st1" d="M161.1,35.8v5.4c0,0.4,0,0.7,0.1,0.8c0.1,0.1,0.2,0.2,0.3,0.3c0.1,0.1,0.3,0.1,0.7,0.1v0.3h-3.3v-0.3
			c0.3,0,0.6,0,0.7-0.1c0.1-0.1,0.2-0.2,0.3-0.3c0.1-0.1,0.1-0.4,0.1-0.9v-2.6c0-0.7,0-1.2-0.1-1.4c0-0.2-0.1-0.3-0.2-0.3
			c-0.1-0.1-0.2-0.1-0.3-0.1c-0.1,0-0.3,0-0.5,0.1l-0.1-0.3l2-0.8H161.1z M160.5,32.3c0.2,0,0.4,0.1,0.5,0.2
			c0.1,0.1,0.2,0.3,0.2,0.5c0,0.2-0.1,0.4-0.2,0.5c-0.1,0.1-0.3,0.2-0.5,0.2c-0.2,0-0.4-0.1-0.5-0.2c-0.1-0.1-0.2-0.3-0.2-0.5
			c0-0.2,0.1-0.4,0.2-0.5C160.1,32.4,160.3,32.3,160.5,32.3z"/>
		<path class="st1" d="M168.7,40.2c-0.2,0.9-0.5,1.6-1.1,2.1c-0.5,0.5-1.1,0.7-1.8,0.7c-0.8,0-1.4-0.3-2-1c-0.6-0.6-0.9-1.5-0.9-2.6
			c0-1.1,0.3-1.9,1-2.6c0.6-0.7,1.4-1,2.3-1c0.7,0,1.2,0.2,1.6,0.5c0.4,0.4,0.6,0.7,0.6,1.1c0,0.2-0.1,0.3-0.2,0.5
			c-0.1,0.1-0.3,0.2-0.5,0.2c-0.3,0-0.5-0.1-0.7-0.3c-0.1-0.1-0.1-0.3-0.2-0.6c0-0.3-0.1-0.5-0.3-0.7c-0.2-0.1-0.4-0.2-0.7-0.2
			c-0.5,0-0.9,0.2-1.2,0.5c-0.4,0.5-0.6,1.1-0.6,1.9c0,0.8,0.2,1.5,0.6,2.1c0.4,0.6,0.9,0.9,1.6,0.9c0.5,0,0.9-0.2,1.3-0.5
			c0.3-0.2,0.5-0.6,0.8-1.2L168.7,40.2z"/>
		<path class="st1" d="M173.6,41.8c-0.7,0.5-1.1,0.8-1.3,0.9c-0.3,0.1-0.6,0.2-0.9,0.2c-0.5,0-0.9-0.2-1.2-0.5
			c-0.3-0.3-0.5-0.7-0.5-1.3c0-0.3,0.1-0.6,0.2-0.9c0.2-0.3,0.6-0.7,1.1-0.9c0.5-0.3,1.3-0.7,2.5-1.1V38c0-0.7-0.1-1.1-0.3-1.4
			c-0.2-0.3-0.5-0.4-0.9-0.4c-0.3,0-0.6,0.1-0.7,0.3c-0.2,0.2-0.3,0.4-0.3,0.6l0,0.4c0,0.2-0.1,0.4-0.2,0.5
			c-0.1,0.1-0.3,0.2-0.5,0.2c-0.2,0-0.3-0.1-0.4-0.2c-0.1-0.1-0.2-0.3-0.2-0.5c0-0.4,0.2-0.8,0.7-1.2c0.4-0.4,1-0.5,1.8-0.5
			c0.6,0,1.1,0.1,1.5,0.3c0.3,0.2,0.5,0.4,0.6,0.7c0.1,0.2,0.1,0.6,0.1,1.3v2.3c0,0.6,0,1,0,1.2c0,0.1,0.1,0.2,0.1,0.3
			c0.1,0,0.1,0.1,0.2,0.1c0.1,0,0.1,0,0.2-0.1c0.1-0.1,0.3-0.2,0.6-0.5v0.4c-0.6,0.7-1.1,1.1-1.6,1.1c-0.2,0-0.4-0.1-0.6-0.3
			C173.6,42.5,173.6,42.2,173.6,41.8z M173.6,41.3v-2.6c-0.7,0.3-1.2,0.5-1.4,0.6c-0.4,0.2-0.7,0.4-0.8,0.7
			c-0.2,0.2-0.3,0.5-0.3,0.8c0,0.4,0.1,0.7,0.3,0.9c0.2,0.2,0.5,0.4,0.7,0.4C172.5,42.1,172.9,41.8,173.6,41.3z"/>
	</g>
	<path class="st1" d="M24.4,14.9l0.3,6.5h-0.8c-0.1-1.1-0.4-1.9-0.6-2.4c-0.4-0.8-1-1.4-1.7-1.7c-0.7-0.4-1.6-0.6-2.7-0.6H15v21
		c0,1.7,0.2,2.7,0.5,3.2c0.5,0.6,1.3,0.9,2.4,0.9h1v0.8H7.2v-0.8h1c1.2,0,2-0.4,2.5-1.1c0.3-0.4,0.4-1.4,0.4-3v-21H7.8
		c-1.3,0-2.2,0.1-2.7,0.3c-0.7,0.3-1.3,0.8-1.8,1.5c-0.5,0.7-0.8,1.7-0.9,3H1.6l0.3-6.5H24.4z"/>
	<path class="st1" d="M33.2,16.4v10.9h6c1.6,0,2.6-0.2,3.1-0.7c0.7-0.6,1.1-1.7,1.2-3.3h0.8v9.6h-0.8c-0.2-1.3-0.4-2.2-0.6-2.6
		c-0.2-0.5-0.6-0.8-1.2-1.1c-0.6-0.3-1.4-0.4-2.6-0.4h-6v9.1c0,1.2,0.1,2,0.2,2.2c0.1,0.3,0.3,0.5,0.6,0.6c0.3,0.2,0.8,0.2,1.5,0.2
		h4.7c1.6,0,2.7-0.1,3.4-0.3c0.7-0.2,1.4-0.6,2-1.3c0.8-0.8,1.7-2.1,2.6-3.8h0.8l-2.4,6.9H25.3v-0.8h1c0.6,0,1.3-0.2,1.8-0.5
		c0.4-0.2,0.7-0.5,0.9-1c0.2-0.4,0.2-1.3,0.2-2.7V19.7c0-1.7-0.2-2.8-0.5-3.2c-0.5-0.5-1.3-0.8-2.4-0.8h-1v-0.8h21.2l0.3,6H46
		c-0.3-1.4-0.6-2.4-0.9-3c-0.3-0.5-0.9-1-1.5-1.2c-0.5-0.2-1.5-0.3-2.9-0.3H33.2z"/>
	<path class="st1" d="M72.4,14.3l0.6,9.4h-0.6c-0.8-2.8-2-4.8-3.6-6c-1.6-1.2-3.4-1.8-5.6-1.8c-1.8,0-3.5,0.5-5,1.4
		c-1.5,0.9-2.6,2.4-3.5,4.4c-0.8,2-1.3,4.6-1.3,7.6c0,2.5,0.4,4.6,1.2,6.5c0.8,1.8,2,3.2,3.6,4.2c1.6,1,3.4,1.5,5.5,1.5
		c1.8,0,3.4-0.4,4.7-1.1c1.4-0.8,2.9-2.3,4.5-4.6l0.6,0.4c-1.4,2.4-3,4.2-4.8,5.4c-1.8,1.1-4,1.7-6.6,1.7c-4.6,0-8.1-1.7-10.6-5.1
		c-1.9-2.5-2.8-5.5-2.8-8.9c0-2.7,0.6-5.3,1.8-7.6c1.2-2.3,2.9-4.1,5.1-5.3c2.2-1.3,4.5-1.9,7.1-1.9c2,0,3.9,0.5,5.9,1.5
		c0.6,0.3,1,0.4,1.2,0.4c0.4,0,0.7-0.1,1-0.4c0.4-0.4,0.6-0.9,0.8-1.5H72.4z"/>
</g>
</svg>
