<?xml version="1.0" encoding="utf-8"?>
<!-- Generator: Adobe Illustrator 22.0.1, SVG Export Plug-In . SVG Version: 6.00 Build 0)  -->
<svg version="1.1" id="Layer_1" xmlns="http://www.w3.org/2000/svg" xmlns:xlink="http://www.w3.org/1999/xlink" x="0px" y="0px"
	 viewBox="0 0 177.5 57.3" style="enable-background:new 0 0 177.5 57.3;" xml:space="preserve">
<style type="text/css">
	.st0{opacity:0.19;fill:#010101;}
	.st1{fill:#010101;}
	.st2{fill:#4D4D4D;}
	.st3{fill:#1D1C1A;}
	.st4{fill-rule:evenodd;clip-rule:evenodd;fill:#010101;}
</style>
<g>
	<path class="st1" d="M88.8,0.7c-15.4,0-28,12.5-28,27.9c0,15.4,12.5,28,27.9,28c15.4,0,28-12.5,28-27.9
		C116.8,13.3,104.3,0.7,88.8,0.7z M88.6,55C74,54.9,62.3,43,62.4,28.5c0.1-14.6,12-26.3,26.5-26.2c14.6,0.1,26.3,12,26.2,26.5
		C115.1,43.4,103.2,55.1,88.6,55z"/>
	<g>
		<g>
			<g>
				<path class="st1" d="M80.5,30c0.2-0.1,0.5-0.1,0.7-0.1c0.7,0,1.3,0.2,1.8,0.7c0.5,0.5,0.8,1.1,0.8,2v4c0.6,0.4,1.2,0.7,1.9,0.9
					v-6H84V30h0v0h5.2v1.5h0v0h-1.8v6.4c0.5,0.1,0.9,0.1,1.4,0.1c0.1,0,0.2,0,0.3,0l1.8-8h0v0h1.3l1.5,6.7c0.5-0.3,0.9-0.6,1.3-1V30
					h0v0l1.5,0l0.9,2.4c0.5-1.2,0.8-2.4,0.8-3.8c0-4.4-3-8.1-7.1-9.1v4.1h3.1v1.6h0v0.1h-4.7v-6c-0.2,0-0.4,0-0.7,0
					c-0.1,0-0.3,0-0.4,0v1.2h0v0.1h-2.7v3.1h3.1v1.6h0v0.1h-4.7v-4.7c-2.8,1.6-4.7,4.6-4.7,8.1c0,0.6,0.1,1.2,0.2,1.8
					C79.9,30.2,80.2,30.1,80.5,30z"/>
			</g>
			<g>
				<path class="st1" d="M80.2,32.4c0.5,1.1,1.2,2.2,2.1,3v-2.8c0-0.4-0.1-0.6-0.3-0.8c-0.2-0.2-0.5-0.3-0.8-0.3c-0.1,0-0.2,0-0.3,0
					c-0.2,0-0.3,0.1-0.5,0.2C80.3,31.9,80.3,32.1,80.2,32.4z"/>
			</g>
			<g>
				<polygon class="st1" points="92.3,37.1 91.5,33.2 90.7,37.1 				"/>
			</g>
		</g>
	</g>
	<g>
		<g>
			<path class="st1" d="M78.2,33.1h-1.6v-0.4c0-0.4-0.1-0.7-0.3-1c-0.2-0.2-0.5-0.4-0.8-0.4c-0.4,0-0.7,0.1-0.8,0.4
				c-0.2,0.3-0.2,0.6-0.2,1c0,0.4,0.1,0.8,0.2,0.9c0.1,0.2,0.3,0.4,0.7,0.5l1.2,0.5c0.7,0.2,1.1,0.6,1.3,1c0.2,0.4,0.3,1.1,0.3,1.9
				c0,1-0.2,1.8-0.6,2.3c-0.4,0.6-1.1,0.9-2.1,0.9c-0.8,0-1.4-0.2-1.9-0.7c-0.5-0.5-0.8-1.1-0.8-1.9v-0.6h1.6v0.5
				c0,0.3,0.1,0.6,0.3,0.8c0.2,0.2,0.5,0.3,0.8,0.3c0.5,0,0.8-0.1,0.9-0.4c0.1-0.2,0.2-0.7,0.2-1.2c0-0.6-0.1-1-0.2-1.1
				c-0.1-0.2-0.4-0.3-0.8-0.5l-1.1-0.5c-0.6-0.3-1.1-0.6-1.3-1.1c-0.2-0.4-0.4-1-0.4-1.7c0-0.9,0.2-1.6,0.7-2.2
				c0.5-0.6,1.1-0.8,2-0.8c0.7,0,1.4,0.3,1.9,0.8c0.5,0.5,0.7,1.1,0.7,1.7V33.1z"/>
			<path class="st1" d="M101.1,32.6c0-0.8,0.3-1.5,0.8-2c0.5-0.5,1.1-0.7,1.8-0.7c0.7,0,1.3,0.2,1.8,0.7c0.5,0.5,0.8,1.1,0.8,2v5.8
				c0,0.8-0.3,1.5-0.8,2c-0.5,0.5-1.1,0.7-1.8,0.7c-0.7,0-1.3-0.2-1.8-0.7c-0.5-0.5-0.8-1.1-0.8-2V32.6z M102.7,38.3
				c0,0.4,0.1,0.6,0.3,0.8c0.2,0.2,0.4,0.3,0.8,0.3c0.3,0,0.6-0.1,0.8-0.3c0.2-0.2,0.3-0.5,0.3-0.8v-5.8c0-0.4-0.1-0.6-0.3-0.8
				c-0.2-0.2-0.5-0.3-0.8-0.3c-0.3,0-0.6,0.1-0.8,0.3c-0.2,0.2-0.3,0.5-0.3,0.8V38.3z"/>
			<path class="st1" d="M98.9,30.1l0,6.5l-1.4-4.1c-0.6,1.2-1.4,2.3-2.4,3.2v5.2h1.5l0-6.5l2.4,6.5h1.4V30.1H98.9z"/>
			<path class="st1" d="M89.1,38l-0.6,2.9l1.6,0l0.5-2.3h2.1l0.5,2.3l1.6,0l-0.9-4.2C92.3,37.5,90.7,38,89.1,38z"/>
			<path class="st1" d="M85.9,37.5v3.4h1.5v-3C86.9,37.8,86.3,37.7,85.9,37.5z"/>
			<path class="st1" d="M82.4,35.3v3c0,0.4-0.1,0.6-0.3,0.8c-0.2,0.2-0.5,0.3-0.8,0.3c-0.3,0-0.5-0.1-0.7-0.3
				c-0.2-0.2-0.3-0.5-0.3-0.8v-5.8c0-0.1,0-0.2,0-0.3c-0.3-0.6-0.5-1.2-0.6-1.9c-0.1,0.1-0.1,0.1-0.2,0.2c-0.5,0.5-0.8,1.1-0.8,2
				v5.8c0,0.8,0.2,1.5,0.8,2c0.5,0.5,1.1,0.7,1.8,0.7c0.7,0,1.3-0.2,1.8-0.7c0.5-0.5,0.8-1.1,0.8-2v-1.7
				C83.3,36.2,82.8,35.8,82.4,35.3z"/>
			<path class="st1" d="M91.1,19.5v-5.2h-1.7v5C90,19.3,90.5,19.4,91.1,19.5z"/>
			<path class="st1" d="M88.4,19.3V19h-2.8v-3.1h3.2v-1.5H84v6.2C85.3,19.8,86.9,19.4,88.4,19.3z"/>
		</g>
	</g>
</g>
</svg>
