<?xml version="1.0" encoding="utf-8"?>
<!-- Generator: Adobe Illustrator 22.0.1, SVG Export Plug-In . SVG Version: 6.00 Build 0)  -->
<svg version="1.1" id="Layer_1" xmlns="http://www.w3.org/2000/svg" xmlns:xlink="http://www.w3.org/1999/xlink" x="0px" y="0px"
	 viewBox="0 0 177.5 57.3" style="enable-background:new 0 0 177.5 57.3;" xml:space="preserve">
<style type="text/css">
	.st0{opacity:0.19;fill:#010101;}
	.st1{fill:#010101;}
	.st2{fill:#4D4D4D;}
	.st3{fill:#1D1C1A;}
	.st4{fill-rule:evenodd;clip-rule:evenodd;fill:#010101;}
</style>
<g>
	<path class="st1" d="M46.3,1.6c0.1,0.8,0,1.5-0.2,2.3c-0.4,1-1,1.9-1.8,2.5c-0.8,0.7-1.8,1.3-2.8,1.7c-0.4,0.2-0.8,0.3-1.3,0.5
		c-2.4,0.8-4.6,1.8-6.7,3.1c-2,1.3-4,2.7-5.8,4.2l-0.3,0.3c0.1,0.1,0.2,0.1,0.4,0.1c3.6,1.1,7.1,2.4,10.4,4.1
		c2.3,1.1,4.4,2.4,6.4,3.9c1,0.8,1.9,1.7,2.7,2.6c0.5,0.6,1,1.3,1.3,2c1,1.8,1,4,0.2,5.9c-0.5,1.2-1.3,2.4-2.1,3.4
		c-1.3,1.5-2.9,2.9-4.5,4.1c-2.1,1.5-4.3,2.8-6.7,4c-4.1,2-8.3,3.8-12.6,5.2c-4.7,1.6-9.5,3-14.3,4.1c-0.1,0-0.2,0-0.4,0.1
		c0-0.1,0-0.2,0-0.2c-0.1-1.5,0.4-3,1.5-4.1c0.7-0.7,1.5-1.3,2.4-1.7c0.7-0.4,1.5-0.7,2.3-0.9c2.2-0.7,4.2-1.7,6.2-2.9
		c2.2-1.3,4.3-2.8,6.2-4.5c0.1-0.1,0.2-0.2,0.4-0.3c-0.2-0.1-0.3-0.1-0.4-0.1c-3.6-1.1-7.1-2.4-10.4-4.1c-2.1-1-4.1-2.2-6-3.6
		c-1.1-0.8-2.1-1.7-3-2.7c-0.8-0.9-1.5-2-1.9-3.2c-0.5-1.6-0.4-3.3,0.2-4.8C6.1,21.2,6.8,20,7.7,19c1.1-1.3,2.4-2.5,3.8-3.5
		c2.1-1.6,4.4-3,6.7-4.2c3.8-2,7.8-3.6,11.8-5c5-1.8,10.1-3.3,15.3-4.5C45.7,1.7,45.9,1.7,46.3,1.6z M29.5,37.9
		c0.1-0.1,0.1-0.2,0.2-0.2c0.9-1.4,1.7-2.9,2.2-4.5c0.1-0.2,0.1-0.4,0-0.6c-0.3-0.7-0.6-1.4-1-2.1c-0.9-1.6-2-3.2-3.3-4.6
		c-0.6-0.7-1.1-1.4-1.5-2.2c-0.6-1.1-1.1-2.2-1.5-3.4c0-0.1,0-0.3-0.2-0.4c0,0.1-0.1,0.1-0.1,0.2c-0.9,1.4-1.6,2.9-2.1,4.5
		c-0.1,0.2-0.1,0.4,0,0.6c0.6,1.3,1.4,2.5,2.3,3.6c1,1.1,1.9,2.2,2.7,3.4c0.7,0.9,1.2,1.9,1.6,3c0.3,0.7,0.5,1.5,0.5,2.2
		C29.4,37.7,29.4,37.7,29.5,37.9z"/>
	<path class="st1" d="M92.7,24.4c0.1,0.1,0.1,0.2,0.2,0.3c1.4,2.6,3.1,5.1,4.8,7.4c0.5,0.7,1.1,1.4,1.7,2c0.6,0.7,1.4,1.2,2.3,1.5
		l0.2,0.1l-0.1,0.9l-0.1,0c-1.2,0.1-2.4-0.1-3.5-0.4c-1.1-0.3-2-0.9-2.8-1.7c-0.4-0.4-0.7-0.8-1.1-1.3c-1.2-1.6-2.2-3.4-3.3-5.1
		c-0.3-0.4-0.5-0.9-0.8-1.3c-0.5-0.8-1.3-1.3-2.2-1.3c-0.7,0-1.3,0-2-0.1c-0.1,0-0.1,0-0.2,0c0,0.1,0,0.2,0,0.3c0,2.3,0,4.6,0,6.9
		c0,0.4,0.1,0.9,0.2,1.3c0.1,0.5,0.5,0.9,1,1c0.5,0.1,0.9,0.2,1.4,0.3l0.8,0.1v1c-0.3,0.1-9.6,0.1-10,0v-1c0.2,0,0.5,0,0.7-0.1
		c0.4,0,0.7-0.1,1.1-0.1c1-0.2,1.5-0.7,1.6-1.7c0.1-0.4,0.1-0.9,0.1-1.4c0-5.4,0-10.8,0-16.2c0-0.5,0-1.1-0.1-1.6
		c-0.1-0.7-0.6-1.2-1.3-1.3c-0.5-0.1-0.9-0.1-1.4-0.2l-0.5-0.1c0-0.3,0-0.7,0-1c0.2,0,0.3,0,0.4,0h6.9c1.1,0,2.3,0,3.4,0
		c1.1,0,2.2,0.2,3.3,0.5c0.8,0.3,1.6,0.7,2.3,1.3c0.9,0.9,1.5,2.1,1.7,3.4c0.1,0.9,0.1,1.8-0.1,2.6c-0.3,1.3-1,2.4-2,3.3
		c-0.7,0.6-1.5,1.1-2.3,1.5L92.7,24.4z M85.9,24.2c0.1,0,0.1,0,0.2,0c1.2,0,2.3,0,3.5-0.1c2.1-0.3,3.7-1.8,4.2-3.8
		c0.3-1.2,0.3-2.5,0-3.7c-0.3-1.7-1.6-3.1-3.3-3.6c-0.9-0.3-1.8-0.4-2.7-0.3c-0.3,0-0.7,0.1-1,0.2c-0.4,0.1-0.7,0.4-0.7,0.8
		c0,0.3-0.1,0.7-0.1,1c0,3,0,6.1,0,9.1C85.9,24,85.9,24.1,85.9,24.2L85.9,24.2z"/>
	<path class="st1" d="M101.4,12.6v-1c0.1,0,0.2,0,0.4,0h9c0.1,0,0.3,0,0.5,0v1l-0.5,0.1c-0.4,0-0.8,0.1-1.2,0.1
		c-0.2,0-0.3,0.1-0.5,0.1c-0.4,0.1-0.8,0.5-0.9,0.9c-0.1,0.4-0.2,0.7-0.2,1.1c0,0.6-0.1,1.2-0.1,1.8c0,2.7,0,5.4,0,8.2
		c0,1.4,0.1,2.9,0.4,4.3c0.2,0.9,0.5,1.7,0.9,2.4c0.9,1.7,2.6,2.8,4.5,3.1c1.1,0.2,2.2,0.1,3.3-0.1c1.4-0.3,2.7-1.2,3.5-2.5
		c0.6-1,1-2,1.3-3.2c0.3-1.4,0.5-2.9,0.5-4.4c0-2.1,0-4.1,0-6.2c0-1.2-0.1-2.4-0.3-3.6c-0.1-0.8-0.7-1.5-1.5-1.7
		c-0.5-0.1-1.1-0.2-1.6-0.3c-0.2,0-0.3,0-0.5-0.1v-1c0.1,0,0.3,0,0.4,0h8.2c0.1,0,0.2,0,0.3,0c0.1,0.3,0.1,0.7,0,1l-0.5,0.1
		c-0.4,0.1-0.8,0.1-1.1,0.2c-1,0.2-1.8,1.1-1.7,2.1c-0.1,1-0.1,2-0.1,3.1c0,2.4,0,4.9-0.1,7.3c0,1.7-0.2,3.3-0.7,4.9
		c-0.3,1-0.7,1.9-1.3,2.8c-1.1,1.7-2.9,2.9-4.9,3.4c-1.4,0.4-2.9,0.5-4.4,0.3c-0.9-0.1-1.7-0.3-2.5-0.6c-2.2-0.8-4-2.6-4.7-4.8
		c-0.4-1.1-0.6-2.3-0.7-3.5c-0.1-0.9-0.1-1.7-0.1-2.6c0-3.2,0-6.4,0-9.6c0-0.5,0-0.9-0.1-1.4c0-0.8-0.6-1.4-1.4-1.5
		c-0.4-0.1-0.9-0.1-1.3-0.2L101.4,12.6z"/>
	<path class="st1" d="M160.4,11c0.1,0.2,0.1,0.3,0.2,0.4c2.2,6.2,4.5,12.4,6.7,18.7c0.3,0.9,0.6,1.8,1,2.6c0.2,0.4,0.4,0.8,0.6,1.1
		c0.4,0.6,1,1.1,1.7,1.2c0.4,0.1,0.9,0.1,1.3,0.2c0.1,0.3,0.1,0.7,0,1c-0.3,0.1-8.9,0.1-9.2,0c0-0.3,0-0.7,0-1
		c0.3,0,0.6-0.1,0.9-0.2c0.3-0.1,0.6-0.1,0.9-0.2c0.5-0.1,0.7-0.6,0.6-1c0,0,0,0,0-0.1c0-0.2-0.1-0.4-0.1-0.6
		c-0.7-1.9-1.4-3.8-2-5.7c0-0.1-0.1-0.2-0.1-0.2h-7.9c-0.1,0-0.3,0.1-0.3,0.2c0,0,0,0,0,0c0,0.1,0,0.1-0.1,0.2
		c-0.6,1.6-1.1,3.3-1.7,4.9c-0.1,0.4-0.2,0.7-0.3,1.1c-0.1,0.5,0.2,1.1,0.7,1.2c0.4,0.2,0.9,0.3,1.4,0.3l0.6,0.1v1l0,0c0,0,0,0,0,0
		c-0.1,0-0.1,0-0.2,0h-7.8c0,0-0.1,0-0.1,0c0-0.3,0-0.7,0-1c0.3-0.1,0.5-0.1,0.8-0.1c0.3-0.1,0.4-0.1,0.6-0.1
		c0.7-0.2,1.3-0.6,1.6-1.2c0.3-0.5,0.6-1,0.8-1.5c0.5-1.3,1.1-2.6,1.6-3.9c2.2-5.6,4.4-11.2,6.6-16.8c0.1-0.2,0.2-0.4,0.5-0.4
		C159.8,11.2,160.1,11.1,160.4,11z M162.2,25.6c-1.1-3.2-2.2-6.4-3.3-9.5c0-0.1-0.1-0.1-0.1-0.2c-0.3,0.9-0.6,1.7-0.9,2.4
		c-0.3,0.8-0.6,1.6-0.9,2.4c-0.3,0.8-0.6,1.6-0.9,2.4c-0.3,0.8-0.6,1.6-0.9,2.4C155.5,25.7,161.8,25.7,162.2,25.6L162.2,25.6z"/>
	<path class="st1" d="M76,29.7l1.1,0.4c0,0.1,0,0.2,0,0.2c-0.5,1.7-1.1,3.3-1.8,4.9c-0.1,0.1-0.1,0.3-0.2,0.4
		c-0.1,0.2-0.2,0.3-0.4,0.3c-0.7,0.2-1.5,0.3-2.2,0.5c-1.2,0.2-2.3,0.4-3.5,0.5c-1.1,0.1-2.2,0-3.3-0.1c-1.3-0.1-2.5-0.4-3.7-0.9
		c-4-1.6-6.5-4.6-7.4-8.8c-0.7-3-0.3-6,1-8.8c1.2-2.4,3.2-4.4,5.6-5.6c1.6-0.8,3.4-1.4,5.2-1.6c1.4-0.2,2.8-0.2,4.2-0.1
		c1.3,0.1,2.7,0.4,4,0.7l1.1,0.3c0.4,1.9,0.6,3.8,0.8,5.7C76,17.9,75.7,18,75.3,18c0-0.1-0.1-0.3-0.1-0.4c-0.2-0.7-0.4-1.3-0.7-1.9
		c-0.8-1.6-2.2-2.7-3.9-3.1c-1.8-0.5-3.7-0.4-5.5,0.1c-2.2,0.7-4.1,2.2-5.3,4.3c-0.8,1.4-1.3,2.9-1.5,4.5c-0.3,2.3-0.1,4.7,0.6,6.9
		c0.5,1.7,1.5,3.2,2.8,4.5c2.3,2.2,5.5,3,8.5,2.4c1.4-0.3,2.6-1.1,3.5-2.1c0.8-0.9,1.5-1.9,2-3C75.8,30,75.9,29.8,76,29.7z"/>
	<path class="st1" d="M143.2,11.9c0.2,1.7,0.4,3.4,0.6,5.2c-0.3,0.1-0.7,0.2-1.1,0.3c0-0.1-0.1-0.2-0.1-0.3
		c-0.2-0.7-0.5-1.4-0.8-2.1c-0.3-0.5-0.6-1-1-1.4c-0.6-0.6-1.5-1.1-2.4-1.2c-0.7-0.1-1.3-0.1-2,0.1c-1.5,0.3-2.6,1.5-2.9,3
		c-0.4,1.7,0.1,3.5,1.5,4.6c0.5,0.4,1,0.8,1.6,1.1c0.7,0.4,1.4,0.8,2.2,1.2c0.8,0.4,1.6,0.9,2.4,1.4c0.8,0.5,1.4,1,2,1.7
		c1.2,1.3,1.8,3.1,1.6,4.9c-0.2,2.5-1.5,4.3-3.7,5.5c-1.1,0.6-2.3,1-3.6,1.1c-1.6,0.2-3.2,0-4.7-0.4c-0.6-0.2-1.2-0.5-1.9-0.7
		c-0.2-0.1-0.3-0.2-0.3-0.4c-0.1-0.7-0.3-1.4-0.4-2.1c-0.2-1-0.3-2-0.5-3c0-0.2,0-0.3,0-0.5l1-0.3c0,0.1,0.1,0.2,0.1,0.4
		c0.3,1.1,0.8,2.2,1.4,3.1c0.4,0.5,0.8,1,1.3,1.5c1.1,1,2.7,1.4,4.1,1.2c0.4,0,0.7-0.1,1.1-0.2c1.5-0.5,2.5-1.7,2.7-3.3
		c0.1-0.7,0.1-1.4,0-2.1c-0.2-0.9-0.7-1.7-1.4-2.4c-0.6-0.6-1.3-1.1-2-1.5c-0.8-0.4-1.5-0.9-2.3-1.3c-1-0.5-2-1.1-2.9-1.9
		c-0.8-0.7-1.5-1.5-2-2.5c-1.3-2.8-0.4-6.2,2.2-8c1-0.7,2.2-1.2,3.5-1.3c1.9-0.2,3.8-0.1,5.6,0.5c0.2,0.1,0.5,0.1,0.7,0.2
		C143.1,11.9,143.1,11.9,143.2,11.9z"/>
	<path class="st1" d="M97.4,42.5c0-0.2,0-0.2,0.1-0.2l1.2-0.3l0,0.7c0.1,0,0.2,0,0.2-0.1c0.2-0.1,0.3-0.2,0.5-0.3
		c0.6-0.3,1.3-0.3,1.7,0.2c0.5,0.4,0.7,1.1,0.5,1.7c-0.1,0.7-0.5,1.4-1.1,1.7c-0.2,0.1-0.5,0.3-0.8,0.4c-0.3,0.1-0.6,0.2-1,0
		c-0.1,0-0.1,0-0.2,0V47c0,0.2,0,0.4,0,0.6c0,0.4,0.1,0.5,0.5,0.6c0.1,0,0.2,0,0.2,0.1c0,0,0.1,0.1,0.1,0.2c-0.2,0.1-0.5,0.1-0.8,0
		c-0.2,0-0.5,0-0.7,0h-0.7c-0.1-0.1-0.1-0.2,0-0.2c0,0,0,0,0.1,0c0.5-0.1,0.5-0.2,0.5-0.7c0-1.5,0-3,0-4.5c0-0.1,0-0.2,0-0.2
		c0-0.2-0.1-0.3-0.3-0.4C97.5,42.5,97.4,42.5,97.4,42.5z M98.7,44.2c0,0.4,0,0.7,0,1.1c0,0.1,0.1,0.3,0.2,0.3
		c0.5,0.4,1.3,0.3,1.7-0.2c0.5-0.7,0.5-1.6,0.1-2.4c-0.3-0.5-0.9-0.7-1.5-0.4c-0.1,0-0.2,0.1-0.3,0.2c-0.1,0.1-0.2,0.2-0.2,0.3
		C98.7,43.5,98.7,43.9,98.7,44.2L98.7,44.2z"/>
	<path class="st1" d="M140.5,46.2c0,0.5,0,1,0,1.6c0,0.3,0.1,0.4,0.4,0.5c0.1,0,0.2,0,0.3,0.1c0,0,0.1,0.1,0.1,0.2
		c-0.8,0-1.5,0-2.2,0c-0.1-0.2,0-0.2,0.1-0.2c0.5-0.2,0.5-0.2,0.5-0.7v-4.4c0-0.1,0-0.1,0-0.2c0-0.3-0.1-0.3-0.4-0.4l-0.2-0.1
		c-0.1-0.1,0-0.2,0.1-0.2c0.4-0.1,0.8-0.2,1.2-0.3l0,0.6c0.1,0,0.2,0,0.2-0.1c0.2-0.1,0.3-0.2,0.5-0.3c0.6-0.4,1.5-0.2,1.9,0.4
		c0.4,0.5,0.5,1,0.4,1.6c-0.1,0.8-0.7,1.5-1.4,1.9C141.6,46.3,141,46.4,140.5,46.2z M140.5,44.2c0,0.4,0,0.7,0,1
		c0,0.2,0.1,0.4,0.3,0.5c0.6,0.4,1.3,0.2,1.7-0.4c0,0,0-0.1,0.1-0.1c0.3-0.6,0.4-1.3,0.1-1.9c-0.1-0.2-0.2-0.4-0.4-0.6
		c-0.5-0.3-1.1-0.3-1.5,0c-0.1,0.1-0.2,0.2-0.2,0.3C140.5,43.5,140.4,43.9,140.5,44.2L140.5,44.2z"/>
	<path class="st1" d="M72.4,42c0-0.1,0-0.2,0-0.3c0-0.4,0-0.8,0-1.2c0-0.4-0.1-0.5-0.5-0.5c-0.1,0-0.1,0-0.2-0.1c0,0,0-0.1-0.1-0.1
		c0.5-0.2,1-0.3,1.4-0.4v0.4c0,1.7,0,3.3,0,5c0,0.1,0,0.3,0,0.4c0,0.3,0.1,0.3,0.4,0.4c0.1,0,0.2,0,0.3,0l0,0.2l-1.4,0.3l-0.1-0.6
		c-0.1,0.1-0.2,0.1-0.3,0.2l-0.5,0.3c-0.3,0.2-0.8,0.2-1.1,0c-0.6-0.3-1-0.8-1.1-1.5c-0.2-1.3,0.7-2.5,2-2.7c0.1,0,0.2,0,0.4,0
		C72,42,72.2,42,72.4,42z M72.5,44.1c0-0.4,0-0.7,0-1.1c0-0.2-0.1-0.4-0.3-0.5c-0.5-0.4-1.2-0.3-1.6,0.2c-0.1,0.1-0.1,0.1-0.1,0.2
		c-0.4,0.6-0.4,1.4-0.1,2.1c0.3,0.6,1,0.9,1.6,0.7c0.1,0,0.1-0.1,0.2-0.1c0.2-0.1,0.3-0.2,0.3-0.4C72.5,44.8,72.5,44.5,72.5,44.1
		L72.5,44.1z"/>
	<path class="st1" d="M54.3,40.1h4.1c0,0.4,0.1,0.8,0.1,1.2c0,0.1,0,0.1-0.2,0.2c0-0.1-0.1-0.3-0.1-0.4c-0.1-0.4-0.5-0.7-0.9-0.7
		c-0.4,0-0.7,0-1.1,0c-0.3,0-0.3,0-0.3,0.3c0,0.7,0,1.4,0,2.1c0,0,0,0.1,0,0.1c0,0,0,0,0.1,0c0.5,0,0.9,0,1.4,0
		c0.3,0,0.5-0.2,0.5-0.4c0,0,0,0,0,0c0-0.1,0-0.2,0.2-0.2s0.1,0.1,0.1,0.2c0,0.5,0,1,0,1.5c-0.2,0.1-0.2,0.1-0.3-0.1
		c-0.2-0.5-0.3-0.6-0.8-0.6h-1.1c0,0.1,0,0.2,0,0.2c0,0.6,0,1.2,0,1.7c0,0.1,0,0.1,0,0.2c0,0.2,0.2,0.4,0.4,0.5c0.1,0,0.2,0,0.4,0
		c0.1,0,0.2,0.1,0.1,0.2c-0.8,0.1-1.7,0.1-2.5,0c-0.1-0.1,0-0.2,0.1-0.2c0.1,0,0.1,0,0.2,0c0.3,0,0.5-0.2,0.5-0.5c0,0,0,0,0,0
		c0-0.1,0-0.2,0-0.3c0-1.3,0-2.6,0-3.9c0-0.1,0-0.3,0-0.4c0-0.2-0.2-0.4-0.4-0.4c-0.1,0-0.2,0-0.2,0C54.3,40.3,54.3,40.3,54.3,40.1z
		"/>
	<path class="st1" d="M66.1,46.2h-2c-0.1-0.1,0-0.2,0-0.2c0.1,0,0.1,0,0.2,0c0.3-0.1,0.4-0.2,0.4-0.5c0-0.8,0-1.6,0-2.4
		c0-0.2-0.1-0.5-0.4-0.5c0,0-0.1,0-0.1,0c-0.1-0.1,0-0.2,0.1-0.2l1.1-0.3l0,0.7c0.1,0,0.2-0.1,0.2-0.1c0.2-0.1,0.4-0.3,0.7-0.4
		c0.6-0.3,1.3-0.1,1.6,0.4c0.1,0.2,0.1,0.3,0.2,0.5c0,0.2,0,0.4,0,0.5c0,0.6,0,1.3,0,1.9c0,0.4,0,0.4,0.4,0.5c0.1,0,0.2,0,0.2,0.2
		c0,0-0.1,0-0.1,0H67c-0.1,0-0.2,0-0.2-0.2c0.1,0,0.2-0.1,0.3-0.1c0.2,0,0.3-0.2,0.3-0.4c0-0.1,0-0.1,0-0.2c0-0.6,0-1.2,0-1.8
		c0-0.1,0-0.2,0-0.4c-0.1-0.4-0.5-0.7-0.9-0.7c-0.3,0-0.6,0.2-0.8,0.4c-0.1,0.1-0.1,0.2-0.1,0.3c0,0.8,0,1.5,0,2.3
		c0,0.4,0.1,0.4,0.4,0.5C66,46,66,46,66.1,46.2z"/>
	<path class="st1" d="M90,46.2c0-0.1,0-0.1,0.1-0.1c0,0,0.1,0,0.1,0c0.5-0.1,0.5-0.2,0.5-0.7c0-0.7,0-1.4,0-2.1c0-0.1,0-0.2,0-0.4
		c0-0.2-0.2-0.3-0.4-0.3c-0.1,0-0.1-0.1-0.1-0.1c0,0,0.1-0.1,0.1-0.1c0.4-0.1,0.8-0.2,1.2-0.3c0,0.2,0,0.4,0,0.6
		c0.1,0,0.2-0.1,0.3-0.1c0.2-0.1,0.4-0.3,0.7-0.4c0.6-0.3,1.3-0.1,1.6,0.5c0.1,0.1,0.1,0.2,0.1,0.4c0,0.2,0.1,0.4,0.1,0.5
		c0,0.6,0,1.2,0,1.8c0,0.1,0,0.2,0,0.3c0,0.2,0.1,0.4,0.3,0.4c0.1,0,0.2,0.1,0.3,0.1c-0.1,0.1-0.1,0.1-0.1,0.2c0,0,0,0-0.1,0h-1.6
		c-0.1,0-0.2,0-0.2-0.2c0.1,0,0.2-0.1,0.3-0.1c0.2,0,0.3-0.2,0.3-0.3c0-0.1,0-0.2,0-0.4c0-0.5,0-1.1,0-1.6c0-0.2,0-0.3,0-0.5
		c-0.1-0.4-0.4-0.7-0.9-0.7c0,0,0,0-0.1,0c-0.3,0-0.6,0.2-0.8,0.4c-0.1,0.1-0.1,0.2-0.1,0.3c0,0.8,0,1.5,0,2.3
		c0,0.3,0.1,0.5,0.4,0.5c0,0,0,0,0.1,0c0,0,0.1,0.1,0.1,0.1c0,0-0.1,0.1-0.1,0.1c0,0-0.1,0-0.1,0h-1.7C90,46.2,90,46.2,90,46.2z"/>
	<path class="st1" d="M167.5,46.2c0-0.1,0-0.1,0-0.1c0,0,0.1-0.1,0.2-0.1c0.5-0.1,0.5-0.2,0.5-0.6c0-0.7,0-1.5,0-2.2
		c0,0,0-0.1,0-0.1c0-0.2-0.1-0.5-0.4-0.5c-0.1,0-0.2,0-0.2-0.2s0.1-0.1,0.2-0.1l1.1-0.3c0,0.2,0,0.4,0,0.7l0.3-0.2
		c0.2-0.1,0.4-0.3,0.6-0.4c0.6-0.3,1.3-0.1,1.6,0.4c0.1,0.2,0.1,0.3,0.2,0.5c0,0.2,0,0.4,0,0.6c0,0.5,0,1,0,1.6c0,0.1,0,0.2,0,0.4
		c0,0.2,0.1,0.4,0.3,0.4c0.1,0,0.2,0,0.2,0.2c-0.3,0.1-0.6,0.1-1,0c-0.3,0-0.6,0-0.9,0c-0.1-0.1,0-0.2,0.1-0.2
		c0.5-0.2,0.5-0.2,0.5-0.7c0-0.5,0-1.1,0-1.7c0-0.1,0-0.3,0-0.4c-0.1-0.4-0.5-0.7-0.9-0.7c0,0,0,0,0,0c-0.3,0-0.6,0.2-0.8,0.4
		c-0.1,0.1-0.1,0.2-0.1,0.3c0,0.8,0,1.5,0,2.3c0,0.4,0.1,0.4,0.4,0.5c0.1,0,0.2,0,0.2,0.2c-0.2,0-0.4,0.1-0.6,0c-0.2,0-0.5,0-0.7,0
		C167.9,46.3,167.7,46.2,167.5,46.2z"/>
	<path class="st1" d="M59,42.4c0-0.1,0-0.2,0.1-0.2l1.1-0.1c0.1,0.2,0.1,0.3,0,0.5c0,0.7,0,1.4,0,2.1c0,0.2,0,0.4,0.1,0.6
		c0.1,0.3,0.4,0.5,0.7,0.5c0.2,0,0.5,0,0.7-0.1c0.3-0.1,0.5-0.4,0.4-0.7c0-0.6,0-1.2,0-1.8c0-0.1,0-0.2,0-0.3c0-0.2-0.1-0.3-0.3-0.4
		c-0.1,0-0.2,0-0.3-0.1c0,0-0.1-0.1-0.1-0.1c0,0,0.1-0.1,0.1-0.1c0.2,0,0.4,0,0.7-0.1l0.6-0.1c0,0.1,0,0.2,0,0.4c0,0.9,0,1.7,0,2.6
		c0,0.1,0,0.2,0,0.4c0,0.3,0.1,0.3,0.4,0.4c0.1,0,0.2,0,0.2,0c0,0,0.1,0.1,0.1,0.1c-0.5,0.2-0.9,0.3-1.4,0.4l-0.1-0.7l-0.3,0.2
		c-0.2,0.1-0.4,0.3-0.6,0.4c-0.5,0.3-1.2,0.1-1.5-0.5c-0.1-0.1-0.1-0.3-0.1-0.5c0-0.3,0-0.6,0-1c0-0.5,0-0.9,0-1.4
		C59.6,42.5,59.5,42.5,59,42.4C59.1,42.4,59.1,42.4,59,42.4z"/>
	<path class="st1" d="M89.5,44.1c0,0.3-0.1,0.6-0.2,0.9c-0.4,1.1-1.5,1.6-2.6,1.2c-0.8-0.3-1.3-1-1.4-1.9c0-0.3,0-0.6,0.1-0.9
		c0.3-1,1.2-1.6,2.2-1.5C88.7,42.1,89.5,43,89.5,44.1z M88.6,44.3c0-0.4-0.1-0.7-0.2-1.1c-0.1-0.3-0.2-0.5-0.4-0.7
		c-0.4-0.4-1-0.4-1.3,0c0,0-0.1,0.1-0.1,0.2c-0.1,0.2-0.2,0.4-0.3,0.6c-0.2,0.6-0.1,1.3,0.1,1.9c0.1,0.2,0.2,0.3,0.3,0.5
		c0.2,0.3,0.6,0.5,1,0.4c0.4-0.1,0.7-0.3,0.8-0.7C88.5,45,88.5,44.7,88.6,44.3L88.6,44.3z"/>
	<path class="st1" d="M133.6,44.1c0,0.4-0.1,0.9-0.3,1.2c-0.5,1-1.8,1.4-2.8,0.9c-0.7-0.3-1.1-1-1.1-1.8c-0.1-0.9,0.3-1.8,1.2-2.2
		c1-0.5,2.2-0.1,2.8,0.9c0.1,0.3,0.2,0.5,0.2,0.8C133.6,44,133.6,44,133.6,44.1z M132.8,44.3c0-0.4-0.1-0.8-0.3-1.2
		c-0.1-0.2-0.2-0.4-0.4-0.6c-0.4-0.3-1-0.3-1.3,0.1c0,0,0,0-0.1,0.1c-0.1,0.2-0.3,0.4-0.3,0.7c-0.1,0.6-0.1,1.2,0.1,1.8
		c0.1,0.2,0.2,0.4,0.3,0.5c0.2,0.3,0.6,0.5,1,0.4c0.4,0,0.7-0.3,0.8-0.7C132.7,45,132.7,44.7,132.8,44.3L132.8,44.3z"/>
	<path class="st1" d="M162.8,44.2c0-0.9,0.5-1.7,1.3-2c1-0.5,2.2,0,2.6,1c0,0,0,0,0,0c0.4,0.7,0.3,1.6-0.1,2.3
		c-0.6,1-1.9,1.2-2.8,0.7c-0.6-0.4-0.9-1-1-1.6C162.8,44.3,162.8,44.3,162.8,44.2z M163.6,44c0,0.1,0,0.3,0,0.4
		c0.1,0.3,0.2,0.6,0.3,0.9c0.1,0.2,0.2,0.3,0.3,0.4c0.3,0.4,1,0.4,1.4,0.1c0.1-0.1,0.2-0.2,0.3-0.4c0.2-0.5,0.3-1.1,0.2-1.6
		c0-0.4-0.1-0.7-0.3-1c-0.2-0.4-0.6-0.6-1-0.6c-0.4,0-0.7,0.3-0.9,0.7C163.7,43.2,163.6,43.6,163.6,44L163.6,44z"/>
	<path class="st1" d="M138.6,44.1c0,0.6-0.2,1.1-0.6,1.6c-0.8,0.8-2,0.9-2.9,0.2c-0.2-0.2-0.3-0.4-0.5-0.6c-0.5-0.9-0.3-2,0.5-2.7
		c0.6-0.5,1.4-0.7,2.1-0.4c0.7,0.3,1.2,0.9,1.3,1.7V44C138.6,44,138.6,44.1,138.6,44.1z M137.7,44.5c0-0.3,0-0.6-0.1-0.8
		c0-0.4-0.2-0.7-0.4-1c-0.3-0.5-0.9-0.6-1.4-0.3c-0.2,0.1-0.3,0.2-0.3,0.4c-0.1,0.2-0.2,0.3-0.2,0.5c-0.1,0.2-0.1,0.5-0.1,0.7
		c0,0.3,0.1,0.7,0.2,1c0.1,0.2,0.2,0.4,0.4,0.6c0.3,0.4,0.9,0.5,1.4,0.2c0.1-0.1,0.3-0.3,0.3-0.5C137.6,45.1,137.7,44.8,137.7,44.5
		L137.7,44.5z"/>
	<path class="st1" d="M76.7,45.8c-0.2,0.1-0.4,0.3-0.6,0.4c-0.3,0.3-0.8,0.3-1.2,0c-0.4-0.3-0.6-0.7-0.5-1.2
		c0.1-0.3,0.3-0.5,0.5-0.6c0.2-0.1,0.4-0.2,0.6-0.2l0.9-0.4c0.2,0,0.2-0.2,0.2-0.3c0-0.2-0.1-0.4-0.2-0.6c-0.1-0.3-0.4-0.4-0.7-0.4
		c-0.3,0-0.5,0.2-0.6,0.4c-0.1,0.1-0.1,0.3-0.1,0.4c-0.1,0.2-0.2,0.3-0.4,0.2c-0.2-0.1-0.3-0.3-0.2-0.5c0,0,0,0,0,0
		c0-0.1,0.1-0.1,0.1-0.1c0.4-0.3,0.8-0.5,1.3-0.7c0.6-0.2,1.2,0.1,1.3,0.7c0,0,0,0,0,0c0,0.2,0.1,0.4,0.1,0.6c0,0.6,0,1.1,0,1.7
		c0,0.1,0,0.3,0,0.4c0,0.2,0.2,0.3,0.4,0.3c0,0,0,0,0.1,0c0,0,0.1,0,0.1,0s0.1,0,0.1,0.1c0,0,0,0.1,0,0.1c-0.2,0.2-0.5,0.3-0.7,0.4
		c-0.2,0.1-0.4-0.1-0.5-0.2C76.8,46,76.8,45.9,76.7,45.8z M76.7,44c-0.4,0.1-0.9,0.3-1.2,0.6c-0.2,0.2-0.3,0.5-0.2,0.7
		c0.1,0.3,0.3,0.5,0.6,0.5c0.3,0,0.5-0.1,0.7-0.3c0,0,0.1-0.1,0.1-0.2C76.7,44.9,76.7,44.5,76.7,44L76.7,44z"/>
	<path class="st1" d="M122.7,45.7c0.1,0.1,0.1,0.2,0,0.2c-0.2,0.1-0.4,0.3-0.6,0.4c-0.2,0.1-0.4,0-0.6-0.2c-0.1-0.1-0.1-0.2-0.2-0.3
		L121,46l-0.4,0.2c-0.5,0.3-1.1,0.1-1.4-0.4c-0.1-0.1-0.1-0.2-0.1-0.3c-0.1-0.5,0.1-1,0.6-1.1c0.4-0.2,0.8-0.3,1.2-0.4
		c0.5-0.2,0.6-0.3,0.4-0.9c-0.1-0.3-0.3-0.5-0.5-0.6c-0.3-0.1-0.6,0-0.8,0.3c-0.1,0.1-0.1,0.3-0.2,0.5c0,0.1-0.1,0.3-0.3,0.2
		c-0.2,0-0.3-0.1-0.4-0.3c-0.1-0.1,0-0.3,0.1-0.4c0.5-0.4,1-0.7,1.6-0.8c0.6,0,1.1,0.3,1.1,0.9c0,0.2,0.1,0.4,0.1,0.7
		c0,0.5,0,1,0,1.5c0,0.1,0,0.2,0,0.2C122.1,45.7,122.2,45.8,122.7,45.7C122.7,45.7,122.7,45.7,122.7,45.7z M121.3,44
		c-0.4,0.1-0.8,0.3-1.2,0.6c-0.2,0.2-0.3,0.5-0.2,0.8c0.1,0.3,0.3,0.4,0.6,0.5c0.2,0,0.3-0.1,0.5-0.2c0.2-0.1,0.3-0.3,0.3-0.5
		c0-0.3,0-0.5,0-0.8C121.3,44.2,121.3,44.1,121.3,44L121.3,44z"/>
	<path class="st1" d="M106.2,45.7c0.1,0.1,0.1,0.2,0,0.2c-0.2,0.1-0.4,0.3-0.6,0.4c-0.2,0.1-0.4,0-0.6-0.2c-0.1-0.1-0.1-0.2-0.2-0.3
		l-0.3,0.2c-0.1,0.1-0.3,0.2-0.4,0.3c-0.3,0.2-0.7,0.2-1-0.1c-0.3-0.2-0.5-0.6-0.5-1c0-0.3,0.2-0.6,0.4-0.8c0.2-0.1,0.3-0.2,0.5-0.2
		c0.3-0.1,0.7-0.3,1-0.4c0.3-0.1,0.3-0.2,0.3-0.5c0-0.2-0.1-0.4-0.1-0.5c-0.1-0.3-0.4-0.4-0.7-0.4c-0.3,0-0.5,0.2-0.6,0.4
		c-0.1,0.1-0.1,0.3-0.1,0.4c-0.1,0.2-0.2,0.3-0.4,0.2c-0.2-0.1-0.3-0.3-0.2-0.5c0,0,0,0,0-0.1c0-0.1,0.1-0.1,0.2-0.2
		c0.4-0.3,0.8-0.5,1.3-0.7c0.5-0.1,1.1,0.1,1.3,0.6c0.1,0.2,0.1,0.4,0.1,0.7c0,0.5,0,1.1,0,1.6c0,0.1,0,0.3,0,0.4
		c0.1,0.3,0.2,0.4,0.5,0.3L106.2,45.7z M104.8,43.9c-0.4,0.2-0.8,0.4-1.2,0.6c-0.2,0.1-0.4,0.4-0.3,0.7c0,0.3,0.3,0.5,0.6,0.6
		c0.3,0,0.6-0.1,0.9-0.3c0,0,0-0.1,0-0.1C104.8,44.9,104.8,44.5,104.8,43.9L104.8,43.9z"/>
	<path class="st1" d="M113.9,45.7c0.1,0.1,0.1,0.2,0,0.3l-0.5,0.3c-0.2,0.2-0.5,0.1-0.7-0.1c0,0,0,0,0-0.1c-0.1-0.1-0.1-0.2-0.2-0.3
		c-0.2,0.1-0.4,0.2-0.5,0.4c-0.5,0.3-1.2,0.2-1.5-0.3c-0.1-0.2-0.2-0.3-0.2-0.5c-0.1-0.4,0.1-0.8,0.5-1c0.2-0.1,0.3-0.1,0.5-0.2
		l1.1-0.4c0.2,0,0.3-0.2,0.2-0.4c0,0,0,0,0,0c0-0.2-0.1-0.4-0.2-0.6c-0.1-0.3-0.4-0.4-0.7-0.4c-0.3,0-0.5,0.2-0.6,0.4
		c-0.1,0.1-0.1,0.2-0.1,0.4c0,0.1-0.1,0.2-0.3,0.2c-0.2,0-0.3-0.1-0.4-0.2c-0.1-0.1,0-0.3,0-0.3c0,0,0.1-0.1,0.2-0.1
		c0.4-0.3,0.8-0.5,1.2-0.6c0.6-0.2,1.2,0.1,1.4,0.7c0,0.1,0.1,0.2,0.1,0.3c0,0.2,0,0.3,0,0.5c0,0.5,0,1,0,1.5c0,0.1,0,0.3,0,0.4
		c0.1,0.3,0.2,0.4,0.5,0.3L113.9,45.7z M112.5,43.9l-1.1,0.5c-0.1,0-0.1,0.1-0.2,0.1c-0.2,0.2-0.2,0.5-0.1,0.8
		c0.1,0.3,0.3,0.4,0.6,0.4c0.3,0,0.5-0.1,0.7-0.3c0,0,0.1-0.1,0.1-0.2C112.5,44.9,112.5,44.5,112.5,43.9L112.5,43.9z"/>
	<path class="st1" d="M155.6,45.7c0.1,0.1,0.1,0.2,0,0.2l-0.5,0.3c-0.2,0.2-0.5,0.1-0.7-0.1c0,0,0,0,0-0.1c-0.1-0.1-0.1-0.2-0.2-0.3
		l-0.7,0.4c-0.3,0.2-0.6,0.2-0.9,0c-0.4-0.2-0.6-0.6-0.6-1.1c0-0.3,0.2-0.6,0.4-0.8c0.2-0.1,0.3-0.2,0.5-0.2l1.1-0.4
		c0.2,0,0.3-0.2,0.2-0.4c0,0,0,0,0,0c0-0.2-0.1-0.4-0.2-0.6c-0.1-0.3-0.4-0.4-0.7-0.4c-0.3,0-0.5,0.2-0.6,0.4
		c-0.1,0.1-0.1,0.3-0.2,0.4c0,0.1-0.2,0.2-0.3,0.2c0,0-0.1,0-0.1,0c-0.2-0.1-0.3-0.3-0.2-0.5c0,0,0,0,0,0c0.1-0.1,0.1-0.1,0.2-0.2
		c0.4-0.3,0.8-0.5,1.2-0.6c0.6-0.2,1.2,0.1,1.4,0.7c0,0.1,0,0.1,0.1,0.2c0,0.2,0,0.4,0,0.6c0,0.5,0,0.9,0,1.4c0,0.1,0,0.2,0,0.3
		C155,45.6,155.1,45.7,155.6,45.7C155.6,45.7,155.6,45.7,155.6,45.7z M154.2,43.9c-0.4,0.2-0.8,0.4-1.1,0.6
		c-0.3,0.1-0.4,0.5-0.3,0.8c0.1,0.3,0.3,0.5,0.6,0.5c0.3,0,0.6-0.1,0.8-0.3c0,0,0-0.1,0-0.1C154.2,44.9,154.2,44.5,154.2,43.9
		L154.2,43.9z"/>
	<path class="st1" d="M145.1,43.9c0,0.5,0.1,1,0.5,1.4c0.4,0.5,1.1,0.5,1.7,0.2c0.1-0.1,0.2-0.1,0.3-0.2l0.1,0.2
		c-0.4,0.5-1,0.9-1.6,0.9c-0.6,0-1.1-0.3-1.4-0.8c-0.7-1.2-0.3-2.7,0.8-3.4c0.1,0,0.1-0.1,0.2-0.1c0.7-0.4,1.6-0.1,1.9,0.7
		c0.1,0.1,0.1,0.3,0.1,0.4c0,0.1,0,0.1,0,0.2c0,0.2-0.1,0.3-0.3,0.4c-0.6,0.1-1.3,0.1-1.9,0.1L145.1,43.9z M145.2,43.5h0.3l1.1,0
		c0.3,0,0.4-0.1,0.3-0.4c0-0.2-0.1-0.3-0.2-0.4c-0.2-0.3-0.5-0.3-0.9-0.2C145.4,42.5,145.1,43,145.2,43.5z"/>
	<path class="st1" d="M118.4,46.2h-2.1c0-0.1,0-0.1,0.1-0.2c0,0,0.1,0,0.1,0c0.4-0.1,0.5-0.2,0.5-0.6c0-1.6,0-3.2,0-4.8
		c0-0.4,0-0.4-0.4-0.6c-0.1,0-0.2,0-0.2-0.2l1.3-0.3v0.4c0,1.8,0,3.5,0,5.3c0,0.1,0,0.3,0,0.4c0,0.2,0.2,0.4,0.4,0.4
		C118.3,46,118.5,46,118.4,46.2z"/>
	<path class="st1" d="M128.8,45.2c0.1,0.1,0.2,0.2,0.1,0.3c-0.4,0.6-1.2,0.9-1.9,0.8c-0.8-0.1-1.3-0.7-1.5-1.5
		c-0.2-1.3,0.6-2.5,1.9-2.8c0.3-0.1,0.6-0.1,0.9,0c0.1,0,0.2,0.1,0.3,0.2c0.2,0.1,0.2,0.3,0.1,0.5c0,0,0,0.1-0.1,0.1
		c-0.1,0.1-0.2,0.1-0.3,0c0,0,0,0,0,0c-0.1-0.1-0.2-0.1-0.2-0.2c-0.5-0.4-1.2-0.3-1.6,0.2c-0.1,0.1-0.2,0.3-0.2,0.5
		c-0.2,0.5-0.1,1.1,0.1,1.6c0.3,0.7,1.2,1,1.9,0.7c0.1,0,0.2-0.1,0.3-0.2L128.8,45.2z"/>
	<path class="st1" d="M159.5,45.2c0.1,0.1,0.2,0.2,0.1,0.3c-0.5,0.6-1.1,1-1.9,0.8c-0.8-0.1-1.4-0.7-1.5-1.5c-0.2-0.8,0-1.6,0.6-2.1
		c0.4-0.4,0.9-0.7,1.5-0.7c0.3-0.1,0.7,0,1,0.2c0.2,0.1,0.2,0.3,0.2,0.5c0,0,0,0,0,0c-0.1,0.2-0.3,0.3-0.5,0.1
		c-0.2-0.2-0.5-0.3-0.8-0.4c-0.4-0.1-0.9,0.2-1.1,0.6c-0.4,0.7-0.3,1.5,0.1,2.2c0.4,0.6,1.3,0.8,1.9,0.3
		C159.3,45.4,159.4,45.3,159.5,45.2z"/>
	<path class="st1" d="M82,45.2c0.1,0.1,0.2,0.2,0.1,0.3c-0.4,0.5-0.9,0.8-1.5,0.9c-0.6,0-1.2-0.3-1.6-0.8c-0.5-0.7-0.5-1.6,0-2.4
		c0.4-0.7,1.1-1.2,1.9-1.2c0.3,0,0.7,0,0.9,0.2c0.2,0.1,0.2,0.3,0.1,0.5c0,0-0.1,0.1-0.1,0.1c-0.1,0.1-0.2,0.1-0.3,0c0,0,0,0,0,0
		l-0.2-0.2c-0.5-0.4-1.2-0.4-1.7,0.1c-0.1,0.2-0.2,0.3-0.3,0.5c-0.1,0.5-0.1,1,0.1,1.5c0.3,0.7,1.1,1.1,1.8,0.8
		c0.1-0.1,0.3-0.1,0.4-0.2C81.9,45.3,81.9,45.3,82,45.2z"/>
	<path class="st1" d="M150.5,46.1c0,0.1-0.1,0.1-0.1,0.1c-0.1,0-0.1,0-0.2,0h-1.7c-0.1,0-0.2,0-0.2-0.2c0.1,0,0.2-0.1,0.3-0.1
		c0.2,0,0.4-0.2,0.4-0.4c0-0.1,0-0.2,0-0.3v-2.1c0-0.1,0-0.2,0-0.3c0-0.2-0.1-0.3-0.3-0.4c-0.1,0-0.1,0-0.2,0c0,0-0.1-0.1-0.1-0.1
		c0,0,0-0.1,0.1-0.1c0.1,0,0.2,0,0.2-0.1l1-0.3c0,0.3,0,0.6,0,0.9h0.1c0.1-0.1,0.1-0.2,0.2-0.3c0.2-0.2,0.4-0.4,0.6-0.5
		c0.2-0.1,0.4-0.2,0.6,0c0.2,0.1,0.3,0.4,0.2,0.6c0,0,0,0.1-0.1,0.1c-0.1,0.1-0.3,0.2-0.4,0.1c0,0,0,0,0,0c-0.2-0.2-0.6-0.2-0.8,0
		c0,0-0.1,0.1-0.1,0.1c-0.2,0.2-0.3,0.5-0.3,0.8c0,0.5,0,1,0,1.6c0,0.4,0.1,0.5,0.5,0.6C150.3,46,150.4,46,150.5,46.1z"/>
	<path class="st1" d="M108.8,46.1c-0.1,0.1-0.1,0.1-0.1,0.1c-0.1,0-0.2,0-0.4,0c-0.5,0-1,0-1.4,0c-0.1,0-0.2,0-0.2-0.2
		c0.1,0,0.2-0.1,0.3-0.1c0.2,0,0.3-0.2,0.3-0.4c0-0.1,0-0.2,0-0.3v-2c0-0.1,0-0.2,0-0.3c0-0.2-0.1-0.4-0.3-0.4c-0.1,0-0.1,0-0.2,0
		c0,0-0.1-0.1-0.1-0.1c0,0,0-0.1,0.1-0.1s0,0,0,0L108,42v0.9c0.2-0.1,0.2-0.2,0.3-0.3c0.2-0.2,0.4-0.3,0.5-0.5
		c0.2-0.1,0.4-0.2,0.6,0c0.2,0.1,0.3,0.4,0.2,0.6c0,0-0.1,0.1-0.1,0.1c-0.1,0.1-0.3,0.1-0.4,0c-0.4-0.2-0.6-0.2-0.9,0.2
		c-0.2,0.2-0.3,0.5-0.3,0.8c0,0.5,0,1,0,1.6s0.1,0.5,0.5,0.6C108.6,46,108.7,46,108.8,46.1z"/>
	<path class="st1" d="M160.2,42.3l1.3-0.3v3c0,0.1,0,0.3,0,0.4c0,0.4,0.1,0.5,0.4,0.6c0.1,0,0.3,0,0.2,0.2c-0.7,0.1-1.3,0.1-2,0
		c0,0,0-0.1,0-0.1c0.1,0,0.2-0.1,0.3-0.1c0.2,0,0.4-0.2,0.4-0.4c0-0.1,0-0.1,0-0.2v-2.3c0-0.4-0.1-0.4-0.4-0.5
		C160.3,42.5,160.2,42.5,160.2,42.3z"/>
	<path class="st1" d="M82.7,46c0.1,0,0.2-0.1,0.3-0.1c0.2,0,0.3-0.2,0.3-0.4c0-0.1,0-0.2,0-0.2c0-0.7,0-1.5,0-2.2
		c0-0.4,0-0.5-0.4-0.6c-0.1,0-0.2-0.1-0.1-0.2c0-0.1,0.1-0.1,0.1-0.1c0.4-0.1,0.8-0.2,1.2-0.3v3.2c0,0.1,0,0.3,0,0.4
		c0,0.2,0.1,0.3,0.3,0.4c0.1,0,0.2,0,0.2,0.1c0,0,0.1,0.1,0.1,0.2c-0.1,0-0.1,0-0.2,0h-1.6C82.8,46.2,82.7,46.3,82.7,46z"/>
	<path class="st1" d="M164.6,41.4c0-0.1,0-0.1,0-0.2c0.2-0.4,0.3-0.8,0.5-1.2c0-0.1,0.2-0.2,0.3-0.2c0.2,0,0.3,0,0.5-0.1
		c0,0.1-0.1,0.2-0.1,0.2c-0.3,0.4-0.6,0.9-1,1.3C164.8,41.5,164.7,41.5,164.6,41.4z"/>
	<path class="st1" d="M87,41.4c0.2-0.4,0.4-0.9,0.6-1.4c0-0.1,0.1-0.1,0.1-0.1c0.2-0.1,0.5-0.1,0.7-0.1c0,0.1,0,0.1-0.1,0.2l-1,1.3
		C87.3,41.5,87.2,41.5,87,41.4z"/>
	<path class="st1" d="M84.1,40.6c0,0.3-0.2,0.5-0.5,0.5c-0.3,0-0.5-0.2-0.5-0.5l0,0c0-0.3,0.2-0.5,0.5-0.5c0,0,0,0,0,0
		C83.9,40.1,84.1,40.3,84.1,40.6C84.1,40.6,84.1,40.6,84.1,40.6z"/>
	<path class="st1" d="M161.6,40.6c0,0.3-0.2,0.5-0.5,0.5c-0.3,0-0.5-0.2-0.4-0.5c0-0.3,0.2-0.5,0.4-0.5c0,0,0,0,0,0
		C161.4,40.2,161.6,40.4,161.6,40.6z"/>
</g>
</svg>
