<?xml version="1.0" encoding="utf-8"?>
<!-- Generator: Adobe Illustrator 22.0.1, SVG Export Plug-In . SVG Version: 6.00 Build 0)  -->
<svg version="1.1" id="Layer_1" xmlns="http://www.w3.org/2000/svg" xmlns:xlink="http://www.w3.org/1999/xlink" x="0px" y="0px"
	 viewBox="0 0 177.5 57.3" style="enable-background:new 0 0 177.5 57.3;" xml:space="preserve">
<style type="text/css">
	.st0{opacity:0.19;fill:#010101;}
	.st1{fill:#010101;}
	.st2{fill:#4D4D4D;}
	.st3{fill:#1D1C1A;}
	.st4{fill-rule:evenodd;clip-rule:evenodd;fill:#010101;}
</style>
<g>
	<path class="st1" d="M111.9,37.9c0,0.9,0,1.7,0,2.6c0.1,0.8-0.3,1.7-0.9,2.3c-1.2,1.4-2.9,2.1-4.7,2.1c-1.7,0-3.5,0-5.2,0v-5.1
		l-0.1,0c-1.4,3.1-3.6,5.8-6.3,7.8c-1.8-2.9-3.9-5.7-4.9-9.1l0.5,0.2c2.6,0.8,4.9,2.3,7.2,3.8c0.2,0.1,0.4,0.3,0.6,0.4
		c0.3,0.2,0.6,0.3,0.8-0.1c0.2-0.3,0.1-0.6-0.2-0.8c-1.2-0.9-2.4-1.8-3.5-2.8c-1.2-1.1-2.3-2.2-3.5-3.4l0.1-0.1c0.8,0,1.6,0,2.5,0
		c3.4,0.2,6.6,1.4,10,2c0.6,0.1,1.2,0.3,1.8,0.4c0.3,0.1,0.7,0.1,0.8-0.3c0.1-0.4-0.2-0.6-0.5-0.7c-3.1-0.9-6.2-1.7-9.3-2.6
		c-1.4-0.5-2.8-1.1-4.1-1.7l0-0.2c0.9-0.3,1.8-0.7,2.8-0.9c1.3-0.3,2.5-0.5,3.8-0.7c1.8-0.3,3.5-0.5,5.3-0.7l5.2-0.7
		c1.9-0.3,3.8-0.5,5.7-0.8c0.3,0,0.6-0.2,0.6-0.6s-0.3-0.4-0.6-0.4c-1.1,0.1-2.2,0.2-3.3,0.3c-1.3,0.1-2.5,0.3-3.8,0.4l-4.7,0.6
		c-1.2,0.1-2.4,0.3-3.7,0.4c-1,0.1-2,0.3-3,0.3c-1.1,0-2.3-0.1-3.4-0.1c-0.5,0-1-0.1-1.5-0.2c2.3-2.6,5.4-4,8.3-5.7l0.4,0.7
		c0,0,0.1-0.1,0.1-0.1c-0.2-0.8,0.3-1.1,0.9-1.4c2.3-1.3,4.6-2.6,6.9-3.9c0.1-0.1,0.3-0.1,0.3-0.2c0.1-0.2,0.2-0.4,0.1-0.6
		c-0.1-0.2-0.3-0.3-0.5-0.3c-0.2,0-0.4,0.1-0.6,0.2c-2.2,1.2-4.4,2.3-6.6,3.5c-0.1,0.1-0.3,0.1-0.5,0.2v-1c0-2.5,0-5,0-7.5
		c0-0.4,0.2-0.8,0.4-1.1c1.2-1.4,2.4-2.8,3.6-4.3c0.1-0.2,0.2-0.4,0.2-0.6c-0.1-0.4-0.6-0.5-0.9-0.1c-0.6,0.7-1.2,1.4-1.8,2.1
		c-0.5,0.5-1,1.1-1.5,1.5v-0.5c0-1.8,0-3.6,0-5.3c0-0.4,0.1-0.8,0.4-1.1c1.2-1.7,2.7-2.7,4.8-2.8c1.7,0,3.4,0,5.1,0
		c0.1,0,0.3,0,0.5,0v19.6c0.2-0.2,0.2-0.3,0.3-0.4c2.9-4.4,6.8-7.3,12-8.1c5.2-0.9,10.1-0.1,14.3,3.2c2.9,2.2,4.5,5.2,5.4,8.6
		c0.6,2.6,0.8,5.3,0.6,8c0,0.1,0,0.1-0.1,0.2h-24.9c0.1,0.2,0.1,0.4,0.2,0.6c1.6,3.2,5,5.1,8.5,4.6c0.9-0.1,1.8-0.3,2.6-0.6
		c0.4-0.1,0.7-0.3,1-0.6c0.4-0.3,0.8-0.5,1.3-0.4c3.1,0,6.1,0,9.2,0h0.6c-0.1,0.2-0.2,0.4-0.2,0.6c-2.2,5-5.9,8.1-11.2,9.3
		c-5.6,1.3-10.8,0.3-15.5-3.1c-1.6-1.2-2.9-2.7-3.9-4.4C112.2,38.1,112.1,38,111.9,37.9L111.9,37.9z M134.5,24.9
		c-0.9-2.5-4.1-4.4-7.2-4.3c-3.1,0.1-6.5,2.1-7.1,4.3H134.5z"/>
	<path class="st1" d="M70.7,17.9c-0.2-0.1-0.3-0.2-0.5-0.4c-3.1-3.2-6.2-6.3-9.3-9.5c-0.1-0.2-0.3-0.3-0.5-0.4
		c-0.2-0.1-0.4-0.1-0.5,0c-0.1,0.2-0.2,0.4-0.2,0.6c0,0.2,0.2,0.3,0.3,0.4c4.5,4.7,9,9.4,13.4,14.2c1.1,1.2,1.9,2.6,2.8,3.9L76,27
		c-0.6-0.1-1.1-0.2-1.7-0.3c-2.3-0.4-4.3-1.4-6.4-2.3c-1.6-0.7-3.3-1.4-4.9-2c-0.2-0.1-0.3-0.1-0.5-0.1c-0.2,0-0.4,0.2-0.5,0.3
		c0,0.2,0,0.4,0.2,0.5c0.2,0.1,0.3,0.2,0.5,0.3c2.7,1.3,5.4,2.5,8,3.8c1.4,0.8,2.8,1.8,4.1,2.8c-2,0.4-3.9,0.7-5.9,0.6
		c-2.3-0.1-4.7-0.1-7.1-0.2c-0.4,0-0.6,0.1-0.6,0.5c0,0.4,0.3,0.5,0.6,0.5c0.9,0.1,1.8,0.1,2.7,0.2c2.3,0.2,4.5,0.4,6.8,0.7
		c1.2,0.2,2.3,0.5,3.4,0.9c-1.6,0.9-2.9,1.8-4.5,2.4c-4.5,1.5-9,2.9-13.5,4.4c-0.2,0-0.4,0.1-0.6,0.2c-0.2,0.2-0.2,0.4-0.2,0.6
		c0,0.1,0.3,0.3,0.4,0.3c0.2,0,0.3,0,0.5-0.1c2.7-0.8,5.4-1.6,8.1-2.4c0.2,0,0.3,0,0.5,0c-0.7,0.6-1.4,1.3-2.2,1.9
		c-2.6,2.2-5.6,3.6-8.9,4.3c-0.9,0.2-1.7,0.2-2.6,0.3c-6,0-12.1,0-18.1,0h-0.4V2.3c0.1,0,0.2,0,0.4,0c6.2,0,12.3,0,18.5,0
		c3.9,0,7.3,1.4,10.4,3.7C66.5,8.9,69.4,13.1,70.7,17.9L70.7,17.9z M43.8,34.5c0.2,0,0.3,0,0.4,0c2.1,0,4.2,0,6.3,0
		c0.4,0,0.8,0,1.3-0.1c5.4-1,10.1-6.2,9.1-12.6C60,16,55,12.6,50.1,12.4c-2-0.1-4,0-6,0c-0.1,0-0.3,0-0.4,0L43.8,34.5z"/>
	<path class="st1" d="M73.5,48.8c-0.8,1.6-1.6,3-2.4,4.5c-0.2,0.3-0.3,0.6-0.5,0.9c-0.2,0.3-0.3,0.6,0.1,0.9c0.4,0.2,0.6,0,0.8-0.4
		l0.7-1.3c1.7-2.9,3.4-5.9,5.1-8.8c0.9-1.4,2.1-2.7,3.1-4l0.2,0.1c0.1,0.8,0.2,1.6,0.2,2.5c0.2,2-0.2,4-0.5,6
		c-0.2,1.5-0.4,3-0.6,4.5c0,0.4,0.1,0.7,0.5,0.7c0.4,0.1,0.5-0.2,0.6-0.5c0.2-1.4,0.5-2.7,0.7-4.1c0.5-2.7,0.9-5.5,2-8.1
		c0.1-0.2,0.1-0.3,0.3-0.6c0.5,1,0.8,1.8,1.3,2.7c0.8,1.6,1.1,3.4,1.5,5.2c0.6,2.2,1.1,4.5,1.6,6.7c0,0.1,0,0.3,0.1,0.5H33.6
		c-0.6,0-0.6,0-0.6-0.6c0-2.1,0-4.1,0-6.2c0-0.5,0.1-0.6,0.6-0.6c9.1,0,18.2,0,27.4,0L73.5,48.8L73.5,48.8z"/>
	<path class="st1" d="M142.7,56.2h-0.6c-17.2,0-34.4,0-51.6,0c-0.5,0-0.6-0.1-0.7-0.6c-0.7-3.5-1.6-7-2.2-10.5
		c-0.3-1.4-0.2-2.9-0.2-4.4c2.8,2.1,4.5,4.9,6.4,7.6l-0.7,0.5c0.1,0,0.2,0.1,0.2,0.1c0.7-0.2,1.1,0.3,1.4,0.8
		c0.3,0.6,0.8,1.1,1.2,1.6c0.2,0.3,0.4,0.5,0.8,0.2c0.4-0.3,0.3-0.5,0.1-0.8c-0.3-0.5-0.6-0.9-0.9-1.4c-0.1-0.1-0.2-0.3-0.3-0.5
		h46.6c0.6,0,0.6,0,0.6,0.6v6.2C142.7,55.8,142.7,55.9,142.7,56.2z"/>
	<path class="st1" d="M82.3,13.1c-0.1,3.4,0.3,6.9-0.8,10.2c-2.4-2.6-3.5-5.8-4.9-8.9C77.5,13.8,80.8,13.1,82.3,13.1z"/>
	<path class="st1" d="M90.5,26.5c1.3-3.3,3.7-5.8,5.9-8.4c1.4,1.3,2.6,2.8,3.5,4.4C96.9,24.1,94,25.8,90.5,26.5z"/>
	<path class="st1" d="M77.7,39c-0.6,3.4-2.4,6.3-4,9.3c-1-0.4-3.4-2.4-4.5-3.7C72,42.5,74.5,40.2,77.7,39z"/>
	<path class="st1" d="M84.9,23.2c-1.3-3.3-1.2-6.7-1.3-10.2c1.9,0,3.8,0.3,5.6,0.8C88.1,17.1,87.1,20.5,84.9,23.2z"/>
	<path class="st1" d="M75.7,36.4c-1.8,3-4.7,4.9-7.4,7.1c-1.1-1.5-2.1-3.2-2.7-5C69,37.5,72.3,36.4,75.7,36.4z"/>
	<path class="st1" d="M70.7,17.9c0.2-0.1,0.3-0.2,0.5-0.3c1.3-1.1,2.7-2,4.2-2.7c1.3,3.2,2.8,6.3,3.1,9.8c0,0-0.1,0-0.1,0
		c-1.5-1-3.1-1.9-4.3-3.2c-1-1.1-2-2.1-3.1-3.1C70.9,18.2,70.8,18,70.7,17.9L70.7,17.9z"/>
	<path class="st1" d="M90.6,14.4c1.7,0.7,3.3,1.6,4.8,2.8c-2.2,2.5-4.3,5.2-7.3,7C88.1,20.7,89.5,17.6,90.6,14.4z"/>
	<circle class="st1" cx="83.4" cy="31.9" r="5.9"/>
</g>
</svg>
