<?xml version="1.0" encoding="utf-8"?>
<!-- Generator: Adobe Illustrator 22.0.1, SVG Export Plug-In . SVG Version: 6.00 Build 0)  -->
<svg version="1.1" id="Layer_1" xmlns="http://www.w3.org/2000/svg" xmlns:xlink="http://www.w3.org/1999/xlink" x="0px" y="0px"
	 viewBox="0 0 177.5 57.3" style="enable-background:new 0 0 177.5 57.3;" xml:space="preserve">
<style type="text/css">
	.st0{opacity:0.19;fill:#010101;}
	.st1{fill:#010101;}
	.st2{fill:#4D4D4D;}
	.st3{fill:#1D1C1A;}
	.st4{fill-rule:evenodd;clip-rule:evenodd;fill:#010101;}
</style>
<g>
	<path d="M119.5,17.3c0,0.1,0,0.2,0,0.3c0,6.1,0,12.3,0,18.4c0,0.1,0,0.2,0,0.3c0,0-0.1,0-0.1,0c-0.1,0-0.1,0-0.2,0
		c-1.2,0-2.5,0-3.7,0c-0.4,0-0.4,0-0.4-0.4c0-3.7,0-7.3,0-11c0-4.5,0-9,0-13.5c0-0.1,0-0.2,0-0.3c0-0.1,0-0.1,0.1-0.1
		c0.1,0,0.1,0,0.2,0c1.8,0,3.5,0,5.3,0c0.3,0,0.3,0,0.4,0.2c0.4,0.7,0.8,1.4,1.1,2.2c0.3,0.6,0.6,1.1,0.9,1.7
		c0.3,0.6,0.6,1.2,0.9,1.8c0.3,0.6,0.6,1.1,0.9,1.7c0.3,0.6,0.6,1.2,0.9,1.8c0.3,0.6,0.6,1.1,0.9,1.7c0.3,0.6,0.6,1.2,0.9,1.8
		c0.3,0.6,0.6,1.1,0.9,1.7c0.3,0.6,0.6,1.2,1,1.8c0.3,0.6,0.6,1.1,0.9,1.7c0.2,0.4,0.4,0.8,0.6,1.2c0,0,0,0,0.1,0.1
		c0-0.1,0-0.1,0-0.2c0-0.8,0-1.6,0-2.4c0-5.5,0-11,0-16.5c0-0.1,0-0.2,0-0.3c0,0,0.1,0,0.1,0c0,0,0.1,0,0.1,0c1.3,0,2.5,0,3.8,0
		c0.1,0,0.1,0,0.2,0c0.1,0,0.1,0,0.1,0.1c0,0,0,0.1,0,0.1c0,0.1,0,0.1,0,0.2c0,8.1,0,16.3,0,24.4c0,0.1,0,0.2,0,0.3
		c0,0.1,0,0.1-0.1,0.1c-0.1,0-0.1,0-0.2,0c-1.8,0-3.6,0-5.3,0c0,0-0.1,0-0.1,0c-0.1,0-0.1,0-0.2-0.1c0-0.1-0.1-0.1-0.1-0.2
		c-0.2-0.4-0.4-0.8-0.6-1.1c-0.5-0.9-0.9-1.7-1.4-2.6c-0.2-0.5-0.5-0.9-0.7-1.4c-0.3-0.6-0.7-1.3-1-1.9c-0.1-0.3-0.3-0.6-0.4-0.8
		c-0.2-0.4-0.4-0.9-0.7-1.3c-0.4-0.8-0.8-1.6-1.3-2.4c-0.3-0.5-0.6-1.1-0.8-1.6c-0.4-0.8-0.8-1.6-1.3-2.4c-0.3-0.5-0.5-1-0.8-1.5
		c-0.3-0.5-0.6-1.1-0.9-1.6C119.6,17.4,119.5,17.3,119.5,17.3C119.5,17.3,119.5,17.3,119.5,17.3z"/>
	<path d="M89.5,36.3c-0.1,0-0.1,0-0.2,0c-1.7,0-4,0-4.3,0c0-0.1-0.1-0.1-0.1-0.2c-0.7-2.1-1.4-4.2-2.1-6.3c-0.7-2-1.3-4-2-6
		c-1.4-4.1-2.8-8.3-4.1-12.4c0-0.1-0.1-0.2-0.1-0.3c0,0,0.1,0,0.1,0c0.1,0,0.1,0,0.2,0c1.3,0,2.6,0,3.9,0c0.1,0,0.2,0,0.2,0
		c0.1,0.1,0.1,0.1,0.1,0.2c0.3,0.8,0.5,1.6,0.8,2.3c0.1,0.4,0.3,0.9,0.4,1.3c0.2,0.7,0.5,1.5,0.7,2.2c0.2,0.7,0.5,1.4,0.7,2.1
		c0.2,0.7,0.5,1.4,0.7,2.2c0.2,0.6,0.4,1.2,0.6,1.8c0.2,0.7,0.5,1.5,0.7,2.2c0.2,0.7,0.4,1.4,0.7,2.1c0.2,0.7,0.5,1.4,0.7,2.2
		c0.1,0.2,0.1,0.4,0.2,0.6c0.1,0,0.1,0,0.1,0c0.1-0.5,0.3-0.9,0.4-1.4c0-0.1,0.1-0.3,0.1-0.4c0.3-0.8,0.5-1.7,0.8-2.5
		c0.2-0.6,0.4-1.2,0.6-1.9c0.2-0.7,0.4-1.4,0.6-2c0.2-0.6,0.4-1.3,0.6-1.9c0.2-0.7,0.4-1.3,0.6-2c0.2-0.6,0.4-1.3,0.6-1.9
		c0.2-0.7,0.4-1.3,0.6-2c0.2-0.7,0.4-1.4,0.7-2.1c0.1-0.3,0.2-0.7,0.3-1c0-0.1,0.1-0.1,0.2-0.1c0.1,0,0.1,0,0.2,0c2.1,0,4.3,0,6.4,0
		c0.1,0,0.2,0,0.3,0c0,0.1,0,0.1,0,0.1c0,0.1,0,0.1,0,0.2c0,8.2,0,16.4,0,24.6c0,0.1,0,0.2,0,0.3c0,0-0.1,0-0.1,0c0,0-0.1,0-0.1,0
		c-1.3,0-2.5,0-3.8,0c-0.1,0-0.2,0-0.3,0c0-0.1,0-0.1,0-0.1c0-0.1,0-0.2,0-0.2c0-6.4,0-12.9,0-19.3c0-0.1,0-0.2,0-0.3
		c-0.2,0.6-0.4,1.2-0.6,1.8c-0.2,0.6-0.4,1.2-0.6,1.8c-0.2,0.6-0.4,1.2-0.6,1.8c-0.2,0.6-0.4,1.2-0.6,1.8c-0.2,0.6-0.4,1.2-0.6,1.8
		c-0.2,0.6-0.4,1.2-0.6,1.8c-0.2,0.6-0.4,1.2-0.6,1.8c-0.2,0.6-0.4,1.2-0.6,1.8c-0.2,0.6-0.4,1.2-0.6,1.8c-0.2,0.6-0.4,1.2-0.6,1.8
		C89.9,35.1,89.7,35.7,89.5,36.3z"/>
	<path d="M58,0C58,0.1,58,0.1,58,0c0,0.3,0,4.8,0,5c0,0,0,0-0.1,0c-0.3,0-0.6,0.1-0.8,0c-0.1,0-0.3,0-0.4,0c0,0-0.1,0-0.1,0
		c-0.2,0-0.5,0.1-0.7,0.1c-0.3,0-0.6,0.1-0.8,0.2c-0.5,0.1-1.1,0.3-1.6,0.5c-0.3,0.2-0.7,0.3-1,0.6c-0.1,0.1-0.3,0.2-0.4,0.3
		c-0.1,0.1-0.2,0.1-0.3,0.2c-0.4,0.5-0.8,1-1.1,1.6c-0.1,0.3-0.2,0.5-0.3,0.8c-0.1,0.3-0.1,0.6-0.1,0.9c0,0,0,0.1,0,0.1
		c0,0.1,0,0.2,0.1,0.2c0.1,0,0.1,0,0.2,0c1.8,0,3.7,0,5.5,0c0.1,0,0.2,0,0.3,0c0,0,0,0.1,0,0.1c0,0.1,0,0.1,0,0.2
		c0,3.6,0,7.3,0,10.9c0,0.1,0,0.2,0,0.3c0,0,0,0-0.1,0c-4.7,0-9.4,0-14.1,0c0,0-0.1,0-0.1,0c0,0,0-0.1,0-0.1c0,0,0-0.1,0-0.1
		c0-3.3,0-6.7,0-10c0-0.1,0-0.2,0-0.4c0,0,0-0.1,0-0.1c0-0.3,0-0.5,0.1-0.8c0-0.3,0.1-0.6,0.2-0.9c0.1-0.5,0.2-1,0.4-1.5
		c0.2-0.5,0.4-1,0.7-1.5c0.3-0.5,0.6-1,1-1.4c0.2-0.2,0.4-0.4,0.6-0.6c0.2-0.2,0.4-0.4,0.6-0.6c0.3-0.3,0.6-0.6,1-0.8
		c0.4-0.3,0.8-0.5,1.1-0.8c0.5-0.3,1-0.5,1.4-0.7c0.5-0.2,0.9-0.4,1.4-0.6c0.6-0.2,1.3-0.4,1.9-0.5c0.2,0,0.5-0.1,0.7-0.2
		c0.3-0.1,0.7-0.1,1-0.2c0.2,0,0.3-0.1,0.5-0.1c0.1,0,0.3,0,0.4,0c0.2,0,0.5,0,0.7-0.1c0.1,0,0.2,0,0.4,0c0.1,0,0.2,0,0.4,0
		c0.2,0,0.4,0,0.6,0C57.2,0,57.8,0,58,0z"/>
	<path d="M51.6,26.5c0,0,0.1,0,0.1,0c0,0,0.1,0,0.1,0c1.4,0,2.8,0,4.2,0c0.1,0,0.2,0,0.2,0c0,0.1,0,0.1,0.1,0.2
		c0.1,0.5,0.2,1,0.4,1.4c0.3,0.9,0.7,1.7,1.2,2.4c0.3,0.4,0.6,0.8,1,1.1c0.5,0.4,1.1,0.8,1.7,1.1c0.5,0.2,1.1,0.4,1.6,0.5
		c0.3,0,0.6,0.1,0.9,0.1c0.2,0,0.3,0,0.5,0c0.2,0,0.4,0,0.6,0c0.2,0,0.4,0,0.6-0.1c0.4,0,0.7-0.1,1.1-0.2c0.5-0.1,0.9-0.3,1.3-0.5
		c0.5-0.3,0.9-0.6,1.3-0.9c0.6-0.5,1.1-1.2,1.5-1.8c0.4-0.7,0.7-1.4,0.9-2.1c0.1-0.4,0.2-0.9,0.3-1.4c0.1-0.3,0.1-0.6,0.1-1
		c0.1-0.7,0-1.4,0-2.2c0-0.3,0-0.6-0.1-0.9c0-0.2-0.1-0.5-0.1-0.7c-0.1-0.4-0.1-0.8-0.3-1.2c-0.1-0.5-0.3-0.9-0.5-1.4
		c-0.3-0.7-0.7-1.4-1.1-1.9c-0.2-0.2-0.3-0.4-0.5-0.6c-0.4-0.4-0.9-0.8-1.4-1c-0.7-0.4-1.4-0.6-2.1-0.7c-0.2,0-0.4-0.1-0.7-0.1
		c-0.2,0-0.4,0-0.7,0c-0.1,0-0.1,0-0.1-0.1c0-0.1,0-0.1,0-0.2c0-1.1,0-2.2,0-3.3c0,0,0,0,0-0.1c0-0.2,0-0.2,0.2-0.2
		c0.3,0.1,0.7,0,1,0.1c0.2,0,0.4,0,0.6,0.1c0.3,0,0.6,0.1,0.9,0.1c0.6,0.1,1.3,0.3,1.9,0.5c0.6,0.2,1.2,0.5,1.7,0.8
		c0.4,0.3,0.9,0.5,1.3,0.9c0.5,0.4,0.9,0.8,1.4,1.3c0.5,0.6,1,1.2,1.4,1.9c0.4,0.7,0.8,1.5,1,2.2c0.2,0.5,0.3,0.9,0.4,1.4
		c0.1,0.4,0.2,0.8,0.3,1.3c0.1,0.3,0.1,0.5,0.1,0.8c0,0.2,0,0.3,0,0.5c0,0.4,0.1,0.8,0.1,1.3c0,0.3,0,0.6,0,0.9c0,0.3,0,0.6-0.1,0.9
		c-0.1,0.8-0.2,1.6-0.4,2.3c-0.2,0.8-0.5,1.6-0.8,2.3c-0.3,0.7-0.6,1.3-1.1,1.9c-0.3,0.4-0.6,0.8-0.9,1.1c-0.2,0.2-0.3,0.3-0.5,0.5
		c-0.4,0.4-0.9,0.8-1.4,1.2c-0.5,0.3-1,0.7-1.5,0.9c-0.8,0.4-1.7,0.7-2.6,1c-0.4,0.1-0.8,0.2-1.3,0.2c-0.3,0-0.6,0.1-0.9,0.1
		c-0.5,0.1-1.1,0-1.6,0c-0.4,0-0.7,0-1.1-0.1c-0.2,0-0.5-0.1-0.7-0.1c-0.5-0.1-0.9-0.2-1.4-0.3c-0.7-0.2-1.4-0.5-2.1-0.8
		c-0.7-0.3-1.3-0.7-1.9-1.2c-0.5-0.4-1-0.8-1.4-1.3c-0.7-0.7-1.2-1.6-1.7-2.4c-0.3-0.7-0.6-1.4-0.9-2.1c-0.2-0.6-0.3-1.1-0.4-1.7
		C51.6,26.8,51.6,26.7,51.6,26.5z"/>
	<path d="M110,36.3c0,0-0.1,0-0.1,0c0,0-0.1,0-0.1,0c-1.3,0-2.6,0-3.8,0c-0.1,0-0.1,0-0.2,0c0,0-0.1,0-0.1-0.1c0,0,0-0.1,0-0.1
		c0-0.1,0-0.1,0-0.2c0-8.2,0-16.3,0-24.5c0-0.1,0-0.2,0-0.3c0-0.1,0-0.1,0.1-0.1c0.1,0,0.1,0,0.2,0c1.3,0,2.6,0,3.8,0
		c0.1,0,0.2,0,0.2,0.1c0,0,0,0.1,0,0.1C110,19.6,110,27.9,110,36.3C110,36.3,110,36.3,110,36.3z"/>
	<path d="M66.7,47.9c-0.2,0.1-0.4,0.1-0.6,0c0,0,0,0,0,0c0-0.2,0-0.5-0.1-0.7c0-0.4,0-0.7-0.1-1.1c0-0.3,0-0.5,0-0.8
		c0-0.4,0-0.7-0.1-1.1c-0.2,0.6-0.4,1.3-0.7,1.9c-0.2,0.6-0.5,1.2-0.7,1.9c-0.2,0-0.3,0-0.5,0c-0.1-0.1-0.1-0.1-0.1-0.2
		c-0.2-0.5-0.4-1.1-0.5-1.6c-0.1-0.4-0.3-0.9-0.4-1.3c-0.1-0.2-0.1-0.4-0.2-0.6c0,0.4,0,0.7-0.1,1.1c0,0.4,0,0.8-0.1,1.2
		c0,0.2,0,0.4,0,0.7c0,0.2,0,0.5,0,0.7c0,0.1,0,0.1-0.2,0.1c-0.2,0-0.3,0-0.5,0c0-0.1,0-0.2,0-0.3c0-0.1,0-0.2,0-0.3
		c0-0.4,0.1-0.7,0.1-1.1c0,0,0,0,0,0c0-0.3,0-0.7,0.1-1c0-0.3,0.1-0.6,0.1-0.9c0-0.1,0-0.3,0-0.4c0-0.2,0-0.3,0.1-0.5c0,0,0,0,0,0
		c0.2,0,0.4,0,0.6,0c0.1,0,0.1,0,0.1,0.1c0,0.1,0.1,0.2,0.1,0.3c0.2,0.4,0.3,0.9,0.5,1.3c0.1,0.3,0.2,0.5,0.3,0.8
		c0.1,0.4,0.2,0.8,0.4,1.2c0.1-0.2,0.1-0.3,0.2-0.5c0.1-0.2,0.1-0.4,0.2-0.5c0.1-0.2,0.1-0.3,0.2-0.5c0.1-0.2,0.1-0.3,0.2-0.5
		c0.1-0.2,0.1-0.3,0.2-0.5c0.1-0.2,0.1-0.4,0.2-0.5c0.1-0.2,0.1-0.4,0.2-0.5c0,0,0.1,0,0.2,0c0.2,0,0.3,0,0.5,0c0.1,0,0.1,0,0.1,0.1
		c0,0,0,0,0,0c0,0.3,0,0.6,0,0.8c0,0.3,0,0.7,0.1,1c0,0.2,0,0.4,0,0.7c0,0.3,0.1,0.7,0.1,1c0,0.1,0,0.1,0,0.2c0,0.2,0,0.4,0,0.6
		C66.7,47.8,66.7,47.8,66.7,47.9z"/>
	<path d="M71.6,56.1c-0.2,0-0.4,0-0.5,0c-0.1,0-0.1,0-0.1-0.1c0,0,0,0,0,0c0-0.3,0-0.7-0.1-1c0-0.4,0-0.7-0.1-1.1c0-0.3,0-0.6,0-0.9
		c0-0.2,0-0.4-0.1-0.6c0,0,0,0.1-0.1,0.1c-0.3,0.9-0.6,1.8-0.9,2.7c-0.1,0.2-0.2,0.4-0.2,0.6c0,0.1,0,0.1-0.1,0.2
		c0,0.1-0.1,0.1-0.1,0.1c0,0,0,0,0,0c-0.4,0-0.3,0-0.4-0.3c-0.3-0.8-0.6-1.6-0.8-2.5c-0.1-0.3-0.2-0.6-0.3-0.9c0-0.1,0-0.1-0.1-0.1
		c0,0.1,0,0.2,0,0.2c0,0.3,0,0.6,0,1c0,0,0,0,0,0c0,0.4,0,0.8-0.1,1.2c0,0.3,0,0.7-0.1,1c0,0.1,0,0.2,0,0.3c-0.2,0-0.4,0-0.6,0
		c0-0.3,0-0.5,0-0.7c0,0,0-0.1,0-0.1c0-0.3,0-0.6,0.1-0.9c0-0.3,0.1-0.7,0.1-1c0,0,0,0,0,0c0-0.3,0-0.6,0.1-0.9c0-0.3,0-0.5,0.1-0.8
		c0,0,0-0.1,0-0.1c0,0,0.1,0,0.1,0c0.2,0,0.4,0,0.5,0c0.1,0,0.2,0,0.2,0.2c0.1,0.1,0.1,0.3,0.2,0.4c0.2,0.7,0.5,1.4,0.7,2.1
		c0.1,0.2,0.1,0.5,0.2,0.7c0,0.1,0,0.1,0.1,0.2c0.1,0,0.1-0.1,0.1-0.1c0.1-0.4,0.2-0.7,0.3-1.1c0.2-0.6,0.4-1.1,0.6-1.7
		c0.1-0.2,0.1-0.4,0.2-0.6c0,0,0-0.1,0.1-0.1c0.2,0,0.6-0.1,0.8,0c0,0.2,0.1,0.3,0.1,0.5c0,0.4,0,0.8,0.1,1.2c0,0.2,0,0.5,0,0.7
		c0,0.3,0.1,0.7,0.1,1c0,0.4,0,0.7,0.1,1.1C71.6,56,71.6,56.1,71.6,56.1z"/>
	<path d="M130.9,56.1c0-0.2,0-4.3,0-4.5c0.1-0.1,0.2-0.1,0.3-0.1c0.4-0.1,0.9-0.1,1.3,0c0.4,0,0.8,0.1,1.2,0.2
		c0.6,0.3,1,0.8,1.2,1.5c0,0.2,0,0.4,0,0.6c0,0.4-0.1,0.8-0.2,1.2c-0.1,0.3-0.4,0.6-0.6,0.8c-0.3,0.2-0.6,0.3-0.9,0.4
		c-0.3,0.1-0.6,0.1-0.8,0.1c-0.3,0-0.5,0-0.8,0C131.2,56.2,131.1,56.2,130.9,56.1z M131.8,52.2c0,0.1,0,0.1,0,0.2c0,0.9,0,1.9,0,2.8
		c0,0,0,0.1,0,0.1c0,0.1,0,0.1,0.1,0.1c0,0,0.1,0,0.1,0c0.2,0,0.4,0,0.7-0.1c0.2,0,0.5-0.1,0.6-0.3c0.4-0.3,0.5-0.7,0.6-1.1
		c0-0.2,0-0.3,0-0.5c0-0.2,0-0.3-0.1-0.5c-0.1-0.3-0.3-0.6-0.6-0.7c-0.2-0.1-0.4-0.2-0.7-0.2c-0.2,0-0.3,0-0.5,0
		C132,52.2,131.9,52.2,131.8,52.2z"/>
	<path d="M125.1,56.1c0-0.1,0-0.1,0-0.2c0-1.2,0-4.2,0-4.4c0.1,0,0.1-0.1,0.2-0.1c0.2,0,0.4,0,0.6-0.1c0.3,0,0.5,0,0.8,0
		c0.3,0,0.5,0.1,0.7,0.1c0.2,0.1,0.3,0.1,0.4,0.2c0.3,0.2,0.4,0.5,0.4,0.8c0,0.3-0.1,0.6-0.4,0.8c-0.1,0.1-0.2,0.1-0.3,0.2
		c0.1,0,0.1,0,0.2,0.1c0.3,0.2,0.6,0.4,0.7,0.8c0.1,0.5,0,1-0.4,1.3c-0.3,0.2-0.6,0.3-0.9,0.4c-0.4,0.1-0.8,0-1.2,0
		C125.5,56.2,125.3,56.2,125.1,56.1z M126,55.5c0.2,0,0.4,0,0.5,0c0.1,0,0.2,0,0.3,0c0.3-0.1,0.5-0.3,0.5-0.6c0-0.4-0.1-0.6-0.4-0.7
		c-0.1,0-0.1,0-0.2-0.1c-0.2-0.1-0.4,0-0.7,0c0,0-0.1,0-0.1,0c0,0,0,0.1,0,0.1c0,0.4,0,0.8,0,1.2C126,55.4,126,55.4,126,55.5z
		 M126,53.4c0.2,0,0.3,0,0.4,0c0.1,0,0.3,0,0.4-0.1c0.2-0.1,0.3-0.2,0.4-0.3c0.1-0.3,0-0.7-0.4-0.8c-0.2,0-0.3-0.1-0.5-0.1
		c-0.1,0-0.2,0-0.3,0.1C126,52.4,126,53.2,126,53.4z"/>
	<path d="M108.5,51.7c0,0.2-0.1,0.5-0.2,0.7c-0.1,0-0.1,0-0.1,0c-0.2-0.1-0.5-0.1-0.8-0.1c-0.2,0-0.5,0-0.7,0.1
		c-0.6,0.2-1,0.5-1.1,1.1c-0.1,0.3-0.1,0.6,0,1c0.2,0.6,0.6,1,1.1,1.1c0.3,0,0.5,0,0.8,0c0.1,0,0.1,0,0.2-0.1c0.1-0.2,0-0.4,0-0.5
		c0-0.2,0-0.3,0-0.5c-0.1,0-0.1,0-0.1,0c-0.2,0-0.3,0-0.5,0c-0.1,0-0.1,0-0.2,0c-0.1-0.1,0-0.2,0-0.2c0-0.1,0-0.1,0-0.2
		c0-0.1,0-0.1,0-0.2c0,0,0.1,0,0.1,0c0.5,0,1,0,1.4,0c0,0,0.1,0,0.1,0c0.1,0.1,0,0.2,0,0.2c0,0.6,0,1.1,0,1.7c0,0.1,0,0.2,0,0.3
		c0,0.1,0,0.2-0.1,0.2c-0.2,0.1-0.5,0.1-0.8,0.2c-0.3,0-0.6,0-0.9,0c-0.4,0-0.7-0.1-1-0.2c-0.6-0.3-1-0.8-1.1-1.4
		c-0.1-0.2-0.1-0.4-0.1-0.6c0-0.5,0.1-1,0.4-1.5c0.1-0.2,0.3-0.4,0.5-0.5c0.3-0.2,0.6-0.3,1-0.4c0.2,0,0.4,0,0.6-0.1
		c0.4,0,0.8,0,1.1,0.2C108.4,51.6,108.5,51.7,108.5,51.7z"/>
	<path d="M116.7,55.9c0,0.1,0,0.2,0,0.3c0,0.4,0,0.7,0,1.1c0,0,0,0.1,0,0.1c0,0.2,0,0.2-0.2,0.2c-0.2,0-0.4,0-0.6,0
		c-0.1,0-0.1,0-0.1-0.1c0-0.1,0-0.1,0-0.2c0-1.3,0-2.7,0-4c0-0.1,0-0.3,0-0.4c0,0,0.1,0,0.1,0c0.2,0,0.4,0,0.6,0
		c0.1,0,0.1,0,0.1,0.1c0,0.1,0,0.1,0,0.2c0,0,0,0.1,0,0.1c0.1-0.1,0.1-0.1,0.2-0.2c0.6-0.5,1.6-0.4,2.1,0.4c0.1,0.2,0.2,0.5,0.2,0.8
		c0,0.1,0,0.1,0,0.2c0,0.5-0.1,1-0.5,1.5c-0.2,0.2-0.5,0.3-0.8,0.4c-0.3,0.1-0.5,0-0.8-0.1C117,56.1,116.9,56,116.7,55.9z
		 M116.7,54.5C116.7,54.5,116.7,54.5,116.7,54.5c0,0.1,0,0.3,0,0.4c0,0.5,0.5,0.8,0.9,0.6c0.3-0.1,0.5-0.3,0.5-0.6
		c0.1-0.3,0.1-0.5,0-0.8c-0.1-0.2-0.1-0.4-0.3-0.5c-0.2-0.1-0.3-0.2-0.5-0.2c-0.4,0.1-0.7,0.4-0.7,0.8
		C116.7,54.3,116.7,54.4,116.7,54.5z"/>
	<path d="M78.2,56.2c-0.1,0-0.2,0-0.3,0c-0.1,0-0.2,0-0.3,0c0,0,0-0.1,0-0.1c0-0.1,0-0.1,0-0.2c0-0.9,0-1.9,0-2.8c0-0.1,0-0.1,0-0.2
		c0.2,0,0.4,0,0.5,0c0.1,0.1,0.1,0.3,0.1,0.4c0.1-0.1,0.1-0.2,0.2-0.2c0.1-0.1,0.2-0.1,0.2-0.2c0.1,0,0.2-0.1,0.3-0.1
		c0.1,0,0.2,0,0.3,0c0.1,0,0.2,0,0.3,0c0.1,0,0.2,0.1,0.3,0.1c0.1,0.1,0.2,0.1,0.2,0.2c0.1,0.1,0.1,0.2,0.2,0.2c0.1,0,0.1,0,0.1-0.1
		c0.1-0.1,0.2-0.2,0.2-0.2c0.1-0.1,0.2-0.1,0.2-0.2c0.3-0.1,0.7-0.2,1,0c0.3,0.1,0.4,0.3,0.5,0.6c0.1,0.2,0.1,0.5,0.1,0.7
		c0,0.6,0,1.3,0,1.9c0,0.1,0,0.1,0,0.2c-0.2,0-0.4,0-0.6,0c-0.1-0.1,0-0.2,0-0.2c0-0.5,0-1,0-1.5c0-0.2,0-0.3-0.1-0.5
		c0-0.1,0-0.1-0.1-0.2c-0.2-0.4-0.6-0.5-0.9-0.3c-0.3,0.1-0.4,0.4-0.4,0.7c0,0.3,0,0.6,0,1c0,0.3,0,0.6,0,0.9c0,0.1,0,0.1,0,0.2
		c0,0.1,0,0.1-0.1,0.1c-0.2,0-0.3,0-0.5,0c-0.1-0.1,0-0.2,0-0.2c0-0.5,0-1.1,0-1.6c0-0.2,0-0.3,0-0.5c0-0.1,0-0.1-0.1-0.2
		c-0.2-0.4-0.6-0.4-0.8-0.3c-0.2,0.1-0.4,0.3-0.5,0.6c0,0.1,0,0.3,0,0.4c0,0.5,0,1,0,1.6C78.2,56,78.2,56,78.2,56.2z"/>
	<path d="M96.8,53.1c0-0.1,0-0.1,0-0.2c0-0.5,0-0.9,0-1.4c0-0.3,0-0.3,0.3-0.3c0.1,0,0.2,0,0.3,0c0.1,0,0.1,0,0.1,0.1
		c0,0.1,0,0.1,0,0.2c0,1.3,0,2.5,0,3.8c0,0.2,0,0.4,0,0.6c0,0.1,0,0.1,0,0.2c-0.2,0-0.4,0-0.5,0c-0.1-0.1,0-0.3-0.1-0.5
		c0,0-0.1,0.1-0.1,0.1c-0.3,0.3-0.6,0.4-1,0.4c-0.3,0-0.6-0.1-0.9-0.4c-0.4-0.3-0.5-0.7-0.5-1.2c0-0.3,0-0.7,0.1-1
		c0.2-0.4,0.5-0.8,1-0.9C95.9,52.6,96.4,52.7,96.8,53.1C96.7,53.1,96.8,53.1,96.8,53.1z M96.8,54.5C96.8,54.5,96.8,54.5,96.8,54.5
		c0-0.1,0-0.3,0-0.4c0-0.2-0.1-0.4-0.3-0.6c-0.3-0.2-0.8-0.2-1-0.1c-0.2,0.1-0.3,0.3-0.4,0.4c-0.1,0.1-0.1,0.3-0.1,0.4
		c-0.1,0.4,0,0.7,0.2,1c0.3,0.5,0.9,0.5,1.2,0.3c0.3-0.2,0.4-0.4,0.4-0.7C96.8,54.7,96.8,54.6,96.8,54.5z"/>
	<path d="M121.3,52.7c0.2,0,0.5,0.1,0.7,0.1c0.4,0.2,0.7,0.5,0.9,1c0.2,0.5,0.2,0.9,0,1.4c-0.2,0.5-0.6,0.8-1.1,1
		c-0.4,0.1-0.9,0.1-1.3-0.1c-0.4-0.2-0.7-0.5-0.8-0.9c-0.2-0.4-0.2-0.9-0.1-1.3c0.2-0.7,0.6-1.1,1.3-1.2
		C121.1,52.7,121.2,52.7,121.3,52.7z M120.5,54.5c0,0,0,0.1,0,0.2c0,0.3,0.1,0.5,0.3,0.7c0.3,0.3,0.7,0.4,1,0.1
		c0.1-0.1,0.2-0.3,0.3-0.4c0.1-0.3,0.1-0.5,0.1-0.8c0-0.2-0.1-0.4-0.2-0.5c-0.2-0.3-0.5-0.4-0.8-0.3c-0.2,0.1-0.4,0.2-0.5,0.5
		C120.6,54.1,120.5,54.3,120.5,54.5z"/>
	<path d="M83.9,55.7c0,0.1,0,0.2,0,0.3c0,0.1,0,0.1-0.1,0.1c-0.1,0-0.3,0-0.4,0c0-0.1,0-0.1,0-0.1c0-0.1,0-0.3,0-0.4
		c0-1.4,0-2.7,0-4.1c0-0.3,0-0.3,0.3-0.3c0.1,0,0.2,0,0.3,0c0.1,0,0.1,0,0.1,0.1c0,0.1,0,0.1,0,0.2c0,0.5,0,1,0,1.5
		c0,0.1,0,0.2,0,0.2c0.1,0,0.1,0,0.1-0.1c0.2-0.2,0.4-0.4,0.7-0.4c0.2,0,0.3,0,0.5,0c0.4,0.1,0.6,0.2,0.8,0.5
		c0.2,0.3,0.3,0.6,0.3,0.9c0,0.3,0,0.5-0.1,0.8c-0.1,0.3-0.2,0.5-0.3,0.7c-0.2,0.2-0.4,0.4-0.7,0.5c-0.2,0.1-0.4,0.1-0.7,0
		c-0.2-0.1-0.5-0.2-0.6-0.3C84,55.8,83.9,55.8,83.9,55.7z M83.9,54.5C83.9,54.5,83.9,54.5,83.9,54.5c0,0.1,0,0.2,0,0.3
		c0,0.5,0.5,1.1,1.2,0.9c0.3-0.1,0.4-0.3,0.5-0.5c0.1-0.3,0.1-0.6,0.1-0.9c0-0.1,0-0.2-0.1-0.3c-0.1-0.4-0.5-0.6-0.9-0.6
		c-0.4,0-0.6,0.2-0.8,0.5c-0.1,0.2-0.1,0.3-0.1,0.5C83.9,54.4,83.9,54.4,83.9,54.5z"/>
	<path d="M98.2,43.1c0,0.1,0,0.2,0,0.3c0,1.2,0,2.4,0,3.6c0,0.3,0,0.6,0,0.9c0,0.1,0,0.1-0.1,0.1c-0.2,0-0.3,0-0.5,0
		c-0.1-0.1-0.1-0.3-0.1-0.4c-0.1,0-0.1,0.1-0.1,0.1C97.2,47.8,97,48,96.7,48c-0.5,0.1-0.9-0.1-1.3-0.5c-0.2-0.3-0.3-0.5-0.4-0.9
		c-0.1-0.3,0-0.7,0.1-1c0.1-0.4,0.3-0.7,0.7-1c0.5-0.3,1.3-0.3,1.7,0.2c0,0,0,0,0,0c0-0.2,0-0.4,0-0.6c0-0.2,0-0.4,0-0.6
		c0-0.2,0-0.4,0-0.6c0,0,0.1,0,0.1,0C97.8,43,98,43,98.2,43.1z M97.5,46.3c0-0.1,0-0.2,0-0.3c0-0.2-0.1-0.4-0.2-0.6
		c-0.2-0.3-0.4-0.4-0.8-0.4c-0.2,0-0.4,0.1-0.6,0.3c-0.1,0.1-0.2,0.3-0.3,0.5c-0.1,0.2-0.1,0.4-0.1,0.7c0,0.2,0.1,0.4,0.2,0.6
		c0.2,0.3,0.6,0.5,1,0.4c0.3-0.1,0.5-0.3,0.6-0.6C97.6,46.6,97.5,46.5,97.5,46.3z"/>
	<path d="M55.4,44.9c0-0.6,0-1.2,0-1.8c0.1-0.1,0.2-0.1,0.2-0.1c0.1,0,0.1,0,0.2,0c0.1,0,0.1,0,0.2,0c0,0.1,0,0.1,0,0.1
		c0,0.1,0,0.1,0,0.2c0,1.2,0,2.4,0,3.5c0,0.3,0,0.6,0,0.9c0,0.1,0,0.1-0.1,0.1c-0.2,0-0.3,0-0.5,0c0-0.1,0-0.3-0.1-0.4
		c0,0-0.1,0.1-0.1,0.1c-0.3,0.3-0.6,0.4-1,0.4c-0.3,0-0.6-0.1-0.8-0.3c-0.4-0.3-0.5-0.6-0.6-1.1c0-0.1,0-0.3,0-0.4
		c0-0.4,0.1-0.8,0.4-1.2c0.3-0.4,0.8-0.6,1.3-0.6C54.9,44.5,55.1,44.7,55.4,44.9z M55.4,46.3c0-0.1,0-0.2,0-0.3
		c0-0.2-0.1-0.4-0.2-0.6c-0.2-0.3-0.6-0.4-0.9-0.4c-0.3,0.1-0.6,0.3-0.7,0.6c-0.1,0.3-0.1,0.6-0.1,1c0,0.1,0.1,0.3,0.1,0.4
		c0.3,0.6,1.2,0.6,1.5,0.1c0.1-0.2,0.2-0.3,0.2-0.5C55.4,46.5,55.4,46.4,55.4,46.3z"/>
	<path d="M114,52.8c0.1,0,0.1,0,0.2,0c0.2,0,0.4,0,0.5,0c0,0,0,0,0.1,0c0.1,0,0.1,0,0.1,0.1c0,0.1,0,0.1,0,0.2c0,0.6,0,1.3,0,1.9
		c0,0.3,0,0.6,0,0.9c0,0.1,0,0.1,0,0.2c0,0,0,0-0.1,0c-0.2,0-0.5,0-0.7,0c-0.1-0.1-0.1-0.1-0.1-0.2c0-0.1,0-0.1,0-0.2
		c-0.1,0-0.1,0.1-0.1,0.1c-0.3,0.4-0.9,0.5-1.4,0.3c-0.2-0.1-0.4-0.3-0.5-0.5c-0.1-0.2-0.2-0.4-0.2-0.6c0-0.7,0-1.4,0-2.1
		c0,0,0,0,0,0c0-0.1,0-0.1,0.1-0.1c0.1,0,0.3,0,0.4,0c0.1,0,0.2,0,0.2,0c0,0,0.1,0,0.1,0c0.1,0.1,0,0.2,0,0.3c0,0.5,0,1,0,1.5
		c0,0.2,0,0.3,0.1,0.5c0.1,0.4,0.6,0.5,0.9,0.3c0.2-0.2,0.3-0.3,0.3-0.6c0-0.6,0-1.1,0-1.7C114,53,114,52.9,114,52.8z"/>
	<path d="M89.1,54.6c0-0.4,0.1-0.8,0.3-1.1c0.2-0.4,0.6-0.6,1-0.7c0.3-0.1,0.7,0,1,0.1c0.4,0.1,0.7,0.4,0.8,0.8
		c0.3,0.6,0.3,1.1,0,1.7c-0.2,0.5-0.6,0.8-1.1,0.9c-0.3,0.1-0.7,0.1-1-0.1c-0.5-0.2-0.8-0.6-1-1.2C89.1,54.8,89.1,54.7,89.1,54.6z
		 M89.8,54.5c0,0,0,0.1,0,0.2c0,0.3,0.1,0.6,0.4,0.9c0.2,0.2,0.7,0.3,0.9,0.1c0.3-0.1,0.4-0.3,0.5-0.6c0.1-0.3,0.1-0.6,0.1-0.9
		c0-0.2-0.1-0.3-0.2-0.5c-0.2-0.3-0.5-0.5-0.8-0.5c-0.3,0-0.6,0.2-0.8,0.5C89.8,53.9,89.8,54.2,89.8,54.5z"/>
	<path d="M125.2,46.2c0,0.2,0,0.4-0.1,0.5c-0.1,0.6-0.5,1-1,1.2c-0.2,0.1-0.4,0.1-0.6,0.1c-0.4,0-0.8-0.1-1.1-0.4
		c-0.3-0.3-0.4-0.6-0.5-1c-0.1-0.4,0-0.8,0.1-1.1c0.2-0.5,0.6-0.8,1.1-0.9c0.4-0.1,0.7-0.1,1.1,0.1c0.3,0.1,0.6,0.3,0.7,0.6
		C125.1,45.6,125.2,45.9,125.2,46.2z M124.5,46.3c0-0.3,0-0.5-0.2-0.8c-0.2-0.4-0.6-0.5-1.1-0.4c-0.3,0.1-0.5,0.3-0.6,0.6
		c-0.1,0.2-0.1,0.4-0.1,0.7c0,0.3,0.1,0.5,0.2,0.8c0.3,0.5,1,0.6,1.4,0.2c0.1-0.1,0.2-0.2,0.2-0.4C124.5,46.7,124.5,46.5,124.5,46.3
		z"/>
	<path d="M60,46.2c0,0.3,0,0.5-0.1,0.7c-0.2,0.6-0.6,0.9-1.2,1c-0.2,0-0.5,0-0.7,0c-0.2,0-0.4-0.1-0.5-0.2c-0.2-0.2-0.4-0.4-0.6-0.7
		c-0.1-0.2-0.1-0.4-0.2-0.6c0-0.4,0-0.7,0.2-1.1c0.2-0.5,0.6-0.7,1.1-0.8c0.4-0.1,0.8,0,1.1,0.1c0.3,0.2,0.5,0.4,0.7,0.7
		C59.9,45.7,60,46,60,46.2z M57.4,46.2c0,0.4,0.1,0.7,0.3,0.9c0.2,0.3,0.7,0.5,1.1,0.2c0.2-0.1,0.3-0.2,0.4-0.4
		c0.2-0.4,0.2-0.8,0.1-1.2c0-0.1-0.1-0.3-0.2-0.4c-0.3-0.4-0.6-0.5-1.1-0.4c-0.2,0.1-0.4,0.3-0.5,0.5C57.4,45.8,57.3,46,57.4,46.2z"
		/>
	<path d="M48.7,46.3c0,0.3,0,0.6-0.2,0.9c-0.2,0.5-0.6,0.7-1.2,0.8c-0.2,0-0.5,0-0.7,0c-0.5-0.1-0.9-0.5-1.1-1
		c-0.2-0.4-0.2-1.2,0.1-1.7c0.2-0.4,0.6-0.7,1.1-0.8c0.3-0.1,0.6,0,0.9,0.1c0.5,0.2,0.8,0.5,0.9,0.9C48.7,45.8,48.7,45.9,48.7,46.3z
		 M46.1,46.3c0,0.2,0,0.4,0.1,0.6c0.1,0.2,0.2,0.4,0.4,0.5c0.2,0.1,0.5,0.2,0.7,0.1c0.2-0.1,0.4-0.2,0.5-0.4
		c0.1-0.2,0.1-0.3,0.2-0.5c0.1-0.4,0-0.7-0.2-1.1c-0.3-0.5-0.9-0.5-1.3-0.3c-0.1,0.1-0.2,0.2-0.3,0.3C46.1,45.7,46.1,46,46.1,46.3z"
		/>
	<path d="M90.9,47.9c0-0.1-0.1-0.2-0.1-0.3c0,0-0.1,0-0.1,0c-0.2,0.2-0.6,0.3-0.9,0.4c-0.2,0-0.4,0-0.6-0.1c-0.4-0.2-0.6-0.7-0.5-1
		c0.1-0.4,0.3-0.6,0.6-0.8c0.2-0.1,0.5-0.2,0.7-0.2c0.2,0,0.4,0,0.6-0.1c0,0,0-0.1,0-0.1c0-0.1,0-0.1,0-0.2
		c-0.1-0.3-0.3-0.4-0.5-0.4c-0.3,0-0.6,0-0.9,0.2c0,0-0.1,0-0.1,0c0,0,0,0,0,0c-0.1-0.1-0.1-0.2-0.1-0.3c0-0.1,0-0.1,0.1-0.1
		c0.1-0.1,0.2-0.1,0.3-0.1c0.2-0.1,0.5-0.1,0.7-0.1c0.2,0,0.3,0,0.5,0.1c0.5,0.1,0.7,0.4,0.8,0.9c0,0.2,0,0.3,0,0.5
		c0,0.4,0,0.7,0,1.1c0,0.3,0,0.5,0,0.8c0,0.1,0,0.1-0.1,0.1C91.2,48,91.1,48,90.9,47.9z M90.8,46.3c-0.4,0-0.7,0-1,0.1
		c-0.1,0-0.1,0.1-0.2,0.1c-0.1,0.1-0.2,0.2-0.2,0.4c0,0.1,0,0.1,0,0.2c0,0.2,0.1,0.3,0.3,0.4c0.5,0.2,1-0.2,1-0.6
		C90.8,46.7,90.8,46.5,90.8,46.3z"/>
	<path d="M74.6,54.6C74.6,54.6,74.6,54.6,74.6,54.6c0,0.7,0.4,1,0.8,1.1c0.4,0,0.7,0,1.1-0.1c0,0,0,0,0.1,0c0,0,0,0,0,0.1
		c0,0.1,0.1,0.2,0.1,0.3c0,0.1,0,0.1-0.1,0.1c0,0-0.1,0-0.1,0c-0.3,0.1-0.6,0.2-1,0.1c-0.3,0-0.5-0.1-0.8-0.2
		c-0.5-0.2-0.7-0.6-0.8-1.1c0-0.1,0-0.3,0-0.5c0-0.4,0.1-0.8,0.3-1.1c0.2-0.3,0.5-0.6,0.9-0.6c0.3-0.1,0.5,0,0.8,0
		c0.3,0.1,0.5,0.3,0.7,0.5c0.2,0.3,0.2,0.6,0.3,0.9c0,0.1,0,0.2,0,0.3c0,0.1,0,0.1-0.1,0.1c-0.1,0-0.1,0-0.2,0c-0.6,0-1.2,0-1.8,0
		C74.7,54.6,74.6,54.6,74.6,54.6z M76.2,54.1c0-0.2,0-0.3-0.1-0.4c-0.2-0.4-0.7-0.6-1.1-0.4c-0.3,0.2-0.4,0.4-0.5,0.8
		c0,0,0.1,0,0.1,0C75.1,54.1,75.6,54.1,76.2,54.1C76.2,54.1,76.2,54.1,76.2,54.1z"/>
	<path d="M101.1,54.6c-0.2,0-0.4,0-0.6,0c-0.2,0-0.4,0-0.6,0c-0.2,0-0.4,0-0.5,0c-0.2,0-0.4,0-0.6,0c0,0.1,0,0.2,0,0.2
		c0.1,0.5,0.4,0.8,0.9,0.8c0.3,0,0.7,0,1-0.1c0.1,0,0.1,0,0.2,0c0,0,0,0.1,0.1,0.1c0,0.1,0,0.1,0,0.2c0,0.1,0,0.1,0,0.2
		c0,0-0.1,0-0.1,0.1c-0.2,0.1-0.4,0.1-0.6,0.1c-0.1,0-0.1,0-0.2,0c-0.3,0-0.6,0-0.9-0.1c-0.5-0.2-0.8-0.6-0.9-1.2
		c-0.1-0.4,0-0.8,0.1-1.2c0.2-0.5,0.5-0.8,1-1c0.3-0.1,0.6-0.1,0.9,0c0.4,0.1,0.6,0.3,0.8,0.6C101.1,53.8,101.2,54.1,101.1,54.6
		C101.2,54.5,101.1,54.5,101.1,54.6z M98.8,54.1C98.9,54.1,98.9,54.1,98.8,54.1c0.6,0,1.1,0,1.6,0c0,0,0,0,0.1,0c0-0.1,0-0.2,0-0.2
		c0-0.1-0.1-0.2-0.1-0.3c0-0.1-0.1-0.2-0.2-0.2c-0.1-0.1-0.3-0.1-0.5-0.1c-0.2,0-0.4,0.1-0.6,0.3C99,53.7,98.9,53.9,98.8,54.1z"/>
	<path d="M130,46.4c0,0.2,0,0.3,0.1,0.5c0.2,0.4,0.5,0.6,0.9,0.6c0.4,0,0.7,0,1-0.1c0,0,0.1,0.1,0.1,0.1c0,0.1,0.1,0.2,0.1,0.3
		c0,0-0.1,0.1-0.1,0.1c-0.3,0.1-0.7,0.2-1,0.1c-0.1,0-0.3,0-0.4,0c-0.6-0.1-1-0.5-1.1-1.1c-0.1-0.5-0.1-1,0.1-1.5
		c0.2-0.4,0.5-0.6,0.9-0.8c0.5-0.2,0.9-0.1,1.3,0.2c0.2,0.1,0.3,0.3,0.4,0.5c0.2,0.3,0.2,0.7,0.2,1c0,0,0,0.1,0,0.1
		c-0.1,0-0.2,0-0.2,0c-0.6,0-1.2,0-1.8,0C130.2,46.4,130.1,46.4,130,46.4z M130,45.9c0.1,0,0.1,0,0.1,0c0.5,0,1,0,1.5,0c0,0,0,0,0,0
		c0,0,0,0,0,0c0-0.5-0.3-0.8-0.6-0.9c-0.3,0-0.6,0-0.8,0.3C130.1,45.4,130.1,45.6,130,45.9z"/>
	<path d="M114.8,47.3c0.1,0.1,0.1,0.3,0.1,0.4c-0.1,0.1-0.3,0.1-0.4,0.2c-0.3,0.1-0.7,0.1-1,0c-0.7-0.1-1.1-0.5-1.3-1.1
		c-0.1-0.5-0.1-1,0.2-1.5c0.2-0.4,0.5-0.6,0.9-0.8c0.5-0.1,0.9-0.1,1.3,0.2c0.2,0.1,0.3,0.3,0.4,0.5c0.2,0.3,0.2,0.7,0.2,1
		c0,0,0,0,0,0.1c0,0,0,0,0,0c-0.1,0-0.2,0-0.2,0c-0.6,0-1.2,0-1.8,0c-0.1,0-0.2,0-0.2,0c0,0.1,0,0.1,0,0.1c0,0.3,0.2,0.6,0.5,0.8
		c0.1,0.1,0.3,0.1,0.5,0.1C114,47.5,114.4,47.5,114.8,47.3C114.7,47.4,114.8,47.4,114.8,47.3z M112.8,45.9
		C112.8,45.9,112.8,45.9,112.8,45.9c0.6,0,1.1,0,1.6,0c0,0,0,0,0.1,0c0,0,0,0,0,0c0.1-0.3-0.2-0.8-0.6-0.9c-0.3,0-0.6,0-0.8,0.3
		C112.9,45.5,112.8,45.7,112.8,45.9z"/>
	<path d="M86.2,46.4c-0.1,0-0.2,0-0.3,0c-0.6,0-1.2,0-1.8,0c-0.1,0-0.1,0-0.2,0c0,0,0,0.1,0,0.1c0,0.6,0.5,1,0.9,1
		c0.3,0,0.7,0,1-0.1c0,0,0,0,0.1,0c0.1,0,0.1,0.1,0.1,0.2c0.1,0.3,0.1,0.3-0.2,0.4C85.6,48,85.4,48,85.2,48c-0.1,0-0.3,0-0.4,0
		c-0.6,0-1-0.3-1.3-0.7c-0.1-0.2-0.2-0.4-0.2-0.6c0-0.4,0-0.7,0.1-1.1c0.2-0.6,0.8-1.1,1.6-1c0.3,0,0.5,0.1,0.7,0.3
		c0.1,0.1,0.2,0.2,0.3,0.3c0.2,0.3,0.3,0.6,0.3,1c0,0,0,0.1,0,0.1C86.3,46.3,86.2,46.3,86.2,46.4z M84,45.9C84,45.9,84,45.9,84,45.9
		c0.6,0,1.1,0,1.6,0c0,0,0,0,0.1,0c0.1-0.1,0-0.2,0-0.3c-0.1-0.4-0.3-0.5-0.7-0.6c-0.2,0-0.4,0.1-0.5,0.2C84.1,45.4,84,45.6,84,45.9
		C83.9,45.8,84,45.9,84,45.9z"/>
	<path d="M126.5,47.9c-0.2,0-0.4,0-0.5,0c-0.1,0-0.1,0-0.1-0.1c0-0.1,0-0.1,0-0.2c0-1,0-1.9,0-2.9c0,0,0-0.1,0-0.1
		c0.2-0.1,0.4,0,0.5,0c0.1,0.1,0,0.3,0.1,0.4c0.1,0,0.1,0,0.1-0.1c0.2-0.2,0.4-0.4,0.7-0.4c0.5-0.1,1.1,0.2,1.3,0.8
		c0.1,0.2,0.1,0.3,0.1,0.5c0,0.7,0,1.3,0,2c0,0,0,0.1,0,0.1c0,0-0.1,0-0.1,0c-0.1,0-0.3,0-0.4,0c-0.1,0-0.1,0-0.1-0.1
		c0-0.1,0-0.1,0-0.2c0-0.6,0-1.1,0-1.7c0-0.2,0-0.3-0.1-0.5c-0.1-0.3-0.4-0.4-0.6-0.4c-0.4,0-0.9,0.4-0.9,0.8c0,0.6,0,1.2,0,1.8
		C126.5,47.8,126.5,47.8,126.5,47.9z"/>
	<path d="M99.5,46.4c0,0.1,0,0.1,0,0.1c0,0.2,0.1,0.3,0.1,0.4c0.2,0.3,0.4,0.5,0.8,0.5c0.4,0,0.7,0,1-0.1c0,0,0,0,0.1,0
		c0.1,0.1,0.1,0.3,0.1,0.4c0,0-0.1,0.1-0.1,0.1c-0.2,0.1-0.4,0.1-0.6,0.1c-0.2,0-0.4,0-0.6,0c-0.6,0-1-0.3-1.3-0.9
		c-0.1-0.2-0.2-0.5-0.2-0.8c0-0.5,0.1-0.9,0.4-1.3c0.2-0.2,0.4-0.3,0.6-0.4c0.3-0.1,0.7-0.2,1.1,0c0.3,0.1,0.5,0.3,0.7,0.6
		c0.2,0.3,0.3,0.7,0.2,1.1c0,0.1,0,0.1-0.1,0.1c-0.1,0-0.1,0-0.2,0c-0.6,0-1.2,0-1.8,0C99.7,46.4,99.6,46.4,99.5,46.4z M101.2,45.9
		c0-0.3,0-0.5-0.2-0.6c-0.1-0.1-0.2-0.2-0.3-0.2c-0.2-0.1-0.4-0.1-0.6,0c-0.1,0-0.2,0.1-0.3,0.2c-0.1,0.2-0.3,0.4-0.3,0.6
		c0,0,0,0,0,0c0.5,0,1,0,1.5,0C101.1,45.9,101.1,45.9,101.2,45.9z"/>
	<path d="M106.1,45c0.2-0.2,0.3-0.4,0.6-0.4c0.4-0.2,0.8-0.1,1.2,0.1c0.2,0.1,0.3,0.3,0.4,0.5c0.1,0.2,0.1,0.5,0.1,0.7
		c0,0.6,0,1.2,0,1.9c0,0.1,0,0.1,0,0.2c0,0-0.1,0-0.1,0c-0.1,0-0.2,0-0.4,0c-0.2,0-0.2,0-0.2-0.2c0-0.1,0-0.1,0-0.2
		c0-0.5,0-1.1,0-1.6c0-0.1,0-0.3,0-0.4c-0.1-0.5-0.7-0.7-1.2-0.4c-0.2,0.2-0.3,0.4-0.3,0.7c0,0.4,0,0.8,0,1.1c0,0.2,0,0.4,0,0.6
		c0,0.1,0,0.1,0,0.2c-0.2,0.1-0.4,0-0.6,0c0-0.1,0-0.1,0-0.1c0-0.1,0-0.1,0-0.2c0-0.9,0-1.7,0-2.6c0-0.1,0-0.3,0-0.4
		c0.2-0.1,0.4,0,0.5,0C106.1,44.7,106.1,44.9,106.1,45z"/>
	<path d="M79.9,47.6C79.9,47.6,79.8,47.6,79.9,47.6c-0.3,0.3-0.5,0.4-0.8,0.4c-0.3,0-0.5,0-0.7-0.1c-0.3-0.2-0.5-0.4-0.5-0.8
		c0-0.3,0-0.5,0.2-0.7c0.1-0.1,0.2-0.2,0.3-0.3c0.3-0.2,0.5-0.2,0.8-0.3c0.2,0,0.4,0,0.6-0.1c0.1-0.1,0-0.2,0-0.3
		c-0.1-0.3-0.3-0.4-0.5-0.4c-0.3,0-0.6,0-0.9,0.2c0,0,0,0-0.1,0c-0.1-0.1-0.1-0.2-0.2-0.4c0,0,0.1-0.1,0.1-0.1
		c0.5-0.2,0.9-0.3,1.4-0.2c0.4,0.1,0.7,0.4,0.8,0.8c0,0.1,0.1,0.3,0.1,0.4c0,0.5,0,0.9,0,1.4c0,0.1,0,0.3,0,0.4c0,0.1,0,0.1,0,0.2
		c0,0.1,0,0.1-0.1,0.1c-0.1,0-0.2,0-0.3,0c-0.1,0-0.1,0-0.2-0.2C79.9,47.7,79.9,47.7,79.9,47.6C79.9,47.6,79.9,47.6,79.9,47.6z
		 M79.8,46.3C79.8,46.3,79.8,46.3,79.8,46.3c-0.3-0.1-0.6,0-0.8,0.1c-0.1,0-0.1,0-0.2,0.1c-0.3,0.2-0.3,0.3-0.3,0.7
		c0,0.2,0.2,0.4,0.4,0.4c0.2,0,0.4,0,0.6-0.2c0.1-0.1,0.3-0.3,0.3-0.5C79.9,46.7,79.9,46.5,79.8,46.3z"/>
	<path d="M50,47.9c-0.2,0-0.4,0-0.5,0c-0.1,0-0.1,0-0.1-0.1c0-0.1,0-0.1,0-0.2c0-0.8,0-1.6,0-2.4c0-0.1,0-0.3,0-0.4c0,0,0-0.1,0-0.1
		c0,0,0,0,0-0.1c0.2,0,0.4,0,0.5,0c0.1,0.1,0,0.3,0.1,0.4c0.1,0,0.1-0.1,0.1-0.1c0.3-0.3,0.9-0.5,1.4-0.2c0.3,0.2,0.5,0.4,0.6,0.8
		c0.1,0.2,0.1,0.4,0.1,0.6c0,0.6,0,1.1,0,1.7c0,0.3,0,0.3-0.3,0.3c-0.1,0-0.3,0-0.4,0c-0.1-0.1,0-0.1,0-0.2c0-0.4,0-0.7,0-1.1
		c0-0.3,0-0.5,0-0.8c0-0.1,0-0.3-0.1-0.4c-0.2-0.4-0.5-0.5-0.8-0.4c-0.4,0.1-0.6,0.4-0.6,0.8c0,0.1,0,0.1,0,0.2c0,0.5,0,1.1,0,1.6
		C50,47.7,50,47.8,50,47.9z"/>
	<path d="M69.7,44.6c0.2,0,0.4,0,0.6,0c0,0.1,0,0.2,0,0.3c0,0.6,0,1.1,0,1.7c0,0.2,0,0.3,0,0.5c0,0.1,0,0.3,0,0.4c0,0.1,0,0.3,0,0.4
		c-0.1,0-0.4,0.1-0.5,0c-0.1,0-0.1-0.1-0.1-0.1c0-0.1,0-0.2,0-0.4c-0.1,0-0.1,0.1-0.1,0.1c-0.3,0.3-0.6,0.4-0.9,0.4
		c-0.2,0-0.5-0.1-0.7-0.2c-0.2-0.1-0.3-0.3-0.4-0.5c-0.1-0.2-0.1-0.5-0.1-0.7c0-0.6,0-1.2,0-1.8c0-0.1,0-0.2,0-0.2
		c0.2,0,0.4,0,0.6,0c0.1,0.1,0,0.1,0,0.2c0,0.5,0,1.1,0,1.6c0,0.1,0,0.2,0,0.3c0,0.1,0.1,0.3,0.1,0.4c0.1,0.2,0.4,0.4,0.6,0.3
		c0.4,0,0.6-0.3,0.7-0.6c0-0.1,0-0.2,0-0.3c0-0.6,0-1.1,0-1.7C69.7,44.8,69.7,44.7,69.7,44.6z"/>
	<path d="M45.1,43.8c-0.2,0-0.4,0-0.6,0c-0.2,0-0.4,0-0.6,0c-0.2,0-0.4,0-0.6,0c0,0,0,0.1,0,0.1c0,0.4,0,0.9,0,1.3c0,0,0,0,0,0.1
		c0.1,0,0.1,0,0.2,0c0.4,0,0.8,0,1.2,0c0.1,0,0.1,0,0.2,0c0.2,0,0.2,0,0.2,0.2c0,0.1,0,0.2,0,0.2c0,0,0,0,0,0.1c-0.1,0-0.2,0-0.2,0
		c-0.4,0-0.8,0-1.3,0c-0.1,0-0.1,0-0.2,0c0,0.1,0,0.1,0,0.2c0,0.5,0,1.1,0,1.6c0,0.1,0,0.2,0,0.2c-0.1,0.1-0.1,0-0.2,0
		c-0.1,0-0.1,0-0.2,0c-0.1,0-0.1,0-0.2,0c0-0.1,0-0.1,0-0.1c0-0.1,0-0.1,0-0.2c0-1.4,0-2.7,0-4.1c0-0.1,0-0.1,0-0.2
		c0-0.1,0-0.2,0.2-0.2c0,0,0.1,0,0.1,0c0.7,0,1.3,0,2,0c0.3,0,0.3,0,0.3,0.3C45.2,43.6,45.2,43.7,45.1,43.8z"/>
	<path d="M129.9,56.1c-0.1,0.1-0.2,0-0.3,0c-0.2,0-0.3,0-0.5,0c-0.1,0-0.1,0-0.1-0.1c0,0,0-0.1,0-0.1c0-1.4,0-2.7,0-4.1
		c0-0.1,0-0.2,0-0.2c0.1,0,0.2,0,0.3,0c0.1,0,0.2,0,0.3,0c0.1,0,0.2,0,0.3,0c0,0,0,0.1,0,0.1c0,0,0,0.1,0,0.1c0,1.4,0,2.7,0,4.1
		C130,56,130,56,129.9,56.1z"/>
	<path d="M111.3,44.6c0.2,0,0.4,0,0.5,0c0,0,0.1,0,0.1,0c0,0.1,0,0.2-0.1,0.3c-0.1,0.2-0.2,0.4-0.3,0.6c-0.3,0.7-0.6,1.4-0.8,2.1
		c0,0,0,0.1,0,0.1c-0.1,0.2-0.1,0.2-0.3,0.2c-0.1,0-0.3,0-0.4,0c-0.1-0.2-1.1-2.8-1.3-3.2c0,0,0,0,0-0.1c0.2,0,0.5,0,0.7,0
		c0.1,0.2,0.5,1.4,0.9,2.6c0,0,0,0,0,0c0.2-0.6,0.4-1.1,0.6-1.7c0.1-0.2,0.1-0.4,0.2-0.6C111.2,44.7,111.2,44.7,111.3,44.6z"/>
	<path d="M111.4,53.5c-0.1,0-0.2,0-0.3,0c-0.4,0-0.7,0.3-0.7,0.7c0,0.1,0,0.2,0,0.3c0,0.5,0,0.9,0,1.4c0,0,0,0.1,0,0.1
		c0,0.2,0,0.2-0.2,0.2c-0.2,0-0.4,0-0.7,0c0-0.1,0-0.1,0-0.1c0-0.1,0-0.1,0-0.2c0-0.7,0-1.4,0-2.1c0-0.3,0-0.6,0-0.8
		c0-0.1,0-0.1,0.1-0.1c0.2,0,0.4,0,0.6,0c0.1,0,0.1,0,0.1,0.1c0,0.1,0,0.2,0,0.4c0.1-0.1,0.1-0.2,0.2-0.2c0.2-0.3,0.5-0.4,0.9-0.4
		c0.1,0,0.1,0,0.1,0.1C111.4,53,111.4,53.3,111.4,53.5z"/>
	<path d="M82.2,45.1c0,0.1,0,0.2,0,0.2c0,0.5,0,1,0,1.5c0,0.1,0,0.2,0,0.3c0,0.2,0.2,0.4,0.4,0.4c0.1,0,0.2,0,0.3,0
		c0,0,0.1,0,0.1,0.1c0,0.1,0,0.2,0,0.3c0,0.1,0,0.1-0.1,0.1c-0.3,0.1-0.6,0.1-0.9,0c-0.3-0.1-0.5-0.4-0.5-0.8c0-0.3,0-0.6,0-0.9
		c0-0.3,0-0.6,0-0.9c0-0.1,0-0.2,0-0.2c-0.1,0-0.1,0-0.2,0c-0.1,0-0.2,0-0.2,0c0,0-0.1,0-0.1-0.1c0-0.1,0-0.3,0-0.4
		c0.1,0,0.3,0,0.4,0c0,0,0-0.1,0-0.1c0-0.2,0-0.3,0-0.5c0-0.1,0-0.2,0.2-0.2c0.1,0,0.3-0.1,0.4-0.1c0.1,0,0.1,0.1,0.1,0.2
		c0,0.2,0,0.4,0,0.5c0,0.1,0,0.2,0,0.2c0.1,0,0.1,0,0.1,0c0.2,0,0.3,0,0.5,0c0.1,0,0.1,0,0.2,0c0,0.2,0,0.3,0,0.5c0,0-0.1,0-0.1,0
		c-0.2,0-0.3,0-0.5,0C82.3,45.1,82.2,45.1,82.2,45.1z"/>
	<path d="M72.9,45.1c-0.2-0.1-0.3,0-0.5-0.1c0-0.1,0-0.3,0-0.5c0.1,0,0.1,0,0.2,0c0.1,0,0.2,0,0.3,0c0-0.3,0-0.5,0-0.8
		c0.2-0.1,0.4-0.1,0.6-0.2c0,0,0,0.1,0,0.1c0,0.2,0,0.4,0,0.6c0,0.1,0,0.1,0,0.2c0.1,0,0.1,0,0.1,0c0.2,0,0.4,0,0.5,0
		c0.1,0,0.1,0,0.2,0c0,0.1,0,0.3,0,0.4c0,0.1,0,0.1-0.1,0.1c-0.1,0-0.1,0-0.2,0c-0.1,0-0.3,0-0.4,0c0,0-0.1,0-0.1,0
		c0,0.1,0,0.1,0,0.2c0,0.5,0,1.1,0,1.6c0,0.1,0,0.2,0,0.3c0.1,0.2,0.2,0.3,0.4,0.3c0.1,0,0.2,0,0.2,0c0.1,0,0.2,0,0.2,0.1
		c0,0.1,0,0.2,0,0.3C74.3,48,74.2,48,74.1,48c-0.1,0-0.2,0-0.4,0c-0.4,0-0.7-0.3-0.8-0.6c0-0.1-0.1-0.3-0.1-0.4c0-0.5,0-1.1,0-1.6
		C72.9,45.3,72.9,45.2,72.9,45.1z"/>
	<path d="M134.9,44.7c-0.1,0.2-0.1,0.3-0.2,0.5c-0.1,0-0.1,0-0.2-0.1c-0.2-0.1-0.4-0.1-0.6-0.1c-0.1,0-0.2,0-0.2,0.1
		c-0.3,0.1-0.3,0.5-0.1,0.6c0.1,0.1,0.2,0.1,0.3,0.2c0.1,0,0.2,0.1,0.3,0.1c0.2,0.1,0.4,0.2,0.5,0.3c0.2,0.2,0.3,0.5,0.2,0.7
		c-0.1,0.5-0.3,0.7-0.8,0.8c-0.1,0-0.3,0.1-0.4,0.1c-0.2,0-0.4,0-0.7-0.1c-0.1,0-0.3-0.1-0.4-0.2c0-0.2,0.1-0.3,0.2-0.5
		c0.1,0,0.1,0,0.2,0.1c0.1,0.1,0.3,0.1,0.4,0.1c0.2,0,0.3,0,0.5,0c0.2-0.1,0.3-0.2,0.3-0.4c0-0.2,0-0.3-0.2-0.4c0,0-0.1-0.1-0.2-0.1
		c-0.1-0.1-0.3-0.1-0.4-0.2c-0.2-0.1-0.3-0.2-0.5-0.3c-0.3-0.3-0.3-0.8-0.1-1.1c0.1-0.1,0.2-0.2,0.3-0.3
		C133.7,44.4,134.3,44.4,134.9,44.7z"/>
	<path d="M119.8,44.7c0,0.2-0.1,0.3-0.2,0.4c-0.1,0-0.1,0-0.1-0.1c-0.2-0.1-0.4-0.1-0.6-0.1c-0.1,0-0.2,0-0.3,0.1
		c-0.2,0.2-0.2,0.6,0,0.7c0.1,0.1,0.2,0.1,0.3,0.1c0.2,0.1,0.4,0.2,0.6,0.3c0.1,0.1,0.2,0.2,0.3,0.3c0.3,0.4,0.2,1.1-0.5,1.4
		c-0.2,0.1-0.4,0.1-0.6,0.1c-0.3,0-0.5,0-0.7-0.1c-0.1,0-0.2-0.1-0.3-0.1c0-0.2,0.1-0.3,0.2-0.5c0.1,0,0.1,0,0.1,0
		c0.2,0.1,0.3,0.1,0.5,0.2c0.2,0,0.3,0,0.5,0c0.1-0.1,0.3-0.1,0.3-0.3c0-0.2,0-0.4-0.2-0.5c-0.1-0.1-0.2-0.1-0.3-0.1
		c-0.2-0.1-0.3-0.1-0.5-0.2c-0.2-0.1-0.3-0.2-0.4-0.4c-0.2-0.3-0.1-0.8,0.1-1c0.2-0.2,0.5-0.4,0.8-0.4
		C119.1,44.5,119.5,44.6,119.8,44.7z"/>
	<path d="M76.6,47.9c0,0,0-0.1,0-0.1c0-1.6,0-3.1,0-4.7c0,0,0,0,0-0.1c0,0,0.1,0,0.1,0c0.1,0,0.3,0,0.4,0c0.1,0,0.1,0,0.1,0.1
		c0,0.1,0,0.1,0,0.2c0,1.5,0,2.9,0,4.4c0,0.2,0,0.3-0.3,0.3C76.9,47.9,76.7,48,76.6,47.9z"/>
	<path d="M104.5,48c-0.1,0-0.3,0-0.5,0c0,0-0.1,0-0.1,0c0,0,0-0.1,0-0.1c0-0.1,0-0.1,0-0.2c0-1.3,0-2.7,0-4c0-0.1,0-0.2,0-0.2
		c0-0.1,0-0.1,0.1-0.1c0.2,0,0.3,0,0.5,0c0.1,0,0.1,0,0.1,0.1c0,0.1,0,0.1,0,0.2c0,1.4,0,2.8,0,4.1C104.6,47.8,104.6,47.9,104.5,48z
		"/>
	<path d="M101.9,51.3c0.2,0,0.4,0,0.6,0c0,0,0,0.1,0,0.1c0,0.1,0,0.1,0,0.2c0,1.4,0,2.9,0,4.3c0,0.1,0,0.2,0,0.3c-0.2,0-0.4,0-0.6,0
		c0-0.1,0-0.1,0-0.1c0-0.1,0-0.1,0-0.2c0-1.4,0-2.9,0-4.3C101.9,51.5,101.8,51.4,101.9,51.3z"/>
	<path d="M92.3,43c0.2,0,0.4,0,0.6,0c0,0.1,0,0.1,0,0.1c0,0,0,0,0,0.1c0,1.5,0,3,0,4.5c0,0.1,0,0.1,0,0.2c-0.1,0.1-0.2,0-0.3,0
		c-0.1,0-0.2,0-0.3,0c0,0,0-0.1,0-0.1c0-0.1,0-0.1,0-0.2c0-1.4,0-2.9,0-4.3C92.3,43.3,92.3,43.2,92.3,43z"/>
	<path d="M71.9,47.9c-0.2,0-0.4,0-0.6,0c0,0,0-0.1,0-0.1c0-0.1,0-0.1,0-0.2c0-1.4,0-2.9,0-4.3c0-0.1,0-0.2,0-0.3
		c0.1-0.1,0.1-0.1,0.2-0.1c0.1,0,0.1,0,0.2,0c0.1,0,0.1,0,0.2,0c0,0.1,0,0.1,0,0.1c0,0.1,0,0.1,0,0.2c0,1.4,0,2.9,0,4.3
		C71.9,47.7,71.9,47.8,71.9,47.9z"/>
	<path d="M87.8,56.1c-0.2,0-0.4,0-0.6,0c0,0,0-0.1,0-0.1c0-0.2,0-0.4,0-0.5c0-0.7,0-1.3,0-2c0-0.2,0-0.4,0-0.6c0-0.1,0-0.1,0.1-0.1
		c0.2,0,0.3,0,0.5,0c0.1,0.2,0,0.3,0.1,0.5c0.1,0,0.1,0,0.1-0.1c0.2-0.3,0.4-0.5,0.8-0.5c0,0,0.1,0,0.1,0c0.1,0,0.1,0.1,0.1,0.1
		c0,0.1,0,0.3,0,0.4c0,0,0,0.1,0,0.1c-0.1,0-0.1,0-0.2,0c-0.3,0-0.6,0.2-0.7,0.5c-0.1,0.2-0.1,0.3-0.1,0.5c0,0.5,0,1,0,1.5
		C87.8,55.9,87.8,56,87.8,56.1z"/>
	<path d="M88.6,45.1c-0.1,0-0.2,0-0.3,0c-0.4,0.1-0.6,0.3-0.7,0.6c0,0.1-0.1,0.3-0.1,0.4c0,0.5,0,1,0,1.5c0,0.1,0,0.2,0,0.2
		c0,0,0,0,0,0c-0.2,0-0.4,0-0.6,0c-0.1-0.1-0.1-0.1-0.1-0.2c0-0.3,0-0.7,0-1c0-0.5,0-1,0-1.4c0-0.2,0-0.3,0-0.5c0-0.1,0-0.1,0-0.2
		c0,0,0,0,0-0.1c0.2,0,0.4,0,0.5,0c0.1,0.2,0,0.3,0,0.5c0.1-0.1,0.1-0.2,0.2-0.3c0,0,0.1-0.1,0.1-0.1c0.2-0.2,0.4-0.2,0.6-0.2
		c0.1,0,0.2,0,0.2,0.1c0,0.1,0,0.2,0,0.4C88.6,45.1,88.6,45.1,88.6,45.1z"/>
	<path d="M117.4,45.1C117.4,45.1,117.4,45.1,117.4,45.1c-0.5,0-0.8,0.1-0.9,0.5c-0.1,0.2-0.1,0.4-0.1,0.6c0,0.5,0,1,0,1.5
		c0,0.1,0,0.2,0,0.2c-0.2,0.1-0.4,0-0.6,0c0-0.1,0-0.1,0-0.1c0-0.1,0-0.1,0-0.2c0-0.8,0-1.7,0-2.5c0-0.2,0-0.3,0-0.5
		c0.2-0.1,0.4,0,0.5,0c0,0,0,0.1,0,0.1c0,0.1,0,0.2,0,0.4c0.1,0,0.1-0.1,0.1-0.1c0.2-0.2,0.4-0.4,0.6-0.5c0,0,0.1,0,0.1,0
		c0.3,0,0.3,0,0.3,0.3c0,0.1,0,0.2,0,0.3C117.4,45.1,117.4,45.1,117.4,45.1z"/>
	<path d="M75,44.6c0.2,0,0.4,0,0.6,0c0.1,0.1,0,0.2,0.1,0.2c0,0.4,0,0.8,0,1.2c0,0.5,0,1.1,0,1.6c0,0.1,0,0.1,0,0.2
		c0,0,0,0.1-0.1,0.1c-0.2,0-0.3,0-0.5,0c-0.1,0-0.1,0-0.1-0.1c0-0.1,0-0.1,0-0.2c0-1,0-1.9,0-2.9C75,44.8,75,44.7,75,44.6z"/>
	<path d="M121.2,44.6C121.2,44.7,121.3,44.7,121.2,44.6c0,1.1,0,2.2,0,3.2c0,0,0,0,0,0.1c-0.2,0.1-0.4,0-0.6,0c-0.1-0.1,0-0.2,0-0.3
		c0-0.5,0-1.1,0-1.6c0-0.4,0-0.8,0-1.2c0-0.1,0-0.2,0-0.2C120.7,44.6,120.9,44.6,121.2,44.6z"/>
	<path d="M72.6,56.1C72.6,56.1,72.6,56.1,72.6,56.1c0-1.1,0-2.2,0-3.2c0,0,0-0.1,0-0.1c0,0,0.1,0,0.1,0c0.1,0,0.3,0,0.4,0
		c0.1,0,0.1,0,0.1,0.1c0,0.1,0,0.1,0,0.2c0,1,0,1.9,0,2.9c0,0,0,0,0,0c0,0.2,0,0.2-0.2,0.2C72.9,56.2,72.7,56.2,72.6,56.1z"/>
	<path d="M120.9,44.1c-0.2,0-0.4-0.1-0.4-0.4c0-0.2,0.2-0.4,0.4-0.4c0.2,0,0.4,0.2,0.4,0.4C121.3,43.9,121.2,44.1,120.9,44.1z"/>
	<path d="M75.3,44.1c-0.2,0-0.4-0.2-0.4-0.4c0-0.2,0.2-0.4,0.4-0.4c0.2,0,0.4,0.2,0.4,0.4C75.7,43.9,75.6,44.1,75.3,44.1z"/>
	<path d="M73.3,51.9c0,0.2-0.1,0.4-0.4,0.4c-0.2,0-0.4-0.2-0.4-0.4c0-0.2,0.2-0.4,0.4-0.4C73.1,51.5,73.3,51.7,73.3,51.9z"/>
</g>
</svg>
