<?xml version="1.0" encoding="utf-8"?>
<!-- Generator: Adobe Illustrator 22.0.1, SVG Export Plug-In . SVG Version: 6.00 Build 0)  -->
<svg version="1.1" id="Layer_1" xmlns="http://www.w3.org/2000/svg" xmlns:xlink="http://www.w3.org/1999/xlink" x="0px" y="0px"
	 viewBox="0 0 177.5 57.3" style="enable-background:new 0 0 177.5 57.3;" xml:space="preserve">
<style type="text/css">
	.st0{opacity:0.19;fill:#010101;}
	.st1{fill:#010101;}
	.st2{fill:#4D4D4D;}
	.st3{fill:#1D1C1A;}
	.st4{fill-rule:evenodd;clip-rule:evenodd;fill:#010101;}
</style>
<g>
	<path d="M165.9,34.8c-9.3-2.5-18.7-4.7-28.4-6c0.8-3.8,2-7.4,3.4-11c1.5-3.6,3.3-6.9,5.6-10c0-0.1-0.1-0.2-0.1-0.2
		c-1,0.2-1.9,0.3-2.9,0.5c-6.1,1.4-11.3,4.6-16,8.6c-3,2.6-5.6,5.5-8,8.6c-0.4,0.5-0.7,0.6-1.3,0.5c-4.7-0.8-9.5-1.6-14.2-2.2
		c-5-0.6-10-0.9-15.1-1.2c-4.3-0.2-8.6-0.3-12.8-0.2c-5.3,0.1-10.7,0.3-16,0.8c-16,1.4-31.7,4.5-46.9,9.7c-0.5,0.2-1,0.4-1.6,0.4
		c0.2-0.1,0.5-0.3,0.7-0.4c7.4-4.1,15.2-7.1,23.3-9.3c5.3-1.4,10.7-2.6,16.2-3.6c4.1-0.8,8.2-1.2,12.4-1.6c4.5-0.4,9-0.7,13.6-0.7
		c5.8,0,11.6,0.1,17.4,0.4c7.2,0.4,14.4,1.4,21.5,2.6c0.6,0.1,0.9-0.1,1.3-0.5c4.4-4.9,9.3-9.2,15.1-12.4c3.9-2.2,8.1-3.7,12.6-4.1
		c2.6-0.2,5.3-0.2,8,0.6c-5,6.5-8.5,13.6-11,21.5C150.6,28.1,158.4,31.1,165.9,34.8z"/>
	<path d="M47.1,45.5c0.6-1.3,1.1-2.4,1.6-3.5c1.1-2.5,2.3-4.9,3.3-7.4c0.4-0.9,0.8-1.3,1.7-1.1c0.2,0,0.4,0,0.7,0
		c1.5,6.7,3,13.4,4.5,20.2c-1.5,0-2.9,0-4.2,0c-0.2,0-0.4-0.3-0.5-0.5c-0.6-3.2-1.3-6.5-1.9-9.7c-0.1-0.3-0.1-0.6-0.2-1.1
		c-0.2,0.4-0.3,0.6-0.4,0.8c-1.1,2.6-2.2,5.2-3.3,7.8c-0.3,0.8-0.7,1.2-1.6,1.1c-0.3,0-0.6,0-0.9,0c-1.2-3-2.5-6.1-3.7-9.1
		c-0.1,0-0.1,0-0.2,0c-0.2,1.2-0.5,2.3-0.7,3.5c-0.5,2.2-0.9,4.4-1.4,6.6c0,0.2-0.3,0.5-0.5,0.5c-1.3,0-2.5,0-3.9,0
		c1.5-6.8,3-13.5,4.5-20.2c0.3,0,0.7,0,1.1,0c0.5-0.1,0.8,0.2,1,0.6c1.5,3.5,3.1,6.9,4.7,10.4C46.7,44.8,46.9,45.1,47.1,45.5z"/>
	<path d="M89.6,34.9c1.3-0.5,2.7-1,4.1-1.5c1.8,4.1,3.5,8.2,5.3,12.5c1.8-4.3,3.5-8.3,5.2-12.5c1.3,0.5,2.6,1,4,1.5
		c-0.3,0.8-0.7,1.6-1,2.3c-2.3,5.3-4.7,10.6-7,15.9c-0.4,0.8-0.9,0.7-1.5,0.7c-0.6,0.1-0.9-0.2-1.1-0.8c-2.6-6-5.2-11.9-7.9-17.9
		C89.7,35.2,89.7,35.1,89.6,34.9z"/>
	<path d="M79.7,47.8c0,2,0,3.9,0,6c-1,0-1.9,0-2.9,0c-0.1,0-0.3-0.5-0.3-0.8c0-3.7,0-7.4,0-11.1c0-0.8,0-1.6,0-2.5
		c2.4,0.1,4.8,0,7.1,0.3c1.6,0.2,2.7,1.3,3,3c0.2,1.5,0,2.9-1.4,3.9c-0.3,0.2-0.5,0.3-0.9,0.5c1.4,2.2,2.9,4.4,4.4,6.7
		c-1.2,0-2.3,0-3.4,0c-0.2,0-0.4-0.3-0.5-0.5c-1-1.6-2.1-3.1-3-4.7C81.2,47.7,80.6,47.5,79.7,47.8z M79.7,46.1
		c1.9,0.3,2.8,0,3.3-0.9c0.4-0.8,0.4-2.1-0.2-2.7c-0.9-0.9-2-0.7-3.1-0.7C79.7,43.3,79.7,44.7,79.7,46.1z"/>
	<path d="M74.5,53.8c-1.1,0-2.2,0-3.2,0c-0.2,0-0.5-0.4-0.6-0.7c-0.3-1.4-1.1-1.9-2.5-1.7c-0.9,0.1-1.8,0-2.8,0
		c-0.5,0-0.7,0.2-0.9,0.6c-0.7,1.8-0.8,1.8-2.7,1.8c-0.4,0-0.7,0-1.2,0c0.5-1.1,0.9-2.1,1.4-3.1c1.6-3.6,3.2-7.1,4.8-10.7
		c0.1-0.3,0.5-0.5,0.8-0.5c0.2,0,0.6,0.2,0.7,0.5c2.1,4.5,4.1,9,6.1,13.4C74.4,53.4,74.4,53.6,74.5,53.8z M69.3,50
		c-0.7-1.6-1.3-3.1-2.1-4.9c-0.7,1.8-1.4,3.3-2,4.9C66.7,50,67.9,50,69.3,50z"/>
	<path d="M128.2,53.8c0.8-1.8,1.5-3.4,2.2-5c1.3-3,2.7-5.9,4-8.9c0.1-0.2,0.5-0.5,0.7-0.5c0.2,0,0.6,0.2,0.8,0.4
		c2.1,4.5,4.1,9,6.2,13.5c0,0.1,0.1,0.2,0.1,0.4c-1.1,0-2.2,0-3.2,0c-0.2,0-0.5-0.3-0.5-0.5c-0.4-1.6-1.4-2-2.9-1.8
		c-0.8,0.1-1.7,0-2.5,0c-0.5,0-0.8,0.1-0.8,0.6c-0.3,1.6-1.2,2.1-2.8,1.8C129.1,53.7,128.7,53.8,128.2,53.8z M137,50
		c-0.7-1.6-1.3-3.2-2.1-4.9c-0.7,1.7-1.4,3.3-2,4.9C134.3,50,135.6,50,137,50z"/>
	<path d="M115.9,40.4c0.9-0.3,1.7-0.6,2.6-0.9c0.2,0,0.6,0.2,0.7,0.4c1.1,2.4,2.2,4.8,3.3,7.3c0.1,0.3,0.2,0.5,0.4,0.9
		c1.3-3,2.6-5.8,3.9-8.8c1,0.3,1.9,0.7,2.9,1c-0.8,1.7-1.5,3.3-2.3,4.9c-1.2,2.6-2.4,5.2-3.5,7.8c-0.3,0.6-0.6,0.7-1.2,0.7
		c-0.6,0-0.8-0.3-1-0.7C119.7,48.9,117.8,44.7,115.9,40.4z"/>
	<path d="M109.6,39.3c1.2,0,2.2,0,3.4,0c0,4.8,0,9.6,0,14.5c-1.1,0-2.2,0-3.4,0C109.6,49,109.6,44.2,109.6,39.3z"/>
</g>
</svg>
