<?xml version="1.0" encoding="utf-8"?>
<!-- Generator: Adobe Illustrator 22.0.1, SVG Export Plug-In . SVG Version: 6.00 Build 0)  -->
<svg version="1.1" id="Layer_1" xmlns="http://www.w3.org/2000/svg" xmlns:xlink="http://www.w3.org/1999/xlink" x="0px" y="0px"
	 viewBox="0 0 177.5 57.3" style="enable-background:new 0 0 177.5 57.3;" xml:space="preserve">
<style type="text/css">
	.st0{opacity:0.19;fill:#010101;}
	.st1{fill:#010101;}
	.st2{fill:#4D4D4D;}
	.st3{fill:#1D1C1A;}
	.st4{fill-rule:evenodd;clip-rule:evenodd;fill:#010101;}
</style>
<g>
	<path d="M25.9,35.5c-0.2-0.2-0.3-0.4-0.5-0.7l-7.9-18.2c0-0.1,0-0.2,0-0.3c0-0.3,0.1-0.5,0.3-0.7c0.2-0.2,0.4-0.3,0.7-0.3h5
		c0.4,0,0.7,0.1,0.9,0.3c0.2,0.2,0.3,0.4,0.4,0.6l4.3,10.2l4.3-10.2c0.1-0.2,0.2-0.4,0.4-0.6c0.2-0.2,0.5-0.3,0.9-0.3h5
		c0.3,0,0.5,0.1,0.7,0.3c0.2,0.2,0.3,0.4,0.3,0.7c0,0.1,0,0.2,0,0.3l-7.9,18.2c-0.1,0.2-0.3,0.5-0.5,0.7c-0.2,0.2-0.5,0.3-0.8,0.3
		h-4.6C26.4,35.8,26.1,35.7,25.9,35.5"/>
	<path d="M50.7,12.2c0,0.3-0.1,0.5-0.3,0.7c-0.2,0.2-0.5,0.3-0.7,0.3h-4.9c-0.3,0-0.5-0.1-0.7-0.3c-0.2-0.2-0.3-0.5-0.3-0.7v-4
		c0-0.3,0.1-0.5,0.3-0.7c0.2-0.2,0.5-0.3,0.7-0.3h4.9c0.3,0,0.5,0.1,0.7,0.3c0.2,0.2,0.3,0.5,0.3,0.7V12.2z M50.7,34.8
		c0,0.3-0.1,0.5-0.3,0.7c-0.2,0.2-0.5,0.3-0.7,0.3h-4.9c-0.3,0-0.5-0.1-0.7-0.3c-0.2-0.2-0.3-0.5-0.3-0.7V16.5
		c0-0.3,0.1-0.5,0.3-0.7c0.2-0.2,0.5-0.3,0.7-0.3h4.9c0.3,0,0.5,0.1,0.7,0.3c0.2,0.2,0.3,0.5,0.3,0.7V34.8z"/>
	<path d="M67.5,15.1c1.2,0,2.3,0.2,3.3,0.5c1,0.4,2,0.9,2.7,1.7c0.8,0.7,1.4,1.7,1.9,2.8c0.5,1.1,0.8,2.5,0.8,4c0,0.4,0,0.9,0,1.6
		c0,0.7,0,1.2,0,1.6c-0.1,1.5-0.3,2.9-0.8,4c-0.5,1.1-1.1,2.1-1.9,2.8c-0.8,0.7-1.7,1.3-2.7,1.6c-1,0.4-2.2,0.5-3.3,0.5
		c-0.9,0-1.6-0.1-2.2-0.2c-0.6-0.1-1.1-0.3-1.5-0.5c-0.4-0.2-0.7-0.5-1-0.7c-0.3-0.3-0.5-0.6-0.8-0.8v0.9c0,0.3-0.1,0.5-0.3,0.7
		c-0.2,0.2-0.5,0.3-0.7,0.3h-4.7c-0.3,0-0.5-0.1-0.7-0.3c-0.2-0.2-0.3-0.5-0.3-0.7V9c0-0.3,0.1-0.5,0.3-0.7C55.7,8.1,56,8,56.3,8
		h4.9c0.3,0,0.5,0.1,0.7,0.3c0.2,0.2,0.3,0.5,0.3,0.7v8.4c0.2-0.2,0.4-0.5,0.7-0.8c0.3-0.3,0.6-0.5,1.1-0.8c0.4-0.2,0.9-0.4,1.5-0.6
		C66.1,15.1,66.8,15.1,67.5,15.1 M69.3,24.5c-0.1-0.9-0.4-1.7-0.9-2.4c-0.5-0.7-1.4-1-2.6-1c-0.6,0-1.1,0.1-1.5,0.3
		c-0.4,0.2-0.8,0.4-1,0.7c-0.3,0.3-0.5,0.6-0.6,1c-0.2,0.4-0.3,0.7-0.3,1.1c-0.1,0.4-0.1,0.9-0.1,1.4c0,0.5,0,1,0.1,1.4
		c0.1,0.4,0.2,0.8,0.3,1.1c0.2,0.4,0.4,0.7,0.6,1c0.3,0.3,0.6,0.5,1,0.7c0.4,0.2,0.9,0.3,1.5,0.3c1.2,0,2.1-0.3,2.6-1
		c0.5-0.7,0.8-1.5,0.9-2.4C69.4,26,69.4,25.3,69.3,24.5"/>
	<path d="M94.3,15.4c0.3,0,0.5,0.1,0.7,0.3c0.2,0.2,0.3,0.5,0.3,0.7v4c0,0.3-0.1,0.5-0.3,0.7c-0.2,0.2-0.5,0.3-0.7,0.3h-3.6
		c-2.4,0-3.6,1.2-3.6,3.6v9.7c0,0.3-0.1,0.5-0.3,0.7c-0.2,0.2-0.5,0.3-0.7,0.3h-4.9c-0.3,0-0.5-0.1-0.7-0.3
		c-0.2-0.2-0.3-0.5-0.3-0.7V16.5c0-0.3,0.1-0.5,0.3-0.7c0.2-0.2,0.5-0.3,0.7-0.3h4.6c0.3,0,0.5,0.1,0.7,0.3c0.2,0.2,0.3,0.5,0.3,0.7
		v0.9c0.6-0.6,1.3-1,2.2-1.4c0.8-0.4,1.9-0.5,3-0.5H94.3z"/>
	<path d="M96.5,30c0-1.7,0.7-3.2,2-4.3c1.3-1.1,3.5-1.9,6.5-2.5l4.6-0.8c0-0.6-0.2-1.1-0.5-1.5c-0.3-0.4-0.9-0.6-1.8-0.6
		c-0.6,0-1.1,0.1-1.4,0.3c-0.3,0.2-0.6,0.3-0.7,0.5c-0.2,0.2-0.5,0.3-0.7,0.4c-0.2,0.1-0.5,0.1-0.7,0.1h-5c-0.3,0-0.5-0.1-0.6-0.2
		c-0.2-0.2-0.2-0.4-0.2-0.6c0.1-0.6,0.3-1.2,0.8-1.9c0.5-0.7,1.1-1.3,1.9-1.8c0.8-0.5,1.8-1,2.9-1.4c1.1-0.4,2.4-0.5,3.7-0.5
		c1.6,0,3,0.2,4.2,0.6c1.2,0.4,2.2,0.9,2.9,1.6c0.8,0.7,1.3,1.5,1.7,2.5c0.4,1,0.5,2,0.5,3.2v11.9c0,0.3-0.1,0.5-0.3,0.7
		c-0.2,0.2-0.5,0.3-0.7,0.3h-4.9c-0.3,0-0.5-0.1-0.7-0.3c-0.2-0.2-0.3-0.5-0.3-0.7v-1.1c-0.6,0.8-1.4,1.4-2.3,1.9
		c-0.9,0.5-2.2,0.7-3.7,0.7c-1.1,0-2.1-0.2-3-0.5c-0.9-0.3-1.6-0.7-2.2-1.3c-0.6-0.5-1-1.2-1.4-2C96.6,31.8,96.5,30.9,96.5,30
		 M105.4,30.9c0.6,0,1.1-0.1,1.6-0.3c0.5-0.2,0.9-0.5,1.3-0.8c0.4-0.3,0.7-0.7,0.9-1.2c0.2-0.5,0.3-0.9,0.3-1.5l-3.6,0.5
		c-0.7,0.1-1.3,0.4-1.7,0.7c-0.4,0.3-0.6,0.7-0.6,1.2c0,0.5,0.2,0.8,0.5,1C104.3,30.8,104.8,30.9,105.4,30.9"/>
	<path d="M130.3,27.9c0,0.6,0.1,1.1,0.4,1.4c0.3,0.3,0.7,0.5,1.3,0.5h3.1c0.3,0,0.5,0.1,0.7,0.3c0.2,0.2,0.3,0.5,0.3,0.7v4
		c0,0.3-0.1,0.5-0.3,0.7c-0.2,0.2-0.5,0.3-0.7,0.3h-3.7c-1.2,0-2.3-0.2-3.4-0.5c-1-0.4-1.9-0.9-2.6-1.5c-0.7-0.7-1.3-1.5-1.6-2.4
		c-0.4-1-0.6-2-0.6-3.2v-6.6h-2.9c-0.3,0-0.5-0.1-0.7-0.3c-0.2-0.2-0.3-0.5-0.3-0.7v-4c0-0.3,0.1-0.5,0.3-0.7
		c0.2-0.2,0.5-0.3,0.7-0.3h2.9V9c0-0.3,0.1-0.5,0.3-0.7c0.2-0.2,0.5-0.3,0.7-0.3h4.9c0.3,0,0.5,0.1,0.7,0.3c0.2,0.2,0.3,0.5,0.3,0.7
		v6.4h4.4c0.3,0,0.5,0.1,0.7,0.3c0.2,0.2,0.3,0.5,0.3,0.7v4c0,0.3-0.1,0.5-0.3,0.7c-0.2,0.2-0.5,0.3-0.7,0.3h-4.4V27.9z"/>
	<path d="M160,24.2c0,0.4,0,0.9,0,1.5c0,0.6,0,1.1,0,1.5c-0.1,1.3-0.3,2.4-0.9,3.5c-0.5,1.1-1.2,2.1-2.2,2.9c-0.9,0.8-2,1.5-3.3,1.9
		c-1.3,0.5-2.7,0.7-4.3,0.7s-3-0.2-4.3-0.7c-1.3-0.5-2.4-1.1-3.3-1.9c-0.9-0.8-1.6-1.8-2.2-2.9c-0.5-1.1-0.8-2.3-0.9-3.5
		c0-0.4,0-0.9,0-1.5c0-0.6,0-1.1,0-1.5c0-1.3,0.3-2.4,0.8-3.5c0.5-1.1,1.2-2.1,2.2-2.9c0.9-0.8,2-1.5,3.3-2c1.3-0.5,2.7-0.7,4.3-0.7
		s3,0.2,4.3,0.7c1.3,0.5,2.4,1.1,3.3,2c0.9,0.8,1.6,1.8,2.2,2.9C159.7,21.7,159.9,22.9,160,24.2 M145.7,27c0.1,1,0.4,1.8,1.1,2.3
		c0.6,0.6,1.5,0.8,2.5,0.8s1.9-0.3,2.5-0.8c0.6-0.6,1-1.3,1.1-2.3c0.1-0.4,0.1-0.8,0.1-1.3c0-0.5,0-0.9-0.1-1.3
		c-0.1-1-0.4-1.8-1.1-2.3c-0.6-0.6-1.5-0.8-2.5-0.8s-1.9,0.3-2.5,0.8c-0.6,0.6-1,1.3-1.1,2.3c-0.1,0.4-0.1,0.8-0.1,1.3
		C145.6,26.1,145.7,26.6,145.7,27"/>
	<path d="M72.3,48.2c0-0.2,0-0.3-0.1-0.4c-0.1-0.1-0.2-0.2-0.4-0.3c-0.2-0.1-0.4-0.2-0.7-0.3c-0.3-0.1-0.6-0.2-1-0.3
		c-0.4-0.1-0.7-0.2-1-0.3c-0.3-0.1-0.5-0.3-0.6-0.4c-0.1-0.2-0.2-0.3-0.3-0.5c-0.1-0.2-0.1-0.4-0.1-0.6c0-0.2,0-0.4,0.1-0.7
		c0.1-0.2,0.2-0.4,0.4-0.6c0.2-0.2,0.4-0.3,0.7-0.4c0.3-0.1,0.6-0.2,1-0.2c0.4,0,0.8,0.1,1.1,0.2c0.3,0.1,0.5,0.2,0.7,0.4
		c0.2,0.2,0.3,0.3,0.4,0.5c0.1,0.2,0.1,0.3,0.1,0.4c0,0.1,0,0.2-0.1,0.2c-0.1,0.1-0.1,0.1-0.2,0.1h-0.2c-0.1,0-0.2-0.1-0.3-0.2
		c-0.1-0.1-0.1-0.2-0.2-0.3c-0.1-0.1-0.2-0.2-0.3-0.2c-0.1-0.1-0.3-0.1-0.4-0.2c-0.2,0-0.4-0.1-0.6-0.1c-0.5,0-0.9,0.1-1.1,0.3
		C69.1,44.5,69,44.7,69,45c0,0.1,0,0.3,0.1,0.4c0.1,0.1,0.1,0.2,0.3,0.3c0.1,0.1,0.3,0.2,0.6,0.3c0.3,0.1,0.6,0.2,1,0.3
		c0.4,0.1,0.8,0.2,1,0.3c0.3,0.1,0.5,0.3,0.7,0.4c0.2,0.2,0.3,0.3,0.4,0.5c0.1,0.2,0.1,0.4,0.1,0.7c0,0.3-0.1,0.5-0.2,0.7
		c-0.1,0.2-0.3,0.4-0.5,0.6c-0.2,0.2-0.5,0.3-0.8,0.4c-0.3,0.1-0.7,0.2-1.1,0.2c-0.5,0-0.8-0.1-1.2-0.2c-0.3-0.1-0.6-0.3-0.8-0.4
		c-0.2-0.2-0.4-0.3-0.5-0.5c-0.1-0.2-0.2-0.3-0.2-0.4c0-0.1,0-0.2,0.1-0.2c0.1,0,0.1-0.1,0.2-0.1h0.2c0.1,0,0.1,0,0.1,0
		c0,0,0.1,0.1,0.1,0.1c0.1,0.1,0.2,0.2,0.3,0.3c0.1,0.1,0.2,0.2,0.4,0.3c0.1,0.1,0.3,0.1,0.5,0.2c0.2,0,0.4,0.1,0.7,0.1
		c0.5,0,0.9-0.1,1.3-0.3C72.2,48.9,72.3,48.6,72.3,48.2"/>
	<path d="M87.5,47.8c0,0.5,0.1,0.8,0.2,1.1c0.1,0.3,0.4,0.4,0.8,0.4h0.7c0.2,0,0.3,0.1,0.3,0.3v0.2c0,0.2-0.1,0.3-0.3,0.3h-0.8
		c-0.3,0-0.6-0.1-0.8-0.2c-0.2-0.1-0.4-0.3-0.5-0.5c-0.1-0.2-0.2-0.4-0.3-0.7c-0.1-0.3-0.1-0.5-0.1-0.8v-3.8h-1
		c-0.2,0-0.3-0.1-0.3-0.3v-0.2c0-0.2,0.1-0.3,0.3-0.3h1v-2.1c0-0.2,0.1-0.3,0.3-0.3h0.2c0.2,0,0.3,0.1,0.3,0.3v2.1h1.6
		c0.2,0,0.3,0.1,0.3,0.3v0.2c0,0.2-0.1,0.3-0.3,0.3h-1.6V47.8z"/>
	<path d="M102.3,43.6c0-0.2,0.1-0.3,0.3-0.3h0.2c0.2,0,0.3,0.1,0.3,0.3v3.6c0,1.5,0.6,2.2,1.9,2.2c0.6,0,1.1-0.2,1.5-0.6
		c0.4-0.4,0.5-0.9,0.5-1.6v-3.6c0-0.2,0.1-0.3,0.3-0.3h0.2c0.2,0,0.3,0.1,0.3,0.3v6.1c0,0.2-0.1,0.3-0.3,0.3h-0.2
		c-0.2,0-0.3-0.1-0.3-0.3v-0.6c-0.2,0.3-0.5,0.5-0.8,0.7c-0.3,0.2-0.8,0.3-1.3,0.3c-0.4,0-0.8-0.1-1.1-0.2c-0.3-0.1-0.6-0.3-0.8-0.6
		c-0.2-0.3-0.4-0.6-0.5-0.9c-0.1-0.3-0.2-0.7-0.2-1.1V43.6z"/>
	<path d="M123.8,43.2c0.5,0,1,0.1,1.3,0.3c0.3,0.2,0.6,0.4,0.8,0.7v-3c0-0.2,0.1-0.3,0.3-0.3h0.2c0.2,0,0.3,0.1,0.3,0.3v8.5
		c0,0.2-0.1,0.3-0.3,0.3h-0.2c-0.2,0-0.3-0.1-0.3-0.3v-0.6c-0.2,0.3-0.5,0.5-0.8,0.7c-0.3,0.2-0.8,0.3-1.3,0.3
		c-0.5,0-0.9-0.1-1.3-0.3c-0.3-0.2-0.6-0.4-0.8-0.7c-0.2-0.3-0.4-0.6-0.5-1c-0.1-0.4-0.2-0.7-0.2-1.1c0-0.2,0-0.5,0-0.7
		c0-0.4,0.1-0.7,0.2-1.1c0.1-0.4,0.3-0.7,0.5-1c0.2-0.3,0.5-0.5,0.8-0.7C122.8,43.3,123.2,43.2,123.8,43.2 M125.9,47.1
		c0-0.1,0-0.3,0-0.5c0-0.2,0-0.4,0-0.5c0-0.3-0.1-0.5-0.1-0.8c-0.1-0.3-0.2-0.5-0.4-0.7c-0.2-0.2-0.4-0.4-0.6-0.5
		c-0.3-0.1-0.6-0.2-0.9-0.2c-0.4,0-0.7,0.1-0.9,0.2c-0.3,0.1-0.5,0.3-0.6,0.5c-0.2,0.2-0.3,0.5-0.4,0.7c-0.1,0.3-0.1,0.6-0.1,0.9
		c0,0.2,0,0.5,0,0.7c0,0.3,0.1,0.6,0.1,0.9c0.1,0.3,0.2,0.5,0.4,0.8c0.2,0.2,0.4,0.4,0.6,0.5c0.3,0.1,0.6,0.2,0.9,0.2
		c0.4,0,0.7-0.1,0.9-0.2c0.3-0.1,0.5-0.3,0.6-0.5c0.2-0.2,0.3-0.5,0.4-0.7C125.8,47.6,125.9,47.4,125.9,47.1"/>
	<path d="M141.2,41.7c0,0.1,0,0.2-0.1,0.2c-0.1,0.1-0.1,0.1-0.2,0.1h-0.5c-0.2,0-0.3-0.1-0.3-0.3v-0.5c0-0.1,0-0.2,0.1-0.2
		c0.1-0.1,0.1-0.1,0.2-0.1h0.5c0.1,0,0.2,0,0.2,0.1c0.1,0.1,0.1,0.1,0.1,0.2V41.7z M141.1,49.7c0,0.2-0.1,0.3-0.3,0.3h-0.2
		c-0.2,0-0.3-0.1-0.3-0.3v-6.1c0-0.2,0.1-0.3,0.3-0.3h0.2c0.2,0,0.3,0.1,0.3,0.3V49.7z"/>
	<path d="M157.2,43.2c0.5,0,0.9,0.1,1.2,0.2c0.3,0.1,0.6,0.4,0.9,0.6c0.2,0.3,0.4,0.6,0.5,0.9c0.1,0.4,0.2,0.7,0.2,1.2
		c0,0.1,0,0.1,0,0.2c0,0.1,0,0.2,0,0.3c0,0.1,0,0.2,0,0.3c0,0.1,0,0.2,0,0.2c0,0.4-0.1,0.8-0.2,1.2c-0.1,0.4-0.3,0.7-0.5,0.9
		c-0.2,0.3-0.5,0.5-0.9,0.6c-0.3,0.1-0.8,0.2-1.2,0.2c-0.5,0-0.9-0.1-1.2-0.2c-0.3-0.1-0.6-0.4-0.9-0.6c-0.2-0.3-0.4-0.6-0.5-0.9
		c-0.1-0.4-0.2-0.7-0.2-1.2c0-0.1,0-0.1,0-0.2c0-0.1,0-0.2,0-0.3c0-0.1,0-0.2,0-0.3c0-0.1,0-0.2,0-0.2c0-0.4,0.1-0.8,0.2-1.2
		c0.1-0.4,0.3-0.7,0.5-0.9c0.2-0.3,0.5-0.5,0.9-0.6C156.3,43.3,156.7,43.2,157.2,43.2 M159.2,46.2c0-0.7-0.2-1.3-0.6-1.7
		c-0.4-0.4-0.9-0.6-1.5-0.6c-0.6,0-1.1,0.2-1.5,0.6c-0.4,0.4-0.6,0.9-0.6,1.7c0,0.1,0,0.3,0,0.5c0,0.2,0,0.3,0,0.5
		c0,0.7,0.2,1.3,0.6,1.7c0.4,0.4,0.9,0.6,1.5,0.6c0.6,0,1.1-0.2,1.5-0.6c0.4-0.4,0.6-0.9,0.6-1.7c0-0.1,0-0.3,0-0.5
		C159.3,46.5,159.2,46.3,159.2,46.2"/>
</g>
<path d="M34.2,28.6c0,0.6-0.4,1-1,1c-0.4,0-0.8-0.4-0.9-0.9c0-0.6,0.4-1,0.9-1C33.8,27.7,34.1,28.1,34.2,28.6"/>
</svg>
