<?xml version="1.0" encoding="utf-8"?>
<!-- Generator: Adobe Illustrator 22.0.1, SVG Export Plug-In . SVG Version: 6.00 Build 0)  -->
<svg version="1.1" id="Layer_1" xmlns="http://www.w3.org/2000/svg" xmlns:xlink="http://www.w3.org/1999/xlink" x="0px" y="0px"
	 viewBox="0 0 177.5 57.3" style="enable-background:new 0 0 177.5 57.3;" xml:space="preserve">
<style type="text/css">
	.st0{opacity:0.19;fill:#010101;}
	.st1{fill:#010101;}
	.st2{fill:#4D4D4D;}
	.st3{fill:#1D1C1A;}
	.st4{fill-rule:evenodd;clip-rule:evenodd;fill:#010101;}
</style>
<g>
	<path class="st1" d="M41.1,42.5V29.8c0-1.4-0.8-2.1-1.8-2.1c-1,0-1.8,0.7-1.8,2.1v12.8H34V29.8c0-1.4-0.8-2.1-1.8-2.1
		c-1,0-1.8,0.7-1.8,2.1v12.8h-3.6V24.8h3.4v1.3c0.3-0.4,0.7-0.9,1.2-1.1c0.5-0.3,1.1-0.5,1.8-0.5c1.4,0,2.7,0.7,3.5,1.8
		c0.4-0.5,1-1,1.6-1.3c0.5-0.3,1.3-0.5,1.9-0.5c1.6,0,2.6,0.4,3.4,1.4c0.7,0.8,1,1.8,1,3.8v12.8H41.1z"/>
	<rect x="47.4" y="19.1" class="st1" width="3.6" height="3.6"/>
	<rect x="47.4" y="24.8" class="st1" width="3.6" height="17.7"/>
	<path class="st1" d="M76.3,41.5c-1.1-0.9-1.8-2.2-1.8-4.3v-9.6h-1.8v-2.7h1.8v-4.5h3.6v4.5h2.5v2.7h-2.5v9.4c0,1.7,0.8,2.4,2.5,2.4
		v3.2C78.9,42.5,77.5,42.4,76.3,41.5z"/>
	<rect x="67.2" y="19.1" class="st1" width="3.6" height="3.6"/>
	<rect x="67.2" y="24.8" class="st1" width="3.6" height="17.7"/>
	<path class="st1" d="M86.8,44.1L81,55.7H63.3l2.9-5.8h9.9l2.9-5.8h-1.8l-2.1,4.2H67l2.1-4.2h-1.8l-2.1,4.2h-7.6l2-4
		c-0.2,0-0.3,0-0.5,0c-0.4,0-0.8,0-1.2-0.1l-2.8,5.6h9.4l-3.7,7.4h21.2l6.6-13.2H86.8z"/>
	<path class="st1" d="M81.3,16.1L81.3,16.1l9.9,0l-1.6,3.3h1.8l1.6-3.3h7.8L90,37.6h1.8l11.5-23.1h-9.6l3.6-7.2h-9.9L91.1,0H71.4
		L59.9,23c0.5,0,1.1,0.1,1.6,0.3L72.3,1.6h16.3l-2.9,5.8h-9.4l-5.1,10.2H73l4.3-8.6h7.6L81.3,16.1z M86.7,8.9h8.1l-2.9,5.7h-8.1
		L86.7,8.9z"/>
	<path class="st1" d="M62.9,41.5c-0.9,0.9-2.2,1.3-3.8,1.3c-1.7,0-3.2-0.4-4.2-1.9c-1.1-1.5-1.2-4.2-1.2-7.3c0-3,0.1-5.7,1.2-7.3
		c1-1.4,2.5-1.9,4.2-1.9c1.5,0,2.7,0.3,3.7,1.2c1.1,1.1,1.5,2.7,1.6,4.2h-3.5c0-0.5-0.1-1.2-0.5-1.6c-0.3-0.4-0.7-0.6-1.3-0.6
		c-0.5,0-1.1,0.3-1.4,0.7c-0.5,0.8-0.5,2.6-0.5,5.2c0,2.6,0,4.4,0.5,5.3c0.3,0.5,0.8,0.7,1.4,0.7c0.6,0,1-0.2,1.3-0.6
		c0.4-0.5,0.4-1.1,0.5-1.7h3.5C64.3,39,63.9,40.5,62.9,41.5z"/>
	<path class="st1" d="M86.2,41.5c-1.1-0.9-1.8-2.2-1.8-4.3v-9.6h-1.8v-2.7h1.8v-4.5H88v4.5h2.5v2.7H88v9.4c0,1.7,0.8,2.4,2.5,2.4
		v3.2C88.8,42.5,87.4,42.4,86.2,41.5z"/>
	<g>
		<path class="st1" d="M101.6,32.7v-2.2l-0.8,1.6h-0.4l-0.8-1.6v2.2h-0.5v-3.3h0.5l1,2.1l0.9-2.1h0.5v3.3H101.6z"/>
		<path class="st1" d="M102.9,32.7v-3.3h0.5v3.3H102.9z"/>
		<path class="st1" d="M106.1,32.7l-1.5-2.3v2.3h-0.5v-3.3h0.5l1.5,2.3v-2.3h0.5v3.3H106.1z"/>
		<path class="st1" d="M107.4,32.7v-3.3h0.5v3.3H107.4z"/>
		<path class="st1" d="M109.5,32.7c-0.5,0-0.8-0.1-1.2-0.4l0.3-0.3c0.2,0.2,0.5,0.3,0.8,0.3c0.4,0,0.7-0.2,0.7-0.5
			c0-0.1,0-0.3-0.1-0.3c-0.1-0.1-0.2-0.1-0.4-0.1l-0.4-0.1c-0.3,0-0.5-0.1-0.6-0.3c-0.2-0.2-0.2-0.4-0.2-0.6c0-0.6,0.4-1,1.1-1
			c0.4,0,0.7,0.1,1,0.4l-0.3,0.3c-0.2-0.2-0.4-0.3-0.7-0.3c-0.4,0-0.6,0.2-0.6,0.5c0,0.1,0,0.2,0.1,0.3c0.1,0.1,0.2,0.1,0.4,0.2
			l0.4,0.1c0.3,0,0.5,0.1,0.6,0.2c0.2,0.2,0.3,0.4,0.3,0.7C110.7,32.4,110.2,32.7,109.5,32.7z"/>
		<path class="st1" d="M112.4,29.8v2.9h-0.5v-2.9H111v-0.5h2.3v0.5H112.4z"/>
		<path class="st1" d="M113.7,32.7v-3.3h2.1v0.5h-1.6v1h1.4v0.4h-1.4v1h1.6v0.5H113.7z"/>
		<path class="st1" d="M118.2,32.7l-0.7-1.4h-0.6v1.4h-0.5v-3.3h1.3c0.6,0,1,0.4,1,1c0,0.5-0.3,0.8-0.6,0.9l0.8,1.5H118.2z
			 M117.6,29.8h-0.7v1h0.7c0.3,0,0.6-0.2,0.6-0.5C118.2,30,118,29.8,117.6,29.8z"/>
		<path class="st1" d="M119.3,32.7v-3.3h0.5v3.3H119.3z"/>
		<path class="st1" d="M122.5,32.4c-0.2,0.2-0.5,0.4-0.9,0.4c-0.3,0-0.6-0.1-0.9-0.4c-0.3-0.3-0.3-0.7-0.3-1.3c0-0.6,0-1,0.3-1.3
			c0.2-0.2,0.5-0.4,0.9-0.4c0.3,0,0.6,0.1,0.9,0.4c0.3,0.3,0.3,0.7,0.3,1.3C122.8,31.7,122.8,32,122.5,32.4z M122.1,30
			c-0.1-0.1-0.3-0.2-0.5-0.2c-0.2,0-0.4,0.1-0.5,0.2c-0.2,0.2-0.2,0.4-0.2,1c0,0.7,0,0.9,0.2,1c0.1,0.1,0.3,0.2,0.5,0.2
			c0.2,0,0.4-0.1,0.5-0.2c0.2-0.2,0.2-0.4,0.2-1C122.3,30.4,122.3,30.2,122.1,30z"/>
	</g>
	<path class="st1" d="M101.2,37.3c-0.2,0.2-0.5,0.3-0.8,0.3h-1.1v-3.3h1.1c0.3,0,0.6,0.1,0.8,0.3c0.4,0.4,0.3,0.8,0.3,1.3
		S101.6,36.9,101.2,37.3z M100.9,35c-0.1-0.2-0.3-0.2-0.6-0.2h-0.6v2.4h0.6c0.2,0,0.4-0.1,0.6-0.2c0.2-0.2,0.2-0.5,0.2-1
		C101,35.5,101,35.1,100.9,35z"/>
	<path class="st1" d="M102.2,37.6v-3.3h2.1v0.5h-1.6v1h1.4v0.4h-1.4v1h1.6v0.5H102.2z"/>
	<path class="st1" d="M106.9,37.6c-0.3,0-0.6-0.1-0.9-0.4c-0.3-0.3-0.3-0.7-0.3-1.3c0-0.6,0-1,0.3-1.3c0.2-0.2,0.5-0.4,0.9-0.4
		c0.6,0,1,0.4,1.2,1h-0.5c-0.1-0.3-0.3-0.6-0.7-0.6c-0.2,0-0.4,0.1-0.5,0.2c-0.2,0.2-0.2,0.4-0.2,1c0,0.7,0,0.9,0.2,1
		c0.1,0.1,0.3,0.2,0.5,0.2c0.4,0,0.6-0.2,0.7-0.6h0.5C108,37.3,107.5,37.6,106.9,37.6z"/>
	<path class="st1" d="M108.7,37.6v-3.3h0.5v3.3H108.7z"/>
	<path class="st1" d="M110,37.6v-3.3h2.1v0.5h-1.6v1h1.4v0.4h-1.4v1h1.6v0.5H110z"/>
	<path class="st1" d="M114.6,37.6l-1.5-2.3v2.3h-0.5v-3.3h0.5l1.5,2.3v-2.3h0.5v3.3H114.6z"/>
	<path class="st1" d="M116.9,37.6c-0.3,0-0.6-0.1-0.9-0.4c-0.3-0.3-0.3-0.7-0.3-1.3c0-0.6,0-1,0.3-1.3c0.2-0.2,0.5-0.4,0.9-0.4
		c0.6,0,1,0.4,1.2,1h-0.5c-0.1-0.3-0.3-0.6-0.7-0.6c-0.2,0-0.4,0.1-0.5,0.2c-0.2,0.2-0.2,0.4-0.2,1c0,0.7,0,0.9,0.2,1
		c0.1,0.1,0.3,0.2,0.5,0.2c0.4,0,0.6-0.2,0.7-0.6h0.5C118,37.3,117.5,37.6,116.9,37.6z"/>
	<path class="st1" d="M118.7,37.6v-3.3h0.5v3.3H118.7z"/>
	<path class="st1" d="M121.8,37.6l-0.2-0.7h-1.3l-0.2,0.7h-0.5l1.2-3.3h0.4l1.2,3.3H121.8z M120.9,35l-0.5,1.5h1L120.9,35z"/>
	<path class="st1" d="M122.6,38.3v-1.3h0.5v0.8L122.6,38.3z"/>
	<g>
		<path class="st1" d="M125.4,34.7v2.9h-0.5v-2.9H124v-0.5h2.3v0.5H125.4z"/>
		<path class="st1" d="M126.7,37.6v-3.3h2.1v0.5h-1.6v1h1.4v0.4h-1.4v1h1.6v0.5H126.7z"/>
		<path class="st1" d="M130.5,37.6c-0.3,0-0.6-0.1-0.9-0.4c-0.3-0.3-0.3-0.7-0.3-1.3c0-0.6,0-1,0.3-1.3c0.2-0.2,0.5-0.4,0.9-0.4
			c0.6,0,1,0.4,1.2,1h-0.5c-0.1-0.3-0.3-0.6-0.7-0.6c-0.2,0-0.4,0.1-0.5,0.2c-0.2,0.2-0.2,0.4-0.2,1c0,0.7,0,0.9,0.2,1
			c0.1,0.1,0.3,0.2,0.5,0.2c0.4,0,0.6-0.2,0.7-0.6h0.5C131.5,37.3,131.1,37.6,130.5,37.6z"/>
		<path class="st1" d="M134.2,37.6l-1.5-2.3v2.3h-0.5v-3.3h0.5l1.5,2.3v-2.3h0.5v3.3H134.2z"/>
		<path class="st1" d="M137.4,37.3c-0.2,0.2-0.5,0.4-0.9,0.4c-0.3,0-0.6-0.1-0.9-0.4c-0.3-0.3-0.3-0.7-0.3-1.3c0-0.6,0-1,0.3-1.3
			c0.2-0.2,0.5-0.4,0.9-0.4c0.3,0,0.6,0.1,0.9,0.4c0.3,0.3,0.3,0.7,0.3,1.3C137.7,36.6,137.7,36.9,137.4,37.3z M137,34.9
			c-0.1-0.1-0.3-0.2-0.5-0.2c-0.2,0-0.4,0.1-0.5,0.2c-0.2,0.2-0.2,0.4-0.2,1c0,0.7,0,0.9,0.2,1c0.1,0.1,0.3,0.2,0.5,0.2
			c0.2,0,0.4-0.1,0.5-0.2c0.2-0.2,0.2-0.4,0.2-1C137.2,35.3,137.1,35.1,137,34.9z"/>
		<path class="st1" d="M138.3,37.6v-3.3h0.5v2.9h1.6v0.5H138.3z"/>
		<path class="st1" d="M142.6,37.3c-0.2,0.2-0.5,0.4-0.9,0.4c-0.3,0-0.6-0.1-0.9-0.4c-0.3-0.3-0.3-0.7-0.3-1.3c0-0.6,0-1,0.3-1.3
			c0.2-0.2,0.5-0.4,0.9-0.4c0.3,0,0.6,0.1,0.9,0.4c0.3,0.3,0.3,0.7,0.3,1.3C143,36.6,143,36.9,142.6,37.3z M142.3,34.9
			c-0.1-0.1-0.3-0.2-0.5-0.2c-0.2,0-0.4,0.1-0.5,0.2c-0.2,0.2-0.2,0.4-0.2,1c0,0.7,0,0.9,0.2,1c0.1,0.1,0.3,0.2,0.5,0.2
			c0.2,0,0.4-0.1,0.5-0.2c0.2-0.2,0.2-0.4,0.2-1C142.5,35.3,142.4,35.1,142.3,34.9z"/>
		<path class="st1" d="M145.6,37.2c-0.2,0.3-0.6,0.4-0.9,0.4c-0.3,0-0.6-0.1-0.9-0.4c-0.3-0.3-0.3-0.7-0.3-1.3c0-0.6,0-1,0.3-1.3
			c0.2-0.2,0.5-0.4,0.9-0.4c0.7,0,1.1,0.5,1.2,1h-0.5c-0.1-0.4-0.3-0.6-0.7-0.6c-0.2,0-0.4,0.1-0.5,0.2c-0.2,0.2-0.2,0.4-0.2,1
			c0,0.7,0,0.9,0.2,1c0.1,0.1,0.3,0.2,0.5,0.2c0.2,0,0.4-0.1,0.5-0.2c0.1-0.1,0.2-0.3,0.2-0.5v-0.2h-0.7v-0.4h1.2v0.5
			C145.9,36.7,145.8,37,145.6,37.2z"/>
		<polygon class="st1" points="146.9,34 146.5,34 146.8,33.2 147.4,33.2 		"/>
		<rect x="146.5" y="34.3" class="st1" width="0.5" height="3.3"/>
		<path class="st1" d="M149.6,37.6l-0.2-0.7h-1.3l-0.2,0.7h-0.5l1.2-3.3h0.4l1.2,3.3H149.6z M148.8,35l-0.5,1.5h1L148.8,35z"/>
	</g>
	<g>
		<path class="st1" d="M100.7,41.1v1.4h-0.5v-1.4l-1-2h0.5l0.7,1.5l0.7-1.5h0.5L100.7,41.1z"/>
		<path class="st1" d="M104.2,39.6v2.9h-0.5v-2.9h-0.9v-0.5h2.3v0.5H104.2z"/>
		<path class="st1" d="M105.5,42.5v-3.3h2.1v0.5H106v1h1.4V41H106v1h1.6v0.5H105.5z"/>
		<path class="st1" d="M108.2,42.5v-3.3h0.5V42h1.6v0.5H108.2z"/>
		<path class="st1" d="M110.8,42.5v-3.3h2.1v0.5h-1.6v1h1.4V41h-1.4v1h1.6v0.5H110.8z"/>
		<path class="st1" d="M114.5,42.5c-0.3,0-0.6-0.1-0.9-0.4c-0.3-0.3-0.3-0.7-0.3-1.3c0-0.6,0-1,0.3-1.3c0.2-0.2,0.5-0.4,0.9-0.4
			c0.6,0,1,0.4,1.2,1h-0.5c-0.1-0.3-0.3-0.6-0.7-0.6c-0.2,0-0.4,0.1-0.5,0.2c-0.2,0.2-0.2,0.4-0.2,1c0,0.7,0,0.9,0.2,1
			c0.1,0.1,0.3,0.2,0.5,0.2c0.4,0,0.6-0.2,0.7-0.6h0.5C115.6,42.2,115.1,42.5,114.5,42.5z"/>
		<path class="st1" d="M118.2,42.2c-0.2,0.2-0.5,0.4-0.9,0.4c-0.3,0-0.6-0.1-0.9-0.4c-0.3-0.3-0.3-0.7-0.3-1.3c0-0.6,0-1,0.3-1.3
			c0.2-0.2,0.5-0.4,0.9-0.4c0.3,0,0.6,0.1,0.9,0.4c0.3,0.3,0.3,0.7,0.3,1.3C118.5,41.5,118.5,41.8,118.2,42.2z M117.8,39.8
			c-0.1-0.1-0.3-0.2-0.5-0.2c-0.2,0-0.4,0.1-0.5,0.2c-0.2,0.2-0.2,0.4-0.2,1c0,0.7,0,0.9,0.2,1c0.1,0.1,0.3,0.2,0.5,0.2
			c0.2,0,0.4-0.1,0.5-0.2c0.2-0.2,0.2-0.4,0.2-1C118,40.2,118,40,117.8,39.8z"/>
		<path class="st1" d="M121.5,42.5v-2.2l-0.8,1.6h-0.4l-0.8-1.6v2.2h-0.5v-3.3h0.5l1,2.1l0.9-2.1h0.5v3.3H121.5z"/>
		<path class="st1" d="M123.9,42.5c-0.7,0-1.2-0.5-1.2-1.1v-2.2h0.5v2.2c0,0.4,0.3,0.7,0.7,0.7c0.4,0,0.7-0.3,0.7-0.7v-2.2h0.5v2.2
			C125.1,42.1,124.6,42.5,123.9,42.5z"/>
		<path class="st1" d="M127.8,42.5l-1.5-2.3v2.3h-0.5v-3.3h0.5l1.5,2.3v-2.3h0.5v3.3H127.8z"/>
		<path class="st1" d="M129,42.5v-3.3h0.5v3.3H129z"/>
		<path class="st1" d="M131.3,42.5c-0.3,0-0.6-0.1-0.9-0.4c-0.3-0.3-0.3-0.7-0.3-1.3c0-0.6,0-1,0.3-1.3c0.2-0.2,0.5-0.4,0.9-0.4
			c0.6,0,1,0.4,1.2,1H132c-0.1-0.3-0.3-0.6-0.7-0.6c-0.2,0-0.4,0.1-0.5,0.2c-0.2,0.2-0.2,0.4-0.2,1c0,0.7,0,0.9,0.2,1
			c0.1,0.1,0.3,0.2,0.5,0.2c0.4,0,0.6-0.2,0.7-0.6h0.5C132.4,42.2,131.9,42.5,131.3,42.5z"/>
		<path class="st1" d="M134.9,42.5l-0.2-0.7h-1.3l-0.2,0.7h-0.5l1.2-3.3h0.4l1.2,3.3H134.9z M134,39.9l-0.5,1.5h1L134,39.9z"/>
		<path class="st1" d="M136.8,42.5c-0.3,0-0.6-0.1-0.9-0.4c-0.3-0.3-0.3-0.7-0.3-1.3c0-0.6,0-1,0.3-1.3c0.2-0.2,0.5-0.4,0.9-0.4
			c0.6,0,1,0.4,1.2,1h-0.5c-0.1-0.3-0.3-0.6-0.7-0.6c-0.2,0-0.4,0.1-0.5,0.2c-0.2,0.2-0.2,0.4-0.2,1c0,0.7,0,0.9,0.2,1
			c0.1,0.1,0.3,0.2,0.5,0.2c0.4,0,0.6-0.2,0.7-0.6h0.5C137.9,42.2,137.4,42.5,136.8,42.5z"/>
		<path class="st1" d="M138.6,42.5v-3.3h0.5v3.3H138.6z"/>
		<path class="st1" d="M141.7,42.2c-0.2,0.2-0.5,0.4-0.9,0.4c-0.3,0-0.6-0.1-0.9-0.4c-0.3-0.3-0.3-0.7-0.3-1.3c0-0.6,0-1,0.3-1.3
			c0.2-0.2,0.5-0.4,0.9-0.4c0.3,0,0.6,0.1,0.9,0.4c0.3,0.3,0.3,0.7,0.3,1.3C142.1,41.5,142.1,41.8,141.7,42.2z M141.4,39.8
			c-0.1-0.1-0.3-0.2-0.5-0.2c-0.2,0-0.4,0.1-0.5,0.2c-0.2,0.2-0.2,0.4-0.2,1c0,0.7,0,0.9,0.2,1c0.1,0.1,0.3,0.2,0.5,0.2
			c0.2,0,0.4-0.1,0.5-0.2c0.2-0.2,0.2-0.4,0.2-1C141.6,40.2,141.5,40,141.4,39.8z"/>
		<path class="st1" d="M144.7,42.5l-1.5-2.3v2.3h-0.5v-3.3h0.5l1.5,2.3v-2.3h0.5v3.3H144.7z"/>
		<path class="st1" d="M145.9,42.5v-3.3h2.1v0.5h-1.6v1h1.4V41h-1.4v1h1.6v0.5H145.9z"/>
		<path class="st1" d="M149.5,42.5c-0.5,0-0.8-0.1-1.2-0.4l0.3-0.3c0.2,0.2,0.5,0.3,0.8,0.3c0.4,0,0.7-0.2,0.7-0.5
			c0-0.1,0-0.3-0.1-0.3c-0.1-0.1-0.2-0.1-0.4-0.1l-0.4-0.1c-0.3,0-0.5-0.1-0.6-0.3c-0.2-0.2-0.2-0.4-0.2-0.6c0-0.6,0.4-1,1.1-1
			c0.4,0,0.7,0.1,1,0.4l-0.3,0.3c-0.2-0.2-0.4-0.3-0.7-0.3c-0.4,0-0.6,0.2-0.6,0.5c0,0.1,0,0.2,0.1,0.3c0.1,0.1,0.2,0.1,0.4,0.2
			l0.4,0.1c0.3,0,0.5,0.1,0.6,0.2c0.2,0.2,0.3,0.4,0.3,0.7C150.6,42.2,150.2,42.5,149.5,42.5z"/>
	</g>
</g>
</svg>
