<?xml version="1.0" encoding="utf-8"?>
<!-- Generator: Adobe Illustrator 22.0.1, SVG Export Plug-In . SVG Version: 6.00 Build 0)  -->
<svg version="1.1" id="Layer_1" xmlns="http://www.w3.org/2000/svg" xmlns:xlink="http://www.w3.org/1999/xlink" x="0px" y="0px"
	 viewBox="0 0 177.5 57.3" style="enable-background:new 0 0 177.5 57.3;" xml:space="preserve">
<style type="text/css">
	.st0{opacity:0.19;fill:#010101;}
	.st1{fill:#010101;}
	.st2{fill:#4D4D4D;}
	.st3{fill:#1D1C1A;}
	.st4{fill-rule:evenodd;clip-rule:evenodd;fill:#010101;}
</style>
<g>
	<path class="st1" d="M75.3,35.7c-0.4,0.8-1,1.4-1.7,1.8c-0.7,0.4-1.5,0.7-2.4,0.7c-1.3,0-2.4-0.4-3.3-1.4c-0.9-0.9-1.4-2-1.4-3.3
		c0-1.3,0.5-2.4,1.4-3.3c0.9-0.9,2-1.3,3.3-1.3c0.9,0,1.7,0.2,2.5,0.7c0.7,0.4,1.3,1,1.6,1.8h-1c-0.8-1.1-1.8-1.6-3.1-1.6
		c-1,0-1.9,0.4-2.6,1.1c-0.7,0.7-1.1,1.6-1.1,2.6c0,1.1,0.3,2,1.1,2.7c0.7,0.8,1.6,1.2,2.7,1.2c0.6,0,1.2-0.2,1.8-0.5
		c0.6-0.3,1-0.7,1.3-1.2H75.3z"/>
	<path class="st1" d="M81.9,34.7c0,1-0.4,1.8-1.1,2.5c-0.7,0.7-1.5,1-2.5,1c-0.9,0-1.7-0.4-2.4-1.1c-0.6-0.7-1-1.5-1-2.4
		c0-1,0.3-1.8,1-2.5s1.5-1,2.5-1c0.9,0,1.7,0.4,2.4,1.1C81.6,33,81.9,33.8,81.9,34.7 M81,34.7c0-0.7-0.3-1.3-0.8-1.8
		c-0.5-0.5-1.1-0.8-1.7-0.8c-0.7,0-1.3,0.2-1.8,0.8c-0.5,0.5-0.8,1.1-0.8,1.8c0,0.7,0.2,1.3,0.7,1.9c0.5,0.5,1.1,0.8,1.8,0.8
		c0.7,0,1.4-0.2,1.9-0.8C80.8,36,81,35.4,81,34.7"/>
	<path class="st1" d="M86.7,36.1c0,0.6-0.2,1.1-0.6,1.6c-0.5,0.4-1,0.6-1.6,0.6c-0.6,0-1-0.3-1.4-0.7c-0.4-0.4-0.6-0.9-0.6-1.5h0.9
		v0.2c0,0.2,0.1,0.5,0.4,0.7c0.3,0.2,0.5,0.4,0.8,0.4c0.4,0,0.7-0.1,0.9-0.3c0.2-0.2,0.3-0.5,0.3-0.8c0-0.6-0.3-1-1-1.2L84,34.8
		c-0.8-0.3-1.3-0.8-1.3-1.7c0-0.5,0.2-1,0.5-1.3c0.4-0.4,0.8-0.6,1.3-0.6c0.5,0,0.9,0.1,1.3,0.4c0.4,0.3,0.6,0.7,0.6,1.2V33h-0.9
		v-0.2c0-0.2-0.1-0.4-0.3-0.6c-0.2-0.1-0.4-0.2-0.7-0.2c-0.3,0-0.5,0.1-0.7,0.3c-0.2,0.2-0.3,0.4-0.3,0.6c0,0.5,0.3,0.8,0.9,1
		l0.8,0.3C86.1,34.6,86.6,35.2,86.7,36.1"/>
	<path class="st1" d="M90,38.2c-1.6,0-2.4-0.7-2.4-2.1V29h0.9v2.3H90v0.8h-1.6V36c0,1,0.5,1.5,1.6,1.5V38.2z"/>
	<path class="st1" d="M96.7,34.7L96.7,34.7v3.4h-0.9v-1c-0.7,0.8-1.6,1.2-2.7,1.2c-0.9,0-1.7-0.4-2.4-1.1c-0.6-0.7-1-1.5-1-2.4
		c0-1,0.3-1.8,1-2.5c0.7-0.7,1.5-1,2.5-1c0.9,0,1.7,0.4,2.4,1.1C96.4,33,96.7,33.8,96.7,34.7 M95.8,34.6c0-0.7-0.3-1.3-0.8-1.8
		c-0.5-0.5-1.1-0.8-1.8-0.8c-0.7,0-1.3,0.3-1.8,0.8c-0.5,0.5-0.8,1.1-0.8,1.8c0,0.7,0.2,1.3,0.7,1.9c0.5,0.5,1.1,0.8,1.7,0.8
		c0.7,0,1.4-0.2,1.9-0.8C95.6,36,95.8,35.4,95.8,34.6"/>
	<path class="st1" d="M100.3,32.1c-0.4,0-0.8,0.1-1,0.3c-0.3,0.2-0.4,0.4-0.5,0.6c-0.1,0.3-0.2,0.6-0.2,1v4h-0.9v-6.7h0.8v1
		c0.2-0.4,0.5-0.6,0.8-0.8c0.3-0.2,0.7-0.3,1-0.2V32.1z"/>
	<path class="st1" d="M103.6,32.1c-0.4,0-0.8,0.1-1,0.3c-0.3,0.2-0.4,0.4-0.5,0.6c-0.1,0.3-0.2,0.6-0.2,1v4h-0.9v-6.7h0.8v1
		c0.2-0.4,0.5-0.6,0.8-0.8c0.3-0.2,0.7-0.3,1-0.2V32.1z"/>
	<path class="st1" d="M105.2,30.6h-0.9V29h0.9V30.6z M105.2,38.1h-0.9v-6.7h0.9V38.1z"/>
	<path class="st1" d="M113.1,36.1l-0.1,0.2c-0.7,1.3-1.8,1.9-3.3,1.9c-1,0-1.8-0.3-2.5-1c-0.7-0.7-1.1-1.5-1.1-2.5
		c0-1,0.3-1.8,1-2.5c0.7-0.7,1.6-1,2.5-1.1c0.7,0,1.4,0.2,2,0.6c0.6,0.4,1,0.8,1.2,1.4l0.1,0.3h-1c-0.5-0.9-1.3-1.3-2.3-1.3
		c-0.7,0-1.3,0.2-1.9,0.8c-0.6,0.5-0.9,1.2-0.9,1.9c0,0.7,0.3,1.4,0.8,1.9c0.5,0.5,1.2,0.8,1.9,0.8c1,0,1.8-0.4,2.3-1.3H113.1z"/>
	<path class="st1" d="M120.2,35h-6c0.1,0.7,0.4,1.2,0.9,1.7c0.5,0.4,1.1,0.7,1.8,0.6c1.1,0,1.8-0.5,2.3-1.5h1
		c-0.3,0.7-0.7,1.3-1.3,1.7c-0.6,0.4-1.3,0.6-2,0.6c-0.9,0-1.7-0.3-2.4-1c-0.7-0.7-1.1-1.5-1.1-2.5c0-1,0.3-1.9,1.1-2.6
		c0.7-0.7,1.6-1.1,2.6-1c0.9,0.1,1.7,0.4,2.3,1.1c0.6,0.7,1,1.4,1,2.3V35z M119.3,34.2c-0.1-0.6-0.4-1.1-0.9-1.5
		c-0.5-0.4-1-0.6-1.7-0.6c-0.6,0-1.2,0.2-1.7,0.6c-0.5,0.4-0.8,0.9-0.9,1.5H119.3z"/>
	<path class="st1" d="M126.9,38.1H126v-3.9c0-0.6-0.2-1-0.6-1.5c-0.4-0.4-0.9-0.6-1.4-0.6c-0.6,0-1,0.2-1.5,0.6
		c-0.4,0.4-0.6,0.9-0.6,1.5v3.9h-0.9v-3.8c0-0.9,0.3-1.6,0.8-2.2c0.6-0.6,1.3-0.9,2.1-0.9c0.8,0,1.6,0.3,2.1,0.9
		c0.6,0.6,0.8,1.3,0.8,2.2V38.1z"/>
	<path class="st1" d="M132.1,36.1c0,0.6-0.2,1.1-0.6,1.6c-0.5,0.4-1,0.6-1.6,0.6c-0.6,0-1-0.3-1.4-0.7c-0.4-0.4-0.6-0.9-0.6-1.5h0.9
		v0.2c0,0.2,0.1,0.5,0.4,0.7c0.3,0.2,0.5,0.4,0.8,0.4c0.4,0,0.7-0.1,0.9-0.3c0.2-0.2,0.3-0.5,0.3-0.8c0-0.6-0.3-1-1-1.2l-0.8-0.2
		c-0.8-0.3-1.3-0.8-1.3-1.7c0-0.5,0.2-1,0.5-1.3c0.4-0.4,0.8-0.6,1.3-0.6c0.5,0,0.9,0.1,1.3,0.4c0.4,0.3,0.6,0.7,0.6,1.2V33h-0.9
		v-0.2c0-0.2-0.1-0.4-0.3-0.6c-0.2-0.1-0.4-0.2-0.7-0.2c-0.3,0-0.5,0.1-0.7,0.3c-0.2,0.2-0.3,0.4-0.3,0.6c0,0.5,0.3,0.8,0.9,1
		l0.8,0.3C131.5,34.6,132,35.2,132.1,36.1"/>
	<path class="st1" d="M139.6,35h-6c0.1,0.7,0.4,1.2,0.9,1.7c0.5,0.4,1.1,0.7,1.8,0.6c1.1,0,1.8-0.5,2.3-1.5h1
		c-0.3,0.7-0.7,1.3-1.3,1.7c-0.6,0.4-1.3,0.6-2,0.6c-0.9,0-1.7-0.3-2.4-1c-0.7-0.7-1.1-1.5-1.1-2.5c0-1,0.3-1.9,1.1-2.6
		c0.7-0.7,1.6-1.1,2.6-1c0.9,0.1,1.7,0.4,2.3,1.1c0.6,0.7,1,1.4,1,2.3V35z M138.7,34.2c-0.1-0.6-0.4-1.1-0.9-1.5
		c-0.5-0.4-1-0.6-1.7-0.6c-0.6,0-1.2,0.2-1.7,0.6c-0.5,0.4-0.8,0.9-0.9,1.5H138.7z"/>
	<path class="st1" d="M152.3,34.8c0,1-0.3,1.8-1,2.5c-0.7,0.7-1.6,1-2.5,1c-0.9,0-1.7-0.4-2.4-1.1c-0.6-0.7-1-1.5-1-2.4
		c0-1,0.3-1.8,1-2.5c0.7-0.7,1.5-1,2.5-1c1,0,1.8,0.4,2.5,1.2v-3.4h0.9V34.8z M151.4,34.7c0-0.7-0.3-1.3-0.7-1.8
		c-0.5-0.5-1.1-0.8-1.8-0.8c-0.7,0-1.3,0.2-1.8,0.7c-0.5,0.5-0.8,1.1-0.8,1.8c0,0.7,0.2,1.3,0.7,1.9c0.5,0.5,1.1,0.8,1.8,0.8
		c0.7,0,1.4-0.2,1.9-0.8C151.1,36.1,151.4,35.4,151.4,34.7"/>
	<path class="st1" d="M160.1,35h-6c0.1,0.7,0.4,1.2,0.9,1.7c0.5,0.4,1.1,0.7,1.8,0.6c1.1,0,1.8-0.5,2.3-1.5h1
		c-0.3,0.7-0.7,1.3-1.3,1.7c-0.6,0.4-1.3,0.6-2,0.6c-0.9,0-1.7-0.3-2.4-1c-0.7-0.7-1.1-1.5-1.1-2.5c0-1,0.3-1.9,1.1-2.6
		c0.7-0.7,1.6-1.1,2.6-1c0.9,0.1,1.7,0.4,2.3,1.1c0.6,0.7,1,1.4,1,2.3V35z M159.3,34.2c-0.1-0.6-0.4-1.1-0.9-1.5
		c-0.5-0.4-1-0.6-1.7-0.6c-0.6,0-1.2,0.2-1.7,0.6c-0.5,0.4-0.8,0.9-0.9,1.5H159.3z"/>
	<path class="st1" d="M75.6,49.2c-0.4,0.8-1,1.4-1.7,1.9c-0.7,0.4-1.6,0.7-2.5,0.7c-1.3,0-2.5-0.5-3.4-1.4c-0.9-1-1.4-2.1-1.4-3.4
		c0-1.4,0.5-2.5,1.4-3.4c0.9-0.9,2.1-1.4,3.4-1.3c0.9,0,1.8,0.2,2.5,0.7c0.7,0.5,1.3,1.1,1.7,1.9h-1.1c-0.8-1.1-1.9-1.7-3.3-1.7
		c-1,0-1.9,0.4-2.7,1.1c-0.7,0.7-1.1,1.6-1.2,2.7c0,1.1,0.3,2,1.1,2.8c0.8,0.8,1.7,1.2,2.8,1.2c0.6,0,1.2-0.2,1.8-0.5
		c0.6-0.3,1-0.7,1.3-1.2H75.6z"/>
	<path class="st1" d="M76.6,43.8h-0.9v-1.6h0.9V43.8z M76.6,51.6h-0.9v-6.9h0.9V51.6z"/>
	<path class="st1" d="M84.8,48.4h-6.2c0.1,0.7,0.4,1.3,0.9,1.7c0.5,0.5,1.1,0.7,1.8,0.7c1.1,0,1.9-0.5,2.3-1.5h1
		c-0.3,0.7-0.7,1.3-1.3,1.8c-0.6,0.4-1.3,0.7-2.1,0.7c-0.9,0-1.8-0.3-2.5-1c-0.7-0.7-1.1-1.6-1.1-2.5c0-1,0.3-1.9,1.1-2.7
		c0.8-0.7,1.6-1.1,2.7-1c0.9,0.1,1.7,0.4,2.4,1.1c0.7,0.7,1,1.5,1,2.3V48.4z M83.9,47.6c-0.1-0.6-0.4-1.2-0.9-1.6
		c-0.5-0.4-1-0.6-1.7-0.6c-0.7,0-1.2,0.2-1.7,0.6c-0.5,0.4-0.8,0.9-0.9,1.6H83.9z"/>
	<path class="st1" d="M91.7,51.6h-0.9v-4c0-0.6-0.2-1.1-0.6-1.5c-0.4-0.4-0.9-0.6-1.5-0.6c-0.6,0-1.1,0.2-1.5,0.6
		c-0.4,0.4-0.6,0.9-0.6,1.5v4h-0.9v-3.9c0-0.9,0.3-1.6,0.9-2.2c0.6-0.6,1.3-0.9,2.2-0.9c0.9,0,1.6,0.3,2.2,0.9
		c0.6,0.6,0.9,1.3,0.9,2.2V51.6z"/>
	<path class="st1" d="M99.9,49.5l-0.1,0.2c-0.7,1.3-1.9,2-3.4,2c-1,0-1.9-0.4-2.6-1.1c-0.7-0.7-1.1-1.5-1.1-2.5c0-1,0.3-1.9,1.1-2.6
		c0.7-0.7,1.6-1.1,2.6-1.1c0.7,0,1.4,0.2,2,0.6c0.6,0.4,1,0.8,1.3,1.4l0.1,0.3h-1c-0.5-0.9-1.3-1.4-2.4-1.4c-0.7,0-1.4,0.2-1.9,0.8
		c-0.6,0.6-0.9,1.2-0.9,2c0,0.8,0.3,1.4,0.8,1.9c0.6,0.5,1.2,0.8,2,0.8c1.1,0,1.9-0.4,2.4-1.3H99.9z"/>
	<path class="st1" d="M101.3,43.8h-0.9v-1.6h0.9V43.8z M101.3,51.6h-0.9v-6.9h0.9V51.6z"/>
	<path class="st1" d="M109.4,48.1L109.4,48.1v3.5h-0.9v-1.1c-0.8,0.9-1.7,1.3-2.8,1.2c-1,0-1.8-0.4-2.4-1.1c-0.7-0.7-1-1.5-1-2.5
		c0-1,0.4-1.9,1.1-2.6c0.7-0.7,1.6-1.1,2.6-1c1,0,1.8,0.4,2.5,1.1C109.1,46.3,109.5,47.1,109.4,48.1 M108.5,48
		c0-0.7-0.3-1.4-0.8-1.9c-0.5-0.5-1.1-0.8-1.8-0.8c-0.7,0-1.4,0.3-1.9,0.8c-0.5,0.5-0.8,1.1-0.8,1.9c0,0.7,0.2,1.4,0.7,1.9
		c0.5,0.5,1.1,0.8,1.8,0.9c0.8,0,1.4-0.2,2-0.8C108.3,49.5,108.5,48.8,108.5,48"/>
	<polygon class="st1" points="118.8,45.4 114.6,55.4 113.6,55.4 114.7,52.6 111.8,45.4 112.9,45.4 115.3,51.3 117.8,45.4 	"/>
	<path class="st1" d="M130.1,49.4c-0.4,0.8-1,1.5-1.8,1.9c-0.7,0.5-1.6,0.7-2.5,0.7c-1.3,0-2.5-0.5-3.4-1.4c-1-1-1.4-2.1-1.4-3.5
		c0-1.4,0.5-2.6,1.4-3.5c0.9-0.9,2.1-1.4,3.4-1.4c0.9,0,1.8,0.2,2.6,0.7c0.7,0.5,1.3,1.1,1.7,1.9H129c-0.8-1.1-1.9-1.7-3.3-1.7
		c-1,0-2,0.4-2.7,1.1c-0.8,0.8-1.1,1.7-1.2,2.7c0,1.1,0.4,2.1,1.1,2.9c0.8,0.8,1.7,1.2,2.8,1.2c0.6,0,1.3-0.2,1.9-0.5
		c0.6-0.3,1-0.7,1.4-1.2H130.1z"/>
	<path class="st1" d="M136.7,48.9c0,0.9-0.3,1.7-0.9,2.3c-0.6,0.6-1.3,0.9-2.2,0.9c-0.9,0-1.6-0.3-2.2-0.9c-0.6-0.6-0.9-1.4-0.9-2.3
		v-4h0.9V49c0,0.6,0.2,1.1,0.6,1.5c0.4,0.4,0.9,0.6,1.5,0.6c0.6,0,1.1-0.2,1.5-0.6c0.4-0.4,0.6-0.9,0.6-1.5v-4.1h0.9V48.9z"/>
	<rect x="138" y="42.4" class="st1" width="0.9" height="9.5"/>
	<path class="st1" d="M142.4,52c-1.7,0-2.6-0.7-2.6-2.2v-7.4h0.9v2.4h1.6v0.9h-1.6v4c0,1,0.5,1.6,1.6,1.6V52z"/>
	<path class="st1" d="M149.4,48.9c0,0.9-0.3,1.7-0.9,2.3c-0.6,0.6-1.3,0.9-2.2,0.9c-0.9,0-1.6-0.3-2.2-0.9c-0.6-0.6-0.9-1.4-0.9-2.3
		v-4h0.9V49c0,0.6,0.2,1.1,0.6,1.5c0.4,0.4,0.9,0.6,1.5,0.6c0.6,0,1.1-0.2,1.5-0.6c0.4-0.4,0.6-0.9,0.6-1.5v-4.1h0.9V48.9z"/>
	<path class="st1" d="M153.1,45.7c-0.4,0-0.8,0.1-1.1,0.4c-0.3,0.2-0.5,0.4-0.6,0.6c-0.2,0.3-0.2,0.6-0.2,1.1v4.2h-1v-7h0.9v1
		c0.2-0.4,0.5-0.7,0.9-0.9c0.4-0.2,0.7-0.3,1.1-0.3V45.7z"/>
	<path class="st1" d="M160.1,48.4L160.1,48.4v3.5h-0.9v-1.1c-0.8,0.9-1.7,1.3-2.8,1.3c-1,0-1.8-0.4-2.5-1.1c-0.7-0.7-1-1.6-1-2.5
		c0-1,0.4-1.9,1.1-2.6c0.7-0.7,1.6-1.1,2.6-1c1,0,1.8,0.4,2.5,1.1C159.8,46.5,160.1,47.4,160.1,48.4 M159.1,48.3
		c0-0.7-0.3-1.4-0.8-1.9c-0.5-0.5-1.1-0.8-1.8-0.8c-0.7,0-1.4,0.3-1.9,0.8c-0.5,0.5-0.8,1.2-0.8,1.9c0,0.7,0.2,1.4,0.7,1.9
		c0.5,0.6,1.1,0.8,1.8,0.9c0.8,0,1.4-0.2,2-0.8C158.9,49.7,159.1,49.1,159.1,48.3"/>
	<path class="st1" d="M89.1,19.8c-1.1,2-2.5,3.6-4.4,4.8c-1.8,1.1-3.9,1.7-6.3,1.8c-3.3,0-6.2-1.2-8.6-3.6c-2.4-2.4-3.6-5.3-3.6-8.7
		c0-3.5,1.2-6.4,3.6-8.7c2.3-2.3,5.2-3.4,8.5-3.4c2.3,0,4.5,0.6,6.4,1.8c1.8,1.2,3.3,2.7,4.3,4.7h-2.7c-2-2.9-4.7-4.3-8.2-4.2
		c-2.6,0-4.9,0.9-6.8,2.8c-1.9,1.9-2.9,4.2-2.9,6.8c-0.1,2.8,0.9,5.1,2.8,7.1c1.9,2,4.3,3,7,3c1.6,0,3.1-0.4,4.7-1.2
		c1.4-0.8,2.6-1.8,3.4-3H89.1z"/>
	<path class="st1" d="M106.8,17.9H91.2c0.2,1.8,0.9,3.2,2.2,4.3c1.3,1.1,2.8,1.7,4.6,1.7c2.8,0,4.7-1.3,5.9-3.8h2.5
		c-0.7,1.9-1.8,3.4-3.3,4.5c-1.6,1.1-3.3,1.7-5.2,1.7c-2.4,0-4.5-0.8-6.3-2.6c-1.8-1.8-2.8-3.9-2.8-6.4c-0.1-2.6,0.9-4.9,2.8-6.8
		c1.9-1.9,4.2-2.8,6.8-2.6c2.3,0.1,4.3,1.1,6.1,2.9c1.7,1.8,2.5,3.7,2.5,5.9V17.9z M104.5,15.7c-0.3-1.6-1.1-3-2.3-4
		c-1.2-1-2.6-1.5-4.3-1.5c-1.7,0-3.1,0.5-4.4,1.5c-1.3,1-2,2.4-2.4,4H104.5z"/>
	<path class="st1" d="M124.6,25.8h-2.3V15.6c0-1.5-0.5-2.7-1.6-3.8c-1.1-1.1-2.3-1.6-3.8-1.6c-1.5,0-2.7,0.5-3.8,1.6
		c-1.1,1.1-1.6,2.3-1.6,3.8v10.2h-2.3v-10c0-2.3,0.7-4.1,2.2-5.6c1.5-1.5,3.3-2.3,5.5-2.3c2.2,0,4,0.8,5.5,2.3
		c1.5,1.5,2.2,3.4,2.2,5.6V25.8z"/>
	<path class="st1" d="M133.7,26.2c-4.2,0-6.4-1.8-6.4-5.4V2.2h2.3v6.1h4v2.2h-4v9.9c0,2.6,1.3,3.9,4,3.9V26.2z"/>
	<path class="st1" d="M143,10.4c-1.1,0-2,0.3-2.6,0.9c-0.7,0.6-1.1,1-1.4,1.4c-0.4,0.7-0.6,1.6-0.6,2.7v10.4h-2.4V8.4h2.2v2.5
		c0.5-0.9,1.2-1.7,2.2-2.2C141.1,8.2,142,8,143,8V10.4z"/>
	<path class="st1" d="M160.6,17.1c0,2.5-0.9,4.7-2.7,6.5c-1.8,1.8-4,2.7-6.5,2.6c-2.4-0.1-4.5-1-6.2-2.8c-1.7-1.8-2.5-3.9-2.5-6.3
		c0-2.6,0.9-4.7,2.7-6.6c1.8-1.8,4-2.7,6.5-2.6c2.4,0.1,4.5,1,6.2,2.8C159.7,12.5,160.6,14.6,160.6,17.1 M158.3,16.9
		c-0.1-1.8-0.7-3.4-2-4.7c-1.3-1.3-2.8-2-4.6-2c-1.9,0-3.4,0.6-4.8,2c-1.3,1.3-2,2.9-2,4.8c0,1.8,0.6,3.5,1.8,4.8
		c1.2,1.4,2.8,2.1,4.6,2.2c1.9,0.1,3.6-0.6,4.9-2C157.6,20.5,158.3,18.8,158.3,16.9"/>
	<path class="st1" d="M36.1,24.7h-1.4v-6.1c0,0,0.1-2-2.9-2c-3,0-3,2.2-3,2.2v5.9l-3.4,0.8V20c0,0,0-1.4-2.2-1.4c-2.2,0-2,1.8-2,1.8
		v5.8L17.8,28v-8.4L17,16.5V7.8c0,0,2.5-2.5,7.6-3.6v5.3c0,0-0.3,2.7,2,2.7c2.3,0,3.1-1.5,3.1-3.2V2.7c0,0,2.4-0.4,6.5-0.3"/>
	<path class="st1" d="M36.1,24.7h1.7v-6.1c0,0-0.1-2,2.9-2c3,0,3,2.2,3,2.2v5.9l3.4,0.8V20c0,0,0-1.4,2.2-1.4c2.2,0,2,1.8,2,1.8v5.8
		l3.4,1.8v-8.4l0.8-3.1V7.8c0,0-2.5-2.5-7.6-3.6v5.3c0,0,0.3,2.7-2,2.7c-2.3,0-3.1-1.5-3.1-3.2V2.7c0,0-2.7-0.4-6.7-0.3"/>
	<polygon class="st1" points="36.3,31.1 38,36.3 43.5,36.3 39.1,40.8 40.8,46.6 36.3,43.7 31.9,47 33.6,40.7 29.2,36.3 34.7,36.3 	
		"/>
	<rect x="60.2" y="2.5" class="st1" width="0.8" height="49.6"/>
</g>
</svg>
