<svg id="Layer_1" data-name="Layer 1" xmlns="http://www.w3.org/2000/svg" viewBox="0 0 967.31 248.23"><defs><style>.cls-1{fill:#fff;}.cls-2{fill:#54c8e8;}</style></defs><title>Logos SVG</title><rect class="cls-1" x="434.29" y="83.27" width="27.48" height="123.93"/><rect class="cls-1" y="83.27" width="27.48" height="123.93"/><rect class="cls-1" y="41.78" width="27.48" height="27.48"/><rect class="cls-1" x="434.29" y="41.78" width="27.48" height="27.48"/><polygon class="cls-1" points="566 147.57 510.78 41.78 510.78 41.78 483.29 41.78 483.29 206.94 510.78 206.94 510.78 101.16 566 206.94 593.49 206.94 593.49 41.78 566 41.78 566 147.57"/><polygon class="cls-1" points="724.94 69.27 724.94 41.78 642.49 41.78 615 41.78 615 69.27 615 111.01 615 138.49 615 179.46 615 206.94 615 206.94 642.49 206.94 642.49 206.94 724.94 206.94 724.94 179.46 642.49 179.46 642.49 138.49 697.46 138.49 697.46 111.01 642.49 111.01 642.49 69.27 724.94 69.27"/><polygon class="cls-1" points="117.97 103.75 76.49 41.78 49 41.78 49 206.94 76.49 206.94 76.49 91.56 101.38 128.64 117.97 153.27 134.31 128.64 159.2 91.56 159.2 206.94 186.68 206.94 186.68 41.78 159.2 41.78 117.97 103.75"/><path class="cls-1" d="M296.61,152h0L268.87,42H241.39l-41,164.9H227.9l6.75-27.48h41.22l7,27.48h27.48l-13.74-55Zm-55,0,13.74-55,13.74,55Z"/><path class="cls-1" d="M392,104a54.66,54.66,0,0,0-26.71-7,55.35,55.35,0,0,0-26.7,7c-.26.26-.52.26-.78.52V97.27a27.51,27.51,0,0,1,46.93-19.45h0A13.56,13.56,0,1,0,404,58.64h0A55,55,0,0,0,310.1,97.53v55a55.33,55.33,0,0,0,55,55.23,52,52,0,0,0,27.49-7.52A56.07,56.07,0,0,0,412.77,180,55,55,0,0,0,420,152.49,54.31,54.31,0,0,0,412.77,125,52.26,52.26,0,0,0,392,104Zm-26.45,75.71a27.33,27.33,0,0,1-27.48-27.48,32.18,32.18,0,0,1,.78-7,27.56,27.56,0,0,1,53.41,0,31.05,31.05,0,0,1,.77,7A27.49,27.49,0,0,1,365.58,179.72Z"/><path class="cls-2" d="M859.87,0,752.42,62V186.22l107.45,62,107.44-62V62ZM763.34,80.69V69.86l44.23,25.49L855,15.44l0,17.06L815.59,99.91l35.87,20.74-9.3,5.4-31.32-18-32,54.81-14.32,9,38.37-68.38Zm185.93,103.5L800.71,184h-12l80.4,46.41L866.43,232l-6.75,3.94-94-54.32,13.17-6.89h147.9l-74.93-43.12,9-5.24,94.29,54.46Zm7.12-106.65v3.15l-78.78,45.38-9.5-5.51,35.82-20.72L864.62,31.71l0-16.36,47.56,80,44.23-25.49Z"/></svg>