<?xml version="1.0" encoding="utf-8"?>
<!-- Generator: Adobe Illustrator 22.0.1, SVG Export Plug-In . SVG Version: 6.00 Build 0)  -->
<svg version="1.1" id="Layer_1" xmlns="http://www.w3.org/2000/svg" xmlns:xlink="http://www.w3.org/1999/xlink" x="0px" y="0px"
	 viewBox="0 0 961 1110.1" style="enable-background:new 0 0 961 1110.1;" xml:space="preserve">
<style type="text/css">
	.st0{fill:#06090D;}
</style>
<g>
	<path class="st0" d="M480.5,0L0,277.3v555.5l480.5,277.3L961,832.8V277.3L480.5,0z M48.8,360.9v-48.5l197.8,114l212-357.3l0.1,76.3
		L282.5,446.8l160.4,92.8l-41.6,24.2l-140-80.6L118,728.2l-64,40.2l171.6-305.8L48.8,360.9z M880.3,823.7l-708.2-0.8l354.7,204.7
		l-16.9,9.9l-30.2,17.6l-420.6-243l58.9-30.8h661.4L444.3,588.5l40.3-23.4l421.7,243.6L880.3,823.7z M912.2,346.8v14.1L559.9,563.8
		l-42.5-24.7l160.2-92.6L501.8,141.8l-0.1-73.2l212.7,357.8l197.8-114L912.2,346.8L912.2,346.8z"/>
	<polyline class="st0" points="328,521.5 286.4,497.6 258.3,481.4 	"/>
</g>
</svg>
