<svg id="Layer_1" data-name="Layer 1" xmlns="http://www.w3.org/2000/svg" viewBox="0 0 177.5 57.3"><title>Artboard 1crciber</title><path d="M96.68,26.69c-.23.9-.31,1.8-.49,2.52a26,26,0,0,0-3.2-.14,1.56,1.56,0,0,0-1.15.79c-.53,1.93-1.29,3.83-1,6a46.46,46.46,0,0,1-6.14.07,37.63,37.63,0,0,0,2.46-10.35c1.65.08,3.92,0,3.89.65a16.49,16.49,0,0,1,4-.67l1.86-.05Zm.69-1.13c1.24,0,3.86-.11,3.86.56a25.74,25.74,0,0,1,4.86-.53c.43,0,.87,0,1.3.06,1.83.19,2.68,1.25,2.37,3.07-.23,1.37-.61,2.7-.87,4.06-.19,1-.29,2-.46,3.16h-5.77c.69-2.55,1.37-5,2.12-7.79a18.33,18.33,0,0,0-2.14,0,.92.92,0,0,0-.62.56q-.72,2.94-1.33,5.9a4.64,4.64,0,0,0,.11,1.28H94.59c1.45-3,1.77-6.11,2.53-9.14"/><path d="M24.89,22.06l-.25,3-5.22-.13c-.54,0-1.05.06-1.2.71Q17.36,29.3,16.5,33H23l-1.12,3H17.81c-1.39,0-2.78,0-4.16,0-1.83-.08-2.65-1-2.48-2.85a22.13,22.13,0,0,1,.53-2.79c.38-1.66.73-3.33,1.22-5,.71-2.39,1.92-3.29,4.41-3.33S22.22,22.06,24.89,22.06Z"/><path d="M52.51,22.2l-.26,2.86c-1.75-.06-3.39-.14-5-.16-1.16,0-1.24.09-1.51,1.22l-1.35,5.76c-.08.38-.12.76-.17,1.12h6.44l-1.15,3H44.22c-1.11,0-2.22,0-3.32-.06a2.1,2.1,0,0,1-2.12-2.24,1.37,1.37,0,0,1,0-.35c.7-3,1.31-6,2.17-9a3.29,3.29,0,0,1,3.38-2.32c2.49,0,5,0,7.47,0A5,5,0,0,1,52.51,22.2Z"/><path d="M146.41,33.61l5.82-.36-1,2.78H148c-1.51,0-3,0-4.52,0-1.68-.08-2.49-1-2.22-2.65a40,40,0,0,1,1.26-5.3,3,3,0,0,1,2.64-2.28c2.75-.12,5.52,0,8.32,0v2.66c-1.51-.09-2.9-.21-4.29-.25s-1.51,0-1.85,1.43C147.06,30.79,146.78,32,146.41,33.61Z"/><path d="M52.7,25.73h5.5c-.49,3.45-1.86,6.62-1.92,10.17h-6A37.07,37.07,0,0,0,52.7,25.73Z"/><path d="M133.78,36a37.13,37.13,0,0,0,2.49-10.27h5.54c-.32,1.41-.6,2.71-.9,4-.26,1.12-.57,2.22-.79,3.34-.16.88-.21,1.77-.34,2.88C137.93,36.11,135.92,36,133.78,36Z"/><path d="M115.84,24.61c.92-1.06,1.84-2.13,2.78-3.18a.62.62,0,0,1,.42-.17h4.09a.2.2,0,0,1,.18.32,4,4,0,0,1-.58.58c-1.06.82-2.14,1.63-3.22,2.42-.76.59-2.08.38-3.47.41C115.69,25,115.66,24.75,115.84,24.61Z"/><path d="M142.63,22.15c-.26,1.12-.49,2.07-.72,3.06h-5.14c.23-1.06.44-2,.67-3.06Z"/><path d="M59.06,22.17l-.72,3.09H53.19l.7-3.09Z"/><path d="M124,28.19h1.75c0,.29-.07.48-.11.67-.31,1.38-.66,2.76-.94,4.16-.39,2,.4,2.94,2.42,3,1.26,0,2.53,0,3.8,0h2.26a11.4,11.4,0,0,0,.76-2.74c-1.37.1-2.61.05-4.09.16.46-2,.82-3.52,1.24-5.32h3.67c.19-.84.36-1.59.57-2.54h-3.6l.37-2H127l-.6,1.93c-.66,0-1.27,0-1.89.07Zm-.26-1c-.43-1.73-.89-1.61-2.73-1.63-2.37,0-4.75,0-7.12.05a3,3,0,0,0-3.07,2.47c-.45,1.64-.81,3.3-1.19,4.95a3.42,3.42,0,0,0-.07.71c-.07,1.46.42,2.05,1.85,2.19a11.72,11.72,0,0,0,1.19.05h8.82l1-2.78c-1.44.1-2.64.24-3.85.26a24.67,24.67,0,0,1-3.82-.08l.39-1.24h7.63l.52-2.1c.15-.65.29-1.3.43-1.9A5.53,5.53,0,0,0,123.76,27.24Zm-5,3H115a11.58,11.58,0,0,1,.49-2,1.17,1.17,0,0,1,.62-.64,2.57,2.57,0,0,1,.84-.05C119.41,27.49,119.52,27.64,118.76,30.21Z"/><path d="M37.23,22.16a13.13,13.13,0,0,0-1.54-.1H26.8a8.32,8.32,0,0,0-.9.08,94.32,94.32,0,0,1-3.18,13.8h5.82c.37-2,.73-3.81,1.08-5.64h1c.32,1.9.63,3.75.93,5.62h5.88c-.43-1.92-.82-3.73-1.23-5.6,1.55-.61,1.9-.94,2.27-2.3.28-1.07.54-2.15.73-3.24A2,2,0,0,0,37.23,22.16Zm-2.92,3.05a9.45,9.45,0,0,1-.5,2.05,1.34,1.34,0,0,1-.93.73c-1,.1-2,0-3.2,0a9.54,9.54,0,0,1,.12-1c.2-.88.42-1.75.66-2.74,1.05,0,2.06,0,3.07,0C34.13,24.3,34.42,24.62,34.31,25.21Z"/><path d="M83.92,25.71c-2.88-.07-5.77,0-8.66,0a2.19,2.19,0,0,0-2.14,1.46c-.67,2.3-1.24,4.64-1.69,7-.19,1,.5,1.6,1.52,1.76a11.28,11.28,0,0,0,1.42.09h8.89a8.73,8.73,0,0,0,.92-2.7H76.8L77,32.19h7.79c.3-1.59.67-3,.84-4.52A1.57,1.57,0,0,0,83.92,25.71Zm-3.29,4.48H76.94c.14-2.52,1.14-2.83,3.55-2.56.27,0,.55.57.54.86A8.06,8.06,0,0,1,80.63,30.19Z"/><path d="M164.24,25.67c-2.73-.07-5.46,0-8.19,0l-.69,0a17.56,17.56,0,0,0-.34,2.55c3.41-.28,5.57-.19,6.84.35.1.27-.2.42-.5.43-1,0-2.54-.13-3.49-.16-3.24-.11-4.24.54-5,4.2a5.69,5.69,0,0,0-.08.83c-.06,1.44.43,2.08,1.88,2.15s3,0,4.51,0h6.23c.09-.88.1-1.55.23-2.19.34-1.67.76-3.32,1.09-5C167.16,26.73,166.38,25.72,164.24,25.67Zm-2.8,6.3c-.49,2.13-.58,2.23-3.11,2.1a1,1,0,0,1-.68-.36c-.52-.76.4-2.88,1.31-3s1.71,0,2.74,0C161.58,31.29,161.52,31.64,161.44,32Z"/><path d="M69.79,25.69c-1.57-.1-3.14,0-4.91,0,.26-1.22.49-2.31.76-3.53a40.82,40.82,0,0,0-5.41,0A122,122,0,0,1,57,36c.4,0,.82.07,1.24.05,1.39-.07,2.79-.24,4.18-.24,1.68,0,3.36.21,5,.2a3.12,3.12,0,0,0,3.15-2.26A38.53,38.53,0,0,0,71.9,28.2C72.15,26.66,71.38,25.79,69.79,25.69ZM67.3,28.51c-.36,1.62-.72,3.24-1.16,4.83-.3,1.07-1.27.68-1.8.75H63.18a.67.67,0,0,1-.7-.88c.35-1.66.73-3.31,1.17-4.95a1.08,1.08,0,0,1,.75-.63,13,13,0,0,1,2.25,0A.68.68,0,0,1,67.3,28.51Z"/></svg>