<svg id="Layer_1" data-name="Layer 1" xmlns="http://www.w3.org/2000/svg" viewBox="0 0 177.5 57.3"><title>Artboard 1parque</title><path d="M22.48.55V.69a2.35,2.35,0,0,0,.53,0,.2.2,0,0,1,.19,0,.69.69,0,0,0,.39.07c.14.09.21.24.37.29s.1.13.11.2c.06.27.09.54.16.81s.12.57.2.85a5.8,5.8,0,0,1,.16.81A7.73,7.73,0,0,0,24.85,5a3.09,3.09,0,0,1,.1.62c0,.32-.09.66.06,1-.18.18.06.34,0,.52a2.81,2.81,0,0,0,0,.58c0,.2,0,.39,0,.58,0,.39,0,.77.09,1.14s0,.86.05,1.28,0,.66,0,1,0,.25.27.27.44,0,.66.07.42.1.63.13a8.52,8.52,0,0,1,1,.23c.41.1.82.23,1.23.34L30,13c.32.07.64.2,1,.3a5,5,0,0,1,1.3.63,2.8,2.8,0,0,1,.87.81.47.47,0,0,0,.11.13,2.42,2.42,0,0,1,.56.72c.08.15.22.29.2.5a.4.4,0,0,0,.07.15c.25.34.28.78.51,1.13a2.93,2.93,0,0,0,.16.77,6.62,6.62,0,0,0,.2,1.08.53.53,0,0,1,0,.25.18.18,0,0,0,.17.19c.09,0,.22,0,.28,0s.3-.05.45-.06.28,0,.39,0,.23,0,.35,0,.14,0,.2-.05a.1.1,0,0,1,.09,0c.2.23.51.11.76.27.05.17-.16,0-.21.11s0,.05,0,.05.21.1.33.08a.42.42,0,0,1,.31.13s.05,0,0,.05c-.11.21.1.5-.18.68l-.39,0c.22.11.4,0,.57.12s.27.15.23.41-.06.28.09.39,0,.22.15.3a.25.25,0,0,1,0,.36h-.25v.26l-.14.05s0,0,0,0,.05.07.08.07.13,0,.1.1-.09,0-.15.05h0c-.15.22.14.2.19.33s-.22.16-.37.17v.28h-.26c0,.05,0,.09,0,.14s-.24,0-.33.09c-.16,0-.32.05-.48-.06a.22.22,0,0,0-.29,0c-.09-.09-.2-.06-.3-.06H35.14a2.88,2.88,0,0,0-.11.78,3.12,3.12,0,0,1-.06.41c0,.13,0,.28-.08.4a3.67,3.67,0,0,1-.23,1.14,2.63,2.63,0,0,1-.41.84,16,16,0,0,0-1.19,1.76c-.07.16-.22.28-.28.47s-.26.26-.29.46c0,0-.07.1-.12.12l-1,.51c-.16.08-.29.23-.48.25a1,1,0,0,1-.17,0,1.62,1.62,0,0,0-.82.29,2.93,2.93,0,0,1-.82.38c-.27.06-.54.16-.81.24l-.13,0a3.11,3.11,0,0,0-1,.15h-.07a5.5,5.5,0,0,0-.91.08,4.89,4.89,0,0,0-.86.2.32.32,0,0,1-.14,0,2.31,2.31,0,0,0-.52.06,1.92,1.92,0,0,1-.55.1,2.31,2.31,0,0,0-.51.07A6.19,6.19,0,0,0,22.5,33c-.27,0-.51.09-.77.07s-.34,0-.48-.07c-.16.11-.34.06-.52.07h-.5L19.71,33c-.16,0-.32,0-.48-.07s-.17,0-.25,0a.52.52,0,0,1-.49-.27,1.22,1.22,0,0,0-.46-.44l.16-.19a.53.53,0,0,0-.27-.26c-.15-.08-.14-.08-.21-.29s0-.18.05-.25.21-.25.09-.43,0-.21-.08-.3a.9.9,0,0,1,.06-.14c.07-.18.24-.31.29-.5s.08-.1.13-.12a.38.38,0,0,0,.25-.26c0-.1.15-.17.2-.27a1.58,1.58,0,0,0,.09-.36.79.79,0,0,0,.19.09c.06,0,.14,0,.16-.08s.11-.12.21-.14a4.68,4.68,0,0,1,1.29-.14c.12,0,.24-.05.38,0s.26,0,.4-.06.29,0,.43,0a2.14,2.14,0,0,0,.44,0,2.23,2.23,0,0,0,.57-.12c.12-.06.26,0,.4-.08A3.1,3.1,0,0,1,24,28.2a3.35,3.35,0,0,0,.44-.07c.15,0,.31.07.45-.06s.09,0,.14,0a.84.84,0,0,0,.41-.06c.11-.07.26,0,.4-.07a2.52,2.52,0,0,1,.55-.08,4.1,4.1,0,0,0,.92-.14,3.3,3.3,0,0,1,.77-.08,1.8,1.8,0,0,0,.89-.31,1.37,1.37,0,0,1,.2-.13.76.76,0,0,0,.41-.4c.08-.16.19-.31.28-.47s.25-.42.36-.65.19-.23.21-.34.14-.21.19-.32a2.06,2.06,0,0,0,.33-.88,1.21,1.21,0,0,1,.08-.28H28c-.15,0-.32-.06-.45.07h0a.82.82,0,0,0-.67,0c-.06-.18-.23.07-.31-.07a.17.17,0,0,0-.1,0,.79.79,0,0,1-.52.07H24.68c-.15,0-.31-.06-.44.06s0,0-.07,0a.83.83,0,0,0-.56,0c-.18.08-.41-.07-.59.08-.15-.2-.29,0-.45,0a6.38,6.38,0,0,1-1.14-.22,1,1,0,0,0-.07.15.94.94,0,0,1-.56-.34c-.05-.06,0-.08,0-.13s-.1-.12-.2-.08l-.1.05a1.9,1.9,0,0,1-.33-.63,5.09,5.09,0,0,1-.24-.95,2.23,2.23,0,0,1,0-.85,17.38,17.38,0,0,0,.06-2,.32.32,0,0,1,0-.17.47.47,0,0,0,0-.4,1.13,1.13,0,0,1,0-.41.47.47,0,0,1,0-.16c.1-.18-.2-.35,0-.53,0-.2,0-.4,0-.61v-.62a1.3,1.3,0,0,1-.66.1,9.11,9.11,0,0,0-1.06.08l-.48.07c-.16,0-.33,0-.47.08a2.18,2.18,0,0,1-.56.06,3.35,3.35,0,0,1-.44.07.7.7,0,0,0-.41.12c.09,1.07-.1,2.14-.06,3.23,0,.2.08.38.08.58a1.84,1.84,0,0,0,0,.62,3,3,0,0,1,.06.66,3.7,3.7,0,0,1,.08.48.62.62,0,0,0,.06.48s0,0,0,0A11.48,11.48,0,0,1,16.23,24c0,.56.1,1.11.08,1.67.09.16-.07.35.07.49a3,3,0,0,0-.07,1c0,.12,0,.25.06.37s0,.21,0,.31a2,2,0,0,0,0,.24c0,.1.07.19.07.29s-.06.2-.07.3.08.24,0,.32-.06.19,0,.28c-.13.1.06.19,0,.3s0,.11.1.1,0,.14,0,.16.05.25.07.38l-.21.2v.74l-.23.18v.4c0,.06,0,.14,0,.17a.78.78,0,0,1,.12.57c0,.68,0,1.36,0,2,0,.26-.05.52-.06.77a5.28,5.28,0,0,1,0,.8c-.08.34,0,.69-.07,1a1.9,1.9,0,0,1-.13.67.37.37,0,0,0,0,.18.19.19,0,0,1-.14.22c-.15,0-.13.18-.21.25l.05.07a.87.87,0,0,1-.64.19c-.18,0-.27.06-.36.19l.06.06s0,0-.05,0a.87.87,0,0,1-.49-.14c-.09-.05-.11,0-.12.12L13.2,39a1.81,1.81,0,0,1,0,.19l-.05,0c-.07-.15-.07-.34-.32-.34s-.1-.19-.16-.32c-.08.15-.15.27-.23.43,0-.12,0-.21,0-.29,0-.31,0-.31-.32-.32l-.19-.29v.35c-.07-.12-.24-.22-.09-.38,0,0,0,0,0,0s-.11-.23-.11-.36a4,4,0,0,1,0-.69c.11-.52,0-1.05.08-1.56a14.53,14.53,0,0,0,.06-1.61c0-.08,0-.17,0-.23a.12.12,0,0,0,0-.1,2.19,2.19,0,0,1-.07-.88c0-.29,0-.58,0-.87a.2.2,0,0,0,0-.05,16.45,16.45,0,0,1-1.55-.84,3.44,3.44,0,0,1-1.08-.73,2.38,2.38,0,0,1-.59-.8,8.1,8.1,0,0,1-.47-.93,5.27,5.27,0,0,1-.45-1.3,5.23,5.23,0,0,0-.18-.68,2.13,2.13,0,0,1,0-.25A10,10,0,0,0,7.37,25a3,3,0,0,0-.24-.88A12.24,12.24,0,0,0,6.73,23a1.83,1.83,0,0,0-.15-.7c-.06-.23-.12-.46-.2-.68a1.06,1.06,0,0,1,0-.61,1.68,1.68,0,0,0,0-.7A7.15,7.15,0,0,1,6.52,19a6.35,6.35,0,0,1,.23-1,9.35,9.35,0,0,1,.74-1.83,2.18,2.18,0,0,1,.93-1A4,4,0,0,0,9,14.66c.48-.32,1-.59,1.46-.95.33-.06.57-.32.87-.43a1.46,1.46,0,0,1,.2,0c0-.18,0-.35-.06-.52s0-.33-.08-.47v0a10.71,10.71,0,0,0-.07-1.13,10.41,10.41,0,0,1,0-1.12,9.21,9.21,0,0,0,.06-1.28c0-.43,0-.85,0-1.27a4.21,4.21,0,0,1,.12-.71c0-.16.07-.32.09-.47s0-.15.12-.17,0-.13,0-.22l.18.08s0-.12,0-.18,0,0,0,0,.13.15.19.22l.16-.09c.22.14.13.49.4.66a1.23,1.23,0,0,1,.14-.72.71.71,0,0,1,.56-.44s0,0,0,.06.19-.2.29-.29c.42-.07.81.25,1.24.11,0,.18.18.29.18.46s.12.28.07.44c.12.16,0,.36.09.51a1.69,1.69,0,0,1,.06.49c0,.13.05.27.07.4a2.9,2.9,0,0,0,.06.41,4.21,4.21,0,0,1,.08.87,2.25,2.25,0,0,0,.08.52c0,.16,0,.31.06.48a1.61,1.61,0,0,1,0,.54c0,.09-.09.16,0,.27a.52.52,0,0,1,.05.31c0,.08,0,.16,0,.24v1c.18,0,.37.07.54-.05h.07a6.61,6.61,0,0,0,1-.08,3,3,0,0,0,.51-.06c.16,0,.32,0,.49-.07s.21,0,.32,0,.21.05.3,0a.12.12,0,0,1,.1,0c.3.15.58-.09.89,0V9.28A9.6,9.6,0,0,1,19.93,8a8.09,8.09,0,0,1-.06-1.39c0-.47,0-.94,0-1.41,0-.15.08-.27.08-.41a2.06,2.06,0,0,0,0-.43c-.11-.53,0-1.08-.08-1.6s0-.74-.06-1.1A2,2,0,0,1,20,.86c.14-.07.3,0,.45-.06s.26,0,.39,0l.47.08L21.19.81l.35-.26Zm8.14,19c-.08-.33-.18-.62-.22-.91a3.13,3.13,0,0,0-.43-1,1.2,1.2,0,0,0-.58-.42A1.05,1.05,0,0,0,29,17.1c-.14,0-.23-.14-.38-.15a1.61,1.61,0,0,1-.37-.07c-.27-.08-.55-.11-.82-.2a11.32,11.32,0,0,0-1.13-.23c-.27-.06-.54-.11-.8-.19a.41.41,0,0,0-.29,0c0,.15,0,.3,0,.44s-.1.23,0,.34c-.17.13,0,.25,0,.38a.63.63,0,0,0-.07.22c0,.66,0,1.32,0,2a3,3,0,0,1,.45-.09c.33,0,.66,0,1-.06.55-.06,1.11,0,1.67-.08a14.79,14.79,0,0,1,1.49,0c.07,0,.16,0,.21,0s.41,0,.64.07m-19,7.89c0-.18.1-.37-.05-.54s0-.09,0-.14a.82.82,0,0,0,.06-.19,4.7,4.7,0,0,0,0-.65c0-.22.08-.46-.06-.67.13-.2,0-.39,0-.59,0-.42-.07-.85-.08-1.27q0-1.39,0-2.79a9.16,9.16,0,0,1,.05-1.17,7.66,7.66,0,0,0,0-1.36c-.45.35-1,.49-1.22,1.06,0,0-.07.06-.1.1s-.18.18-.19.28a7.23,7.23,0,0,0-.15.81,1.19,1.19,0,0,1-.09.47.82.82,0,0,0-.06.34c0,.08,0,.19,0,.25s0,.37-.06.55a.23.23,0,0,0,0,.16,3.45,3.45,0,0,1,.45.9c.06.15.09.33.16.48s.27.59.41.88a6.72,6.72,0,0,1,.52,1.85,5.32,5.32,0,0,0,.35,1.24"/><path d="M39.9,56.81h-1c0-.14,0-.28,0-.43l-.44.32a1,1,0,0,1-.51.18,2,2,0,0,1-.76-.07,1.08,1.08,0,0,1-.19-.08,1.82,1.82,0,0,1-.79-1.25,3.93,3.93,0,0,1-.06-.59,2,2,0,0,1,.1-.54,2,2,0,0,1,.28-.64,1.42,1.42,0,0,1,1.16-.6,1.65,1.65,0,0,1,.66.06,1,1,0,0,1,.2.12l.2.1V51.51H39.9Zm-1.56-.87.2-.21a.59.59,0,0,0,.2-.46c0-.22,0-.43,0-.65a.74.74,0,0,0-.6-.65c-.3,0-.62.27-.71.47s0,.37-.14.52c.12.16.07.35.13.53a.6.6,0,0,0,.32.37c.15.08.13.11.6.08"/><path d="M37.06,27.07l.29.29c0,.16-.07.35.13.49.08-.11.15-.22.23-.32s.17-.16.35,0,.14.13.2.12c.28,0,.27.17.26.36V28c.2.16.33.41.62.47,0,0,.11.08.1.1,0,.22.2.42,0,.64a.17.17,0,0,0,0,.17.41.41,0,0,1,.05.41c0,.13.06.28,0,.37s0,.33-.07.44,0,.29-.14.38c.07.31-.16.54-.25.8a5.52,5.52,0,0,1-.38.72c-.28.47-.64.87-1,1.33a8.17,8.17,0,0,0,.75,1.22c.11.15.26.27.27.47a.24.24,0,0,0,.06.08,8,8,0,0,1,.67.89,6.32,6.32,0,0,1,.47.79,2.29,2.29,0,0,1,.14.7l-.33.29h-.42v.25a1,1,0,0,0-.23.08,1.07,1.07,0,0,0-.15.17c-.07,0-.13-.08-.15-.06a.35.35,0,0,0-.13.14c0,.17-.05.35-.08.52s0,.07-.08.12L38,39.38c-.17,0-.12.19-.16.29-.26,0-.3-.21-.5-.3l-.29.11.17.18c-.07,0-.12,0-.15,0a1.7,1.7,0,0,1-.2-.19l-.19.25a2,2,0,0,1-1-.94l-.58-1c-.18-.34-.42-.64-.57-1a1.38,1.38,0,0,0-.19-.25h-.09a10.56,10.56,0,0,1-1.76.85,3,3,0,0,1-.66.23c-.14,0-.18.19-.34.16a.7.7,0,0,0-.33.08s-.15.09,0,.17a14.14,14.14,0,0,0,.58,2.12.17.17,0,0,0,0,.07c.27.25.25.62.36.94s.17.91.36,1.33.2.72.35,1.06c0,.12,0,.27.07.4a1.58,1.58,0,0,1,.08.37l-.19-.07-.07.07a.7.7,0,0,1,0,.58c0,.07-.07.13-.18.14s-.22.05-.33.06a1.82,1.82,0,0,1-.33,0,.53.53,0,0,1-.08.22,1,1,0,0,1-.6.37.54.54,0,0,0-.4.19c-.11.14-.19.12-.32,0a.28.28,0,0,1-.08-.11c0-.14-.12-.15-.23-.16s-.06-.08-.1-.15c0,.13-.1.25-.14.38-.22,0-.23-.26-.36-.36l-.18.43-.19-.37a.35.35,0,0,1-.14.13.16.16,0,0,1-.24-.08,6,6,0,0,1-.23-.59c-.05-.13-.05-.27-.11-.39a3.61,3.61,0,0,1-.18-.72A3.87,3.87,0,0,0,28,43c-.06-.14,0-.31-.1-.43a14.79,14.79,0,0,0-.4-1.75,5.3,5.3,0,0,1-.25-1.1c0-.06-.06-.12-.07-.19-.06-.24-.11-.48-.17-.75-.26.13-.53,0-.78.1a13.78,13.78,0,0,1-1.93.07,1.47,1.47,0,0,0-.21,0c-.11,0-.19.07-.18.18.05.43-.09.84-.08,1.27s-.1.61-.06.92c0,.09,0,.19.05.27a.1.1,0,0,1,0,.09c-.16.17,0,.39-.13.57a.34.34,0,0,0,0,.31.58.58,0,0,1,0,.53c0,.14-.06.29-.1.43l-.21.64s0,0,0,.05a.61.61,0,0,1-.19.54.69.69,0,0,1-.55-.12c-.1-.08-.15.1-.25.06-.06.2-.25.14-.38.24l-.27-.24a1.07,1.07,0,0,1-.82.28q0-.22-.12-.51a.48.48,0,0,0-.36.29,1.69,1.69,0,0,1-.23.34c0-.08,0-.12,0-.15a.46.46,0,0,0,0-.48c.08-.09.05-.16,0-.21h-.06c0,.07-.1.14-.18.25v-.4c-.14-.17-.26-.32-.37-.47a.25.25,0,0,1-.08-.15l0-.89s0-.06,0-.09c0-.34.05-.68.08-1s.07-.67.1-1a.51.51,0,0,0,0-.17c0-.22.13-.41.07-.63.13-.2.05-.44.07-.66a1,1,0,0,0,0-.17,5.81,5.81,0,0,1-1.24-.41c0-.17,0-.34.05-.5a1,1,0,0,0,0-.38c0-.1-.06-.14,0-.24s0-.22-.28-.27c0-.09,0-.21,0-.28a.25.25,0,0,0-.05-.36.21.21,0,0,1,0-.19,3.39,3.39,0,0,1,.33-.31c0-.23-.06-.51.06-.78-.15-.13,0-.25,0-.29a.66.66,0,0,1,.48-.24,3.35,3.35,0,0,0,.44-.07,5.15,5.15,0,0,1,1.17.16c.1,0,.2,0,.3.06s.22,0,.3.07h.07c.12,0,.25-.06.37-.07s.27,0,.35,0a.59.59,0,0,1,.34,0c.43,0,.85,0,1.27,0A3.61,3.61,0,0,0,25,34.52a2.09,2.09,0,0,1,.25,0c.15,0,.3,0,.45-.06s.31.06.44-.08a2.59,2.59,0,0,0,.87-.17,4.52,4.52,0,0,0,1-.2,5.23,5.23,0,0,0,1.45-.36,1,1,0,0,0,.21-.1,1.68,1.68,0,0,1,.61-.27c.13,0,.23-.14.35-.21a6.35,6.35,0,0,0,.91-.44c.2,0,.29-.19.49-.23a1.27,1.27,0,0,0,.48-.31,3.55,3.55,0,0,1,.44-.35c.14-.06.15-.23.31-.28s.21-.19.32-.29l.33-.33.31-.31a8.37,8.37,0,0,0,1.16-1.66,1.28,1.28,0,0,1,.25-.4c.11-.11.07-.32.28-.35,0-.2.18-.29.28-.42a3,3,0,0,0,.36-.43c.06-.13.23-.08.33-.15a.53.53,0,0,1,.2-.05"/><path d="M20.89,56.33v.47h-1V51.53H21v2a4,4,0,0,0,.37-.25.73.73,0,0,1,.54-.18,1.87,1.87,0,0,1,.7.06,1.7,1.7,0,0,1,.72.61,2.07,2.07,0,0,1,.3,1.08,3.11,3.11,0,0,1-.15,1,1.68,1.68,0,0,1-.57.77,1.78,1.78,0,0,1-1.33.28,1.14,1.14,0,0,1-.71-.54M21,55v.18a.84.84,0,0,0,.28.68.62.62,0,0,0,.8,0,1.08,1.08,0,0,0,.35-.65,1.22,1.22,0,0,0-.12-.77.67.67,0,0,0-.42-.4.5.5,0,0,0-.43,0,.93.93,0,0,0-.46.57A1.44,1.44,0,0,0,21,55"/><path d="M35.86,56.81H35c-.22,0-.22,0-.27-.27l-.58.31-.06,0a3.27,3.27,0,0,1-.88-.07,1,1,0,0,1-.72-.94,1.33,1.33,0,0,1,0-.48,1.43,1.43,0,0,1,.38-.57,2.2,2.2,0,0,1,.76-.34,1.54,1.54,0,0,1,.56-.07.61.61,0,0,0,.35-.11.44.44,0,0,0-.44-.4,2,2,0,0,0-1,.18l-.17.05c-.06-.16-.13-.31-.18-.47s0-.25.18-.34a2.59,2.59,0,0,1,.81-.22c.23,0,.46,0,.69,0a1.32,1.32,0,0,1,1.29,1.34c0,.48,0,1,0,1.45,0,.29,0,.58.09.91m-1.19-1.67h-.41a.7.7,0,0,0-.57.36,2,2,0,0,0,0,.32l.26.26c.49.06.84-.28.76-.94"/><path d="M11.74,54.29a.48.48,0,0,0-.57-.39,1.62,1.62,0,0,0-.93.22s-.09,0-.16,0c-.07-.23-.14-.46-.22-.69a2.08,2.08,0,0,1,.84-.31,4.3,4.3,0,0,1,.72,0,1.33,1.33,0,0,1,1.41,1,2.41,2.41,0,0,1,.07.7v1.41a.92.92,0,0,0,.07.52s0,.07,0,.11H11.88v-.31l-.17.09a.93.93,0,0,1-.75.3,1.14,1.14,0,0,0-.32,0,1.07,1.07,0,0,1-1-1,1.4,1.4,0,0,0,0-.29.79.79,0,0,1,.19-.54,1.52,1.52,0,0,1,.92-.57,1.62,1.62,0,0,1,.66-.08c.14,0,.23-.06.34-.12m-1,1.19a2,2,0,0,0,0,.34.2.2,0,0,0,.07.15.53.53,0,0,0,.64,0l.23-.22c0-.22.16-.41,0-.62a1,1,0,0,0-1,.34"/><path d="M27.27,55.36H25c0,.06,0,.12,0,.15a1,1,0,0,0,.75.5,5.3,5.3,0,0,0,.69,0,5.66,5.66,0,0,0,.56-.13c.09.23.07.49.15.73,0,0-.05.12-.08.12a3.4,3.4,0,0,1-.77.16c-.22,0-.44,0-.65,0a1.72,1.72,0,0,1-1.48-.73,1.19,1.19,0,0,1-.26-.76v-.65a1.57,1.57,0,0,1,.22-.77,1.74,1.74,0,0,1,.92-.79,1.34,1.34,0,0,1,.63-.08,3.34,3.34,0,0,1,.62.06,1.5,1.5,0,0,1,.8.66,1.34,1.34,0,0,1,.22.81c0,.23,0,.46,0,.73M25.34,53.9c-.15.2-.42.33-.39.66.45,0,.88,0,1.29,0a1.23,1.23,0,0,1-.06-.22.51.51,0,0,0-.47-.43h-.37"/><path d="M9.55,56.8H6.38v-5H7.51v4l0,0h2Z"/><path d="M14.72,56.79v-5h1.14a0,0,0,0,1,0,0v4h1.94a1.79,1.79,0,0,1,0,.46c0,.16,0,.32,0,.48Z"/><path d="M31.64,55.69l.24.25h.54v.41c0,.15,0,.29,0,.42a.6.6,0,0,1-.44.11,3.68,3.68,0,0,0-.47,0,1,1,0,0,1-1-.83,3.26,3.26,0,0,1-.06-.7c0-.42,0-.84,0-1.29L30,54v-.85h.42v-.7l1.16-.31v1h.79V54c-.24,0-.5,0-.77,0Z"/><path d="M16.88,50.92h-.57v-1.6l-.37.3a1.15,1.15,0,0,1-.95.13,1.19,1.19,0,0,1-.71-.54,1.71,1.71,0,0,1-.25-.66,1.57,1.57,0,0,1,0-.71,1.92,1.92,0,0,1,.17-.59,1.11,1.11,0,0,1,.75-.61,1.58,1.58,0,0,1,1,0,.49.49,0,0,1,.14.11l.28.31v-.42h.5Zm-.57-2.8a1.79,1.79,0,0,0,0-.4.72.72,0,0,0-.34-.56.77.77,0,0,0-.89,0,1,1,0,0,0-.43.64c0,.1,0,.25,0,.32s0,.18,0,.27a.7.7,0,0,0,.15.52c.15.3.46.35.74.43.17-.11.4-.11.53-.3a1,1,0,0,0,.25-.55v-.36"/><path d="M28.65,53.19v.62a1.07,1.07,0,0,1,1.23-.69v1.07c-.17,0-.32,0-.48,0a.51.51,0,0,0-.44.25,1,1,0,0,0-.17.54c0,.6,0,1.2,0,1.82H27.65V53.19Z"/><path d="M6.36,49.68c0-1.35,0-2.7,0-4,0-.18,0-.23.22-.23.45,0,.9,0,1.34,0a1.17,1.17,0,0,1,1.06.9,1.88,1.88,0,0,1,0,.82.43.43,0,0,1-.09.21A1.6,1.6,0,0,1,7.57,48H7v1.66ZM7,47.49a1.5,1.5,0,0,0,.35.09,1.41,1.41,0,0,0,.55-.07c.21-.1.47-.19.52-.45s.2-.38,0-.58A.56.56,0,0,0,8.05,46a1.48,1.48,0,0,0-.88-.14c-.17,0-.22,0-.22.23,0,.47,0,.94,0,1.41"/><path d="M23.5,48.31H21.43c-.11.23,0,.4.1.59s.3.26.47.33a.72.72,0,0,0,.66.05,1.78,1.78,0,0,1,.59-.1c0,.13.08.26.11.38a2.17,2.17,0,0,1-1.34.2,1.37,1.37,0,0,1-1.14-1,2.7,2.7,0,0,1,0-1.1,1.59,1.59,0,0,1,.61-.95.93.93,0,0,1,.44-.16,1.94,1.94,0,0,1,.68,0,1.08,1.08,0,0,1,.68.5,1.28,1.28,0,0,1,.22.82,2.8,2.8,0,0,0,0,.41m-2.08-.43h1a2.67,2.67,0,0,0,.4,0s.09-.06.13-.1c-.12-.14,0-.36-.19-.49s-.18-.2-.25-.27h-.47a.51.51,0,0,0-.17,0,.65.65,0,0,0-.36.31c-.07.16-.22.31-.12.53"/><path d="M11.69,49.68h-.61v-.32a1.3,1.3,0,0,1-1.21.4.91.91,0,0,1-.67-.62,1.37,1.37,0,0,1,.06-.69,1.14,1.14,0,0,1,.69-.57,2.1,2.1,0,0,1,1-.14c.06-.38,0-.61-.33-.7A1.67,1.67,0,0,0,10,47a2.28,2.28,0,0,0-.45.17L9.48,47c-.11-.24-.09-.21.15-.33a2.61,2.61,0,0,1,1.17-.14,1.22,1.22,0,0,1,.57.35,1.14,1.14,0,0,1,.22.74c0,.26,0,.53,0,.8a3.65,3.65,0,0,0,.1,1.22M11,48.17h-.43a1,1,0,0,0-.51.15.5.5,0,0,0-.29.54.44.44,0,0,0,.27.43.81.81,0,0,0,.34,0,.67.67,0,0,0,.62-.67v-.49"/><path d="M18.14,53.18h1.13V56.8H18.14Z"/><path d="M20.32,49.68h-.59v-.46a1.06,1.06,0,0,1-.64.5,1.34,1.34,0,0,1-1-.11,1.19,1.19,0,0,1-.38-.6,2.57,2.57,0,0,1-.08-.62c0-.58,0-1.15,0-1.74h.58c0,.46,0,.92,0,1.37,0,.16.08.29.08.44a2.22,2.22,0,0,0,.06.45.46.46,0,0,0,.36.34.77.77,0,0,0,.74-.19.73.73,0,0,0,.22-.52c0-.55,0-1.09,0-1.64v-.25h.58v2c0,.18,0,.36,0,.54s.06.32.09.5"/><path d="M12.33,46.65h.49v.53c.29-.4.56-.72,1.08-.59v.49a1,1,0,0,0-.3,0,.8.8,0,0,0-.63.81c0,.59,0,1.18,0,1.79h-.64Z"/><path d="M18.12,52.4c0-.16,0-.33.07-.51a.58.58,0,0,1,.76-.26.61.61,0,0,1,.39.41.56.56,0,0,1-.48.7h-.4l-.34-.34"/><rect x="56.32" y="0.55" width="1.03" height="56.52"/><path d="M77.7,32.34A14.1,14.1,0,1,1,90.23,11.8a1.74,1.74,0,1,1-3.09,1.59,10.62,10.62,0,1,0,.14,9.43,1.74,1.74,0,0,1,3.13,1.5,14.17,14.17,0,0,1-12.71,8"/><path d="M92.37,29.07a1.78,1.78,0,0,0,1.74,1.78H116a1.81,1.81,0,0,0,0-3.61H96.77a.9.9,0,0,1-.92-1h0V20.86a1.07,1.07,0,0,1,1-1.05h8a1.71,1.71,0,1,0,0-3.42H96.75a1.25,1.25,0,0,1-.9-1.15h0V9.88a1.14,1.14,0,0,1,1.09-1.11H116a1.72,1.72,0,1,0,0-3.43H94.11A1.76,1.76,0,0,0,92.37,7.1Z"/><path d="M154.18,28.29,143.25,6.42a1.74,1.74,0,0,0-3.11,0l-4.31,8.64a2,2,0,0,1-1.89,1.33H110.23a1.71,1.71,0,1,0,0,3.42h11c.55,0,.85.49.85,1V40a1.81,1.81,0,0,0,3.62,0V20.86h0a1,1,0,0,1,1-1h5.55a.76.76,0,0,1,.76.75,1.66,1.66,0,0,1-.13.45l-3.64,7.28a1.74,1.74,0,0,0,.77,2.33,1.69,1.69,0,0,0,2.29-.78l4.27-8.63h0s.06,0,.07-.06l.08-.11a2.11,2.11,0,0,1,2-1.23h2.8a1.71,1.71,0,1,0,0-3.42h-.77c-1,0-1.42-.43-1.06-1.26a0,0,0,0,0,0,0l1.89-3.79c.06-.13.17-.13.23,0s9.27,18.53,9.27,18.53a1.72,1.72,0,0,0,1.55,1,1.81,1.81,0,0,0,.78-.18,1.74,1.74,0,0,0,.77-2.33"/><path d="M170.16,5.3a1.73,1.73,0,0,0-2.33.78l-9.27,18.54c-.06.12-.17.12-.23,0L149.06,6.08A1.74,1.74,0,1,0,146,7.64L156.89,29.5a1.74,1.74,0,0,0,3.11,0L170.93,7.64a1.75,1.75,0,0,0-.77-2.34"/><path d="M131,33.69a1.2,1.2,0,0,0-1,.45,1.92,1.92,0,0,0-.37,1.23,1.94,1.94,0,0,0,.35,1.25,1.26,1.26,0,0,0,1,.43,1.93,1.93,0,0,0,.49-.06c.18,0,.31-.09.5-.15v.63a2.56,2.56,0,0,1-1.14.2,1.84,1.84,0,0,1-1.48-.6,2.47,2.47,0,0,1-.51-1.7,2.74,2.74,0,0,1,.26-1.22,1.84,1.84,0,0,1,.75-.81,2.28,2.28,0,0,1,1.13-.28,2.85,2.85,0,0,1,1.27.29L132,34c-.15-.07-.31-.13-.48-.19a1.84,1.84,0,0,0-.53-.08"/><path d="M134.33,37.67a1.64,1.64,0,0,1-1.24-.46,1.78,1.78,0,0,1-.44-1.27,1.92,1.92,0,0,1,.41-1.31,1.45,1.45,0,0,1,1.14-.47,1.31,1.31,0,0,1,1,.41,1.53,1.53,0,0,1,.35,1.12V36h-2.19a1.16,1.16,0,0,0,.26.8,1,1,0,0,0,.71.29,2.14,2.14,0,0,0,.52,0,2.61,2.61,0,0,0,.52-.17v.58a3,3,0,0,1-.5.18,3.18,3.18,0,0,1-.57.05m-.13-3a.73.73,0,0,0-.55.25.89.89,0,0,0-.25.66h1.54a.82.82,0,0,0-.2-.66.71.71,0,0,0-.54-.25"/><path d="M139.39,37.52h-.76v-2a1,1,0,0,0-.11-.59.57.57,0,0,0-.48-.19.85.85,0,0,0-.69.27,1.41,1.41,0,0,0-.24.9v1.6h-.76V34.28H137l.1.38h0a.82.82,0,0,1,.43-.37,1.32,1.32,0,0,1,.6-.13c.81,0,1.19.41,1.19,1.24Z"/><path d="M141.72,37.09a2.07,2.07,0,0,0,.53-.08v.54c-.19,0-.19.06-.31.08a1.67,1.67,0,0,1-.39,0q-1,0-1-1.08V34.85H140v-.4l.54-.24.29-.69h.32v.76h1.14v.57h-1.14v1.73a.56.56,0,0,0,.19.38.64.64,0,0,0,.42.13"/><path d="M144.83,34.16a1.69,1.69,0,0,1,.35,0l-.07.67a1.65,1.65,0,0,0-.32,0,1,1,0,0,0-.72.29,1,1,0,0,0-.3.73v1.68H143V34.28h.66l.09.57h0a1.52,1.52,0,0,1,.44-.5,1.06,1.06,0,0,1,.59-.19"/><path d="M148.63,35.91a1.9,1.9,0,0,1-.42,1.3,1.54,1.54,0,0,1-1.19.46,1.64,1.64,0,0,1-.84-.21,1.47,1.47,0,0,1-.56-.62,2.12,2.12,0,0,1-.2-.93,1.81,1.81,0,0,1,.43-1.29,1.52,1.52,0,0,1,1.19-.46,1.49,1.49,0,0,1,1.16.47,1.82,1.82,0,0,1,.43,1.28m-2.47,0q0,1.17.87,1.17c.57,0,.86-.39.86-1.17s-.29-1.16-.86-1.16a.73.73,0,0,0-.66.3,1.48,1.48,0,0,0-.21.86"/><path d="M152,37.66a1.15,1.15,0,0,1-1-.46,2,2,0,0,1-.36-1.28,2.07,2.07,0,0,1,.36-1.3,1.19,1.19,0,0,1,1-.46,1.08,1.08,0,0,1,1,.5h0a3.07,3.07,0,0,1,.09-.58V32.76h.57v4.76h-.55l-.12-.39h0a1.06,1.06,0,0,1-1,.53m.19-.57a.91.91,0,0,0,.7-.25,1.32,1.32,0,0,0,.26-.81v-.1a1.47,1.47,0,0,0-.26-.91.83.83,0,0,0-.68-.27.7.7,0,0,0-.6.3,1.57,1.57,0,0,0-.21.88,1.46,1.46,0,0,0,.2.86.65.65,0,0,0,.59.3"/><path d="M156,37.67a1.61,1.61,0,0,1-1.23-.46,1.74,1.74,0,0,1-.45-1.27,2,2,0,0,1,.41-1.31,1.46,1.46,0,0,1,1.14-.47,1.32,1.32,0,0,1,1,.41,1.54,1.54,0,0,1,.38,1.12V36h-2.23a1.11,1.11,0,0,0,.27.8.93.93,0,0,0,.71.29,3.05,3.05,0,0,0,.62,0c.18,0,.25-.09.63-.17v.58a3.7,3.7,0,0,1-.6.18,4.75,4.75,0,0,1-.69.05m-.13-3a.73.73,0,0,0-.55.25.89.89,0,0,0-.25.66h1.54a.82.82,0,0,0-.2-.66.7.7,0,0,0-.54-.25"/><polygon points="131.02 44.18 130.25 44.18 130.25 40.18 128.92 40.18 128.92 39.61 132.35 39.61 132.35 40.18 131.02 40.18 131.02 44.18"/><path d="M133.84,44.17a1.64,1.64,0,0,1-1.24-.46,1.74,1.74,0,0,1-.44-1.27,1.91,1.91,0,0,1,.41-1.31,1.4,1.4,0,0,1,1.14-.47,1.23,1.23,0,0,1,1,.41,1.56,1.56,0,0,1,.31,1.12v.47H132.9a1.32,1.32,0,0,0,.26.71.92.92,0,0,0,.71.25,2.54,2.54,0,0,0,.57-.07,2.78,2.78,0,0,0,.57-.2v.59a3.11,3.11,0,0,1-.54.18,3.93,3.93,0,0,1-.63.05m-.13-3a.74.74,0,0,0-.55.23.88.88,0,0,0-.25.65h1.54a.81.81,0,0,0-.21-.65.68.68,0,0,0-.53-.23"/><path d="M137.34,44.17a1.49,1.49,0,0,1-1.17-.45,1.91,1.91,0,0,1-.4-1.29,1.86,1.86,0,0,1,.42-1.31,1.54,1.54,0,0,1,1.21-.46,2.12,2.12,0,0,1,1,.2l-.21.58a2.2,2.2,0,0,0-.76-.18c-.58,0-.88.39-.88,1.16a1.43,1.43,0,0,0,.22.86.74.74,0,0,0,.63.29,2.05,2.05,0,0,0,.89-.24V44a2.76,2.76,0,0,1-.4.16,2.37,2.37,0,0,1-.51.05"/><path d="M142.25,44.18h-.76V42a.88.88,0,0,0-.14-.58.57.57,0,0,0-.49-.19.84.84,0,0,0-.68.27,1.46,1.46,0,0,0-.22.9v1.76h-.76V40.75h.64l.1.38h0a.87.87,0,0,1,.44-.36,1.56,1.56,0,0,1,.62-.12,1.09,1.09,0,0,1,1.22,1.25Z"/><path d="M146.26,42.41a1.86,1.86,0,0,1-.42,1.29,1.73,1.73,0,0,1-2,.25,1.38,1.38,0,0,1-.56-.61,2.12,2.12,0,0,1-.2-.93,1.81,1.81,0,0,1,.43-1.29,1.51,1.51,0,0,1,1.19-.46,1.46,1.46,0,0,1,1.16.47,1.82,1.82,0,0,1,.43,1.28m-2.47,0q0,1.17.87,1.17c.57,0,.86-.39.86-1.17s-.29-1.16-.86-1.16a.73.73,0,0,0-.66.3,1.48,1.48,0,0,0-.21.86"/><rect x="147.01" y="39.42" width="0.76" height="4.76"/><path d="M151.84,42.41a1.86,1.86,0,0,1-.42,1.29,1.53,1.53,0,0,1-1.19.47,1.6,1.6,0,0,1-.84-.22,1.38,1.38,0,0,1-.56-.61,2.12,2.12,0,0,1-.19-.93,1.86,1.86,0,0,1,.42-1.29,1.52,1.52,0,0,1,1.19-.46,1.49,1.49,0,0,1,1.17.47,1.86,1.86,0,0,1,.42,1.28m-2.46,0c0,.78.29,1.17.86,1.17s.86-.39.86-1.17-.28-1.16-.86-1.16a.75.75,0,0,0-.66.3,1.56,1.56,0,0,0-.2.86"/><path d="M155.76,40.75v.36l-.59.11a1,1,0,0,1,.16.6,1,1,0,0,1-.36.82,1.51,1.51,0,0,1-1,.3l-.29,0a.38.38,0,0,0-.23.33c0,.08,0,.1.1.14a1.08,1.08,0,0,0,.4,0h.6a1.33,1.33,0,0,1,.85.27.9.9,0,0,1,.29.71,1,1,0,0,1-.48.89,2.45,2.45,0,0,1-1.37.32,2,2,0,0,1-1.06-.24.81.81,0,0,1-.36-.7.69.69,0,0,1,.2-.52,1,1,0,0,1,.55-.3.52.52,0,0,1-.24-.2.49.49,0,0,1-.09-.28A.47.47,0,0,1,153,43a1.45,1.45,0,0,1,.31-.26.88.88,0,0,1-.42-.37,1.07,1.07,0,0,1-.17-.59A1.09,1.09,0,0,1,153,41a1.46,1.46,0,0,1,1-.3c.1,0,.2,0,.3,0s.19.06.24.06Zm-2.7,3.89a.38.38,0,0,0,.21.35,1.1,1.1,0,0,0,.59.13,1.82,1.82,0,0,0,.88-.17.51.51,0,0,0,.29-.45.28.28,0,0,0-.16-.27,1.5,1.5,0,0,0-.59,0h-.54a.78.78,0,0,0-.5.1.42.42,0,0,0-.18.36m.31-2.82a.69.69,0,0,0,.17.49.6.6,0,0,0,.46.17c.42,0,.63-.22.63-.67a.78.78,0,0,0-.15-.51.72.72,0,0,0-.95,0,.79.79,0,0,0-.16.52"/><path d="M156.53,40.37v-.14c0-.14.22-.34.35-.52a1.94,1.94,0,0,0,.28-.48h.7v.13c0,.13-.2.32-.41.52a4.22,4.22,0,0,0-.47.49Zm.76,3.81h-.76V40.75h.76Z"/><path d="M160.6,44.18l-.14-.57h0a1.6,1.6,0,0,1-.5.43,1.46,1.46,0,0,1-.64.12,1.08,1.08,0,0,1-.78-.26,1.05,1.05,0,0,1-.28-.77.88.88,0,0,1,.39-.78,2.11,2.11,0,0,1,1.15-.3h.55v-.18a.7.7,0,0,0-.11-.49.58.58,0,0,0-.45-.16,1.38,1.38,0,0,0-.5.08,3.52,3.52,0,0,0-.45.18l-.23-.52a2.66,2.66,0,0,1,.6-.22,2.81,2.81,0,0,1,.62-.07,1.44,1.44,0,0,1,1,.28,1.09,1.09,0,0,1,.31.88v2.36Zm-1.07-.56a.85.85,0,0,0,.6-.22.78.78,0,0,0,.2-.62v-.29l-.4,0a1.38,1.38,0,0,0-.72.17.49.49,0,0,0-.23.46.45.45,0,0,0,.14.35.56.56,0,0,0,.41.13"/><path d="M163.6,40.75h.79l.69,1.91a4.32,4.32,0,0,1,.2.76h0a1.56,1.56,0,0,1,.1-.4c.05-.16.31-.94.78-2.27H167l-1.45,3.82a1.35,1.35,0,0,1-1.31,1,1.93,1.93,0,0,1-.45-.06V45s.22,0,.36,0a.75.75,0,0,0,.72-.6l.13-.31Z"/><path d="M132.21,51l-.44-1.33h-1.72L129.62,51h-.78l1.68-4.57h.8L133,51Zm-.64-1.9-.42-1.21c0-.08-.07-.21-.12-.38s-.09-.31-.11-.39a7.35,7.35,0,0,1-.25.82l-.4,1.16Z"/><path d="M135.25,47.57a1.69,1.69,0,0,1,.35,0l-.07.67a1.66,1.66,0,0,0-.32,0,.9.9,0,0,0-.69.28,1,1,0,0,0-.27.73V51h-.76V47.6h.6l.1.58h0a1.38,1.38,0,0,1,.44-.46,1,1,0,0,1,.59-.15"/><path d="M137.89,50.5a2.15,2.15,0,0,0,.55-.08V51a2.43,2.43,0,0,0-.33.09,3.48,3.48,0,0,1-.47,0,1,1,0,0,1-1.1-1.08V48.18h-.38v-.32l.52-.28.28-.74h.34v.76h.95v.58h-.95V50a.54.54,0,0,0,.19.39.65.65,0,0,0,.4.12"/><path d="M140.56,51.08a1.64,1.64,0,0,1-1.24-.46,1.78,1.78,0,0,1-.44-1.27,1.93,1.93,0,0,1,.41-1.3,1.44,1.44,0,0,1,1.14-.48,1.38,1.38,0,0,1,1,.41,1.54,1.54,0,0,1,.39,1.12v.41h-2.25a1,1,0,0,0,.27.75.93.93,0,0,0,.7.26,2.44,2.44,0,0,0,.55-.06,2.7,2.7,0,0,0,.54-.19v.58a1.9,1.9,0,0,1-.52.18,2.74,2.74,0,0,1-.6,0m-.13-3a.7.7,0,0,0-.55.2,1.26,1.26,0,0,0-.25.62h1.54a1,1,0,0,0-.2-.62.66.66,0,0,0-.54-.2"/><path d="M145,50.06a.89.89,0,0,1-.36.76,1.86,1.86,0,0,1-1.06.26,2.41,2.41,0,0,1-1.11-.2v-.62a2.75,2.75,0,0,0,1.14.27c.44,0,.67-.13.67-.4a.38.38,0,0,0-.06-.22,1.07,1.07,0,0,0-.24-.17l-.47-.21a2.18,2.18,0,0,1-.79-.45.85.85,0,0,1-.21-.59.79.79,0,0,1,.35-.68,1.68,1.68,0,0,1,1-.24,2.73,2.73,0,0,1,1.13.24l-.23.55a2.41,2.41,0,0,0-.93-.23c-.38,0-.57.11-.57.32a.32.32,0,0,0,.15.27A3,3,0,0,0,144,49a2.69,2.69,0,0,1,.61.29.9.9,0,0,1,.28.31.94.94,0,0,1,.09.43"/><path d="M150.2,46.46H151L149.39,51h-.77l-1.56-4.57h.75l.94,2.83c0,.13.1.32.15.53s.09.38.11.48c0-.16.07-.33.12-.54s.1-.39.14-.49Z"/><path d="M151.62,46.73a.4.4,0,0,1,.11-.29.46.46,0,0,1,.6,0,.39.39,0,0,1,.1.29.38.38,0,0,1-.1.29.46.46,0,0,1-.6,0,.38.38,0,0,1-.11-.29m.72,4.3h-.76V47.6h.76Z"/><path d="M155.69,50.06a.89.89,0,0,1-.36.76,2,2,0,0,1-1.09.26,3.21,3.21,0,0,1-1.14-.2v-.62a2.87,2.87,0,0,0,1.16.27c.45,0,.7-.13.7-.4a.32.32,0,0,0-.06-.22,1.07,1.07,0,0,0-.24-.17,4.37,4.37,0,0,0-.46-.21,2.09,2.09,0,0,1-.79-.45.85.85,0,0,1-.21-.59.79.79,0,0,1,.35-.68,1.68,1.68,0,0,1,1-.24,2.76,2.76,0,0,1,1.13.24l-.23.55a2.41,2.41,0,0,0-.93-.23c-.38,0-.57.11-.57.32a.32.32,0,0,0,.15.27,3,3,0,0,0,.65.31,2.69,2.69,0,0,1,.61.29,1,1,0,0,1,.28.31.94.94,0,0,1,.09.43"/><path d="M158.86,51l-.1-.38h0c-.1,0-.24.24-.42.34a1.62,1.62,0,0,1-.64.11,1.35,1.35,0,0,1-1-.32,1.3,1.3,0,0,1-.36-.93V47.6h.77v2.12a.9.9,0,0,0,.19.59.65.65,0,0,0,.52.19.72.72,0,0,0,.63-.27,1.53,1.53,0,0,0,.18-.91V47.6h.76V51Z"/><path d="M162.58,51l-.15-.57h0a.73.73,0,0,1-.5.47,1.56,1.56,0,0,1-.63.13,1.05,1.05,0,0,1-.78-.26,1,1,0,0,1-.28-.76.89.89,0,0,1,.38-.78,1.93,1.93,0,0,1,1.12-.29l.52,0v-.18c0-.22,0-.38-.09-.49a.55.55,0,0,0-.43-.16,1.56,1.56,0,0,0-.48.08,3,3,0,0,0-.45.18l-.23-.51a2.39,2.39,0,0,1,.6-.22,2.85,2.85,0,0,1,.62-.08,1.38,1.38,0,0,1,.93.28,1.11,1.11,0,0,1,.29.89V51Zm-1.08-.5a.74.74,0,0,0,.57-.22.78.78,0,0,0,.17-.61v-.3l-.37,0a1.36,1.36,0,0,0-.71.17.52.52,0,0,0-.21.47.47.47,0,0,0,.14.35.61.61,0,0,0,.41.12"/><rect x="163.76" y="46.27" width="0.57" height="4.76"/><path d="M166.75,51.08a1.61,1.61,0,0,1-1.23-.46,1.74,1.74,0,0,1-.45-1.27,1.88,1.88,0,0,1,.42-1.3,1.4,1.4,0,0,1,1.13-.48,1.27,1.27,0,0,1,1,.41A1.52,1.52,0,0,1,168,49.1v.41h-2.14a1,1,0,0,0,.27.75,1,1,0,0,0,.71.26,2.65,2.65,0,0,0,.58-.06c.17,0,.2-.1.58-.19v.58a2.14,2.14,0,0,1-.56.18,3.14,3.14,0,0,1-.64,0m-.13-3a.7.7,0,0,0-.55.2,1.26,1.26,0,0,0-.25.62h1.54a1,1,0,0,0-.2-.62.66.66,0,0,0-.54-.2"/><path d="M171.17,50.06a.92.92,0,0,1-.36.76,1.78,1.78,0,0,1-1,.26,2.23,2.23,0,0,1-1.07-.2v-.62a2.58,2.58,0,0,0,1.1.27c.44,0,.66-.13.66-.4a.33.33,0,0,0-.08-.22,1.07,1.07,0,0,0-.24-.17l-.47-.21a2.24,2.24,0,0,1-.8-.45.9.9,0,0,1-.2-.59.77.77,0,0,1,.35-.68,1.65,1.65,0,0,1,.95-.24,2.7,2.7,0,0,1,1.13.24l-.23.55a2.37,2.37,0,0,0-.92-.23c-.38,0-.57.11-.57.32a.33.33,0,0,0,.14.27,3,3,0,0,0,.65.31,2.49,2.49,0,0,1,.61.29.9.9,0,0,1,.28.31.83.83,0,0,1,.1.43"/></svg>