<svg id="Layer_1" data-name="Layer 1" xmlns="http://www.w3.org/2000/svg" viewBox="0 0 177.5 57.3"><title>Artboard 1cuestamoras</title><path d="M61.15,23.14,60,24.05a6.5,6.5,0,0,0-2.37-1.95,7,7,0,0,0-3-.66,6.73,6.73,0,0,0-3.36.87,6.3,6.3,0,0,0-2.39,2.33,6.44,6.44,0,0,0-.85,3.3,6.16,6.16,0,0,0,1.9,4.62,6.56,6.56,0,0,0,4.79,1.85A6.74,6.74,0,0,0,60,31.92l1.19.91a7.63,7.63,0,0,1-2.82,2.23,8.94,8.94,0,0,1-3.78.78,7.88,7.88,0,0,1-6.27-2.64,8,8,0,0,1-1.92-5.39,7.46,7.46,0,0,1,2.33-5.59A8,8,0,0,1,54.53,20a8.51,8.51,0,0,1,3.82.84A7.35,7.35,0,0,1,61.15,23.14Z"/><path d="M62.52,24.27H64v5.22a11,11,0,0,0,.21,2.64,2.89,2.89,0,0,0,1.18,1.62,3.56,3.56,0,0,0,2.07.6,3.49,3.49,0,0,0,2-.58,3,3,0,0,0,1.16-1.53,11,11,0,0,0,.22-2.75V24.27h1.47v5.49a8.68,8.68,0,0,1-.54,3.49,4.22,4.22,0,0,1-1.63,1.84,5.15,5.15,0,0,1-2.72.66,5.21,5.21,0,0,1-2.73-.66,4.12,4.12,0,0,1-1.64-1.86,9,9,0,0,1-.54-3.57Z"/><path d="M83.7,31.75l1.21.64a6.7,6.7,0,0,1-1.38,1.89,5.46,5.46,0,0,1-1.76,1.09,6.13,6.13,0,0,1-2.21.38A5.35,5.35,0,0,1,75.27,34a6,6,0,0,1-1.54-4.05A6,6,0,0,1,75,26.1,5.34,5.34,0,0,1,79.47,24a5.53,5.53,0,0,1,4.58,2.17A6,6,0,0,1,85.28,30H75.21a4.56,4.56,0,0,0,1.25,3.2,4,4,0,0,0,3,1.24,5,5,0,0,0,1.67-.29,4.56,4.56,0,0,0,1.37-.79A6.75,6.75,0,0,0,83.7,31.75Zm0-3a4.69,4.69,0,0,0-.84-1.84,4,4,0,0,0-1.46-1.11,4.46,4.46,0,0,0-1.9-.42,4.1,4.1,0,0,0-2.84,1.06,4.76,4.76,0,0,0-1.31,2.31Z"/><path d="M92.35,25.49l-.92,1a3.33,3.33,0,0,0-2.26-1.12,1.68,1.68,0,0,0-1.2.46,1.42,1.42,0,0,0-.51,1.08,1.6,1.6,0,0,0,.42,1,5.6,5.6,0,0,0,1.73,1.18A6.55,6.55,0,0,1,91.8,30.7a3,3,0,0,1,.56,1.76,3.12,3.12,0,0,1-1,2.33,3.29,3.29,0,0,1-2.42,1,4.28,4.28,0,0,1-1.85-.42,4.15,4.15,0,0,1-1.46-1.16l.91-1a3.15,3.15,0,0,0,2.34,1.24,2.12,2.12,0,0,0,1.48-.55,1.73,1.73,0,0,0,.6-1.31,1.66,1.66,0,0,0-.4-1.1,6.35,6.35,0,0,0-1.81-1.2,5.72,5.72,0,0,1-2.06-1.54,2.88,2.88,0,0,1-.55-1.74A2.84,2.84,0,0,1,87,24.82a3,3,0,0,1,2.2-.84A4.54,4.54,0,0,1,92.35,25.49Z"/><path d="M94.92,20.11h1.44v4.16h2.28v1.24H96.36v10H94.92V25.51H93V24.27h2Z"/><path d="M110.71,24.27V35.46h-1.42V33.54a6.16,6.16,0,0,1-2,1.65,5.5,5.5,0,0,1-2.47.56A5.44,5.44,0,0,1,100.74,34a5.76,5.76,0,0,1-1.69-4.2,5.66,5.66,0,0,1,1.7-4.13A5.52,5.52,0,0,1,104.84,24a5.29,5.29,0,0,1,2.49.59,5.61,5.61,0,0,1,2,1.76V24.27ZM105,25.37a4.31,4.31,0,0,0-3.83,2.25,4.49,4.49,0,0,0,0,4.52,4.39,4.39,0,0,0,1.63,1.68,4.25,4.25,0,0,0,2.19.6,4.55,4.55,0,0,0,2.24-.59,4.16,4.16,0,0,0,1.63-1.62,4.6,4.6,0,0,0,.57-2.29,4.44,4.44,0,0,0-1.28-3.25A4.22,4.22,0,0,0,105,25.37Z"/><path d="M112.7,24.27h1.44V26.2a5.57,5.57,0,0,1,1.54-1.56A4.4,4.4,0,0,1,118,24a3.91,3.91,0,0,1,1.55.32,3.27,3.27,0,0,1,1.19.85,4.39,4.39,0,0,1,.8,1.52,5.36,5.36,0,0,1,1.8-2,4.3,4.3,0,0,1,2.32-.68,3.65,3.65,0,0,1,2,.59A3.5,3.5,0,0,1,129,26.2a8.91,8.91,0,0,1,.43,3.15v6.11H128V29.35a8,8,0,0,0-.26-2.47,2.23,2.23,0,0,0-.88-1.09,2.65,2.65,0,0,0-1.48-.41,3.16,3.16,0,0,0-1.91.62,3.57,3.57,0,0,0-1.27,1.64,10.64,10.64,0,0,0-.4,3.44v4.38h-1.44V29.73a9.75,9.75,0,0,0-.25-2.75,2.31,2.31,0,0,0-.88-1.16,2.5,2.5,0,0,0-1.49-.44,3.22,3.22,0,0,0-1.87.6,3.57,3.57,0,0,0-1.29,1.62,9,9,0,0,0-.41,3.12v4.74H112.7Z"/><path d="M136.53,24a5.56,5.56,0,0,1,4.29,1.87,6,6,0,0,1-.09,8.15,5.93,5.93,0,0,1-8.41,0,6,6,0,0,1-.09-8.14A5.56,5.56,0,0,1,136.53,24Zm0,1.41a4.12,4.12,0,0,0-3.08,1.33,4.42,4.42,0,0,0-1.29,3.21,4.56,4.56,0,0,0,.58,2.26,4.27,4.27,0,0,0,1.59,1.62,4.53,4.53,0,0,0,4.4,0,4.13,4.13,0,0,0,1.59-1.62,4.56,4.56,0,0,0,.59-2.26,4.39,4.39,0,0,0-1.3-3.21A4.14,4.14,0,0,0,136.52,25.39Z"/><path d="M143.24,24.27h1.47V25.9a5.19,5.19,0,0,1,1.39-1.44,2.5,2.5,0,0,1,2.8-.1l-.75,1.21a2,2,0,0,0-.77-.19A2.11,2.11,0,0,0,146,26a3.79,3.79,0,0,0-1,1.84,17.43,17.43,0,0,0-.27,3.87v3.78h-1.47Z"/><path d="M160,24.27V35.46h-1.42V33.54a6.16,6.16,0,0,1-2,1.65,5.5,5.5,0,0,1-2.47.56A5.44,5.44,0,0,1,150.06,34a5.76,5.76,0,0,1-1.69-4.2,5.66,5.66,0,0,1,1.7-4.13A5.52,5.52,0,0,1,154.16,24a5.26,5.26,0,0,1,2.49.59,5.61,5.61,0,0,1,2,1.76V24.27Zm-5.76,1.1a4.31,4.31,0,0,0-3.83,2.25,4.46,4.46,0,0,0-.61,2.26,4.59,4.59,0,0,0,.61,2.26,4.39,4.39,0,0,0,1.63,1.68,4.25,4.25,0,0,0,2.19.6,4.55,4.55,0,0,0,2.24-.59,4.16,4.16,0,0,0,1.63-1.62,4.6,4.6,0,0,0,.57-2.29,4.44,4.44,0,0,0-1.28-3.25A4.22,4.22,0,0,0,154.27,25.37Z"/><path d="M167.66,25.49l-.93,1a3.31,3.31,0,0,0-2.26-1.12,1.68,1.68,0,0,0-1.2.46,1.45,1.45,0,0,0-.5,1.08,1.63,1.63,0,0,0,.41,1,5.73,5.73,0,0,0,1.73,1.18,6.45,6.45,0,0,1,2.19,1.61,2.92,2.92,0,0,1,.57,1.76,3.15,3.15,0,0,1-1,2.33,3.32,3.32,0,0,1-2.42,1,4.21,4.21,0,0,1-1.85-.42A4,4,0,0,1,161,34.17l.9-1a3.15,3.15,0,0,0,2.34,1.24,2.12,2.12,0,0,0,1.48-.55,1.71,1.71,0,0,0,.21-2.41,6.45,6.45,0,0,0-1.82-1.2A5.72,5.72,0,0,1,162,28.68a2.88,2.88,0,0,1-.55-1.74,2.84,2.84,0,0,1,.87-2.12,3,3,0,0,1,2.2-.84A4.58,4.58,0,0,1,167.66,25.49Z"/><path d="M27.58,39.62c-7.25,0-13.13-5.6-13.13-12.51S20.33,14.6,27.58,14.6a13.46,13.46,0,0,1,8.73,3.17A15.66,15.66,0,0,0,25,13.09c-8.39,0-15.21,6.37-15.21,14.23S16.65,41.56,25,41.56a15.4,15.4,0,0,0,13.14-7.08,13.31,13.31,0,0,1-10.6,5.14"/><path d="M17.65,32.46h4.41a12.6,12.6,0,0,1,9.57-12.67,15.12,15.12,0,0,0-2.51-.23c-7.31,0-12.27,5.7-11.47,12.9"/><path d="M25.22,32.46h4.41a12.59,12.59,0,0,1,9.56-12.67,14.9,14.9,0,0,0-2.5-.23c-7.32,0-12.28,5.7-11.47,12.9"/><path d="M32.79,32.46H37.2a12.59,12.59,0,0,1,9.56-12.67,14.9,14.9,0,0,0-2.5-.23c-7.32,0-12.28,5.7-11.47,12.9"/></svg>